<?xml version="1.0" encoding="utf-8" standalone="no"?>
<!DOCTYPE svg PUBLIC "-//W3C//DTD SVG 1.1//EN"
  "http://www.w3.org/Graphics/SVG/1.1/DTD/svg11.dtd">
<svg xmlns:xlink="http://www.w3.org/1999/xlink" width="400.785625pt" height="300.989344pt" viewBox="0 0 400.785625 300.989344" xmlns="http://www.w3.org/2000/svg" version="1.1">
 <metadata>
  <rdf:RDF xmlns:dc="http://purl.org/dc/elements/1.1/" xmlns:cc="http://creativecommons.org/ns#" xmlns:rdf="http://www.w3.org/1999/02/22-rdf-syntax-ns#">
   <cc:Work>
    <dc:type rdf:resource="http://purl.org/dc/dcmitype/StillImage"/>
    <dc:date>2025-04-08T13:51:35.695498</dc:date>
    <dc:format>image/svg+xml</dc:format>
    <dc:creator>
     <cc:Agent>
      <dc:title>Matplotlib v3.10.1, https://matplotlib.org/</dc:title>
     </cc:Agent>
    </dc:creator>
   </cc:Work>
  </rdf:RDF>
 </metadata>
 <defs>
  <style type="text/css">*{stroke-linejoin: round; stroke-linecap: butt}</style>
 </defs>
 <g id="figure_1">
  <g id="patch_1">
   <path d="M 0 300.989344 
L 400.785625 300.989344 
L 400.785625 0 
L 0 0 
z
" style="fill: #ffffff"/>
  </g>
  <g id="axes_1">
   <g id="patch_2">
    <path d="M 30.103125 277.111219 
L 387.223125 277.111219 
L 387.223125 10.999219 
L 30.103125 10.999219 
z
" style="fill: #ffffff"/>
   </g>
   <g id="matplotlib.axis_1">
    <g id="xtick_1">
     <g id="line2d_1">
      <path d="M 30.103125 277.111219 
L 30.103125 10.999219 
" clip-path="url(#p35e5fc73c2)" style="fill: none; stroke: #b0b0b0; stroke-width: 0.8; stroke-linecap: square"/>
     </g>
     <g id="line2d_2">
      <defs>
       <path id="m8387db4af1" d="M 0 0 
L 0 3.5 
" style="stroke: #000000; stroke-width: 0.8"/>
      </defs>
      <g>
       <use xlink:href="#m8387db4af1" x="30.103125" y="277.111219" style="stroke: #000000; stroke-width: 0.8"/>
      </g>
     </g>
     <g id="text_1">
      <!-- 0 -->
      <g transform="translate(26.921875 291.709656) scale(0.1 -0.1)">
       <defs>
        <path id="DejaVuSans-30" d="M 2034 4250 
Q 1547 4250 1301 3770 
Q 1056 3291 1056 2328 
Q 1056 1369 1301 889 
Q 1547 409 2034 409 
Q 2525 409 2770 889 
Q 3016 1369 3016 2328 
Q 3016 3291 2770 3770 
Q 2525 4250 2034 4250 
z
M 2034 4750 
Q 2819 4750 3233 4129 
Q 3647 3509 3647 2328 
Q 3647 1150 3233 529 
Q 2819 -91 2034 -91 
Q 1250 -91 836 529 
Q 422 1150 422 2328 
Q 422 3509 836 4129 
Q 1250 4750 2034 4750 
z
" transform="scale(0.015625)"/>
       </defs>
       <use xlink:href="#DejaVuSans-30"/>
      </g>
     </g>
    </g>
    <g id="xtick_2">
     <g id="line2d_3">
      <path d="M 101.527125 277.111219 
L 101.527125 10.999219 
" clip-path="url(#p35e5fc73c2)" style="fill: none; stroke: #b0b0b0; stroke-width: 0.8; stroke-linecap: square"/>
     </g>
     <g id="line2d_4">
      <g>
       <use xlink:href="#m8387db4af1" x="101.527125" y="277.111219" style="stroke: #000000; stroke-width: 0.8"/>
      </g>
     </g>
     <g id="text_2">
      <!-- 2 -->
      <g transform="translate(98.345875 291.709656) scale(0.1 -0.1)">
       <defs>
        <path id="DejaVuSans-32" d="M 1228 531 
L 3431 531 
L 3431 0 
L 469 0 
L 469 531 
Q 828 903 1448 1529 
Q 2069 2156 2228 2338 
Q 2531 2678 2651 2914 
Q 2772 3150 2772 3378 
Q 2772 3750 2511 3984 
Q 2250 4219 1831 4219 
Q 1534 4219 1204 4116 
Q 875 4013 500 3803 
L 500 4441 
Q 881 4594 1212 4672 
Q 1544 4750 1819 4750 
Q 2544 4750 2975 4387 
Q 3406 4025 3406 3419 
Q 3406 3131 3298 2873 
Q 3191 2616 2906 2266 
Q 2828 2175 2409 1742 
Q 1991 1309 1228 531 
z
" transform="scale(0.015625)"/>
       </defs>
       <use xlink:href="#DejaVuSans-32"/>
      </g>
     </g>
    </g>
    <g id="xtick_3">
     <g id="line2d_5">
      <path d="M 172.951125 277.111219 
L 172.951125 10.999219 
" clip-path="url(#p35e5fc73c2)" style="fill: none; stroke: #b0b0b0; stroke-width: 0.8; stroke-linecap: square"/>
     </g>
     <g id="line2d_6">
      <g>
       <use xlink:href="#m8387db4af1" x="172.951125" y="277.111219" style="stroke: #000000; stroke-width: 0.8"/>
      </g>
     </g>
     <g id="text_3">
      <!-- 4 -->
      <g transform="translate(169.769875 291.709656) scale(0.1 -0.1)">
       <defs>
        <path id="DejaVuSans-34" d="M 2419 4116 
L 825 1625 
L 2419 1625 
L 2419 4116 
z
M 2253 4666 
L 3047 4666 
L 3047 1625 
L 3713 1625 
L 3713 1100 
L 3047 1100 
L 3047 0 
L 2419 0 
L 2419 1100 
L 313 1100 
L 313 1709 
L 2253 4666 
z
" transform="scale(0.015625)"/>
       </defs>
       <use xlink:href="#DejaVuSans-34"/>
      </g>
     </g>
    </g>
    <g id="xtick_4">
     <g id="line2d_7">
      <path d="M 244.375125 277.111219 
L 244.375125 10.999219 
" clip-path="url(#p35e5fc73c2)" style="fill: none; stroke: #b0b0b0; stroke-width: 0.8; stroke-linecap: square"/>
     </g>
     <g id="line2d_8">
      <g>
       <use xlink:href="#m8387db4af1" x="244.375125" y="277.111219" style="stroke: #000000; stroke-width: 0.8"/>
      </g>
     </g>
     <g id="text_4">
      <!-- 6 -->
      <g transform="translate(241.193875 291.709656) scale(0.1 -0.1)">
       <defs>
        <path id="DejaVuSans-36" d="M 2113 2584 
Q 1688 2584 1439 2293 
Q 1191 2003 1191 1497 
Q 1191 994 1439 701 
Q 1688 409 2113 409 
Q 2538 409 2786 701 
Q 3034 994 3034 1497 
Q 3034 2003 2786 2293 
Q 2538 2584 2113 2584 
z
M 3366 4563 
L 3366 3988 
Q 3128 4100 2886 4159 
Q 2644 4219 2406 4219 
Q 1781 4219 1451 3797 
Q 1122 3375 1075 2522 
Q 1259 2794 1537 2939 
Q 1816 3084 2150 3084 
Q 2853 3084 3261 2657 
Q 3669 2231 3669 1497 
Q 3669 778 3244 343 
Q 2819 -91 2113 -91 
Q 1303 -91 875 529 
Q 447 1150 447 2328 
Q 447 3434 972 4092 
Q 1497 4750 2381 4750 
Q 2619 4750 2861 4703 
Q 3103 4656 3366 4563 
z
" transform="scale(0.015625)"/>
       </defs>
       <use xlink:href="#DejaVuSans-36"/>
      </g>
     </g>
    </g>
    <g id="xtick_5">
     <g id="line2d_9">
      <path d="M 315.799125 277.111219 
L 315.799125 10.999219 
" clip-path="url(#p35e5fc73c2)" style="fill: none; stroke: #b0b0b0; stroke-width: 0.8; stroke-linecap: square"/>
     </g>
     <g id="line2d_10">
      <g>
       <use xlink:href="#m8387db4af1" x="315.799125" y="277.111219" style="stroke: #000000; stroke-width: 0.8"/>
      </g>
     </g>
     <g id="text_5">
      <!-- 8 -->
      <g transform="translate(312.617875 291.709656) scale(0.1 -0.1)">
       <defs>
        <path id="DejaVuSans-38" d="M 2034 2216 
Q 1584 2216 1326 1975 
Q 1069 1734 1069 1313 
Q 1069 891 1326 650 
Q 1584 409 2034 409 
Q 2484 409 2743 651 
Q 3003 894 3003 1313 
Q 3003 1734 2745 1975 
Q 2488 2216 2034 2216 
z
M 1403 2484 
Q 997 2584 770 2862 
Q 544 3141 544 3541 
Q 544 4100 942 4425 
Q 1341 4750 2034 4750 
Q 2731 4750 3128 4425 
Q 3525 4100 3525 3541 
Q 3525 3141 3298 2862 
Q 3072 2584 2669 2484 
Q 3125 2378 3379 2068 
Q 3634 1759 3634 1313 
Q 3634 634 3220 271 
Q 2806 -91 2034 -91 
Q 1263 -91 848 271 
Q 434 634 434 1313 
Q 434 1759 690 2068 
Q 947 2378 1403 2484 
z
M 1172 3481 
Q 1172 3119 1398 2916 
Q 1625 2713 2034 2713 
Q 2441 2713 2670 2916 
Q 2900 3119 2900 3481 
Q 2900 3844 2670 4047 
Q 2441 4250 2034 4250 
Q 1625 4250 1398 4047 
Q 1172 3844 1172 3481 
z
" transform="scale(0.015625)"/>
       </defs>
       <use xlink:href="#DejaVuSans-38"/>
      </g>
     </g>
    </g>
    <g id="xtick_6">
     <g id="line2d_11">
      <path d="M 387.223125 277.111219 
L 387.223125 10.999219 
" clip-path="url(#p35e5fc73c2)" style="fill: none; stroke: #b0b0b0; stroke-width: 0.8; stroke-linecap: square"/>
     </g>
     <g id="line2d_12">
      <g>
       <use xlink:href="#m8387db4af1" x="387.223125" y="277.111219" style="stroke: #000000; stroke-width: 0.8"/>
      </g>
     </g>
     <g id="text_6">
      <!-- 10 -->
      <g transform="translate(380.860625 291.709656) scale(0.1 -0.1)">
       <defs>
        <path id="DejaVuSans-31" d="M 794 531 
L 1825 531 
L 1825 4091 
L 703 3866 
L 703 4441 
L 1819 4666 
L 2450 4666 
L 2450 531 
L 3481 531 
L 3481 0 
L 794 0 
L 794 531 
z
" transform="scale(0.015625)"/>
       </defs>
       <use xlink:href="#DejaVuSans-31"/>
       <use xlink:href="#DejaVuSans-30" transform="translate(63.623047 0)"/>
      </g>
     </g>
    </g>
   </g>
   <g id="matplotlib.axis_2">
    <g id="ytick_1">
     <g id="line2d_13">
      <path d="M 30.103125 277.111219 
L 387.223125 277.111219 
" clip-path="url(#p35e5fc73c2)" style="fill: none; stroke: #b0b0b0; stroke-width: 0.8; stroke-linecap: square"/>
     </g>
     <g id="line2d_14">
      <defs>
       <path id="m2b944e9734" d="M 0 0 
L -3.5 0 
" style="stroke: #000000; stroke-width: 0.8"/>
      </defs>
      <g>
       <use xlink:href="#m2b944e9734" x="30.103125" y="277.111219" style="stroke: #000000; stroke-width: 0.8"/>
      </g>
     </g>
     <g id="text_7">
      <!-- 0.0 -->
      <g transform="translate(7.2 280.910437) scale(0.1 -0.1)">
       <defs>
        <path id="DejaVuSans-2e" d="M 684 794 
L 1344 794 
L 1344 0 
L 684 0 
L 684 794 
z
" transform="scale(0.015625)"/>
       </defs>
       <use xlink:href="#DejaVuSans-30"/>
       <use xlink:href="#DejaVuSans-2e" transform="translate(63.623047 0)"/>
       <use xlink:href="#DejaVuSans-30" transform="translate(95.410156 0)"/>
      </g>
     </g>
    </g>
    <g id="ytick_2">
     <g id="line2d_15">
      <path d="M 30.103125 223.888819 
L 387.223125 223.888819 
" clip-path="url(#p35e5fc73c2)" style="fill: none; stroke: #b0b0b0; stroke-width: 0.8; stroke-linecap: square"/>
     </g>
     <g id="line2d_16">
      <g>
       <use xlink:href="#m2b944e9734" x="30.103125" y="223.888819" style="stroke: #000000; stroke-width: 0.8"/>
      </g>
     </g>
     <g id="text_8">
      <!-- 0.2 -->
      <g transform="translate(7.2 227.688037) scale(0.1 -0.1)">
       <use xlink:href="#DejaVuSans-30"/>
       <use xlink:href="#DejaVuSans-2e" transform="translate(63.623047 0)"/>
       <use xlink:href="#DejaVuSans-32" transform="translate(95.410156 0)"/>
      </g>
     </g>
    </g>
    <g id="ytick_3">
     <g id="line2d_17">
      <path d="M 30.103125 170.666419 
L 387.223125 170.666419 
" clip-path="url(#p35e5fc73c2)" style="fill: none; stroke: #b0b0b0; stroke-width: 0.8; stroke-linecap: square"/>
     </g>
     <g id="line2d_18">
      <g>
       <use xlink:href="#m2b944e9734" x="30.103125" y="170.666419" style="stroke: #000000; stroke-width: 0.8"/>
      </g>
     </g>
     <g id="text_9">
      <!-- 0.4 -->
      <g transform="translate(7.2 174.465637) scale(0.1 -0.1)">
       <use xlink:href="#DejaVuSans-30"/>
       <use xlink:href="#DejaVuSans-2e" transform="translate(63.623047 0)"/>
       <use xlink:href="#DejaVuSans-34" transform="translate(95.410156 0)"/>
      </g>
     </g>
    </g>
    <g id="ytick_4">
     <g id="line2d_19">
      <path d="M 30.103125 117.444019 
L 387.223125 117.444019 
" clip-path="url(#p35e5fc73c2)" style="fill: none; stroke: #b0b0b0; stroke-width: 0.8; stroke-linecap: square"/>
     </g>
     <g id="line2d_20">
      <g>
       <use xlink:href="#m2b944e9734" x="30.103125" y="117.444019" style="stroke: #000000; stroke-width: 0.8"/>
      </g>
     </g>
     <g id="text_10">
      <!-- 0.6 -->
      <g transform="translate(7.2 121.243237) scale(0.1 -0.1)">
       <use xlink:href="#DejaVuSans-30"/>
       <use xlink:href="#DejaVuSans-2e" transform="translate(63.623047 0)"/>
       <use xlink:href="#DejaVuSans-36" transform="translate(95.410156 0)"/>
      </g>
     </g>
    </g>
    <g id="ytick_5">
     <g id="line2d_21">
      <path d="M 30.103125 64.221619 
L 387.223125 64.221619 
" clip-path="url(#p35e5fc73c2)" style="fill: none; stroke: #b0b0b0; stroke-width: 0.8; stroke-linecap: square"/>
     </g>
     <g id="line2d_22">
      <g>
       <use xlink:href="#m2b944e9734" x="30.103125" y="64.221619" style="stroke: #000000; stroke-width: 0.8"/>
      </g>
     </g>
     <g id="text_11">
      <!-- 0.8 -->
      <g transform="translate(7.2 68.020837) scale(0.1 -0.1)">
       <use xlink:href="#DejaVuSans-30"/>
       <use xlink:href="#DejaVuSans-2e" transform="translate(63.623047 0)"/>
       <use xlink:href="#DejaVuSans-38" transform="translate(95.410156 0)"/>
      </g>
     </g>
    </g>
    <g id="ytick_6">
     <g id="line2d_23">
      <path d="M 30.103125 10.999219 
L 387.223125 10.999219 
" clip-path="url(#p35e5fc73c2)" style="fill: none; stroke: #b0b0b0; stroke-width: 0.8; stroke-linecap: square"/>
     </g>
     <g id="line2d_24">
      <g>
       <use xlink:href="#m2b944e9734" x="30.103125" y="10.999219" style="stroke: #000000; stroke-width: 0.8"/>
      </g>
     </g>
     <g id="text_12">
      <!-- 1.0 -->
      <g transform="translate(7.2 14.798437) scale(0.1 -0.1)">
       <use xlink:href="#DejaVuSans-31"/>
       <use xlink:href="#DejaVuSans-2e" transform="translate(63.623047 0)"/>
       <use xlink:href="#DejaVuSans-30" transform="translate(95.410156 0)"/>
      </g>
     </g>
    </g>
   </g>
   <g id="line2d_25">
    <path d="M 32.893125 270.580503 
L 35.683125 270.580503 
L 35.683125 257.534806 
L 41.263125 257.534806 
L 41.263125 244.536269 
L 46.843125 244.536269 
L 46.843125 231.616209 
L 52.423125 231.616209 
L 52.423125 218.80575 
L 58.003125 218.80575 
L 58.003125 206.135753 
L 63.583125 206.135753 
L 63.583125 193.636743 
L 69.163125 193.636743 
L 69.163125 181.338831 
L 74.743125 181.338831 
L 74.743125 169.271642 
L 80.323125 169.271642 
L 80.323125 157.464249 
L 85.903125 157.464249 
L 85.903125 145.945095 
L 91.483125 145.945095 
L 91.483125 134.741932 
L 97.063125 134.741932 
L 97.063125 123.881749 
L 102.643125 123.881749 
L 102.643125 113.39071 
L 108.223125 113.39071 
L 108.223125 103.294087 
L 113.803125 103.294087 
L 113.803125 93.616205 
L 119.383125 93.616205 
L 119.383125 84.380379 
L 124.963125 84.380379 
L 124.963125 75.608858 
L 130.543125 75.608858 
L 130.543125 67.322774 
L 136.123125 67.322774 
L 136.123125 59.542089 
L 141.703125 59.542089 
L 141.703125 52.285547 
L 147.283125 52.285547 
L 147.283125 45.570629 
L 152.863125 45.570629 
L 152.863125 39.413514 
L 158.443125 39.413514 
L 158.443125 33.829032 
L 164.023125 33.829032 
L 164.023125 28.830639 
L 169.603125 28.830639 
L 169.603125 24.430376 
L 175.183125 24.430376 
L 175.183125 20.638842 
L 180.763125 20.638842 
L 180.763125 17.465174 
L 186.343125 17.465174 
L 186.343125 14.917015 
L 191.923125 14.917015 
L 191.923125 13.000505 
L 197.503125 13.000505 
L 197.503125 11.720261 
L 203.083125 11.720261 
L 203.083125 11.079367 
L 214.243125 11.079367 
L 214.243125 11.720261 
L 219.823125 11.720261 
L 219.823125 13.000505 
L 225.403125 13.000505 
L 225.403125 14.917015 
L 230.983125 14.917015 
L 230.983125 17.465174 
L 236.563125 17.465174 
L 236.563125 20.638842 
L 242.143125 20.638842 
L 242.143125 24.430376 
L 247.723125 24.430376 
L 247.723125 28.830639 
L 253.303125 28.830639 
L 253.303125 33.829032 
L 258.883125 33.829032 
L 258.883125 39.413514 
L 264.463125 39.413514 
L 264.463125 45.570629 
L 270.043125 45.570629 
L 270.043125 52.285547 
L 275.623125 52.285547 
L 275.623125 59.542089 
L 281.203125 59.542089 
L 281.203125 67.322774 
L 286.783125 67.322774 
L 286.783125 75.608858 
L 292.363125 75.608858 
L 292.363125 84.380379 
L 297.943125 84.380379 
L 297.943125 93.616205 
L 303.523125 93.616205 
L 303.523125 103.294087 
L 309.103125 103.294087 
L 309.103125 113.39071 
L 314.683125 113.39071 
L 314.683125 123.881749 
L 320.263125 123.881749 
L 320.263125 134.741932 
L 325.843125 134.741932 
L 325.843125 145.945095 
L 331.423125 145.945095 
L 331.423125 157.464249 
L 337.003125 157.464249 
L 337.003125 169.271642 
L 342.583125 169.271642 
L 342.583125 181.338831 
L 348.163125 181.338831 
L 348.163125 193.636743 
L 353.743125 193.636743 
L 353.743125 206.135753 
L 359.323125 206.135753 
L 359.323125 218.80575 
L 364.903125 218.80575 
L 364.903125 231.616209 
L 370.483125 231.616209 
L 370.483125 244.536269 
L 376.063125 244.536269 
L 376.063125 257.534806 
L 381.643125 257.534806 
L 381.643125 270.580503 
L 384.433125 270.580503 
L 384.433125 270.580503 
" clip-path="url(#p35e5fc73c2)" style="fill: none; stroke: #1f77b4; stroke-width: 1.5; stroke-linecap: square"/>
   </g>
   <g id="line2d_26">
    <path d="M 32.893125 273.12423 
L 35.683125 273.12423 
L 35.683125 265.159857 
L 41.263125 265.159857 
L 41.263125 257.224276 
L 46.843125 257.224276 
L 46.843125 249.336605 
L 52.423125 249.336605 
L 52.423125 241.515845 
L 58.003125 241.515845 
L 58.003125 233.780837 
L 63.583125 233.780837 
L 63.583125 226.150216 
L 69.163125 226.150216 
L 69.163125 218.642365 
L 74.743125 218.642365 
L 74.743125 211.27537 
L 80.323125 211.27537 
L 80.323125 204.06698 
L 85.903125 204.06698 
L 85.903125 197.034559 
L 91.483125 197.034559 
L 91.483125 190.19505 
L 97.063125 190.19505 
L 97.063125 183.56493 
L 102.643125 183.56493 
L 102.643125 177.160171 
L 108.223125 177.160171 
L 108.223125 170.996203 
L 113.803125 170.996203 
L 113.803125 165.087875 
L 119.383125 165.087875 
L 119.383125 159.449422 
L 124.963125 159.449422 
L 124.963125 154.094426 
L 130.543125 154.094426 
L 130.543125 149.035788 
L 136.123125 149.035788 
L 136.123125 144.285695 
L 141.703125 144.285695 
L 141.703125 139.85559 
L 147.283125 139.85559 
L 147.283125 135.756146 
L 152.863125 135.756146 
L 152.863125 131.997239 
L 158.443125 131.997239 
L 158.443125 128.587924 
L 164.023125 128.587924 
L 164.023125 125.536415 
L 169.603125 125.536415 
L 169.603125 122.850063 
L 175.183125 122.850063 
L 175.183125 120.535339 
L 180.763125 120.535339 
L 180.763125 118.597821 
L 186.343125 118.597821 
L 186.343125 117.042175 
L 191.923125 117.042175 
L 191.923125 115.872149 
L 197.503125 115.872149 
L 197.503125 115.090563 
L 203.083125 115.090563 
L 203.083125 114.699298 
L 214.243125 114.699298 
L 214.243125 115.090563 
L 219.823125 115.090563 
L 219.823125 115.872149 
L 225.403125 115.872149 
L 225.403125 117.042175 
L 230.983125 117.042175 
L 230.983125 118.597821 
L 236.563125 118.597821 
L 236.563125 120.535339 
L 242.143125 120.535339 
L 242.143125 122.850063 
L 247.723125 122.850063 
L 247.723125 125.536415 
L 253.303125 125.536415 
L 253.303125 128.587924 
L 258.883125 128.587924 
L 258.883125 131.997239 
L 264.463125 131.997239 
L 264.463125 135.756146 
L 270.043125 135.756146 
L 270.043125 139.85559 
L 275.623125 139.85559 
L 275.623125 144.285695 
L 281.203125 144.285695 
L 281.203125 149.035788 
L 286.783125 149.035788 
L 286.783125 154.094426 
L 292.363125 154.094426 
L 292.363125 159.449422 
L 297.943125 159.449422 
L 297.943125 165.087875 
L 303.523125 165.087875 
L 303.523125 170.996203 
L 309.103125 170.996203 
L 309.103125 177.160171 
L 314.683125 177.160171 
L 314.683125 183.56493 
L 320.263125 183.56493 
L 320.263125 190.19505 
L 325.843125 190.19505 
L 325.843125 197.034559 
L 331.423125 197.034559 
L 331.423125 204.06698 
L 337.003125 204.06698 
L 337.003125 211.27537 
L 342.583125 211.27537 
L 342.583125 218.642365 
L 348.163125 218.642365 
L 348.163125 226.150216 
L 353.743125 226.150216 
L 353.743125 233.780837 
L 359.323125 233.780837 
L 359.323125 241.515845 
L 364.903125 241.515845 
L 364.903125 249.336605 
L 370.483125 249.336605 
L 370.483125 257.224276 
L 376.063125 257.224276 
L 376.063125 265.159857 
L 381.643125 265.159857 
L 381.643125 273.12423 
L 384.433125 273.12423 
L 384.433125 273.12423 
" clip-path="url(#p35e5fc73c2)" style="fill: none; stroke: #ff7f0e; stroke-width: 1.5; stroke-linecap: square"/>
   </g>
   <g id="line2d_27">
    <path d="M 32.893125 270.580503 
L 35.683125 270.580503 
L 35.683125 264.539983 
L 41.263125 264.539983 
L 41.263125 257.96611 
L 46.843125 257.96611 
L 46.843125 251.103659 
L 52.423125 251.103659 
L 52.423125 244.082363 
L 58.003125 244.082363 
L 58.003125 236.982829 
L 63.583125 236.982829 
L 63.583125 229.861659 
L 69.163125 229.861659 
L 69.163125 222.762441 
L 74.743125 222.762441 
L 74.743125 215.721087 
L 80.323125 215.721087 
L 80.323125 208.768639 
L 85.903125 208.768639 
L 85.903125 201.932836 
L 91.483125 201.932836 
L 91.483125 195.239035 
L 97.063125 195.239035 
L 97.063125 188.710763 
L 102.643125 188.710763 
L 102.643125 182.370063 
L 108.223125 182.370063 
L 108.223125 176.237705 
L 113.803125 176.237705 
L 113.803125 170.33332 
L 119.383125 170.33332 
L 119.383125 164.675486 
L 124.963125 164.675486 
L 124.963125 159.281772 
L 130.543125 159.281772 
L 130.543125 154.168765 
L 136.123125 154.168765 
L 136.123125 149.352079 
L 141.703125 149.352079 
L 141.703125 144.846357 
L 147.283125 144.846357 
L 147.283125 140.665263 
L 152.863125 140.665263 
L 152.863125 136.821476 
L 158.443125 136.821476 
L 158.443125 133.326672 
L 164.023125 133.326672 
L 164.023125 130.191513 
L 169.603125 130.191513 
L 169.603125 127.425633 
L 175.183125 127.425633 
L 175.183125 125.037625 
L 180.763125 125.037625 
L 180.763125 123.035029 
L 186.343125 123.035029 
L 186.343125 121.42432 
L 191.923125 121.42432 
L 191.923125 120.210897 
L 197.503125 120.210897 
L 197.503125 119.39908 
L 203.083125 119.39908 
L 203.083125 118.9921 
L 214.243125 118.9921 
L 214.243125 119.39908 
L 219.823125 119.39908 
L 219.823125 120.210897 
L 225.403125 120.210897 
L 225.403125 121.42432 
L 230.983125 121.42432 
L 230.983125 123.035029 
L 236.563125 123.035029 
L 236.563125 125.037625 
L 242.143125 125.037625 
L 242.143125 127.425633 
L 247.723125 127.425633 
L 247.723125 130.191513 
L 253.303125 130.191513 
L 253.303125 133.326672 
L 258.883125 133.326672 
L 258.883125 136.821476 
L 264.463125 136.821476 
L 264.463125 140.665263 
L 270.043125 140.665263 
L 270.043125 144.846357 
L 275.623125 144.846357 
L 275.623125 149.352079 
L 281.203125 149.352079 
L 281.203125 154.168765 
L 286.783125 154.168765 
L 286.783125 159.281772 
L 292.363125 159.281772 
L 292.363125 164.675486 
L 297.943125 164.675486 
L 297.943125 170.33332 
L 303.523125 170.33332 
L 303.523125 176.237705 
L 309.103125 176.237705 
L 309.103125 182.370063 
L 314.683125 182.370063 
L 314.683125 188.710763 
L 320.263125 188.710763 
L 320.263125 195.239035 
L 325.843125 195.239035 
L 325.843125 201.932836 
L 331.423125 201.932836 
L 331.423125 208.768639 
L 337.003125 208.768639 
L 337.003125 215.721087 
L 342.583125 215.721087 
L 342.583125 222.762441 
L 348.163125 222.762441 
L 348.163125 229.861659 
L 353.743125 229.861659 
L 353.743125 236.982829 
L 359.323125 236.982829 
L 359.323125 244.082363 
L 364.903125 244.082363 
L 364.903125 251.103659 
L 370.483125 251.103659 
L 370.483125 257.96611 
L 376.063125 257.96611 
L 376.063125 264.539983 
L 381.643125 264.539983 
L 381.643125 270.580503 
L 384.433125 270.580503 
L 384.433125 270.580503 
" clip-path="url(#p35e5fc73c2)" style="fill: none; stroke: #2ca02c; stroke-width: 1.5; stroke-linecap: square"/>
   </g>
   <g id="patch_3">
    <path d="M 30.103125 277.111219 
L 30.103125 10.999219 
" style="fill: none; stroke: #000000; stroke-width: 0.8; stroke-linejoin: miter; stroke-linecap: square"/>
   </g>
   <g id="patch_4">
    <path d="M 387.223125 277.111219 
L 387.223125 10.999219 
" style="fill: none; stroke: #000000; stroke-width: 0.8; stroke-linejoin: miter; stroke-linecap: square"/>
   </g>
   <g id="patch_5">
    <path d="M 30.103125 277.111219 
L 387.223125 277.111219 
" style="fill: none; stroke: #000000; stroke-width: 0.8; stroke-linejoin: miter; stroke-linecap: square"/>
   </g>
   <g id="patch_6">
    <path d="M 30.103125 10.999219 
L 387.223125 10.999219 
" style="fill: none; stroke: #000000; stroke-width: 0.8; stroke-linejoin: miter; stroke-linecap: square"/>
   </g>
   <g id="legend_1">
    <g id="patch_7">
     <path d="M 109.756094 272.111219 
L 307.570156 272.111219 
Q 309.570156 272.111219 309.570156 270.111219 
L 309.570156 226.798719 
Q 309.570156 224.798719 307.570156 224.798719 
L 109.756094 224.798719 
Q 107.756094 224.798719 107.756094 226.798719 
L 107.756094 270.111219 
Q 107.756094 272.111219 109.756094 272.111219 
z
" style="fill: #ffffff; opacity: 0.8; stroke: #cccccc; stroke-linejoin: miter"/>
    </g>
    <g id="line2d_28">
     <path d="M 111.756094 232.897156 
L 116.756094 232.897156 
L 116.756094 232.897156 
L 126.756094 232.897156 
L 126.756094 232.897156 
L 131.756094 232.897156 
" style="fill: none; stroke: #1f77b4; stroke-width: 1.5; stroke-linecap: square"/>
    </g>
    <g id="text_13">
     <!-- initial (discretised) -->
     <g transform="translate(139.756094 236.397156) scale(0.1 -0.1)">
      <defs>
       <path id="DejaVuSans-69" d="M 603 3500 
L 1178 3500 
L 1178 0 
L 603 0 
L 603 3500 
z
M 603 4863 
L 1178 4863 
L 1178 4134 
L 603 4134 
L 603 4863 
z
" transform="scale(0.015625)"/>
       <path id="DejaVuSans-6e" d="M 3513 2113 
L 3513 0 
L 2938 0 
L 2938 2094 
Q 2938 2591 2744 2837 
Q 2550 3084 2163 3084 
Q 1697 3084 1428 2787 
Q 1159 2491 1159 1978 
L 1159 0 
L 581 0 
L 581 3500 
L 1159 3500 
L 1159 2956 
Q 1366 3272 1645 3428 
Q 1925 3584 2291 3584 
Q 2894 3584 3203 3211 
Q 3513 2838 3513 2113 
z
" transform="scale(0.015625)"/>
       <path id="DejaVuSans-74" d="M 1172 4494 
L 1172 3500 
L 2356 3500 
L 2356 3053 
L 1172 3053 
L 1172 1153 
Q 1172 725 1289 603 
Q 1406 481 1766 481 
L 2356 481 
L 2356 0 
L 1766 0 
Q 1100 0 847 248 
Q 594 497 594 1153 
L 594 3053 
L 172 3053 
L 172 3500 
L 594 3500 
L 594 4494 
L 1172 4494 
z
" transform="scale(0.015625)"/>
       <path id="DejaVuSans-61" d="M 2194 1759 
Q 1497 1759 1228 1600 
Q 959 1441 959 1056 
Q 959 750 1161 570 
Q 1363 391 1709 391 
Q 2188 391 2477 730 
Q 2766 1069 2766 1631 
L 2766 1759 
L 2194 1759 
z
M 3341 1997 
L 3341 0 
L 2766 0 
L 2766 531 
Q 2569 213 2275 61 
Q 1981 -91 1556 -91 
Q 1019 -91 701 211 
Q 384 513 384 1019 
Q 384 1609 779 1909 
Q 1175 2209 1959 2209 
L 2766 2209 
L 2766 2266 
Q 2766 2663 2505 2880 
Q 2244 3097 1772 3097 
Q 1472 3097 1187 3025 
Q 903 2953 641 2809 
L 641 3341 
Q 956 3463 1253 3523 
Q 1550 3584 1831 3584 
Q 2591 3584 2966 3190 
Q 3341 2797 3341 1997 
z
" transform="scale(0.015625)"/>
       <path id="DejaVuSans-6c" d="M 603 4863 
L 1178 4863 
L 1178 0 
L 603 0 
L 603 4863 
z
" transform="scale(0.015625)"/>
       <path id="DejaVuSans-20" transform="scale(0.015625)"/>
       <path id="DejaVuSans-28" d="M 1984 4856 
Q 1566 4138 1362 3434 
Q 1159 2731 1159 2009 
Q 1159 1288 1364 580 
Q 1569 -128 1984 -844 
L 1484 -844 
Q 1016 -109 783 600 
Q 550 1309 550 2009 
Q 550 2706 781 3412 
Q 1013 4119 1484 4856 
L 1984 4856 
z
" transform="scale(0.015625)"/>
       <path id="DejaVuSans-64" d="M 2906 2969 
L 2906 4863 
L 3481 4863 
L 3481 0 
L 2906 0 
L 2906 525 
Q 2725 213 2448 61 
Q 2172 -91 1784 -91 
Q 1150 -91 751 415 
Q 353 922 353 1747 
Q 353 2572 751 3078 
Q 1150 3584 1784 3584 
Q 2172 3584 2448 3432 
Q 2725 3281 2906 2969 
z
M 947 1747 
Q 947 1113 1208 752 
Q 1469 391 1925 391 
Q 2381 391 2643 752 
Q 2906 1113 2906 1747 
Q 2906 2381 2643 2742 
Q 2381 3103 1925 3103 
Q 1469 3103 1208 2742 
Q 947 2381 947 1747 
z
" transform="scale(0.015625)"/>
       <path id="DejaVuSans-73" d="M 2834 3397 
L 2834 2853 
Q 2591 2978 2328 3040 
Q 2066 3103 1784 3103 
Q 1356 3103 1142 2972 
Q 928 2841 928 2578 
Q 928 2378 1081 2264 
Q 1234 2150 1697 2047 
L 1894 2003 
Q 2506 1872 2764 1633 
Q 3022 1394 3022 966 
Q 3022 478 2636 193 
Q 2250 -91 1575 -91 
Q 1294 -91 989 -36 
Q 684 19 347 128 
L 347 722 
Q 666 556 975 473 
Q 1284 391 1588 391 
Q 1994 391 2212 530 
Q 2431 669 2431 922 
Q 2431 1156 2273 1281 
Q 2116 1406 1581 1522 
L 1381 1569 
Q 847 1681 609 1914 
Q 372 2147 372 2553 
Q 372 3047 722 3315 
Q 1072 3584 1716 3584 
Q 2034 3584 2315 3537 
Q 2597 3491 2834 3397 
z
" transform="scale(0.015625)"/>
       <path id="DejaVuSans-63" d="M 3122 3366 
L 3122 2828 
Q 2878 2963 2633 3030 
Q 2388 3097 2138 3097 
Q 1578 3097 1268 2742 
Q 959 2388 959 1747 
Q 959 1106 1268 751 
Q 1578 397 2138 397 
Q 2388 397 2633 464 
Q 2878 531 3122 666 
L 3122 134 
Q 2881 22 2623 -34 
Q 2366 -91 2075 -91 
Q 1284 -91 818 406 
Q 353 903 353 1747 
Q 353 2603 823 3093 
Q 1294 3584 2113 3584 
Q 2378 3584 2631 3529 
Q 2884 3475 3122 3366 
z
" transform="scale(0.015625)"/>
       <path id="DejaVuSans-72" d="M 2631 2963 
Q 2534 3019 2420 3045 
Q 2306 3072 2169 3072 
Q 1681 3072 1420 2755 
Q 1159 2438 1159 1844 
L 1159 0 
L 581 0 
L 581 3500 
L 1159 3500 
L 1159 2956 
Q 1341 3275 1631 3429 
Q 1922 3584 2338 3584 
Q 2397 3584 2469 3576 
Q 2541 3569 2628 3553 
L 2631 2963 
z
" transform="scale(0.015625)"/>
       <path id="DejaVuSans-65" d="M 3597 1894 
L 3597 1613 
L 953 1613 
Q 991 1019 1311 708 
Q 1631 397 2203 397 
Q 2534 397 2845 478 
Q 3156 559 3463 722 
L 3463 178 
Q 3153 47 2828 -22 
Q 2503 -91 2169 -91 
Q 1331 -91 842 396 
Q 353 884 353 1716 
Q 353 2575 817 3079 
Q 1281 3584 2069 3584 
Q 2775 3584 3186 3129 
Q 3597 2675 3597 1894 
z
M 3022 2063 
Q 3016 2534 2758 2815 
Q 2500 3097 2075 3097 
Q 1594 3097 1305 2825 
Q 1016 2553 972 2059 
L 3022 2063 
z
" transform="scale(0.015625)"/>
       <path id="DejaVuSans-29" d="M 513 4856 
L 1013 4856 
Q 1481 4119 1714 3412 
Q 1947 2706 1947 2009 
Q 1947 1309 1714 600 
Q 1481 -109 1013 -844 
L 513 -844 
Q 928 -128 1133 580 
Q 1338 1288 1338 2009 
Q 1338 2731 1133 3434 
Q 928 4138 513 4856 
z
" transform="scale(0.015625)"/>
      </defs>
      <use xlink:href="#DejaVuSans-69"/>
      <use xlink:href="#DejaVuSans-6e" transform="translate(27.783203 0)"/>
      <use xlink:href="#DejaVuSans-69" transform="translate(91.162109 0)"/>
      <use xlink:href="#DejaVuSans-74" transform="translate(118.945312 0)"/>
      <use xlink:href="#DejaVuSans-69" transform="translate(158.154297 0)"/>
      <use xlink:href="#DejaVuSans-61" transform="translate(185.9375 0)"/>
      <use xlink:href="#DejaVuSans-6c" transform="translate(247.216797 0)"/>
      <use xlink:href="#DejaVuSans-20" transform="translate(275 0)"/>
      <use xlink:href="#DejaVuSans-28" transform="translate(306.787109 0)"/>
      <use xlink:href="#DejaVuSans-64" transform="translate(345.800781 0)"/>
      <use xlink:href="#DejaVuSans-69" transform="translate(409.277344 0)"/>
      <use xlink:href="#DejaVuSans-73" transform="translate(437.060547 0)"/>
      <use xlink:href="#DejaVuSans-63" transform="translate(489.160156 0)"/>
      <use xlink:href="#DejaVuSans-72" transform="translate(544.140625 0)"/>
      <use xlink:href="#DejaVuSans-65" transform="translate(583.003906 0)"/>
      <use xlink:href="#DejaVuSans-74" transform="translate(644.527344 0)"/>
      <use xlink:href="#DejaVuSans-69" transform="translate(683.736328 0)"/>
      <use xlink:href="#DejaVuSans-73" transform="translate(711.519531 0)"/>
      <use xlink:href="#DejaVuSans-65" transform="translate(763.619141 0)"/>
      <use xlink:href="#DejaVuSans-64" transform="translate(825.142578 0)"/>
      <use xlink:href="#DejaVuSans-29" transform="translate(888.619141 0)"/>
     </g>
    </g>
    <g id="line2d_29">
     <path d="M 111.756094 247.575281 
L 116.756094 247.575281 
L 116.756094 247.575281 
L 126.756094 247.575281 
L 126.756094 247.575281 
L 131.756094 247.575281 
" style="fill: none; stroke: #ff7f0e; stroke-width: 1.5; stroke-linecap: square"/>
    </g>
    <g id="text_14">
     <!-- analytical (discretised) -->
     <g transform="translate(139.756094 251.075281) scale(0.1 -0.1)">
      <defs>
       <path id="DejaVuSans-79" d="M 2059 -325 
Q 1816 -950 1584 -1140 
Q 1353 -1331 966 -1331 
L 506 -1331 
L 506 -850 
L 844 -850 
Q 1081 -850 1212 -737 
Q 1344 -625 1503 -206 
L 1606 56 
L 191 3500 
L 800 3500 
L 1894 763 
L 2988 3500 
L 3597 3500 
L 2059 -325 
z
" transform="scale(0.015625)"/>
      </defs>
      <use xlink:href="#DejaVuSans-61"/>
      <use xlink:href="#DejaVuSans-6e" transform="translate(61.279297 0)"/>
      <use xlink:href="#DejaVuSans-61" transform="translate(124.658203 0)"/>
      <use xlink:href="#DejaVuSans-6c" transform="translate(185.9375 0)"/>
      <use xlink:href="#DejaVuSans-79" transform="translate(213.720703 0)"/>
      <use xlink:href="#DejaVuSans-74" transform="translate(272.900391 0)"/>
      <use xlink:href="#DejaVuSans-69" transform="translate(312.109375 0)"/>
      <use xlink:href="#DejaVuSans-63" transform="translate(339.892578 0)"/>
      <use xlink:href="#DejaVuSans-61" transform="translate(394.873047 0)"/>
      <use xlink:href="#DejaVuSans-6c" transform="translate(456.152344 0)"/>
      <use xlink:href="#DejaVuSans-20" transform="translate(483.935547 0)"/>
      <use xlink:href="#DejaVuSans-28" transform="translate(515.722656 0)"/>
      <use xlink:href="#DejaVuSans-64" transform="translate(554.736328 0)"/>
      <use xlink:href="#DejaVuSans-69" transform="translate(618.212891 0)"/>
      <use xlink:href="#DejaVuSans-73" transform="translate(645.996094 0)"/>
      <use xlink:href="#DejaVuSans-63" transform="translate(698.095703 0)"/>
      <use xlink:href="#DejaVuSans-72" transform="translate(753.076172 0)"/>
      <use xlink:href="#DejaVuSans-65" transform="translate(791.939453 0)"/>
      <use xlink:href="#DejaVuSans-74" transform="translate(853.462891 0)"/>
      <use xlink:href="#DejaVuSans-69" transform="translate(892.671875 0)"/>
      <use xlink:href="#DejaVuSans-73" transform="translate(920.455078 0)"/>
      <use xlink:href="#DejaVuSans-65" transform="translate(972.554688 0)"/>
      <use xlink:href="#DejaVuSans-64" transform="translate(1034.078125 0)"/>
      <use xlink:href="#DejaVuSans-29" transform="translate(1097.554688 0)"/>
     </g>
    </g>
    <g id="line2d_30">
     <path d="M 111.756094 262.253406 
L 116.756094 262.253406 
L 116.756094 262.253406 
L 126.756094 262.253406 
L 126.756094 262.253406 
L 131.756094 262.253406 
" style="fill: none; stroke: #2ca02c; stroke-width: 1.5; stroke-linecap: square"/>
    </g>
    <g id="text_15">
     <!-- numerical (upwind) t/t_max=600 -->
     <g transform="translate(139.756094 265.753406) scale(0.1 -0.1)">
      <defs>
       <path id="DejaVuSans-75" d="M 544 1381 
L 544 3500 
L 1119 3500 
L 1119 1403 
Q 1119 906 1312 657 
Q 1506 409 1894 409 
Q 2359 409 2629 706 
Q 2900 1003 2900 1516 
L 2900 3500 
L 3475 3500 
L 3475 0 
L 2900 0 
L 2900 538 
Q 2691 219 2414 64 
Q 2138 -91 1772 -91 
Q 1169 -91 856 284 
Q 544 659 544 1381 
z
M 1991 3584 
L 1991 3584 
z
" transform="scale(0.015625)"/>
       <path id="DejaVuSans-6d" d="M 3328 2828 
Q 3544 3216 3844 3400 
Q 4144 3584 4550 3584 
Q 5097 3584 5394 3201 
Q 5691 2819 5691 2113 
L 5691 0 
L 5113 0 
L 5113 2094 
Q 5113 2597 4934 2840 
Q 4756 3084 4391 3084 
Q 3944 3084 3684 2787 
Q 3425 2491 3425 1978 
L 3425 0 
L 2847 0 
L 2847 2094 
Q 2847 2600 2669 2842 
Q 2491 3084 2119 3084 
Q 1678 3084 1418 2786 
Q 1159 2488 1159 1978 
L 1159 0 
L 581 0 
L 581 3500 
L 1159 3500 
L 1159 2956 
Q 1356 3278 1631 3431 
Q 1906 3584 2284 3584 
Q 2666 3584 2933 3390 
Q 3200 3197 3328 2828 
z
" transform="scale(0.015625)"/>
       <path id="DejaVuSans-70" d="M 1159 525 
L 1159 -1331 
L 581 -1331 
L 581 3500 
L 1159 3500 
L 1159 2969 
Q 1341 3281 1617 3432 
Q 1894 3584 2278 3584 
Q 2916 3584 3314 3078 
Q 3713 2572 3713 1747 
Q 3713 922 3314 415 
Q 2916 -91 2278 -91 
Q 1894 -91 1617 61 
Q 1341 213 1159 525 
z
M 3116 1747 
Q 3116 2381 2855 2742 
Q 2594 3103 2138 3103 
Q 1681 3103 1420 2742 
Q 1159 2381 1159 1747 
Q 1159 1113 1420 752 
Q 1681 391 2138 391 
Q 2594 391 2855 752 
Q 3116 1113 3116 1747 
z
" transform="scale(0.015625)"/>
       <path id="DejaVuSans-77" d="M 269 3500 
L 844 3500 
L 1563 769 
L 2278 3500 
L 2956 3500 
L 3675 769 
L 4391 3500 
L 4966 3500 
L 4050 0 
L 3372 0 
L 2619 2869 
L 1863 0 
L 1184 0 
L 269 3500 
z
" transform="scale(0.015625)"/>
       <path id="DejaVuSans-2f" d="M 1625 4666 
L 2156 4666 
L 531 -594 
L 0 -594 
L 1625 4666 
z
" transform="scale(0.015625)"/>
       <path id="DejaVuSans-5f" d="M 3263 -1063 
L 3263 -1509 
L -63 -1509 
L -63 -1063 
L 3263 -1063 
z
" transform="scale(0.015625)"/>
       <path id="DejaVuSans-78" d="M 3513 3500 
L 2247 1797 
L 3578 0 
L 2900 0 
L 1881 1375 
L 863 0 
L 184 0 
L 1544 1831 
L 300 3500 
L 978 3500 
L 1906 2253 
L 2834 3500 
L 3513 3500 
z
" transform="scale(0.015625)"/>
       <path id="DejaVuSans-3d" d="M 678 2906 
L 4684 2906 
L 4684 2381 
L 678 2381 
L 678 2906 
z
M 678 1631 
L 4684 1631 
L 4684 1100 
L 678 1100 
L 678 1631 
z
" transform="scale(0.015625)"/>
      </defs>
      <use xlink:href="#DejaVuSans-6e"/>
      <use xlink:href="#DejaVuSans-75" transform="translate(63.378906 0)"/>
      <use xlink:href="#DejaVuSans-6d" transform="translate(126.757812 0)"/>
      <use xlink:href="#DejaVuSans-65" transform="translate(224.169922 0)"/>
      <use xlink:href="#DejaVuSans-72" transform="translate(285.693359 0)"/>
      <use xlink:href="#DejaVuSans-69" transform="translate(326.806641 0)"/>
      <use xlink:href="#DejaVuSans-63" transform="translate(354.589844 0)"/>
      <use xlink:href="#DejaVuSans-61" transform="translate(409.570312 0)"/>
      <use xlink:href="#DejaVuSans-6c" transform="translate(470.849609 0)"/>
      <use xlink:href="#DejaVuSans-20" transform="translate(498.632812 0)"/>
      <use xlink:href="#DejaVuSans-28" transform="translate(530.419922 0)"/>
      <use xlink:href="#DejaVuSans-75" transform="translate(569.433594 0)"/>
      <use xlink:href="#DejaVuSans-70" transform="translate(632.8125 0)"/>
      <use xlink:href="#DejaVuSans-77" transform="translate(696.289062 0)"/>
      <use xlink:href="#DejaVuSans-69" transform="translate(778.076172 0)"/>
      <use xlink:href="#DejaVuSans-6e" transform="translate(805.859375 0)"/>
      <use xlink:href="#DejaVuSans-64" transform="translate(869.238281 0)"/>
      <use xlink:href="#DejaVuSans-29" transform="translate(932.714844 0)"/>
      <use xlink:href="#DejaVuSans-20" transform="translate(971.728516 0)"/>
      <use xlink:href="#DejaVuSans-74" transform="translate(1003.515625 0)"/>
      <use xlink:href="#DejaVuSans-2f" transform="translate(1042.724609 0)"/>
      <use xlink:href="#DejaVuSans-74" transform="translate(1076.416016 0)"/>
      <use xlink:href="#DejaVuSans-5f" transform="translate(1115.625 0)"/>
      <use xlink:href="#DejaVuSans-6d" transform="translate(1165.625 0)"/>
      <use xlink:href="#DejaVuSans-61" transform="translate(1263.037109 0)"/>
      <use xlink:href="#DejaVuSans-78" transform="translate(1324.316406 0)"/>
      <use xlink:href="#DejaVuSans-3d" transform="translate(1383.496094 0)"/>
      <use xlink:href="#DejaVuSans-36" transform="translate(1467.285156 0)"/>
      <use xlink:href="#DejaVuSans-30" transform="translate(1530.908203 0)"/>
      <use xlink:href="#DejaVuSans-30" transform="translate(1594.53125 0)"/>
     </g>
    </g>
   </g>
  </g>
 </g>
 <defs>
  <clipPath id="p35e5fc73c2">
   <rect x="30.103125" y="10.999219" width="357.12" height="266.112"/>
  </clipPath>
 </defs>
</svg>
