<?xml version="1.0" encoding="utf-8" standalone="no"?>
<!DOCTYPE svg PUBLIC "-//W3C//DTD SVG 1.1//EN"
  "http://www.w3.org/Graphics/SVG/1.1/DTD/svg11.dtd">
<svg xmlns:xlink="http://www.w3.org/1999/xlink" width="408.10125pt" height="325.986375pt" viewBox="0 0 408.10125 325.986375" xmlns="http://www.w3.org/2000/svg" version="1.1">
 <metadata>
  <rdf:RDF xmlns:dc="http://purl.org/dc/elements/1.1/" xmlns:cc="http://creativecommons.org/ns#" xmlns:rdf="http://www.w3.org/1999/02/22-rdf-syntax-ns#">
   <cc:Work>
    <dc:type rdf:resource="http://purl.org/dc/dcmitype/StillImage"/>
    <dc:date>2025-04-08T13:40:17.824377</dc:date>
    <dc:format>image/svg+xml</dc:format>
    <dc:creator>
     <cc:Agent>
      <dc:title>Matplotlib v3.10.1, https://matplotlib.org/</dc:title>
     </cc:Agent>
    </dc:creator>
   </cc:Work>
  </rdf:RDF>
 </metadata>
 <defs>
  <style type="text/css">*{stroke-linejoin: round; stroke-linecap: butt}</style>
 </defs>
 <g id="figure_1">
  <g id="patch_1">
   <path d="M 0 325.986375 
L 408.10125 325.986375 
L 408.10125 0 
L 0 0 
z
" style="fill: #ffffff"/>
  </g>
  <g id="axes_1">
   <g id="patch_2">
    <path d="M 43.78125 288.430125 
L 400.90125 288.430125 
L 400.90125 22.318125 
L 43.78125 22.318125 
z
" style="fill: #ffffff"/>
   </g>
   <g id="matplotlib.axis_1">
    <g id="xtick_1">
     <g id="line2d_1">
      <path d="M 60.013977 288.430125 
L 60.013977 22.318125 
" clip-path="url(#pe3ec8aa500)" style="fill: none; stroke: #b0b0b0; stroke-width: 0.8; stroke-linecap: square"/>
     </g>
     <g id="line2d_2">
      <defs>
       <path id="mca8ad1c492" d="M 0 0 
L 0 3.5 
" style="stroke: #000000; stroke-width: 0.8"/>
      </defs>
      <g>
       <use xlink:href="#mca8ad1c492" x="60.013977" y="288.430125" style="stroke: #000000; stroke-width: 0.8"/>
      </g>
     </g>
     <g id="text_1">
      <!-- 0.0 -->
      <g transform="translate(52.062415 303.028562) scale(0.1 -0.1)">
       <defs>
        <path id="DejaVuSans-30" d="M 2034 4250 
Q 1547 4250 1301 3770 
Q 1056 3291 1056 2328 
Q 1056 1369 1301 889 
Q 1547 409 2034 409 
Q 2525 409 2770 889 
Q 3016 1369 3016 2328 
Q 3016 3291 2770 3770 
Q 2525 4250 2034 4250 
z
M 2034 4750 
Q 2819 4750 3233 4129 
Q 3647 3509 3647 2328 
Q 3647 1150 3233 529 
Q 2819 -91 2034 -91 
Q 1250 -91 836 529 
Q 422 1150 422 2328 
Q 422 3509 836 4129 
Q 1250 4750 2034 4750 
z
" transform="scale(0.015625)"/>
        <path id="DejaVuSans-2e" d="M 684 794 
L 1344 794 
L 1344 0 
L 684 0 
L 684 794 
z
" transform="scale(0.015625)"/>
       </defs>
       <use xlink:href="#DejaVuSans-30"/>
       <use xlink:href="#DejaVuSans-2e" transform="translate(63.623047 0)"/>
       <use xlink:href="#DejaVuSans-30" transform="translate(95.410156 0)"/>
      </g>
     </g>
    </g>
    <g id="xtick_2">
     <g id="line2d_3">
      <path d="M 125.600754 288.430125 
L 125.600754 22.318125 
" clip-path="url(#pe3ec8aa500)" style="fill: none; stroke: #b0b0b0; stroke-width: 0.8; stroke-linecap: square"/>
     </g>
     <g id="line2d_4">
      <g>
       <use xlink:href="#mca8ad1c492" x="125.600754" y="288.430125" style="stroke: #000000; stroke-width: 0.8"/>
      </g>
     </g>
     <g id="text_2">
      <!-- 0.2 -->
      <g transform="translate(117.649192 303.028562) scale(0.1 -0.1)">
       <defs>
        <path id="DejaVuSans-32" d="M 1228 531 
L 3431 531 
L 3431 0 
L 469 0 
L 469 531 
Q 828 903 1448 1529 
Q 2069 2156 2228 2338 
Q 2531 2678 2651 2914 
Q 2772 3150 2772 3378 
Q 2772 3750 2511 3984 
Q 2250 4219 1831 4219 
Q 1534 4219 1204 4116 
Q 875 4013 500 3803 
L 500 4441 
Q 881 4594 1212 4672 
Q 1544 4750 1819 4750 
Q 2544 4750 2975 4387 
Q 3406 4025 3406 3419 
Q 3406 3131 3298 2873 
Q 3191 2616 2906 2266 
Q 2828 2175 2409 1742 
Q 1991 1309 1228 531 
z
" transform="scale(0.015625)"/>
       </defs>
       <use xlink:href="#DejaVuSans-30"/>
       <use xlink:href="#DejaVuSans-2e" transform="translate(63.623047 0)"/>
       <use xlink:href="#DejaVuSans-32" transform="translate(95.410156 0)"/>
      </g>
     </g>
    </g>
    <g id="xtick_3">
     <g id="line2d_5">
      <path d="M 191.187531 288.430125 
L 191.187531 22.318125 
" clip-path="url(#pe3ec8aa500)" style="fill: none; stroke: #b0b0b0; stroke-width: 0.8; stroke-linecap: square"/>
     </g>
     <g id="line2d_6">
      <g>
       <use xlink:href="#mca8ad1c492" x="191.187531" y="288.430125" style="stroke: #000000; stroke-width: 0.8"/>
      </g>
     </g>
     <g id="text_3">
      <!-- 0.4 -->
      <g transform="translate(183.235968 303.028562) scale(0.1 -0.1)">
       <defs>
        <path id="DejaVuSans-34" d="M 2419 4116 
L 825 1625 
L 2419 1625 
L 2419 4116 
z
M 2253 4666 
L 3047 4666 
L 3047 1625 
L 3713 1625 
L 3713 1100 
L 3047 1100 
L 3047 0 
L 2419 0 
L 2419 1100 
L 313 1100 
L 313 1709 
L 2253 4666 
z
" transform="scale(0.015625)"/>
       </defs>
       <use xlink:href="#DejaVuSans-30"/>
       <use xlink:href="#DejaVuSans-2e" transform="translate(63.623047 0)"/>
       <use xlink:href="#DejaVuSans-34" transform="translate(95.410156 0)"/>
      </g>
     </g>
    </g>
    <g id="xtick_4">
     <g id="line2d_7">
      <path d="M 256.774308 288.430125 
L 256.774308 22.318125 
" clip-path="url(#pe3ec8aa500)" style="fill: none; stroke: #b0b0b0; stroke-width: 0.8; stroke-linecap: square"/>
     </g>
     <g id="line2d_8">
      <g>
       <use xlink:href="#mca8ad1c492" x="256.774308" y="288.430125" style="stroke: #000000; stroke-width: 0.8"/>
      </g>
     </g>
     <g id="text_4">
      <!-- 0.6 -->
      <g transform="translate(248.822745 303.028562) scale(0.1 -0.1)">
       <defs>
        <path id="DejaVuSans-36" d="M 2113 2584 
Q 1688 2584 1439 2293 
Q 1191 2003 1191 1497 
Q 1191 994 1439 701 
Q 1688 409 2113 409 
Q 2538 409 2786 701 
Q 3034 994 3034 1497 
Q 3034 2003 2786 2293 
Q 2538 2584 2113 2584 
z
M 3366 4563 
L 3366 3988 
Q 3128 4100 2886 4159 
Q 2644 4219 2406 4219 
Q 1781 4219 1451 3797 
Q 1122 3375 1075 2522 
Q 1259 2794 1537 2939 
Q 1816 3084 2150 3084 
Q 2853 3084 3261 2657 
Q 3669 2231 3669 1497 
Q 3669 778 3244 343 
Q 2819 -91 2113 -91 
Q 1303 -91 875 529 
Q 447 1150 447 2328 
Q 447 3434 972 4092 
Q 1497 4750 2381 4750 
Q 2619 4750 2861 4703 
Q 3103 4656 3366 4563 
z
" transform="scale(0.015625)"/>
       </defs>
       <use xlink:href="#DejaVuSans-30"/>
       <use xlink:href="#DejaVuSans-2e" transform="translate(63.623047 0)"/>
       <use xlink:href="#DejaVuSans-36" transform="translate(95.410156 0)"/>
      </g>
     </g>
    </g>
    <g id="xtick_5">
     <g id="line2d_9">
      <path d="M 322.361085 288.430125 
L 322.361085 22.318125 
" clip-path="url(#pe3ec8aa500)" style="fill: none; stroke: #b0b0b0; stroke-width: 0.8; stroke-linecap: square"/>
     </g>
     <g id="line2d_10">
      <g>
       <use xlink:href="#mca8ad1c492" x="322.361085" y="288.430125" style="stroke: #000000; stroke-width: 0.8"/>
      </g>
     </g>
     <g id="text_5">
      <!-- 0.8 -->
      <g transform="translate(314.409522 303.028562) scale(0.1 -0.1)">
       <defs>
        <path id="DejaVuSans-38" d="M 2034 2216 
Q 1584 2216 1326 1975 
Q 1069 1734 1069 1313 
Q 1069 891 1326 650 
Q 1584 409 2034 409 
Q 2484 409 2743 651 
Q 3003 894 3003 1313 
Q 3003 1734 2745 1975 
Q 2488 2216 2034 2216 
z
M 1403 2484 
Q 997 2584 770 2862 
Q 544 3141 544 3541 
Q 544 4100 942 4425 
Q 1341 4750 2034 4750 
Q 2731 4750 3128 4425 
Q 3525 4100 3525 3541 
Q 3525 3141 3298 2862 
Q 3072 2584 2669 2484 
Q 3125 2378 3379 2068 
Q 3634 1759 3634 1313 
Q 3634 634 3220 271 
Q 2806 -91 2034 -91 
Q 1263 -91 848 271 
Q 434 634 434 1313 
Q 434 1759 690 2068 
Q 947 2378 1403 2484 
z
M 1172 3481 
Q 1172 3119 1398 2916 
Q 1625 2713 2034 2713 
Q 2441 2713 2670 2916 
Q 2900 3119 2900 3481 
Q 2900 3844 2670 4047 
Q 2441 4250 2034 4250 
Q 1625 4250 1398 4047 
Q 1172 3844 1172 3481 
z
" transform="scale(0.015625)"/>
       </defs>
       <use xlink:href="#DejaVuSans-30"/>
       <use xlink:href="#DejaVuSans-2e" transform="translate(63.623047 0)"/>
       <use xlink:href="#DejaVuSans-38" transform="translate(95.410156 0)"/>
      </g>
     </g>
    </g>
    <g id="xtick_6">
     <g id="line2d_11">
      <path d="M 387.947862 288.430125 
L 387.947862 22.318125 
" clip-path="url(#pe3ec8aa500)" style="fill: none; stroke: #b0b0b0; stroke-width: 0.8; stroke-linecap: square"/>
     </g>
     <g id="line2d_12">
      <g>
       <use xlink:href="#mca8ad1c492" x="387.947862" y="288.430125" style="stroke: #000000; stroke-width: 0.8"/>
      </g>
     </g>
     <g id="text_6">
      <!-- 1.0 -->
      <g transform="translate(379.996299 303.028562) scale(0.1 -0.1)">
       <defs>
        <path id="DejaVuSans-31" d="M 794 531 
L 1825 531 
L 1825 4091 
L 703 3866 
L 703 4441 
L 1819 4666 
L 2450 4666 
L 2450 531 
L 3481 531 
L 3481 0 
L 794 0 
L 794 531 
z
" transform="scale(0.015625)"/>
       </defs>
       <use xlink:href="#DejaVuSans-31"/>
       <use xlink:href="#DejaVuSans-2e" transform="translate(63.623047 0)"/>
       <use xlink:href="#DejaVuSans-30" transform="translate(95.410156 0)"/>
      </g>
     </g>
    </g>
    <g id="text_7">
     <!-- x -->
     <g transform="translate(219.381875 316.706687) scale(0.1 -0.1)">
      <defs>
       <path id="DejaVuSans-78" d="M 3513 3500 
L 2247 1797 
L 3578 0 
L 2900 0 
L 1881 1375 
L 863 0 
L 184 0 
L 1544 1831 
L 300 3500 
L 978 3500 
L 1906 2253 
L 2834 3500 
L 3513 3500 
z
" transform="scale(0.015625)"/>
      </defs>
      <use xlink:href="#DejaVuSans-78"/>
     </g>
    </g>
   </g>
   <g id="matplotlib.axis_2">
    <g id="ytick_1">
     <g id="line2d_13">
      <path d="M 43.78125 276.334125 
L 400.90125 276.334125 
" clip-path="url(#pe3ec8aa500)" style="fill: none; stroke: #b0b0b0; stroke-width: 0.8; stroke-linecap: square"/>
     </g>
     <g id="line2d_14">
      <defs>
       <path id="mc992480c4d" d="M 0 0 
L -3.5 0 
" style="stroke: #000000; stroke-width: 0.8"/>
      </defs>
      <g>
       <use xlink:href="#mc992480c4d" x="43.78125" y="276.334125" style="stroke: #000000; stroke-width: 0.8"/>
      </g>
     </g>
     <g id="text_8">
      <!-- 0.0 -->
      <g transform="translate(20.878125 280.133344) scale(0.1 -0.1)">
       <use xlink:href="#DejaVuSans-30"/>
       <use xlink:href="#DejaVuSans-2e" transform="translate(63.623047 0)"/>
       <use xlink:href="#DejaVuSans-30" transform="translate(95.410156 0)"/>
      </g>
     </g>
    </g>
    <g id="ytick_2">
     <g id="line2d_15">
      <path d="M 43.78125 227.950125 
L 400.90125 227.950125 
" clip-path="url(#pe3ec8aa500)" style="fill: none; stroke: #b0b0b0; stroke-width: 0.8; stroke-linecap: square"/>
     </g>
     <g id="line2d_16">
      <g>
       <use xlink:href="#mc992480c4d" x="43.78125" y="227.950125" style="stroke: #000000; stroke-width: 0.8"/>
      </g>
     </g>
     <g id="text_9">
      <!-- 0.2 -->
      <g transform="translate(20.878125 231.749344) scale(0.1 -0.1)">
       <use xlink:href="#DejaVuSans-30"/>
       <use xlink:href="#DejaVuSans-2e" transform="translate(63.623047 0)"/>
       <use xlink:href="#DejaVuSans-32" transform="translate(95.410156 0)"/>
      </g>
     </g>
    </g>
    <g id="ytick_3">
     <g id="line2d_17">
      <path d="M 43.78125 179.566125 
L 400.90125 179.566125 
" clip-path="url(#pe3ec8aa500)" style="fill: none; stroke: #b0b0b0; stroke-width: 0.8; stroke-linecap: square"/>
     </g>
     <g id="line2d_18">
      <g>
       <use xlink:href="#mc992480c4d" x="43.78125" y="179.566125" style="stroke: #000000; stroke-width: 0.8"/>
      </g>
     </g>
     <g id="text_10">
      <!-- 0.4 -->
      <g transform="translate(20.878125 183.365344) scale(0.1 -0.1)">
       <use xlink:href="#DejaVuSans-30"/>
       <use xlink:href="#DejaVuSans-2e" transform="translate(63.623047 0)"/>
       <use xlink:href="#DejaVuSans-34" transform="translate(95.410156 0)"/>
      </g>
     </g>
    </g>
    <g id="ytick_4">
     <g id="line2d_19">
      <path d="M 43.78125 131.182125 
L 400.90125 131.182125 
" clip-path="url(#pe3ec8aa500)" style="fill: none; stroke: #b0b0b0; stroke-width: 0.8; stroke-linecap: square"/>
     </g>
     <g id="line2d_20">
      <g>
       <use xlink:href="#mc992480c4d" x="43.78125" y="131.182125" style="stroke: #000000; stroke-width: 0.8"/>
      </g>
     </g>
     <g id="text_11">
      <!-- 0.6 -->
      <g transform="translate(20.878125 134.981344) scale(0.1 -0.1)">
       <use xlink:href="#DejaVuSans-30"/>
       <use xlink:href="#DejaVuSans-2e" transform="translate(63.623047 0)"/>
       <use xlink:href="#DejaVuSans-36" transform="translate(95.410156 0)"/>
      </g>
     </g>
    </g>
    <g id="ytick_5">
     <g id="line2d_21">
      <path d="M 43.78125 82.798125 
L 400.90125 82.798125 
" clip-path="url(#pe3ec8aa500)" style="fill: none; stroke: #b0b0b0; stroke-width: 0.8; stroke-linecap: square"/>
     </g>
     <g id="line2d_22">
      <g>
       <use xlink:href="#mc992480c4d" x="43.78125" y="82.798125" style="stroke: #000000; stroke-width: 0.8"/>
      </g>
     </g>
     <g id="text_12">
      <!-- 0.8 -->
      <g transform="translate(20.878125 86.597344) scale(0.1 -0.1)">
       <use xlink:href="#DejaVuSans-30"/>
       <use xlink:href="#DejaVuSans-2e" transform="translate(63.623047 0)"/>
       <use xlink:href="#DejaVuSans-38" transform="translate(95.410156 0)"/>
      </g>
     </g>
    </g>
    <g id="ytick_6">
     <g id="line2d_23">
      <path d="M 43.78125 34.414125 
L 400.90125 34.414125 
" clip-path="url(#pe3ec8aa500)" style="fill: none; stroke: #b0b0b0; stroke-width: 0.8; stroke-linecap: square"/>
     </g>
     <g id="line2d_24">
      <g>
       <use xlink:href="#mc992480c4d" x="43.78125" y="34.414125" style="stroke: #000000; stroke-width: 0.8"/>
      </g>
     </g>
     <g id="text_13">
      <!-- 1.0 -->
      <g transform="translate(20.878125 38.213344) scale(0.1 -0.1)">
       <use xlink:href="#DejaVuSans-31"/>
       <use xlink:href="#DejaVuSans-2e" transform="translate(63.623047 0)"/>
       <use xlink:href="#DejaVuSans-30" transform="translate(95.410156 0)"/>
      </g>
     </g>
    </g>
    <g id="text_14">
     <!-- psi -->
     <g transform="translate(14.798438 162.542094) rotate(-90) scale(0.1 -0.1)">
      <defs>
       <path id="DejaVuSans-70" d="M 1159 525 
L 1159 -1331 
L 581 -1331 
L 581 3500 
L 1159 3500 
L 1159 2969 
Q 1341 3281 1617 3432 
Q 1894 3584 2278 3584 
Q 2916 3584 3314 3078 
Q 3713 2572 3713 1747 
Q 3713 922 3314 415 
Q 2916 -91 2278 -91 
Q 1894 -91 1617 61 
Q 1341 213 1159 525 
z
M 3116 1747 
Q 3116 2381 2855 2742 
Q 2594 3103 2138 3103 
Q 1681 3103 1420 2742 
Q 1159 2381 1159 1747 
Q 1159 1113 1420 752 
Q 1681 391 2138 391 
Q 2594 391 2855 752 
Q 3116 1113 3116 1747 
z
" transform="scale(0.015625)"/>
       <path id="DejaVuSans-73" d="M 2834 3397 
L 2834 2853 
Q 2591 2978 2328 3040 
Q 2066 3103 1784 3103 
Q 1356 3103 1142 2972 
Q 928 2841 928 2578 
Q 928 2378 1081 2264 
Q 1234 2150 1697 2047 
L 1894 2003 
Q 2506 1872 2764 1633 
Q 3022 1394 3022 966 
Q 3022 478 2636 193 
Q 2250 -91 1575 -91 
Q 1294 -91 989 -36 
Q 684 19 347 128 
L 347 722 
Q 666 556 975 473 
Q 1284 391 1588 391 
Q 1994 391 2212 530 
Q 2431 669 2431 922 
Q 2431 1156 2273 1281 
Q 2116 1406 1581 1522 
L 1381 1569 
Q 847 1681 609 1914 
Q 372 2147 372 2553 
Q 372 3047 722 3315 
Q 1072 3584 1716 3584 
Q 2034 3584 2315 3537 
Q 2597 3491 2834 3397 
z
" transform="scale(0.015625)"/>
       <path id="DejaVuSans-69" d="M 603 3500 
L 1178 3500 
L 1178 0 
L 603 0 
L 603 3500 
z
M 603 4863 
L 1178 4863 
L 1178 4134 
L 603 4134 
L 603 4863 
z
" transform="scale(0.015625)"/>
      </defs>
      <use xlink:href="#DejaVuSans-70"/>
      <use xlink:href="#DejaVuSans-73" transform="translate(63.476562 0)"/>
      <use xlink:href="#DejaVuSans-69" transform="translate(115.576172 0)"/>
     </g>
    </g>
   </g>
   <g id="line2d_25">
    <path d="M 60.013977 276.334125 
L 61.653647 276.334125 
L 61.653647 268.735234 
L 64.932986 268.735234 
L 64.932986 261.143843 
L 68.212324 261.143843 
L 68.212324 253.567442 
L 71.491663 253.567442 
L 71.491663 246.013509 
L 74.771002 246.013509 
L 74.771002 238.489499 
L 78.050341 238.489499 
L 78.050341 231.002837 
L 81.32968 231.002837 
L 81.32968 223.560912 
L 84.609019 223.560912 
L 84.609019 216.171067 
L 87.888357 216.171067 
L 87.888357 208.840597 
L 91.167696 208.840597 
L 91.167696 201.576734 
L 94.447035 201.576734 
L 94.447035 194.386647 
L 97.726374 194.386647 
L 97.726374 187.277433 
L 101.005713 187.277433 
L 101.005713 180.256107 
L 104.285052 180.256107 
L 104.285052 173.329599 
L 107.56439 173.329599 
L 107.56439 166.504743 
L 110.843729 166.504743 
L 110.843729 159.788276 
L 114.123068 159.788276 
L 114.123068 153.186826 
L 117.402407 153.186826 
L 117.402407 146.706907 
L 120.681746 146.706907 
L 120.681746 140.354914 
L 123.961085 140.354914 
L 123.961085 134.137117 
L 127.240424 134.137117 
L 127.240424 128.059651 
L 130.519762 128.059651 
L 130.519762 122.128513 
L 133.799101 122.128513 
L 133.799101 116.349559 
L 137.07844 116.349559 
L 137.07844 110.728489 
L 140.357779 110.728489 
L 140.357779 105.270852 
L 143.637118 105.270852 
L 143.637118 99.982035 
L 146.916457 99.982035 
L 146.916457 94.867255 
L 150.195795 94.867255 
L 150.195795 89.931561 
L 153.475134 89.931561 
L 153.475134 85.179824 
L 156.754473 85.179824 
L 156.754473 80.616734 
L 160.033812 80.616734 
L 160.033812 76.246792 
L 163.313151 76.246792 
L 163.313151 72.074313 
L 166.59249 72.074313 
L 166.59249 68.103414 
L 169.871829 68.103414 
L 169.871829 64.338013 
L 173.151167 64.338013 
L 173.151167 60.781827 
L 176.430506 60.781827 
L 176.430506 57.438364 
L 179.709845 57.438364 
L 179.709845 54.310926 
L 182.989184 54.310926 
L 182.989184 51.402598 
L 186.268523 51.402598 
L 186.268523 48.716249 
L 189.547862 48.716249 
L 189.547862 46.254533 
L 192.8272 46.254533 
L 192.8272 44.019877 
L 196.106539 44.019877 
L 196.106539 42.014487 
L 199.385878 42.014487 
L 199.385878 40.240342 
L 202.665217 40.240342 
L 202.665217 38.699193 
L 205.944556 38.699193 
L 205.944556 37.392562 
L 209.223895 37.392562 
L 209.223895 36.321736 
L 212.503233 36.321736 
L 212.503233 35.487775 
L 215.782572 35.487775 
L 215.782572 34.891499 
L 219.061911 34.891499 
L 219.061911 34.533498 
L 222.34125 34.533498 
L 222.34125 34.414125 
L 225.620589 34.414125 
L 225.620589 34.533498 
L 228.899928 34.533498 
L 228.899928 34.891499 
L 232.179267 34.891499 
L 232.179267 35.487775 
L 235.458605 35.487775 
L 235.458605 36.321736 
L 238.737944 36.321736 
L 238.737944 37.392562 
L 242.017283 37.392562 
L 242.017283 38.699193 
L 245.296622 38.699193 
L 245.296622 40.240342 
L 248.575961 40.240342 
L 248.575961 42.014487 
L 251.8553 42.014487 
L 251.8553 44.019877 
L 255.134638 44.019877 
L 255.134638 46.254533 
L 258.413977 46.254533 
L 258.413977 48.716249 
L 261.693316 48.716249 
L 261.693316 51.402598 
L 264.972655 51.402598 
L 264.972655 54.310926 
L 268.251994 54.310926 
L 268.251994 57.438364 
L 271.531333 57.438364 
L 271.531333 60.781827 
L 274.810671 60.781827 
L 274.810671 64.338013 
L 278.09001 64.338013 
L 278.09001 68.103414 
L 281.369349 68.103414 
L 281.369349 72.074313 
L 284.648688 72.074313 
L 284.648688 76.246792 
L 287.928027 76.246792 
L 287.928027 80.616734 
L 291.207366 80.616734 
L 291.207366 85.179824 
L 294.486705 85.179824 
L 294.486705 89.931561 
L 297.766043 89.931561 
L 297.766043 94.867255 
L 301.045382 94.867255 
L 301.045382 99.982035 
L 304.324721 99.982035 
L 304.324721 105.270852 
L 307.60406 105.270852 
L 307.60406 110.728489 
L 310.883399 110.728489 
L 310.883399 116.349559 
L 314.162738 116.349559 
L 314.162738 122.128513 
L 317.442076 122.128513 
L 317.442076 128.059651 
L 320.721415 128.059651 
L 320.721415 134.137117 
L 324.000754 134.137117 
L 324.000754 140.354914 
L 327.280093 140.354914 
L 327.280093 146.706907 
L 330.559432 146.706907 
L 330.559432 153.186826 
L 333.838771 153.186826 
L 333.838771 159.788276 
L 337.11811 159.788276 
L 337.11811 166.504743 
L 340.397448 166.504743 
L 340.397448 173.329599 
L 343.676787 173.329599 
L 343.676787 180.256107 
L 346.956126 180.256107 
L 346.956126 187.277433 
L 350.235465 187.277433 
L 350.235465 194.386647 
L 353.514804 194.386647 
L 353.514804 201.576734 
L 356.794143 201.576734 
L 356.794143 208.840597 
L 360.073481 208.840597 
L 360.073481 216.171067 
L 363.35282 216.171067 
L 363.35282 223.560912 
L 366.632159 223.560912 
L 366.632159 231.002837 
L 369.911498 231.002837 
L 369.911498 238.489499 
L 373.190837 238.489499 
L 373.190837 246.013509 
L 376.470176 246.013509 
L 376.470176 253.567442 
L 379.749514 253.567442 
L 379.749514 261.143843 
L 383.028853 261.143843 
L 383.028853 268.735234 
L 384.668523 268.735234 
L 384.668523 268.735234 
" clip-path="url(#pe3ec8aa500)" style="fill: none; stroke: #1f77b4; stroke-width: 1.5; stroke-linecap: square"/>
   </g>
   <g id="line2d_26">
    <path d="M 60.013977 276.334125 
L 61.653647 276.334125 
L 61.653647 271.921269 
L 64.932986 271.921269 
L 64.932986 267.512768 
L 68.212324 267.512768 
L 68.212324 263.112973 
L 71.491663 263.112973 
L 71.491663 258.726225 
L 74.771002 258.726225 
L 74.771002 254.356854 
L 78.050341 254.356854 
L 78.050341 250.009173 
L 81.32968 250.009173 
L 81.32968 245.68747 
L 84.609019 245.68747 
L 84.609019 241.396013 
L 87.888357 241.396013 
L 87.888357 237.139034 
L 91.167696 237.139034 
L 91.167696 232.920737 
L 94.447035 232.920737 
L 94.447035 228.745284 
L 97.726374 228.745284 
L 97.726374 224.616795 
L 101.005713 224.616795 
L 101.005713 220.539344 
L 104.285052 220.539344 
L 104.285052 216.516957 
L 107.56439 216.516957 
L 107.56439 212.553602 
L 110.843729 212.553602 
L 110.843729 208.65319 
L 114.123068 208.65319 
L 114.123068 204.819572 
L 117.402407 204.819572 
L 117.402407 201.056529 
L 120.681746 201.056529 
L 120.681746 197.367777 
L 123.961085 197.367777 
L 123.961085 193.756954 
L 127.240424 193.756954 
L 127.240424 190.227626 
L 130.519762 190.227626 
L 130.519762 186.783274 
L 133.799101 186.783274 
L 133.799101 183.427298 
L 137.07844 183.427298 
L 137.07844 180.16301 
L 140.357779 180.16301 
L 140.357779 176.993631 
L 143.637118 176.993631 
L 143.637118 173.922289 
L 146.916457 173.922289 
L 146.916457 170.952016 
L 150.195795 170.952016 
L 150.195795 168.085741 
L 153.475134 168.085741 
L 153.475134 165.326295 
L 156.754473 165.326295 
L 156.754473 162.6764 
L 160.033812 162.6764 
L 160.033812 160.138672 
L 163.313151 160.138672 
L 163.313151 157.715614 
L 166.59249 157.715614 
L 166.59249 155.409619 
L 169.871829 155.409619 
L 169.871829 153.222962 
L 173.151167 153.222962 
L 173.151167 151.1578 
L 176.430506 151.1578 
L 176.430506 149.216172 
L 179.709845 149.216172 
L 179.709845 147.399995 
L 182.989184 147.399995 
L 182.989184 145.711059 
L 186.268523 145.711059 
L 186.268523 144.151033 
L 189.547862 144.151033 
L 189.547862 142.721456 
L 192.8272 142.721456 
L 192.8272 141.423739 
L 196.106539 141.423739 
L 196.106539 140.259161 
L 199.385878 140.259161 
L 199.385878 139.228873 
L 202.665217 139.228873 
L 202.665217 138.333892 
L 205.944556 138.333892 
L 205.944556 137.5751 
L 209.223895 137.5751 
L 209.223895 136.953246 
L 212.503233 136.953246 
L 212.503233 136.468945 
L 215.782572 136.468945 
L 215.782572 136.122673 
L 219.061911 136.122673 
L 219.061911 135.914774 
L 228.899928 135.914774 
L 228.899928 136.122673 
L 232.179267 136.122673 
L 232.179267 136.468945 
L 235.458605 136.468945 
L 235.458605 136.953246 
L 238.737944 136.953246 
L 238.737944 137.5751 
L 242.017283 137.5751 
L 242.017283 138.333892 
L 245.296622 138.333892 
L 245.296622 139.228873 
L 248.575961 139.228873 
L 248.575961 140.259161 
L 251.8553 140.259161 
L 251.8553 141.423739 
L 255.134638 141.423739 
L 255.134638 142.721456 
L 258.413977 142.721456 
L 258.413977 144.151033 
L 261.693316 144.151033 
L 261.693316 145.711059 
L 264.972655 145.711059 
L 264.972655 147.399995 
L 268.251994 147.399995 
L 268.251994 149.216172 
L 271.531333 149.216172 
L 271.531333 151.1578 
L 274.810671 151.1578 
L 274.810671 153.222962 
L 278.09001 153.222962 
L 278.09001 155.409619 
L 281.369349 155.409619 
L 281.369349 157.715614 
L 284.648688 157.715614 
L 284.648688 160.138672 
L 287.928027 160.138672 
L 287.928027 162.6764 
L 291.207366 162.6764 
L 291.207366 165.326295 
L 294.486705 165.326295 
L 294.486705 168.085741 
L 297.766043 168.085741 
L 297.766043 170.952016 
L 301.045382 170.952016 
L 301.045382 173.922289 
L 304.324721 173.922289 
L 304.324721 176.993631 
L 307.60406 176.993631 
L 307.60406 180.16301 
L 310.883399 180.16301 
L 310.883399 183.427298 
L 314.162738 183.427298 
L 314.162738 186.783274 
L 317.442076 186.783274 
L 317.442076 190.227626 
L 320.721415 190.227626 
L 320.721415 193.756954 
L 324.000754 193.756954 
L 324.000754 197.367777 
L 327.280093 197.367777 
L 327.280093 201.056529 
L 330.559432 201.056529 
L 330.559432 204.819572 
L 333.838771 204.819572 
L 333.838771 208.65319 
L 337.11811 208.65319 
L 337.11811 212.553602 
L 340.397448 212.553602 
L 340.397448 216.516957 
L 343.676787 216.516957 
L 343.676787 220.539344 
L 346.956126 220.539344 
L 346.956126 224.616795 
L 350.235465 224.616795 
L 350.235465 228.745284 
L 353.514804 228.745284 
L 353.514804 232.920737 
L 356.794143 232.920737 
L 356.794143 237.139034 
L 360.073481 237.139034 
L 360.073481 241.396013 
L 363.35282 241.396013 
L 363.35282 245.68747 
L 366.632159 245.68747 
L 366.632159 250.009173 
L 369.911498 250.009173 
L 369.911498 254.356854 
L 373.190837 254.356854 
L 373.190837 258.726225 
L 376.470176 258.726225 
L 376.470176 263.112973 
L 379.749514 263.112973 
L 379.749514 267.512768 
L 383.028853 267.512768 
L 383.028853 271.921269 
L 384.668523 271.921269 
L 384.668523 271.921269 
" clip-path="url(#pe3ec8aa500)" style="fill: none; stroke: #ff7f0e; stroke-width: 1.5; stroke-linecap: square"/>
   </g>
   <g id="line2d_27">
    <path d="M 60.013977 276.334125 
L 61.653647 276.334125 
L 61.653647 274.130553 
L 64.932986 274.130553 
L 64.932986 273.565653 
L 68.212324 273.565653 
L 68.212324 269.875892 
L 71.491663 269.875892 
L 71.491663 268.021283 
L 74.771002 268.021283 
L 74.771002 264.741869 
L 78.050341 264.741869 
L 78.050341 261.961263 
L 81.32968 261.961263 
L 81.32968 258.819735 
L 84.609019 258.819735 
L 84.609019 255.714472 
L 87.888357 255.714472 
L 87.888357 252.503589 
L 91.167696 252.503589 
L 91.167696 249.2543 
L 94.447035 249.2543 
L 94.447035 245.95265 
L 97.726374 245.95265 
L 97.726374 242.612904 
L 101.005713 242.612904 
L 101.005713 239.238486 
L 104.285052 239.238486 
L 104.285052 235.836026 
L 107.56439 235.836026 
L 107.56439 232.410702 
L 110.843729 232.410702 
L 110.843729 228.967941 
L 114.123068 228.967941 
L 114.123068 225.51293 
L 117.402407 225.51293 
L 117.402407 222.050831 
L 120.681746 222.050831 
L 120.681746 218.586745 
L 123.961085 218.586745 
L 123.961085 215.125751 
L 127.240424 215.125751 
L 127.240424 211.672903 
L 130.519762 211.672903 
L 130.519762 208.233245 
L 133.799101 208.233245 
L 133.799101 204.811807 
L 137.07844 204.811807 
L 137.07844 201.413611 
L 140.357779 201.413611 
L 140.357779 198.043664 
L 143.637118 198.043664 
L 143.637118 194.706963 
L 146.916457 194.706963 
L 146.916457 191.408482 
L 150.195795 191.408482 
L 150.195795 188.153178 
L 153.475134 188.153178 
L 153.475134 184.945978 
L 156.754473 184.945978 
L 156.754473 181.791781 
L 160.033812 181.791781 
L 160.033812 178.695448 
L 163.313151 178.695448 
L 163.313151 175.661799 
L 166.59249 175.661799 
L 166.59249 172.695606 
L 169.871829 172.695606 
L 169.871829 169.801589 
L 173.151167 169.801589 
L 173.151167 166.984412 
L 176.430506 166.984412 
L 176.430506 164.248674 
L 179.709845 164.248674 
L 179.709845 161.598906 
L 182.989184 161.598906 
L 182.989184 159.039569 
L 186.268523 159.039569 
L 186.268523 156.575041 
L 189.547862 156.575041 
L 189.547862 154.210687 
L 192.8272 154.210687 
L 192.8272 151.952386 
L 196.106539 151.952386 
L 196.106539 149.803961 
L 199.385878 149.803961 
L 199.385878 147.76914 
L 202.665217 147.76914 
L 202.665217 145.851541 
L 205.944556 145.851541 
L 205.944556 144.054679 
L 209.223895 144.054679 
L 209.223895 142.381953 
L 212.503233 142.381953 
L 212.503233 140.836652 
L 215.782572 140.836652 
L 215.782572 139.421943 
L 219.061911 139.421943 
L 219.061911 138.140877 
L 222.34125 138.140877 
L 222.34125 136.996382 
L 225.620589 136.996382 
L 225.620589 135.991259 
L 228.899928 135.991259 
L 228.899928 135.128187 
L 232.179267 135.128187 
L 232.179267 134.409714 
L 235.458605 134.409714 
L 235.458605 133.838261 
L 238.737944 133.838261 
L 238.737944 133.416117 
L 242.017283 133.416117 
L 242.017283 133.14544 
L 245.296622 133.14544 
L 245.296622 133.028254 
L 251.8553 133.066451 
L 251.8553 133.261787 
L 255.134638 133.261787 
L 255.134638 133.615882 
L 258.413977 133.615882 
L 258.413977 134.130222 
L 261.693316 134.130222 
L 261.693316 134.806154 
L 264.972655 134.806154 
L 264.972655 135.644886 
L 268.251994 135.644886 
L 268.251994 136.647488 
L 271.531333 136.647488 
L 271.531333 137.814892 
L 274.810671 137.814892 
L 274.810671 139.147884 
L 278.09001 139.147884 
L 278.09001 140.647112 
L 281.369349 140.647112 
L 281.369349 142.313077 
L 284.648688 142.313077 
L 284.648688 144.146134 
L 287.928027 144.146134 
L 287.928027 146.14649 
L 291.207366 146.14649 
L 291.207366 148.3142 
L 294.486705 148.3142 
L 294.486705 150.649164 
L 297.766043 150.649164 
L 297.766043 153.151123 
L 301.045382 153.151123 
L 301.045382 155.819656 
L 304.324721 155.819656 
L 304.324721 158.654172 
L 307.60406 158.654172 
L 307.60406 161.653902 
L 310.883399 161.653902 
L 310.883399 164.817894 
L 314.162738 164.817894 
L 314.162738 168.145001 
L 317.442076 168.145001 
L 317.442076 171.633869 
L 320.721415 171.633869 
L 320.721415 175.282921 
L 324.000754 175.282921 
L 324.000754 179.09034 
L 327.280093 179.09034 
L 327.280093 183.054045 
L 330.559432 183.054045 
L 330.559432 187.17166 
L 333.838771 187.17166 
L 333.838771 191.440481 
L 337.11811 191.440481 
L 337.11811 195.857424 
L 340.397448 195.857424 
L 340.397448 200.418963 
L 343.676787 200.418963 
L 343.676787 205.121052 
L 346.956126 205.121052 
L 346.956126 209.959005 
L 350.235465 209.959005 
L 350.235465 214.927345 
L 353.514804 214.927345 
L 353.514804 220.019587 
L 356.794143 220.019587 
L 356.794143 225.227912 
L 360.073481 225.227912 
L 360.073481 230.542696 
L 363.35282 230.542696 
L 363.35282 235.951766 
L 366.632159 235.951766 
L 366.632159 241.439198 
L 369.911498 241.439198 
L 369.911498 246.983272 
L 373.190837 246.983272 
L 373.190837 252.552774 
L 376.470176 252.552774 
L 376.470176 258.099761 
L 379.749514 258.099761 
L 379.749514 263.544022 
L 383.028853 263.544022 
L 383.028853 268.735234 
L 384.668523 268.735234 
L 384.668523 268.735234 
" clip-path="url(#pe3ec8aa500)" style="fill: none; stroke: #2ca02c; stroke-width: 1.5; stroke-linecap: square"/>
   </g>
   <g id="patch_3">
    <path d="M 43.78125 288.430125 
L 43.78125 22.318125 
" style="fill: none; stroke: #000000; stroke-width: 0.8; stroke-linejoin: miter; stroke-linecap: square"/>
   </g>
   <g id="patch_4">
    <path d="M 400.90125 288.430125 
L 400.90125 22.318125 
" style="fill: none; stroke: #000000; stroke-width: 0.8; stroke-linejoin: miter; stroke-linecap: square"/>
   </g>
   <g id="patch_5">
    <path d="M 43.78125 288.430125 
L 400.90125 288.430125 
" style="fill: none; stroke: #000000; stroke-width: 0.8; stroke-linejoin: miter; stroke-linecap: square"/>
   </g>
   <g id="patch_6">
    <path d="M 43.78125 22.318125 
L 400.90125 22.318125 
" style="fill: none; stroke: #000000; stroke-width: 0.8; stroke-linejoin: miter; stroke-linecap: square"/>
   </g>
   <g id="text_15">
    <!-- Advection-Diffusion -->
    <g transform="translate(163.753125 16.318125) scale(0.12 -0.12)">
     <defs>
      <path id="DejaVuSans-41" d="M 2188 4044 
L 1331 1722 
L 3047 1722 
L 2188 4044 
z
M 1831 4666 
L 2547 4666 
L 4325 0 
L 3669 0 
L 3244 1197 
L 1141 1197 
L 716 0 
L 50 0 
L 1831 4666 
z
" transform="scale(0.015625)"/>
      <path id="DejaVuSans-64" d="M 2906 2969 
L 2906 4863 
L 3481 4863 
L 3481 0 
L 2906 0 
L 2906 525 
Q 2725 213 2448 61 
Q 2172 -91 1784 -91 
Q 1150 -91 751 415 
Q 353 922 353 1747 
Q 353 2572 751 3078 
Q 1150 3584 1784 3584 
Q 2172 3584 2448 3432 
Q 2725 3281 2906 2969 
z
M 947 1747 
Q 947 1113 1208 752 
Q 1469 391 1925 391 
Q 2381 391 2643 752 
Q 2906 1113 2906 1747 
Q 2906 2381 2643 2742 
Q 2381 3103 1925 3103 
Q 1469 3103 1208 2742 
Q 947 2381 947 1747 
z
" transform="scale(0.015625)"/>
      <path id="DejaVuSans-76" d="M 191 3500 
L 800 3500 
L 1894 563 
L 2988 3500 
L 3597 3500 
L 2284 0 
L 1503 0 
L 191 3500 
z
" transform="scale(0.015625)"/>
      <path id="DejaVuSans-65" d="M 3597 1894 
L 3597 1613 
L 953 1613 
Q 991 1019 1311 708 
Q 1631 397 2203 397 
Q 2534 397 2845 478 
Q 3156 559 3463 722 
L 3463 178 
Q 3153 47 2828 -22 
Q 2503 -91 2169 -91 
Q 1331 -91 842 396 
Q 353 884 353 1716 
Q 353 2575 817 3079 
Q 1281 3584 2069 3584 
Q 2775 3584 3186 3129 
Q 3597 2675 3597 1894 
z
M 3022 2063 
Q 3016 2534 2758 2815 
Q 2500 3097 2075 3097 
Q 1594 3097 1305 2825 
Q 1016 2553 972 2059 
L 3022 2063 
z
" transform="scale(0.015625)"/>
      <path id="DejaVuSans-63" d="M 3122 3366 
L 3122 2828 
Q 2878 2963 2633 3030 
Q 2388 3097 2138 3097 
Q 1578 3097 1268 2742 
Q 959 2388 959 1747 
Q 959 1106 1268 751 
Q 1578 397 2138 397 
Q 2388 397 2633 464 
Q 2878 531 3122 666 
L 3122 134 
Q 2881 22 2623 -34 
Q 2366 -91 2075 -91 
Q 1284 -91 818 406 
Q 353 903 353 1747 
Q 353 2603 823 3093 
Q 1294 3584 2113 3584 
Q 2378 3584 2631 3529 
Q 2884 3475 3122 3366 
z
" transform="scale(0.015625)"/>
      <path id="DejaVuSans-74" d="M 1172 4494 
L 1172 3500 
L 2356 3500 
L 2356 3053 
L 1172 3053 
L 1172 1153 
Q 1172 725 1289 603 
Q 1406 481 1766 481 
L 2356 481 
L 2356 0 
L 1766 0 
Q 1100 0 847 248 
Q 594 497 594 1153 
L 594 3053 
L 172 3053 
L 172 3500 
L 594 3500 
L 594 4494 
L 1172 4494 
z
" transform="scale(0.015625)"/>
      <path id="DejaVuSans-6f" d="M 1959 3097 
Q 1497 3097 1228 2736 
Q 959 2375 959 1747 
Q 959 1119 1226 758 
Q 1494 397 1959 397 
Q 2419 397 2687 759 
Q 2956 1122 2956 1747 
Q 2956 2369 2687 2733 
Q 2419 3097 1959 3097 
z
M 1959 3584 
Q 2709 3584 3137 3096 
Q 3566 2609 3566 1747 
Q 3566 888 3137 398 
Q 2709 -91 1959 -91 
Q 1206 -91 779 398 
Q 353 888 353 1747 
Q 353 2609 779 3096 
Q 1206 3584 1959 3584 
z
" transform="scale(0.015625)"/>
      <path id="DejaVuSans-6e" d="M 3513 2113 
L 3513 0 
L 2938 0 
L 2938 2094 
Q 2938 2591 2744 2837 
Q 2550 3084 2163 3084 
Q 1697 3084 1428 2787 
Q 1159 2491 1159 1978 
L 1159 0 
L 581 0 
L 581 3500 
L 1159 3500 
L 1159 2956 
Q 1366 3272 1645 3428 
Q 1925 3584 2291 3584 
Q 2894 3584 3203 3211 
Q 3513 2838 3513 2113 
z
" transform="scale(0.015625)"/>
      <path id="DejaVuSans-2d" d="M 313 2009 
L 1997 2009 
L 1997 1497 
L 313 1497 
L 313 2009 
z
" transform="scale(0.015625)"/>
      <path id="DejaVuSans-44" d="M 1259 4147 
L 1259 519 
L 2022 519 
Q 2988 519 3436 956 
Q 3884 1394 3884 2338 
Q 3884 3275 3436 3711 
Q 2988 4147 2022 4147 
L 1259 4147 
z
M 628 4666 
L 1925 4666 
Q 3281 4666 3915 4102 
Q 4550 3538 4550 2338 
Q 4550 1131 3912 565 
Q 3275 0 1925 0 
L 628 0 
L 628 4666 
z
" transform="scale(0.015625)"/>
      <path id="DejaVuSans-66" d="M 2375 4863 
L 2375 4384 
L 1825 4384 
Q 1516 4384 1395 4259 
Q 1275 4134 1275 3809 
L 1275 3500 
L 2222 3500 
L 2222 3053 
L 1275 3053 
L 1275 0 
L 697 0 
L 697 3053 
L 147 3053 
L 147 3500 
L 697 3500 
L 697 3744 
Q 697 4328 969 4595 
Q 1241 4863 1831 4863 
L 2375 4863 
z
" transform="scale(0.015625)"/>
      <path id="DejaVuSans-75" d="M 544 1381 
L 544 3500 
L 1119 3500 
L 1119 1403 
Q 1119 906 1312 657 
Q 1506 409 1894 409 
Q 2359 409 2629 706 
Q 2900 1003 2900 1516 
L 2900 3500 
L 3475 3500 
L 3475 0 
L 2900 0 
L 2900 538 
Q 2691 219 2414 64 
Q 2138 -91 1772 -91 
Q 1169 -91 856 284 
Q 544 659 544 1381 
z
M 1991 3584 
L 1991 3584 
z
" transform="scale(0.015625)"/>
     </defs>
     <use xlink:href="#DejaVuSans-41"/>
     <use xlink:href="#DejaVuSans-64" transform="translate(66.658203 0)"/>
     <use xlink:href="#DejaVuSans-76" transform="translate(130.134766 0)"/>
     <use xlink:href="#DejaVuSans-65" transform="translate(189.314453 0)"/>
     <use xlink:href="#DejaVuSans-63" transform="translate(250.837891 0)"/>
     <use xlink:href="#DejaVuSans-74" transform="translate(305.818359 0)"/>
     <use xlink:href="#DejaVuSans-69" transform="translate(345.027344 0)"/>
     <use xlink:href="#DejaVuSans-6f" transform="translate(372.810547 0)"/>
     <use xlink:href="#DejaVuSans-6e" transform="translate(433.992188 0)"/>
     <use xlink:href="#DejaVuSans-2d" transform="translate(497.371094 0)"/>
     <use xlink:href="#DejaVuSans-44" transform="translate(533.455078 0)"/>
     <use xlink:href="#DejaVuSans-69" transform="translate(610.457031 0)"/>
     <use xlink:href="#DejaVuSans-66" transform="translate(638.240234 0)"/>
     <use xlink:href="#DejaVuSans-66" transform="translate(673.445312 0)"/>
     <use xlink:href="#DejaVuSans-75" transform="translate(708.650391 0)"/>
     <use xlink:href="#DejaVuSans-73" transform="translate(772.029297 0)"/>
     <use xlink:href="#DejaVuSans-69" transform="translate(824.128906 0)"/>
     <use xlink:href="#DejaVuSans-6f" transform="translate(851.912109 0)"/>
     <use xlink:href="#DejaVuSans-6e" transform="translate(913.09375 0)"/>
    </g>
   </g>
   <g id="legend_1">
    <g id="patch_7">
     <path d="M 157.183437 283.430125 
L 287.499063 283.430125 
Q 289.499063 283.430125 289.499063 281.430125 
L 289.499063 238.117625 
Q 289.499063 236.117625 287.499063 236.117625 
L 157.183437 236.117625 
Q 155.183437 236.117625 155.183437 238.117625 
L 155.183437 281.430125 
Q 155.183437 283.430125 157.183437 283.430125 
z
" style="fill: #ffffff; opacity: 0.8; stroke: #cccccc; stroke-linejoin: miter"/>
    </g>
    <g id="line2d_28">
     <path d="M 159.183437 244.216062 
L 164.183437 244.216062 
L 164.183437 244.216062 
L 174.183437 244.216062 
L 174.183437 244.216062 
L 179.183437 244.216062 
" style="fill: none; stroke: #1f77b4; stroke-width: 1.5; stroke-linecap: square"/>
    </g>
    <g id="text_16">
     <!-- Initial (t=0) -->
     <g transform="translate(187.183437 247.716062) scale(0.1 -0.1)">
      <defs>
       <path id="DejaVuSans-49" d="M 628 4666 
L 1259 4666 
L 1259 0 
L 628 0 
L 628 4666 
z
" transform="scale(0.015625)"/>
       <path id="DejaVuSans-61" d="M 2194 1759 
Q 1497 1759 1228 1600 
Q 959 1441 959 1056 
Q 959 750 1161 570 
Q 1363 391 1709 391 
Q 2188 391 2477 730 
Q 2766 1069 2766 1631 
L 2766 1759 
L 2194 1759 
z
M 3341 1997 
L 3341 0 
L 2766 0 
L 2766 531 
Q 2569 213 2275 61 
Q 1981 -91 1556 -91 
Q 1019 -91 701 211 
Q 384 513 384 1019 
Q 384 1609 779 1909 
Q 1175 2209 1959 2209 
L 2766 2209 
L 2766 2266 
Q 2766 2663 2505 2880 
Q 2244 3097 1772 3097 
Q 1472 3097 1187 3025 
Q 903 2953 641 2809 
L 641 3341 
Q 956 3463 1253 3523 
Q 1550 3584 1831 3584 
Q 2591 3584 2966 3190 
Q 3341 2797 3341 1997 
z
" transform="scale(0.015625)"/>
       <path id="DejaVuSans-6c" d="M 603 4863 
L 1178 4863 
L 1178 0 
L 603 0 
L 603 4863 
z
" transform="scale(0.015625)"/>
       <path id="DejaVuSans-20" transform="scale(0.015625)"/>
       <path id="DejaVuSans-28" d="M 1984 4856 
Q 1566 4138 1362 3434 
Q 1159 2731 1159 2009 
Q 1159 1288 1364 580 
Q 1569 -128 1984 -844 
L 1484 -844 
Q 1016 -109 783 600 
Q 550 1309 550 2009 
Q 550 2706 781 3412 
Q 1013 4119 1484 4856 
L 1984 4856 
z
" transform="scale(0.015625)"/>
       <path id="DejaVuSans-3d" d="M 678 2906 
L 4684 2906 
L 4684 2381 
L 678 2381 
L 678 2906 
z
M 678 1631 
L 4684 1631 
L 4684 1100 
L 678 1100 
L 678 1631 
z
" transform="scale(0.015625)"/>
       <path id="DejaVuSans-29" d="M 513 4856 
L 1013 4856 
Q 1481 4119 1714 3412 
Q 1947 2706 1947 2009 
Q 1947 1309 1714 600 
Q 1481 -109 1013 -844 
L 513 -844 
Q 928 -128 1133 580 
Q 1338 1288 1338 2009 
Q 1338 2731 1133 3434 
Q 928 4138 513 4856 
z
" transform="scale(0.015625)"/>
      </defs>
      <use xlink:href="#DejaVuSans-49"/>
      <use xlink:href="#DejaVuSans-6e" transform="translate(29.492188 0)"/>
      <use xlink:href="#DejaVuSans-69" transform="translate(92.871094 0)"/>
      <use xlink:href="#DejaVuSans-74" transform="translate(120.654297 0)"/>
      <use xlink:href="#DejaVuSans-69" transform="translate(159.863281 0)"/>
      <use xlink:href="#DejaVuSans-61" transform="translate(187.646484 0)"/>
      <use xlink:href="#DejaVuSans-6c" transform="translate(248.925781 0)"/>
      <use xlink:href="#DejaVuSans-20" transform="translate(276.708984 0)"/>
      <use xlink:href="#DejaVuSans-28" transform="translate(308.496094 0)"/>
      <use xlink:href="#DejaVuSans-74" transform="translate(347.509766 0)"/>
      <use xlink:href="#DejaVuSans-3d" transform="translate(386.71875 0)"/>
      <use xlink:href="#DejaVuSans-30" transform="translate(470.507812 0)"/>
      <use xlink:href="#DejaVuSans-29" transform="translate(534.130859 0)"/>
     </g>
    </g>
    <g id="line2d_29">
     <path d="M 159.183437 258.894187 
L 164.183437 258.894187 
L 164.183437 258.894187 
L 174.183437 258.894187 
L 174.183437 258.894187 
L 179.183437 258.894187 
" style="fill: none; stroke: #ff7f0e; stroke-width: 1.5; stroke-linecap: square"/>
    </g>
    <g id="text_17">
     <!-- Analytic t_max -->
     <g transform="translate(187.183437 262.394187) scale(0.1 -0.1)">
      <defs>
       <path id="DejaVuSans-79" d="M 2059 -325 
Q 1816 -950 1584 -1140 
Q 1353 -1331 966 -1331 
L 506 -1331 
L 506 -850 
L 844 -850 
Q 1081 -850 1212 -737 
Q 1344 -625 1503 -206 
L 1606 56 
L 191 3500 
L 800 3500 
L 1894 763 
L 2988 3500 
L 3597 3500 
L 2059 -325 
z
" transform="scale(0.015625)"/>
       <path id="DejaVuSans-5f" d="M 3263 -1063 
L 3263 -1509 
L -63 -1509 
L -63 -1063 
L 3263 -1063 
z
" transform="scale(0.015625)"/>
       <path id="DejaVuSans-6d" d="M 3328 2828 
Q 3544 3216 3844 3400 
Q 4144 3584 4550 3584 
Q 5097 3584 5394 3201 
Q 5691 2819 5691 2113 
L 5691 0 
L 5113 0 
L 5113 2094 
Q 5113 2597 4934 2840 
Q 4756 3084 4391 3084 
Q 3944 3084 3684 2787 
Q 3425 2491 3425 1978 
L 3425 0 
L 2847 0 
L 2847 2094 
Q 2847 2600 2669 2842 
Q 2491 3084 2119 3084 
Q 1678 3084 1418 2786 
Q 1159 2488 1159 1978 
L 1159 0 
L 581 0 
L 581 3500 
L 1159 3500 
L 1159 2956 
Q 1356 3278 1631 3431 
Q 1906 3584 2284 3584 
Q 2666 3584 2933 3390 
Q 3200 3197 3328 2828 
z
" transform="scale(0.015625)"/>
      </defs>
      <use xlink:href="#DejaVuSans-41"/>
      <use xlink:href="#DejaVuSans-6e" transform="translate(68.408203 0)"/>
      <use xlink:href="#DejaVuSans-61" transform="translate(131.787109 0)"/>
      <use xlink:href="#DejaVuSans-6c" transform="translate(193.066406 0)"/>
      <use xlink:href="#DejaVuSans-79" transform="translate(220.849609 0)"/>
      <use xlink:href="#DejaVuSans-74" transform="translate(280.029297 0)"/>
      <use xlink:href="#DejaVuSans-69" transform="translate(319.238281 0)"/>
      <use xlink:href="#DejaVuSans-63" transform="translate(347.021484 0)"/>
      <use xlink:href="#DejaVuSans-20" transform="translate(402.001953 0)"/>
      <use xlink:href="#DejaVuSans-74" transform="translate(433.789062 0)"/>
      <use xlink:href="#DejaVuSans-5f" transform="translate(472.998047 0)"/>
      <use xlink:href="#DejaVuSans-6d" transform="translate(522.998047 0)"/>
      <use xlink:href="#DejaVuSans-61" transform="translate(620.410156 0)"/>
      <use xlink:href="#DejaVuSans-78" transform="translate(681.689453 0)"/>
     </g>
    </g>
    <g id="line2d_30">
     <path d="M 159.183437 273.850437 
L 164.183437 273.850437 
L 164.183437 273.850437 
L 174.183437 273.850437 
L 174.183437 273.850437 
L 179.183437 273.850437 
" style="fill: none; stroke: #2ca02c; stroke-width: 1.5; stroke-linecap: square"/>
    </g>
    <g id="text_18">
     <!-- Numerical (upwind) -->
     <g transform="translate(187.183437 277.350437) scale(0.1 -0.1)">
      <defs>
       <path id="DejaVuSans-4e" d="M 628 4666 
L 1478 4666 
L 3547 763 
L 3547 4666 
L 4159 4666 
L 4159 0 
L 3309 0 
L 1241 3903 
L 1241 0 
L 628 0 
L 628 4666 
z
" transform="scale(0.015625)"/>
       <path id="DejaVuSans-72" d="M 2631 2963 
Q 2534 3019 2420 3045 
Q 2306 3072 2169 3072 
Q 1681 3072 1420 2755 
Q 1159 2438 1159 1844 
L 1159 0 
L 581 0 
L 581 3500 
L 1159 3500 
L 1159 2956 
Q 1341 3275 1631 3429 
Q 1922 3584 2338 3584 
Q 2397 3584 2469 3576 
Q 2541 3569 2628 3553 
L 2631 2963 
z
" transform="scale(0.015625)"/>
       <path id="DejaVuSans-77" d="M 269 3500 
L 844 3500 
L 1563 769 
L 2278 3500 
L 2956 3500 
L 3675 769 
L 4391 3500 
L 4966 3500 
L 4050 0 
L 3372 0 
L 2619 2869 
L 1863 0 
L 1184 0 
L 269 3500 
z
" transform="scale(0.015625)"/>
      </defs>
      <use xlink:href="#DejaVuSans-4e"/>
      <use xlink:href="#DejaVuSans-75" transform="translate(74.804688 0)"/>
      <use xlink:href="#DejaVuSans-6d" transform="translate(138.183594 0)"/>
      <use xlink:href="#DejaVuSans-65" transform="translate(235.595703 0)"/>
      <use xlink:href="#DejaVuSans-72" transform="translate(297.119141 0)"/>
      <use xlink:href="#DejaVuSans-69" transform="translate(338.232422 0)"/>
      <use xlink:href="#DejaVuSans-63" transform="translate(366.015625 0)"/>
      <use xlink:href="#DejaVuSans-61" transform="translate(420.996094 0)"/>
      <use xlink:href="#DejaVuSans-6c" transform="translate(482.275391 0)"/>
      <use xlink:href="#DejaVuSans-20" transform="translate(510.058594 0)"/>
      <use xlink:href="#DejaVuSans-28" transform="translate(541.845703 0)"/>
      <use xlink:href="#DejaVuSans-75" transform="translate(580.859375 0)"/>
      <use xlink:href="#DejaVuSans-70" transform="translate(644.238281 0)"/>
      <use xlink:href="#DejaVuSans-77" transform="translate(707.714844 0)"/>
      <use xlink:href="#DejaVuSans-69" transform="translate(789.501953 0)"/>
      <use xlink:href="#DejaVuSans-6e" transform="translate(817.285156 0)"/>
      <use xlink:href="#DejaVuSans-64" transform="translate(880.664062 0)"/>
      <use xlink:href="#DejaVuSans-29" transform="translate(944.140625 0)"/>
     </g>
    </g>
   </g>
  </g>
 </g>
 <defs>
  <clipPath id="pe3ec8aa500">
   <rect x="43.78125" y="22.318125" width="357.12" height="266.112"/>
  </clipPath>
 </defs>
</svg>
