<?xml version="1.0" encoding="utf-8" standalone="no"?>
<!DOCTYPE svg PUBLIC "-//W3C//DTD SVG 1.1//EN"
  "http://www.w3.org/Graphics/SVG/1.1/DTD/svg11.dtd">
<svg xmlns:xlink="http://www.w3.org/1999/xlink" width="394.423125pt" height="297.190125pt" viewBox="0 0 394.423125 297.190125" xmlns="http://www.w3.org/2000/svg" version="1.1">
 <metadata>
  <rdf:RDF xmlns:dc="http://purl.org/dc/elements/1.1/" xmlns:cc="http://creativecommons.org/ns#" xmlns:rdf="http://www.w3.org/1999/02/22-rdf-syntax-ns#">
   <cc:Work>
    <dc:type rdf:resource="http://purl.org/dc/dcmitype/StillImage"/>
    <dc:date>2025-04-02T20:03:34.826383</dc:date>
    <dc:format>image/svg+xml</dc:format>
    <dc:creator>
     <cc:Agent>
      <dc:title>Matplotlib v3.10.1, https://matplotlib.org/</dc:title>
     </cc:Agent>
    </dc:creator>
   </cc:Work>
  </rdf:RDF>
 </metadata>
 <defs>
  <style type="text/css">*{stroke-linejoin: round; stroke-linecap: butt}</style>
 </defs>
 <g id="figure_1">
  <g id="patch_1">
   <path d="M 0 297.190125 
L 394.423125 297.190125 
L 394.423125 0 
L 0 0 
z
" style="fill: #ffffff"/>
  </g>
  <g id="axes_1">
   <g id="patch_2">
    <path d="M 30.103125 273.312 
L 387.223125 273.312 
L 387.223125 7.2 
L 30.103125 7.2 
z
" style="fill: #ffffff"/>
   </g>
   <g id="matplotlib.axis_1">
    <g id="xtick_1">
     <g id="line2d_1">
      <path d="M 46.335852 273.312 
L 46.335852 7.2 
" clip-path="url(#p80c29bfd22)" style="fill: none; stroke: #b0b0b0; stroke-width: 0.8; stroke-linecap: square"/>
     </g>
     <g id="line2d_2">
      <defs>
       <path id="m184643c901" d="M 0 0 
L 0 3.5 
" style="stroke: #000000; stroke-width: 0.8"/>
      </defs>
      <g>
       <use xlink:href="#m184643c901" x="46.335852" y="273.312" style="stroke: #000000; stroke-width: 0.8"/>
      </g>
     </g>
     <g id="text_1">
      <!-- −100 -->
      <g transform="translate(32.602259 287.910437) scale(0.1 -0.1)">
       <defs>
        <path id="DejaVuSans-2212" d="M 678 2272 
L 4684 2272 
L 4684 1741 
L 678 1741 
L 678 2272 
z
" transform="scale(0.015625)"/>
        <path id="DejaVuSans-31" d="M 794 531 
L 1825 531 
L 1825 4091 
L 703 3866 
L 703 4441 
L 1819 4666 
L 2450 4666 
L 2450 531 
L 3481 531 
L 3481 0 
L 794 0 
L 794 531 
z
" transform="scale(0.015625)"/>
        <path id="DejaVuSans-30" d="M 2034 4250 
Q 1547 4250 1301 3770 
Q 1056 3291 1056 2328 
Q 1056 1369 1301 889 
Q 1547 409 2034 409 
Q 2525 409 2770 889 
Q 3016 1369 3016 2328 
Q 3016 3291 2770 3770 
Q 2525 4250 2034 4250 
z
M 2034 4750 
Q 2819 4750 3233 4129 
Q 3647 3509 3647 2328 
Q 3647 1150 3233 529 
Q 2819 -91 2034 -91 
Q 1250 -91 836 529 
Q 422 1150 422 2328 
Q 422 3509 836 4129 
Q 1250 4750 2034 4750 
z
" transform="scale(0.015625)"/>
       </defs>
       <use xlink:href="#DejaVuSans-2212"/>
       <use xlink:href="#DejaVuSans-31" transform="translate(83.789062 0)"/>
       <use xlink:href="#DejaVuSans-30" transform="translate(147.412109 0)"/>
       <use xlink:href="#DejaVuSans-30" transform="translate(211.035156 0)"/>
      </g>
     </g>
    </g>
    <g id="xtick_2">
     <g id="line2d_3">
      <path d="M 86.91767 273.312 
L 86.91767 7.2 
" clip-path="url(#p80c29bfd22)" style="fill: none; stroke: #b0b0b0; stroke-width: 0.8; stroke-linecap: square"/>
     </g>
     <g id="line2d_4">
      <g>
       <use xlink:href="#m184643c901" x="86.91767" y="273.312" style="stroke: #000000; stroke-width: 0.8"/>
      </g>
     </g>
     <g id="text_2">
      <!-- −50 -->
      <g transform="translate(76.365327 287.910437) scale(0.1 -0.1)">
       <defs>
        <path id="DejaVuSans-35" d="M 691 4666 
L 3169 4666 
L 3169 4134 
L 1269 4134 
L 1269 2991 
Q 1406 3038 1543 3061 
Q 1681 3084 1819 3084 
Q 2600 3084 3056 2656 
Q 3513 2228 3513 1497 
Q 3513 744 3044 326 
Q 2575 -91 1722 -91 
Q 1428 -91 1123 -41 
Q 819 9 494 109 
L 494 744 
Q 775 591 1075 516 
Q 1375 441 1709 441 
Q 2250 441 2565 725 
Q 2881 1009 2881 1497 
Q 2881 1984 2565 2268 
Q 2250 2553 1709 2553 
Q 1456 2553 1204 2497 
Q 953 2441 691 2322 
L 691 4666 
z
" transform="scale(0.015625)"/>
       </defs>
       <use xlink:href="#DejaVuSans-2212"/>
       <use xlink:href="#DejaVuSans-35" transform="translate(83.789062 0)"/>
       <use xlink:href="#DejaVuSans-30" transform="translate(147.412109 0)"/>
      </g>
     </g>
    </g>
    <g id="xtick_3">
     <g id="line2d_5">
      <path d="M 127.499489 273.312 
L 127.499489 7.2 
" clip-path="url(#p80c29bfd22)" style="fill: none; stroke: #b0b0b0; stroke-width: 0.8; stroke-linecap: square"/>
     </g>
     <g id="line2d_6">
      <g>
       <use xlink:href="#m184643c901" x="127.499489" y="273.312" style="stroke: #000000; stroke-width: 0.8"/>
      </g>
     </g>
     <g id="text_3">
      <!-- 0 -->
      <g transform="translate(124.318239 287.910437) scale(0.1 -0.1)">
       <use xlink:href="#DejaVuSans-30"/>
      </g>
     </g>
    </g>
    <g id="xtick_4">
     <g id="line2d_7">
      <path d="M 168.081307 273.312 
L 168.081307 7.2 
" clip-path="url(#p80c29bfd22)" style="fill: none; stroke: #b0b0b0; stroke-width: 0.8; stroke-linecap: square"/>
     </g>
     <g id="line2d_8">
      <g>
       <use xlink:href="#m184643c901" x="168.081307" y="273.312" style="stroke: #000000; stroke-width: 0.8"/>
      </g>
     </g>
     <g id="text_4">
      <!-- 50 -->
      <g transform="translate(161.718807 287.910437) scale(0.1 -0.1)">
       <use xlink:href="#DejaVuSans-35"/>
       <use xlink:href="#DejaVuSans-30" transform="translate(63.623047 0)"/>
      </g>
     </g>
    </g>
    <g id="xtick_5">
     <g id="line2d_9">
      <path d="M 208.663125 273.312 
L 208.663125 7.2 
" clip-path="url(#p80c29bfd22)" style="fill: none; stroke: #b0b0b0; stroke-width: 0.8; stroke-linecap: square"/>
     </g>
     <g id="line2d_10">
      <g>
       <use xlink:href="#m184643c901" x="208.663125" y="273.312" style="stroke: #000000; stroke-width: 0.8"/>
      </g>
     </g>
     <g id="text_5">
      <!-- 100 -->
      <g transform="translate(199.119375 287.910437) scale(0.1 -0.1)">
       <use xlink:href="#DejaVuSans-31"/>
       <use xlink:href="#DejaVuSans-30" transform="translate(63.623047 0)"/>
       <use xlink:href="#DejaVuSans-30" transform="translate(127.246094 0)"/>
      </g>
     </g>
    </g>
    <g id="xtick_6">
     <g id="line2d_11">
      <path d="M 249.244943 273.312 
L 249.244943 7.2 
" clip-path="url(#p80c29bfd22)" style="fill: none; stroke: #b0b0b0; stroke-width: 0.8; stroke-linecap: square"/>
     </g>
     <g id="line2d_12">
      <g>
       <use xlink:href="#m184643c901" x="249.244943" y="273.312" style="stroke: #000000; stroke-width: 0.8"/>
      </g>
     </g>
     <g id="text_6">
      <!-- 150 -->
      <g transform="translate(239.701193 287.910437) scale(0.1 -0.1)">
       <use xlink:href="#DejaVuSans-31"/>
       <use xlink:href="#DejaVuSans-35" transform="translate(63.623047 0)"/>
       <use xlink:href="#DejaVuSans-30" transform="translate(127.246094 0)"/>
      </g>
     </g>
    </g>
    <g id="xtick_7">
     <g id="line2d_13">
      <path d="M 289.826761 273.312 
L 289.826761 7.2 
" clip-path="url(#p80c29bfd22)" style="fill: none; stroke: #b0b0b0; stroke-width: 0.8; stroke-linecap: square"/>
     </g>
     <g id="line2d_14">
      <g>
       <use xlink:href="#m184643c901" x="289.826761" y="273.312" style="stroke: #000000; stroke-width: 0.8"/>
      </g>
     </g>
     <g id="text_7">
      <!-- 200 -->
      <g transform="translate(280.283011 287.910437) scale(0.1 -0.1)">
       <defs>
        <path id="DejaVuSans-32" d="M 1228 531 
L 3431 531 
L 3431 0 
L 469 0 
L 469 531 
Q 828 903 1448 1529 
Q 2069 2156 2228 2338 
Q 2531 2678 2651 2914 
Q 2772 3150 2772 3378 
Q 2772 3750 2511 3984 
Q 2250 4219 1831 4219 
Q 1534 4219 1204 4116 
Q 875 4013 500 3803 
L 500 4441 
Q 881 4594 1212 4672 
Q 1544 4750 1819 4750 
Q 2544 4750 2975 4387 
Q 3406 4025 3406 3419 
Q 3406 3131 3298 2873 
Q 3191 2616 2906 2266 
Q 2828 2175 2409 1742 
Q 1991 1309 1228 531 
z
" transform="scale(0.015625)"/>
       </defs>
       <use xlink:href="#DejaVuSans-32"/>
       <use xlink:href="#DejaVuSans-30" transform="translate(63.623047 0)"/>
       <use xlink:href="#DejaVuSans-30" transform="translate(127.246094 0)"/>
      </g>
     </g>
    </g>
    <g id="xtick_8">
     <g id="line2d_15">
      <path d="M 330.40858 273.312 
L 330.40858 7.2 
" clip-path="url(#p80c29bfd22)" style="fill: none; stroke: #b0b0b0; stroke-width: 0.8; stroke-linecap: square"/>
     </g>
     <g id="line2d_16">
      <g>
       <use xlink:href="#m184643c901" x="330.40858" y="273.312" style="stroke: #000000; stroke-width: 0.8"/>
      </g>
     </g>
     <g id="text_8">
      <!-- 250 -->
      <g transform="translate(320.86483 287.910437) scale(0.1 -0.1)">
       <use xlink:href="#DejaVuSans-32"/>
       <use xlink:href="#DejaVuSans-35" transform="translate(63.623047 0)"/>
       <use xlink:href="#DejaVuSans-30" transform="translate(127.246094 0)"/>
      </g>
     </g>
    </g>
    <g id="xtick_9">
     <g id="line2d_17">
      <path d="M 370.990398 273.312 
L 370.990398 7.2 
" clip-path="url(#p80c29bfd22)" style="fill: none; stroke: #b0b0b0; stroke-width: 0.8; stroke-linecap: square"/>
     </g>
     <g id="line2d_18">
      <g>
       <use xlink:href="#m184643c901" x="370.990398" y="273.312" style="stroke: #000000; stroke-width: 0.8"/>
      </g>
     </g>
     <g id="text_9">
      <!-- 300 -->
      <g transform="translate(361.446648 287.910437) scale(0.1 -0.1)">
       <defs>
        <path id="DejaVuSans-33" d="M 2597 2516 
Q 3050 2419 3304 2112 
Q 3559 1806 3559 1356 
Q 3559 666 3084 287 
Q 2609 -91 1734 -91 
Q 1441 -91 1130 -33 
Q 819 25 488 141 
L 488 750 
Q 750 597 1062 519 
Q 1375 441 1716 441 
Q 2309 441 2620 675 
Q 2931 909 2931 1356 
Q 2931 1769 2642 2001 
Q 2353 2234 1838 2234 
L 1294 2234 
L 1294 2753 
L 1863 2753 
Q 2328 2753 2575 2939 
Q 2822 3125 2822 3475 
Q 2822 3834 2567 4026 
Q 2313 4219 1838 4219 
Q 1578 4219 1281 4162 
Q 984 4106 628 3988 
L 628 4550 
Q 988 4650 1302 4700 
Q 1616 4750 1894 4750 
Q 2613 4750 3031 4423 
Q 3450 4097 3450 3541 
Q 3450 3153 3228 2886 
Q 3006 2619 2597 2516 
z
" transform="scale(0.015625)"/>
       </defs>
       <use xlink:href="#DejaVuSans-33"/>
       <use xlink:href="#DejaVuSans-30" transform="translate(63.623047 0)"/>
       <use xlink:href="#DejaVuSans-30" transform="translate(127.246094 0)"/>
      </g>
     </g>
    </g>
   </g>
   <g id="matplotlib.axis_2">
    <g id="ytick_1">
     <g id="line2d_19">
      <path d="M 30.103125 261.216 
L 387.223125 261.216 
" clip-path="url(#p80c29bfd22)" style="fill: none; stroke: #b0b0b0; stroke-width: 0.8; stroke-linecap: square"/>
     </g>
     <g id="line2d_20">
      <defs>
       <path id="m0f2e1e3478" d="M 0 0 
L -3.5 0 
" style="stroke: #000000; stroke-width: 0.8"/>
      </defs>
      <g>
       <use xlink:href="#m0f2e1e3478" x="30.103125" y="261.216" style="stroke: #000000; stroke-width: 0.8"/>
      </g>
     </g>
     <g id="text_10">
      <!-- 0.0 -->
      <g transform="translate(7.2 265.015219) scale(0.1 -0.1)">
       <defs>
        <path id="DejaVuSans-2e" d="M 684 794 
L 1344 794 
L 1344 0 
L 684 0 
L 684 794 
z
" transform="scale(0.015625)"/>
       </defs>
       <use xlink:href="#DejaVuSans-30"/>
       <use xlink:href="#DejaVuSans-2e" transform="translate(63.623047 0)"/>
       <use xlink:href="#DejaVuSans-30" transform="translate(95.410156 0)"/>
      </g>
     </g>
    </g>
    <g id="ytick_2">
     <g id="line2d_21">
      <path d="M 30.103125 202.435 
L 387.223125 202.435 
" clip-path="url(#p80c29bfd22)" style="fill: none; stroke: #b0b0b0; stroke-width: 0.8; stroke-linecap: square"/>
     </g>
     <g id="line2d_22">
      <g>
       <use xlink:href="#m0f2e1e3478" x="30.103125" y="202.435" style="stroke: #000000; stroke-width: 0.8"/>
      </g>
     </g>
     <g id="text_11">
      <!-- 0.5 -->
      <g transform="translate(7.2 206.234219) scale(0.1 -0.1)">
       <use xlink:href="#DejaVuSans-30"/>
       <use xlink:href="#DejaVuSans-2e" transform="translate(63.623047 0)"/>
       <use xlink:href="#DejaVuSans-35" transform="translate(95.410156 0)"/>
      </g>
     </g>
    </g>
    <g id="ytick_3">
     <g id="line2d_23">
      <path d="M 30.103125 143.654 
L 387.223125 143.654 
" clip-path="url(#p80c29bfd22)" style="fill: none; stroke: #b0b0b0; stroke-width: 0.8; stroke-linecap: square"/>
     </g>
     <g id="line2d_24">
      <g>
       <use xlink:href="#m0f2e1e3478" x="30.103125" y="143.654" style="stroke: #000000; stroke-width: 0.8"/>
      </g>
     </g>
     <g id="text_12">
      <!-- 1.0 -->
      <g transform="translate(7.2 147.453219) scale(0.1 -0.1)">
       <use xlink:href="#DejaVuSans-31"/>
       <use xlink:href="#DejaVuSans-2e" transform="translate(63.623047 0)"/>
       <use xlink:href="#DejaVuSans-30" transform="translate(95.410156 0)"/>
      </g>
     </g>
    </g>
    <g id="ytick_4">
     <g id="line2d_25">
      <path d="M 30.103125 84.873 
L 387.223125 84.873 
" clip-path="url(#p80c29bfd22)" style="fill: none; stroke: #b0b0b0; stroke-width: 0.8; stroke-linecap: square"/>
     </g>
     <g id="line2d_26">
      <g>
       <use xlink:href="#m0f2e1e3478" x="30.103125" y="84.873" style="stroke: #000000; stroke-width: 0.8"/>
      </g>
     </g>
     <g id="text_13">
      <!-- 1.5 -->
      <g transform="translate(7.2 88.672219) scale(0.1 -0.1)">
       <use xlink:href="#DejaVuSans-31"/>
       <use xlink:href="#DejaVuSans-2e" transform="translate(63.623047 0)"/>
       <use xlink:href="#DejaVuSans-35" transform="translate(95.410156 0)"/>
      </g>
     </g>
    </g>
    <g id="ytick_5">
     <g id="line2d_27">
      <path d="M 30.103125 26.092 
L 387.223125 26.092 
" clip-path="url(#p80c29bfd22)" style="fill: none; stroke: #b0b0b0; stroke-width: 0.8; stroke-linecap: square"/>
     </g>
     <g id="line2d_28">
      <g>
       <use xlink:href="#m0f2e1e3478" x="30.103125" y="26.092" style="stroke: #000000; stroke-width: 0.8"/>
      </g>
     </g>
     <g id="text_14">
      <!-- 2.0 -->
      <g transform="translate(7.2 29.891219) scale(0.1 -0.1)">
       <use xlink:href="#DejaVuSans-32"/>
       <use xlink:href="#DejaVuSans-2e" transform="translate(63.623047 0)"/>
       <use xlink:href="#DejaVuSans-30" transform="translate(95.410156 0)"/>
      </g>
     </g>
    </g>
   </g>
   <g id="line2d_29">
    <path d="M 46.335852 261.215562 
L 66.959399 261.119801 
L 66.959399 261.085403 
L 70.951053 260.980113 
L 70.951053 260.902156 
L 73.612156 260.801233 
L 73.612156 260.671525 
L 74.942708 260.671525 
L 74.942708 260.506041 
L 76.273259 260.506041 
L 76.273259 260.296459 
L 77.603811 260.296459 
L 77.603811 260.032983 
L 78.934362 260.032983 
L 78.934362 259.704205 
L 80.264913 259.704205 
L 80.264913 259.296992 
L 81.595465 259.296992 
L 81.595465 258.796403 
L 82.926016 258.796403 
L 82.926016 258.185659 
L 84.256568 258.185659 
L 84.256568 257.446168 
L 85.587119 257.446168 
L 85.587119 256.557623 
L 86.91767 256.557623 
L 86.91767 255.498195 
L 88.248222 255.498195 
L 88.248222 254.24482 
L 89.578773 254.24482 
L 89.578773 252.773612 
L 90.909325 252.773612 
L 90.909325 251.060378 
L 92.239876 251.060378 
L 92.239876 249.081278 
L 93.570428 249.081278 
L 93.570428 246.813586 
L 94.900979 246.813586 
L 94.900979 244.236578 
L 96.23153 244.236578 
L 96.23153 241.332509 
L 97.562082 241.332509 
L 97.562082 238.087657 
L 98.892633 238.087657 
L 98.892633 234.49341 
L 100.223185 234.49341 
L 100.223185 230.547347 
L 101.553736 230.547347 
L 101.553736 226.254264 
L 102.884287 226.254264 
L 102.884287 221.627101 
L 104.214839 221.627101 
L 104.214839 216.687712 
L 105.54539 216.687712 
L 105.54539 211.467417 
L 106.875942 211.467417 
L 106.875942 206.007294 
L 108.206493 206.007294 
L 108.206493 200.358157 
L 109.537045 200.358157 
L 109.537045 194.58019 
L 110.867596 194.58019 
L 110.867596 188.742214 
L 112.198147 188.742214 
L 112.198147 182.920581 
L 113.528699 182.920581 
L 113.528699 177.197698 
L 114.85925 177.197698 
L 114.85925 171.660228 
L 116.189802 171.660228 
L 116.189802 166.396993 
L 117.520353 166.396993 
L 117.520353 161.496667 
L 118.850904 161.496667 
L 118.850904 157.045329 
L 120.181456 157.045329 
L 120.181456 153.123963 
L 121.512007 153.123963 
L 121.512007 149.806025 
L 122.842559 149.806025 
L 122.842559 147.155154 
L 124.17311 147.155154 
L 124.17311 145.223144 
L 125.503662 145.223144 
L 125.503662 144.048265 
L 126.834213 144.048265 
L 126.834213 143.654 
L 128.164764 143.654 
L 128.164764 144.048265 
L 129.495316 144.048265 
L 129.495316 145.223144 
L 130.825867 145.223144 
L 130.825867 147.155154 
L 132.156419 147.155154 
L 132.156419 149.806025 
L 133.48697 149.806025 
L 133.48697 153.123963 
L 134.817521 153.123963 
L 134.817521 157.045329 
L 136.148073 157.045329 
L 136.148073 161.496667 
L 137.478624 161.496667 
L 137.478624 166.396993 
L 138.809176 166.396993 
L 138.809176 171.660228 
L 140.139727 171.660228 
L 140.139727 177.197698 
L 141.470279 177.197698 
L 141.470279 182.920581 
L 142.80083 182.920581 
L 142.80083 188.742214 
L 144.131381 188.742214 
L 144.131381 194.58019 
L 145.461933 194.58019 
L 145.461933 200.358157 
L 146.792484 200.358157 
L 146.792484 206.007294 
L 148.123036 206.007294 
L 148.123036 211.467417 
L 149.453587 211.467417 
L 149.453587 216.687712 
L 150.784138 216.687712 
L 150.784138 221.627101 
L 152.11469 221.627101 
L 152.11469 226.254264 
L 153.445241 226.254264 
L 153.445241 230.547347 
L 154.775793 230.547347 
L 154.775793 234.49341 
L 156.106344 234.49341 
L 156.106344 238.087657 
L 157.436895 238.087657 
L 157.436895 241.332509 
L 158.767447 241.332509 
L 158.767447 244.236578 
L 160.097998 244.236578 
L 160.097998 246.813586 
L 161.42855 246.813586 
L 161.42855 249.081278 
L 162.759101 249.081278 
L 162.759101 251.060378 
L 164.089653 251.060378 
L 164.089653 252.773612 
L 165.420204 252.773612 
L 165.420204 254.24482 
L 166.750755 254.24482 
L 166.750755 255.498195 
L 168.081307 255.498195 
L 168.081307 256.557623 
L 169.411858 256.557623 
L 169.411858 257.446168 
L 170.74241 257.446168 
L 170.74241 258.185659 
L 172.072961 258.185659 
L 172.072961 258.796403 
L 173.403512 258.796403 
L 173.403512 259.296992 
L 174.734064 259.296992 
L 174.734064 259.704205 
L 176.064615 259.704205 
L 176.064615 260.032983 
L 177.395167 260.032983 
L 177.395167 260.296459 
L 178.725718 260.296459 
L 178.725718 260.506041 
L 180.05627 260.506041 
L 180.05627 260.671525 
L 181.386821 260.671525 
L 181.386821 260.801233 
L 184.047924 260.902156 
L 184.047924 260.980113 
L 188.039578 261.085403 
L 188.039578 261.119801 
L 370.990398 261.216 
L 370.990398 261.216 
" clip-path="url(#p80c29bfd22)" style="fill: none; stroke: #1f77b4; stroke-width: 1.5; stroke-linecap: square"/>
   </g>
   <g id="line2d_30">
    <path d="M 46.335852 261.216 
L 173.403512 261.134157 
L 173.403512 261.104504 
L 177.395167 261.013201 
L 177.395167 260.945235 
L 180.05627 260.856912 
L 180.05627 260.742967 
L 181.386821 260.742967 
L 181.386821 260.597037 
L 182.717372 260.597037 
L 182.717372 260.411512 
L 184.047924 260.411512 
L 184.047924 260.17738 
L 185.378475 260.17738 
L 185.378475 259.884087 
L 186.709027 259.884087 
L 186.709027 259.519408 
L 188.039578 259.519408 
L 188.039578 259.069352 
L 189.370129 259.069352 
L 189.370129 258.518096 
L 190.700681 258.518096 
L 190.700681 257.847983 
L 192.031232 257.847983 
L 192.031232 257.03958 
L 193.361784 257.03958 
L 193.361784 256.071819 
L 194.692335 256.071819 
L 194.692335 254.922236 
L 196.022887 254.922236 
L 196.022887 253.567315 
L 197.353438 253.567315 
L 197.353438 251.982949 
L 198.683989 251.982949 
L 198.683989 250.145025 
L 200.014541 250.145025 
L 200.014541 248.030136 
L 201.345092 248.030136 
L 201.345092 245.616399 
L 202.675644 245.616399 
L 202.675644 242.884394 
L 204.006195 242.884394 
L 204.006195 239.818172 
L 205.336746 239.818172 
L 205.336746 236.406329 
L 206.667298 236.406329 
L 206.667298 232.643092 
L 207.997849 232.643092 
L 207.997849 228.529379 
L 209.328401 228.529379 
L 209.328401 224.073789 
L 210.658952 224.073789 
L 210.658952 219.293458 
L 211.989504 219.293458 
L 211.989504 214.214728 
L 213.320055 214.214728 
L 213.320055 208.873586 
L 214.650606 208.873586 
L 214.650606 203.315805 
L 215.981158 203.315805 
L 215.981158 197.596765 
L 217.311709 197.596765 
L 217.311709 191.78091 
L 218.642261 191.78091 
L 218.642261 185.940839 
L 219.972812 185.940839 
L 219.972812 180.156014 
L 221.303363 180.156014 
L 221.303363 174.511129 
L 222.633915 174.511129 
L 222.633915 169.09416 
L 223.964466 169.09416 
L 223.964466 163.994156 
L 225.295018 163.994156 
L 225.295018 159.298857 
L 226.625569 159.298857 
L 226.625569 155.092207 
L 227.956121 155.092207 
L 227.956121 151.451873 
L 229.286672 151.451873 
L 229.286672 148.44687 
L 230.617223 148.44687 
L 230.617223 146.135385 
L 231.947775 146.135385 
L 231.947775 144.562908 
L 233.278326 144.562908 
L 233.278326 143.76074 
L 235.939429 143.744956 
L 235.939429 144.515874 
L 237.26998 144.515874 
L 237.26998 146.058041 
L 238.600532 146.058041 
L 238.600532 148.340748 
L 239.931083 148.340748 
L 239.931083 151.319049 
L 241.261635 151.319049 
L 241.261635 154.935229 
L 242.592186 154.935229 
L 242.592186 159.120668 
L 243.922738 159.120668 
L 243.922738 163.797999 
L 245.253289 163.797999 
L 245.253289 168.883482 
L 246.58384 168.883482 
L 246.58384 174.289482 
L 247.914392 174.289482 
L 247.914392 179.926954 
L 249.244943 179.926954 
L 249.244943 185.707836 
L 250.575495 185.707836 
L 250.575495 191.547264 
L 251.906046 191.547264 
L 251.906046 197.365531 
L 253.236597 197.365531 
L 253.236597 203.089739 
L 254.567149 203.089739 
L 254.567149 208.655096 
L 255.8977 208.655096 
L 255.8977 214.005848 
L 257.228252 214.005848 
L 257.228252 219.09583 
L 258.558803 219.09583 
L 258.558803 223.888666 
L 259.889355 223.888666 
L 259.889355 228.357634 
L 261.219906 228.357634 
L 261.219906 232.485241 
L 262.550457 232.485241 
L 262.550457 236.262564 
L 263.881009 236.262564 
L 263.881009 239.688392 
L 265.21156 239.688392 
L 265.21156 242.768254 
L 266.542112 242.768254 
L 266.542112 245.513348 
L 267.872663 245.513348 
L 267.872663 247.939463 
L 269.203214 247.939463 
L 269.203214 250.065899 
L 270.533766 250.065899 
L 270.533766 251.914459 
L 271.864317 251.914459 
L 271.864317 253.508507 
L 273.194869 253.508507 
L 273.194869 254.872141 
L 274.52542 254.872141 
L 274.52542 256.02948 
L 275.855971 256.02948 
L 275.855971 257.004075 
L 277.186523 257.004075 
L 277.186523 257.818437 
L 278.517074 257.818437 
L 278.517074 258.493697 
L 279.847626 258.493697 
L 279.847626 259.049356 
L 281.178177 259.049356 
L 281.178177 259.503145 
L 282.508729 259.503145 
L 282.508729 259.870957 
L 283.83928 259.870957 
L 283.83928 260.16686 
L 285.169831 260.16686 
L 285.169831 260.403145 
L 286.500383 260.403145 
L 286.500383 260.590431 
L 287.830934 260.590431 
L 287.830934 260.73779 
L 289.161486 260.73779 
L 289.161486 260.852884 
L 291.822588 260.942125 
L 291.822588 261.010816 
L 295.814243 261.103132 
L 295.814243 261.133128 
L 370.990398 261.216 
L 370.990398 261.216 
" clip-path="url(#p80c29bfd22)" style="fill: none; stroke: #ff7f0e; stroke-width: 1.5; stroke-linecap: square"/>
   </g>
   <g id="line2d_31">
    <path d="M 46.335852 261.215562 
L 162.759101 261.107604 
L 162.759101 261.07684 
L 166.750755 260.989868 
L 166.750755 260.929783 
L 169.411858 260.855451 
L 169.411858 260.763969 
L 170.74241 260.763969 
L 170.74241 260.651963 
L 172.072961 260.651963 
L 172.072961 260.515539 
L 173.403512 260.515539 
L 173.403512 260.350239 
L 174.734064 260.350239 
L 174.734064 260.150995 
L 176.064615 260.150995 
L 176.064615 259.91209 
L 177.395167 259.91209 
L 177.395167 259.627133 
L 178.725718 259.627133 
L 178.725718 259.289035 
L 180.05627 259.289035 
L 180.05627 258.890002 
L 181.386821 258.890002 
L 181.386821 258.421552 
L 182.717372 258.421552 
L 182.717372 257.874539 
L 184.047924 257.874539 
L 184.047924 257.239206 
L 185.378475 257.239206 
L 185.378475 256.505267 
L 186.709027 256.505267 
L 186.709027 255.662011 
L 188.039578 255.662011 
L 188.039578 254.698437 
L 189.370129 254.698437 
L 189.370129 253.603425 
L 190.700681 253.603425 
L 190.700681 252.365932 
L 192.031232 252.365932 
L 192.031232 250.975228 
L 193.361784 250.975228 
L 193.361784 249.421151 
L 194.692335 249.421151 
L 194.692335 247.694398 
L 196.022887 247.694398 
L 196.022887 245.786833 
L 197.353438 245.786833 
L 197.353438 243.691813 
L 198.683989 243.691813 
L 198.683989 241.404526 
L 200.014541 241.404526 
L 200.014541 238.922323 
L 201.345092 238.922323 
L 201.345092 236.245048 
L 202.675644 236.245048 
L 202.675644 233.375344 
L 204.006195 233.375344 
L 204.006195 230.318931 
L 205.336746 230.318931 
L 205.336746 227.084844 
L 206.667298 227.084844 
L 206.667298 223.685607 
L 207.997849 223.685607 
L 207.997849 220.137356 
L 209.328401 220.137356 
L 209.328401 216.459882 
L 210.658952 216.459882 
L 210.658952 212.676586 
L 211.989504 212.676586 
L 211.989504 208.814355 
L 213.320055 208.814355 
L 213.320055 204.903337 
L 214.650606 204.903337 
L 214.650606 200.976631 
L 215.981158 200.976631 
L 215.981158 197.069874 
L 217.311709 197.069874 
L 217.311709 193.220747 
L 218.642261 193.220747 
L 218.642261 189.468403 
L 219.972812 189.468403 
L 219.972812 185.852826 
L 221.303363 185.852826 
L 221.303363 182.414131 
L 222.633915 182.414131 
L 222.633915 179.191832 
L 223.964466 179.191832 
L 223.964466 176.224091 
L 225.295018 176.224091 
L 225.295018 173.546967 
L 226.625569 173.546967 
L 226.625569 171.193682 
L 227.956121 171.193682 
L 227.956121 169.19394 
L 229.286672 169.19394 
L 229.286672 167.573295 
L 230.617223 167.573295 
L 230.617223 166.352611 
L 231.947775 166.352611 
L 231.947775 165.547614 
L 233.278326 165.547614 
L 233.278326 165.168551 
L 235.939429 165.219978 
L 235.939429 165.700667 
L 237.26998 165.700667 
L 237.26998 166.603647 
L 238.600532 166.603647 
L 238.600532 167.916371 
L 239.931083 167.916371 
L 239.931083 169.621002 
L 241.261635 169.621002 
L 241.261635 171.694822 
L 242.592186 171.694822 
L 242.592186 174.110727 
L 243.922738 174.110727 
L 243.922738 176.83782 
L 245.253289 176.83782 
L 245.253289 179.842061 
L 246.58384 179.842061 
L 246.58384 183.086972 
L 247.914392 183.086972 
L 247.914392 186.534363 
L 249.244943 186.534363 
L 249.244943 190.145074 
L 250.575495 190.145074 
L 250.575495 193.879695 
L 251.906046 193.879695 
L 251.906046 197.699266 
L 253.236597 197.699266 
L 253.236597 201.56592 
L 254.567149 201.56592 
L 254.567149 205.443477 
L 255.8977 205.443477 
L 255.8977 209.297952 
L 257.228252 209.297952 
L 257.228252 213.097993 
L 258.558803 213.097993 
L 258.558803 216.815228 
L 259.889355 216.815228 
L 259.889355 220.424523 
L 261.219906 220.424523 
L 261.219906 223.904153 
L 262.550457 223.904153 
L 262.550457 227.235883 
L 263.881009 227.235883 
L 263.881009 230.404971 
L 265.21156 230.404971 
L 265.21156 233.400099 
L 266.542112 233.400099 
L 266.542112 236.213235 
L 267.872663 236.213235 
L 267.872663 238.83944 
L 269.203214 238.83944 
L 269.203214 241.276633 
L 270.533766 241.276633 
L 270.533766 243.52532 
L 271.864317 243.52532 
L 271.864317 245.588295 
L 273.194869 245.588295 
L 273.194869 247.470334 
L 274.52542 247.470334 
L 274.52542 249.177881 
L 275.855971 249.177881 
L 275.855971 250.718737 
L 277.186523 250.718737 
L 277.186523 252.101758 
L 278.517074 252.101758 
L 278.517074 253.336577 
L 279.847626 253.336577 
L 279.847626 254.433341 
L 281.178177 254.433341 
L 281.178177 255.402474 
L 282.508729 255.402474 
L 282.508729 256.254468 
L 283.83928 256.254468 
L 283.83928 256.999708 
L 285.169831 256.999708 
L 285.169831 257.648313 
L 286.500383 257.648313 
L 286.500383 258.210018 
L 287.830934 258.210018 
L 287.830934 258.694078 
L 289.161486 258.694078 
L 289.161486 259.10919 
L 290.492037 259.10919 
L 290.492037 259.463454 
L 291.822588 259.463454 
L 291.822588 259.764335 
L 293.15314 259.764335 
L 293.15314 260.018657 
L 294.483691 260.018657 
L 294.483691 260.232604 
L 295.814243 260.232604 
L 295.814243 260.411737 
L 297.144794 260.411737 
L 297.144794 260.561017 
L 298.475346 260.561017 
L 298.475346 260.684839 
L 301.136448 260.787067 
L 301.136448 260.871077 
L 303.797551 260.939799 
L 303.797551 260.995757 
L 307.789205 261.077711 
L 307.789205 261.107107 
L 370.990398 261.216 
L 370.990398 261.216 
" clip-path="url(#p80c29bfd22)" style="fill: none; stroke: #2ca02c; stroke-width: 1.5; stroke-linecap: square"/>
   </g>
   <g id="line2d_32">
    <path d="M 46.335852 261.215562 
L 161.42855 261.211162 
L 161.42855 261.09709 
L 165.420204 261.204116 
L 165.420204 260.936878 
L 166.750755 260.936878 
L 166.750755 261.050877 
L 168.081307 261.050877 
L 168.081307 261.188274 
L 169.411858 261.188274 
L 169.411858 260.593669 
L 170.74241 260.593669 
L 170.74241 260.846601 
L 172.072961 260.846601 
L 172.072961 261.155604 
L 173.403512 261.155604 
L 173.403512 259.908247 
L 174.734064 259.908247 
L 174.734064 260.398386 
L 176.064615 260.398386 
L 176.064615 261.090637 
L 177.395167 261.090637 
L 177.395167 258.651101 
L 178.725718 258.651101 
L 178.725718 259.443036 
L 180.05627 259.443036 
L 180.05627 260.957389 
L 181.386821 260.957389 
L 181.386821 256.554834 
L 182.717372 256.554834 
L 182.717372 257.499888 
L 184.047924 257.499888 
L 184.047924 260.681074 
L 185.378475 260.681074 
L 185.378475 253.460462 
L 186.709027 253.460462 
L 186.709027 253.685754 
L 188.039578 253.685754 
L 188.039578 260.113044 
L 189.370129 260.113044 
L 189.370129 249.837063 
L 190.700681 249.837063 
L 190.700681 246.307724 
L 192.031232 246.307724 
L 192.031232 258.905377 
L 193.361784 258.905377 
L 193.361784 247.307251 
L 194.692335 247.307251 
L 194.692335 232.827203 
L 196.022887 232.827203 
L 196.022887 256.030678 
L 197.353438 256.030678 
L 197.353438 247.624206 
L 198.683989 247.624206 
L 198.683989 211.552282 
L 200.014541 211.552282 
L 200.014541 247.636739 
L 201.345092 247.636739 
L 201.345092 251.445925 
L 202.675644 251.445925 
L 202.675644 185.21219 
L 204.006195 185.21219 
L 204.006195 228.669299 
L 205.336746 228.669299 
L 205.336746 255.185374 
L 206.667298 255.185374 
L 206.667298 165.134377 
L 207.997849 165.134377 
L 207.997849 201.044603 
L 209.328401 201.044603 
L 209.328401 252.500853 
L 210.658952 252.500853 
L 210.658952 162.250819 
L 211.989504 162.250819 
L 211.989504 161.06331 
L 213.320055 161.06331 
L 213.320055 244.734393 
L 214.650606 244.734393 
L 214.650606 190.158657 
L 215.981158 190.158657 
L 215.981158 99.562125 
L 217.311709 99.562125 
L 217.311709 218.601105 
L 218.642261 218.601105 
L 218.642261 231.57821 
L 219.972812 231.57821 
L 219.972812 51.749736 
L 221.303363 51.749736 
L 221.303363 166.119623 
L 222.633915 166.119623 
L 222.633915 246.89695 
L 223.964466 246.89695 
L 223.964466 69.39317 
L 225.295018 69.39317 
L 225.295018 116.526299 
L 226.625569 116.526299 
L 226.625569 238.223863 
L 227.956121 238.223863 
L 227.956121 140.539976 
L 229.286672 140.539976 
L 229.286672 49.394261 
L 230.617223 49.394261 
L 230.617223 203.081351 
L 231.947775 203.081351 
L 231.947775 228.132454 
L 233.278326 228.132454 
L 233.278326 19.296 
L 234.608878 19.296 
L 234.608878 144.072745 
L 235.939429 144.072745 
L 235.939429 244.323717 
L 237.26998 244.323717 
L 237.26998 100.911175 
L 238.600532 100.911175 
L 238.600532 106.397019 
L 239.931083 106.397019 
L 239.931083 228.816346 
L 241.261635 228.816346 
L 241.261635 210.02835 
L 242.592186 210.02835 
L 242.592186 83.832561 
L 243.922738 83.832561 
L 243.922738 189.942001 
L 245.253289 189.942001 
L 245.253289 250.129256 
L 246.58384 250.129256 
L 246.58384 148.320546 
L 247.914392 148.320546 
L 247.914392 176.461672 
L 249.244943 176.461672 
L 249.244943 242.93781 
L 250.575495 242.93781 
L 250.575495 234.250648 
L 251.906046 234.250648 
L 251.906046 189.297369 
L 253.236597 189.297369 
L 253.236597 238.428866 
L 254.567149 238.428866 
L 254.567149 250.583575 
L 255.8977 250.583575 
L 255.8977 208.065426 
L 257.228252 208.065426 
L 257.228252 230.375479 
L 258.558803 230.375479 
L 258.558803 249.604769 
L 259.889355 249.604769 
L 259.889355 258.260886 
L 261.219906 258.260886 
L 261.219906 254.505839 
L 262.550457 254.505839 
L 262.550457 257.062232 
L 263.881009 257.062232 
L 263.881009 259.230592 
L 265.21156 259.230592 
L 265.21156 260.448681 
L 266.542112 260.448681 
L 266.542112 260.940658 
L 267.872663 260.940658 
L 267.872663 260.757113 
L 269.203214 260.757113 
L 269.203214 260.9342 
L 270.533766 260.9342 
L 270.533766 261.065999 
L 275.855971 261.175649 
L 275.855971 261.189234 
L 370.990398 261.216 
L 370.990398 261.216 
" clip-path="url(#p80c29bfd22)" style="fill: none; stroke: #d62728; stroke-width: 1.5; stroke-linecap: square"/>
   </g>
   <g id="patch_3">
    <path d="M 30.103125 273.312 
L 30.103125 7.2 
" style="fill: none; stroke: #000000; stroke-width: 0.8; stroke-linejoin: miter; stroke-linecap: square"/>
   </g>
   <g id="patch_4">
    <path d="M 387.223125 273.312 
L 387.223125 7.2 
" style="fill: none; stroke: #000000; stroke-width: 0.8; stroke-linejoin: miter; stroke-linecap: square"/>
   </g>
   <g id="patch_5">
    <path d="M 30.103125 273.312 
L 387.223125 273.312 
" style="fill: none; stroke: #000000; stroke-width: 0.8; stroke-linejoin: miter; stroke-linecap: square"/>
   </g>
   <g id="patch_6">
    <path d="M 30.103125 7.2 
L 387.223125 7.2 
" style="fill: none; stroke: #000000; stroke-width: 0.8; stroke-linejoin: miter; stroke-linecap: square"/>
   </g>
   <g id="legend_1">
    <g id="patch_7">
     <path d="M 306.855937 73.9125 
L 380.223125 73.9125 
Q 382.223125 73.9125 382.223125 71.9125 
L 382.223125 14.2 
Q 382.223125 12.2 380.223125 12.2 
L 306.855937 12.2 
Q 304.855937 12.2 304.855937 14.2 
L 304.855937 71.9125 
Q 304.855937 73.9125 306.855937 73.9125 
z
" style="fill: #ffffff; opacity: 0.8; stroke: #cccccc; stroke-linejoin: miter"/>
    </g>
    <g id="line2d_33">
     <path d="M 308.855937 20.298437 
L 313.855937 20.298437 
L 313.855937 20.298437 
L 323.855937 20.298437 
L 323.855937 20.298437 
L 328.855937 20.298437 
" style="fill: none; stroke: #1f77b4; stroke-width: 1.5; stroke-linecap: square"/>
    </g>
    <g id="text_15">
     <!-- initial -->
     <g transform="translate(336.855937 23.798437) scale(0.1 -0.1)">
      <defs>
       <path id="DejaVuSans-69" d="M 603 3500 
L 1178 3500 
L 1178 0 
L 603 0 
L 603 3500 
z
M 603 4863 
L 1178 4863 
L 1178 4134 
L 603 4134 
L 603 4863 
z
" transform="scale(0.015625)"/>
       <path id="DejaVuSans-6e" d="M 3513 2113 
L 3513 0 
L 2938 0 
L 2938 2094 
Q 2938 2591 2744 2837 
Q 2550 3084 2163 3084 
Q 1697 3084 1428 2787 
Q 1159 2491 1159 1978 
L 1159 0 
L 581 0 
L 581 3500 
L 1159 3500 
L 1159 2956 
Q 1366 3272 1645 3428 
Q 1925 3584 2291 3584 
Q 2894 3584 3203 3211 
Q 3513 2838 3513 2113 
z
" transform="scale(0.015625)"/>
       <path id="DejaVuSans-74" d="M 1172 4494 
L 1172 3500 
L 2356 3500 
L 2356 3053 
L 1172 3053 
L 1172 1153 
Q 1172 725 1289 603 
Q 1406 481 1766 481 
L 2356 481 
L 2356 0 
L 1766 0 
Q 1100 0 847 248 
Q 594 497 594 1153 
L 594 3053 
L 172 3053 
L 172 3500 
L 594 3500 
L 594 4494 
L 1172 4494 
z
" transform="scale(0.015625)"/>
       <path id="DejaVuSans-61" d="M 2194 1759 
Q 1497 1759 1228 1600 
Q 959 1441 959 1056 
Q 959 750 1161 570 
Q 1363 391 1709 391 
Q 2188 391 2477 730 
Q 2766 1069 2766 1631 
L 2766 1759 
L 2194 1759 
z
M 3341 1997 
L 3341 0 
L 2766 0 
L 2766 531 
Q 2569 213 2275 61 
Q 1981 -91 1556 -91 
Q 1019 -91 701 211 
Q 384 513 384 1019 
Q 384 1609 779 1909 
Q 1175 2209 1959 2209 
L 2766 2209 
L 2766 2266 
Q 2766 2663 2505 2880 
Q 2244 3097 1772 3097 
Q 1472 3097 1187 3025 
Q 903 2953 641 2809 
L 641 3341 
Q 956 3463 1253 3523 
Q 1550 3584 1831 3584 
Q 2591 3584 2966 3190 
Q 3341 2797 3341 1997 
z
" transform="scale(0.015625)"/>
       <path id="DejaVuSans-6c" d="M 603 4863 
L 1178 4863 
L 1178 0 
L 603 0 
L 603 4863 
z
" transform="scale(0.015625)"/>
      </defs>
      <use xlink:href="#DejaVuSans-69"/>
      <use xlink:href="#DejaVuSans-6e" transform="translate(27.783203 0)"/>
      <use xlink:href="#DejaVuSans-69" transform="translate(91.162109 0)"/>
      <use xlink:href="#DejaVuSans-74" transform="translate(118.945312 0)"/>
      <use xlink:href="#DejaVuSans-69" transform="translate(158.154297 0)"/>
      <use xlink:href="#DejaVuSans-61" transform="translate(185.9375 0)"/>
      <use xlink:href="#DejaVuSans-6c" transform="translate(247.216797 0)"/>
     </g>
    </g>
    <g id="line2d_34">
     <path d="M 308.855937 34.976562 
L 313.855937 34.976562 
L 313.855937 34.976562 
L 323.855937 34.976562 
L 323.855937 34.976562 
L 328.855937 34.976562 
" style="fill: none; stroke: #ff7f0e; stroke-width: 1.5; stroke-linecap: square"/>
    </g>
    <g id="text_16">
     <!-- analytic -->
     <g transform="translate(336.855937 38.476562) scale(0.1 -0.1)">
      <defs>
       <path id="DejaVuSans-79" d="M 2059 -325 
Q 1816 -950 1584 -1140 
Q 1353 -1331 966 -1331 
L 506 -1331 
L 506 -850 
L 844 -850 
Q 1081 -850 1212 -737 
Q 1344 -625 1503 -206 
L 1606 56 
L 191 3500 
L 800 3500 
L 1894 763 
L 2988 3500 
L 3597 3500 
L 2059 -325 
z
" transform="scale(0.015625)"/>
       <path id="DejaVuSans-63" d="M 3122 3366 
L 3122 2828 
Q 2878 2963 2633 3030 
Q 2388 3097 2138 3097 
Q 1578 3097 1268 2742 
Q 959 2388 959 1747 
Q 959 1106 1268 751 
Q 1578 397 2138 397 
Q 2388 397 2633 464 
Q 2878 531 3122 666 
L 3122 134 
Q 2881 22 2623 -34 
Q 2366 -91 2075 -91 
Q 1284 -91 818 406 
Q 353 903 353 1747 
Q 353 2603 823 3093 
Q 1294 3584 2113 3584 
Q 2378 3584 2631 3529 
Q 2884 3475 3122 3366 
z
" transform="scale(0.015625)"/>
      </defs>
      <use xlink:href="#DejaVuSans-61"/>
      <use xlink:href="#DejaVuSans-6e" transform="translate(61.279297 0)"/>
      <use xlink:href="#DejaVuSans-61" transform="translate(124.658203 0)"/>
      <use xlink:href="#DejaVuSans-6c" transform="translate(185.9375 0)"/>
      <use xlink:href="#DejaVuSans-79" transform="translate(213.720703 0)"/>
      <use xlink:href="#DejaVuSans-74" transform="translate(272.900391 0)"/>
      <use xlink:href="#DejaVuSans-69" transform="translate(312.109375 0)"/>
      <use xlink:href="#DejaVuSans-63" transform="translate(339.892578 0)"/>
     </g>
    </g>
    <g id="line2d_35">
     <path d="M 308.855937 49.654687 
L 313.855937 49.654687 
L 313.855937 49.654687 
L 323.855937 49.654687 
L 323.855937 49.654687 
L 328.855937 49.654687 
" style="fill: none; stroke: #2ca02c; stroke-width: 1.5; stroke-linecap: square"/>
    </g>
    <g id="text_17">
     <!-- UPWIND -->
     <g transform="translate(336.855937 53.154687) scale(0.1 -0.1)">
      <defs>
       <path id="DejaVuSans-55" d="M 556 4666 
L 1191 4666 
L 1191 1831 
Q 1191 1081 1462 751 
Q 1734 422 2344 422 
Q 2950 422 3222 751 
Q 3494 1081 3494 1831 
L 3494 4666 
L 4128 4666 
L 4128 1753 
Q 4128 841 3676 375 
Q 3225 -91 2344 -91 
Q 1459 -91 1007 375 
Q 556 841 556 1753 
L 556 4666 
z
" transform="scale(0.015625)"/>
       <path id="DejaVuSans-50" d="M 1259 4147 
L 1259 2394 
L 2053 2394 
Q 2494 2394 2734 2622 
Q 2975 2850 2975 3272 
Q 2975 3691 2734 3919 
Q 2494 4147 2053 4147 
L 1259 4147 
z
M 628 4666 
L 2053 4666 
Q 2838 4666 3239 4311 
Q 3641 3956 3641 3272 
Q 3641 2581 3239 2228 
Q 2838 1875 2053 1875 
L 1259 1875 
L 1259 0 
L 628 0 
L 628 4666 
z
" transform="scale(0.015625)"/>
       <path id="DejaVuSans-57" d="M 213 4666 
L 850 4666 
L 1831 722 
L 2809 4666 
L 3519 4666 
L 4500 722 
L 5478 4666 
L 6119 4666 
L 4947 0 
L 4153 0 
L 3169 4050 
L 2175 0 
L 1381 0 
L 213 4666 
z
" transform="scale(0.015625)"/>
       <path id="DejaVuSans-49" d="M 628 4666 
L 1259 4666 
L 1259 0 
L 628 0 
L 628 4666 
z
" transform="scale(0.015625)"/>
       <path id="DejaVuSans-4e" d="M 628 4666 
L 1478 4666 
L 3547 763 
L 3547 4666 
L 4159 4666 
L 4159 0 
L 3309 0 
L 1241 3903 
L 1241 0 
L 628 0 
L 628 4666 
z
" transform="scale(0.015625)"/>
       <path id="DejaVuSans-44" d="M 1259 4147 
L 1259 519 
L 2022 519 
Q 2988 519 3436 956 
Q 3884 1394 3884 2338 
Q 3884 3275 3436 3711 
Q 2988 4147 2022 4147 
L 1259 4147 
z
M 628 4666 
L 1925 4666 
Q 3281 4666 3915 4102 
Q 4550 3538 4550 2338 
Q 4550 1131 3912 565 
Q 3275 0 1925 0 
L 628 0 
L 628 4666 
z
" transform="scale(0.015625)"/>
      </defs>
      <use xlink:href="#DejaVuSans-55"/>
      <use xlink:href="#DejaVuSans-50" transform="translate(73.193359 0)"/>
      <use xlink:href="#DejaVuSans-57" transform="translate(133.496094 0)"/>
      <use xlink:href="#DejaVuSans-49" transform="translate(232.373047 0)"/>
      <use xlink:href="#DejaVuSans-4e" transform="translate(261.865234 0)"/>
      <use xlink:href="#DejaVuSans-44" transform="translate(336.669922 0)"/>
     </g>
    </g>
    <g id="line2d_36">
     <path d="M 308.855937 64.332812 
L 313.855937 64.332812 
L 313.855937 64.332812 
L 323.855937 64.332812 
L 323.855937 64.332812 
L 328.855937 64.332812 
" style="fill: none; stroke: #d62728; stroke-width: 1.5; stroke-linecap: square"/>
    </g>
    <g id="text_18">
     <!-- MPDATA -->
     <g transform="translate(336.855937 67.832812) scale(0.1 -0.1)">
      <defs>
       <path id="DejaVuSans-4d" d="M 628 4666 
L 1569 4666 
L 2759 1491 
L 3956 4666 
L 4897 4666 
L 4897 0 
L 4281 0 
L 4281 4097 
L 3078 897 
L 2444 897 
L 1241 4097 
L 1241 0 
L 628 0 
L 628 4666 
z
" transform="scale(0.015625)"/>
       <path id="DejaVuSans-41" d="M 2188 4044 
L 1331 1722 
L 3047 1722 
L 2188 4044 
z
M 1831 4666 
L 2547 4666 
L 4325 0 
L 3669 0 
L 3244 1197 
L 1141 1197 
L 716 0 
L 50 0 
L 1831 4666 
z
" transform="scale(0.015625)"/>
       <path id="DejaVuSans-54" d="M -19 4666 
L 3928 4666 
L 3928 4134 
L 2272 4134 
L 2272 0 
L 1638 0 
L 1638 4134 
L -19 4134 
L -19 4666 
z
" transform="scale(0.015625)"/>
      </defs>
      <use xlink:href="#DejaVuSans-4d"/>
      <use xlink:href="#DejaVuSans-50" transform="translate(86.279297 0)"/>
      <use xlink:href="#DejaVuSans-44" transform="translate(146.582031 0)"/>
      <use xlink:href="#DejaVuSans-41" transform="translate(221.833984 0)"/>
      <use xlink:href="#DejaVuSans-54" transform="translate(282.492188 0)"/>
      <use xlink:href="#DejaVuSans-41" transform="translate(335.826172 0)"/>
     </g>
    </g>
   </g>
  </g>
 </g>
 <defs>
  <clipPath id="p80c29bfd22">
   <rect x="30.103125" y="7.2" width="357.12" height="266.112"/>
  </clipPath>
 </defs>
</svg>
