<?xml version="1.0" encoding="utf-8" standalone="no"?>
<!DOCTYPE svg PUBLIC "-//W3C//DTD SVG 1.1//EN"
  "http://www.w3.org/Graphics/SVG/1.1/DTD/svg11.dtd">
<svg xmlns:xlink="http://www.w3.org/1999/xlink" width="394.423125pt" height="297.190125pt" viewBox="0 0 394.423125 297.190125" xmlns="http://www.w3.org/2000/svg" version="1.1">
 <metadata>
  <rdf:RDF xmlns:dc="http://purl.org/dc/elements/1.1/" xmlns:cc="http://creativecommons.org/ns#" xmlns:rdf="http://www.w3.org/1999/02/22-rdf-syntax-ns#">
   <cc:Work>
    <dc:type rdf:resource="http://purl.org/dc/dcmitype/StillImage"/>
    <dc:date>2025-04-01T17:56:32.676576</dc:date>
    <dc:format>image/svg+xml</dc:format>
    <dc:creator>
     <cc:Agent>
      <dc:title>Matplotlib v3.10.1, https://matplotlib.org/</dc:title>
     </cc:Agent>
    </dc:creator>
   </cc:Work>
  </rdf:RDF>
 </metadata>
 <defs>
  <style type="text/css">*{stroke-linejoin: round; stroke-linecap: butt}</style>
 </defs>
 <g id="figure_1">
  <g id="patch_1">
   <path d="M 0 297.190125 
L 394.423125 297.190125 
L 394.423125 0 
L 0 0 
z
" style="fill: #ffffff"/>
  </g>
  <g id="axes_1">
   <g id="patch_2">
    <path d="M 30.103125 273.312 
L 387.223125 273.312 
L 387.223125 7.2 
L 30.103125 7.2 
z
" style="fill: #ffffff"/>
   </g>
   <g id="matplotlib.axis_1">
    <g id="xtick_1">
     <g id="line2d_1">
      <path d="M 46.335852 273.312 
L 46.335852 7.2 
" clip-path="url(#p91ff731cbf)" style="fill: none; stroke: #b0b0b0; stroke-width: 0.8; stroke-linecap: square"/>
     </g>
     <g id="line2d_2">
      <defs>
       <path id="m3010baee27" d="M 0 0 
L 0 3.5 
" style="stroke: #000000; stroke-width: 0.8"/>
      </defs>
      <g>
       <use xlink:href="#m3010baee27" x="46.335852" y="273.312" style="stroke: #000000; stroke-width: 0.8"/>
      </g>
     </g>
     <g id="text_1">
      <!-- −100 -->
      <g transform="translate(32.602259 287.910437) scale(0.1 -0.1)">
       <defs>
        <path id="DejaVuSans-2212" d="M 678 2272 
L 4684 2272 
L 4684 1741 
L 678 1741 
L 678 2272 
z
" transform="scale(0.015625)"/>
        <path id="DejaVuSans-31" d="M 794 531 
L 1825 531 
L 1825 4091 
L 703 3866 
L 703 4441 
L 1819 4666 
L 2450 4666 
L 2450 531 
L 3481 531 
L 3481 0 
L 794 0 
L 794 531 
z
" transform="scale(0.015625)"/>
        <path id="DejaVuSans-30" d="M 2034 4250 
Q 1547 4250 1301 3770 
Q 1056 3291 1056 2328 
Q 1056 1369 1301 889 
Q 1547 409 2034 409 
Q 2525 409 2770 889 
Q 3016 1369 3016 2328 
Q 3016 3291 2770 3770 
Q 2525 4250 2034 4250 
z
M 2034 4750 
Q 2819 4750 3233 4129 
Q 3647 3509 3647 2328 
Q 3647 1150 3233 529 
Q 2819 -91 2034 -91 
Q 1250 -91 836 529 
Q 422 1150 422 2328 
Q 422 3509 836 4129 
Q 1250 4750 2034 4750 
z
" transform="scale(0.015625)"/>
       </defs>
       <use xlink:href="#DejaVuSans-2212"/>
       <use xlink:href="#DejaVuSans-31" transform="translate(83.789062 0)"/>
       <use xlink:href="#DejaVuSans-30" transform="translate(147.412109 0)"/>
       <use xlink:href="#DejaVuSans-30" transform="translate(211.035156 0)"/>
      </g>
     </g>
    </g>
    <g id="xtick_2">
     <g id="line2d_3">
      <path d="M 86.91767 273.312 
L 86.91767 7.2 
" clip-path="url(#p91ff731cbf)" style="fill: none; stroke: #b0b0b0; stroke-width: 0.8; stroke-linecap: square"/>
     </g>
     <g id="line2d_4">
      <g>
       <use xlink:href="#m3010baee27" x="86.91767" y="273.312" style="stroke: #000000; stroke-width: 0.8"/>
      </g>
     </g>
     <g id="text_2">
      <!-- −50 -->
      <g transform="translate(76.365327 287.910437) scale(0.1 -0.1)">
       <defs>
        <path id="DejaVuSans-35" d="M 691 4666 
L 3169 4666 
L 3169 4134 
L 1269 4134 
L 1269 2991 
Q 1406 3038 1543 3061 
Q 1681 3084 1819 3084 
Q 2600 3084 3056 2656 
Q 3513 2228 3513 1497 
Q 3513 744 3044 326 
Q 2575 -91 1722 -91 
Q 1428 -91 1123 -41 
Q 819 9 494 109 
L 494 744 
Q 775 591 1075 516 
Q 1375 441 1709 441 
Q 2250 441 2565 725 
Q 2881 1009 2881 1497 
Q 2881 1984 2565 2268 
Q 2250 2553 1709 2553 
Q 1456 2553 1204 2497 
Q 953 2441 691 2322 
L 691 4666 
z
" transform="scale(0.015625)"/>
       </defs>
       <use xlink:href="#DejaVuSans-2212"/>
       <use xlink:href="#DejaVuSans-35" transform="translate(83.789062 0)"/>
       <use xlink:href="#DejaVuSans-30" transform="translate(147.412109 0)"/>
      </g>
     </g>
    </g>
    <g id="xtick_3">
     <g id="line2d_5">
      <path d="M 127.499489 273.312 
L 127.499489 7.2 
" clip-path="url(#p91ff731cbf)" style="fill: none; stroke: #b0b0b0; stroke-width: 0.8; stroke-linecap: square"/>
     </g>
     <g id="line2d_6">
      <g>
       <use xlink:href="#m3010baee27" x="127.499489" y="273.312" style="stroke: #000000; stroke-width: 0.8"/>
      </g>
     </g>
     <g id="text_3">
      <!-- 0 -->
      <g transform="translate(124.318239 287.910437) scale(0.1 -0.1)">
       <use xlink:href="#DejaVuSans-30"/>
      </g>
     </g>
    </g>
    <g id="xtick_4">
     <g id="line2d_7">
      <path d="M 168.081307 273.312 
L 168.081307 7.2 
" clip-path="url(#p91ff731cbf)" style="fill: none; stroke: #b0b0b0; stroke-width: 0.8; stroke-linecap: square"/>
     </g>
     <g id="line2d_8">
      <g>
       <use xlink:href="#m3010baee27" x="168.081307" y="273.312" style="stroke: #000000; stroke-width: 0.8"/>
      </g>
     </g>
     <g id="text_4">
      <!-- 50 -->
      <g transform="translate(161.718807 287.910437) scale(0.1 -0.1)">
       <use xlink:href="#DejaVuSans-35"/>
       <use xlink:href="#DejaVuSans-30" transform="translate(63.623047 0)"/>
      </g>
     </g>
    </g>
    <g id="xtick_5">
     <g id="line2d_9">
      <path d="M 208.663125 273.312 
L 208.663125 7.2 
" clip-path="url(#p91ff731cbf)" style="fill: none; stroke: #b0b0b0; stroke-width: 0.8; stroke-linecap: square"/>
     </g>
     <g id="line2d_10">
      <g>
       <use xlink:href="#m3010baee27" x="208.663125" y="273.312" style="stroke: #000000; stroke-width: 0.8"/>
      </g>
     </g>
     <g id="text_5">
      <!-- 100 -->
      <g transform="translate(199.119375 287.910437) scale(0.1 -0.1)">
       <use xlink:href="#DejaVuSans-31"/>
       <use xlink:href="#DejaVuSans-30" transform="translate(63.623047 0)"/>
       <use xlink:href="#DejaVuSans-30" transform="translate(127.246094 0)"/>
      </g>
     </g>
    </g>
    <g id="xtick_6">
     <g id="line2d_11">
      <path d="M 249.244943 273.312 
L 249.244943 7.2 
" clip-path="url(#p91ff731cbf)" style="fill: none; stroke: #b0b0b0; stroke-width: 0.8; stroke-linecap: square"/>
     </g>
     <g id="line2d_12">
      <g>
       <use xlink:href="#m3010baee27" x="249.244943" y="273.312" style="stroke: #000000; stroke-width: 0.8"/>
      </g>
     </g>
     <g id="text_6">
      <!-- 150 -->
      <g transform="translate(239.701193 287.910437) scale(0.1 -0.1)">
       <use xlink:href="#DejaVuSans-31"/>
       <use xlink:href="#DejaVuSans-35" transform="translate(63.623047 0)"/>
       <use xlink:href="#DejaVuSans-30" transform="translate(127.246094 0)"/>
      </g>
     </g>
    </g>
    <g id="xtick_7">
     <g id="line2d_13">
      <path d="M 289.826761 273.312 
L 289.826761 7.2 
" clip-path="url(#p91ff731cbf)" style="fill: none; stroke: #b0b0b0; stroke-width: 0.8; stroke-linecap: square"/>
     </g>
     <g id="line2d_14">
      <g>
       <use xlink:href="#m3010baee27" x="289.826761" y="273.312" style="stroke: #000000; stroke-width: 0.8"/>
      </g>
     </g>
     <g id="text_7">
      <!-- 200 -->
      <g transform="translate(280.283011 287.910437) scale(0.1 -0.1)">
       <defs>
        <path id="DejaVuSans-32" d="M 1228 531 
L 3431 531 
L 3431 0 
L 469 0 
L 469 531 
Q 828 903 1448 1529 
Q 2069 2156 2228 2338 
Q 2531 2678 2651 2914 
Q 2772 3150 2772 3378 
Q 2772 3750 2511 3984 
Q 2250 4219 1831 4219 
Q 1534 4219 1204 4116 
Q 875 4013 500 3803 
L 500 4441 
Q 881 4594 1212 4672 
Q 1544 4750 1819 4750 
Q 2544 4750 2975 4387 
Q 3406 4025 3406 3419 
Q 3406 3131 3298 2873 
Q 3191 2616 2906 2266 
Q 2828 2175 2409 1742 
Q 1991 1309 1228 531 
z
" transform="scale(0.015625)"/>
       </defs>
       <use xlink:href="#DejaVuSans-32"/>
       <use xlink:href="#DejaVuSans-30" transform="translate(63.623047 0)"/>
       <use xlink:href="#DejaVuSans-30" transform="translate(127.246094 0)"/>
      </g>
     </g>
    </g>
    <g id="xtick_8">
     <g id="line2d_15">
      <path d="M 330.40858 273.312 
L 330.40858 7.2 
" clip-path="url(#p91ff731cbf)" style="fill: none; stroke: #b0b0b0; stroke-width: 0.8; stroke-linecap: square"/>
     </g>
     <g id="line2d_16">
      <g>
       <use xlink:href="#m3010baee27" x="330.40858" y="273.312" style="stroke: #000000; stroke-width: 0.8"/>
      </g>
     </g>
     <g id="text_8">
      <!-- 250 -->
      <g transform="translate(320.86483 287.910437) scale(0.1 -0.1)">
       <use xlink:href="#DejaVuSans-32"/>
       <use xlink:href="#DejaVuSans-35" transform="translate(63.623047 0)"/>
       <use xlink:href="#DejaVuSans-30" transform="translate(127.246094 0)"/>
      </g>
     </g>
    </g>
    <g id="xtick_9">
     <g id="line2d_17">
      <path d="M 370.990398 273.312 
L 370.990398 7.2 
" clip-path="url(#p91ff731cbf)" style="fill: none; stroke: #b0b0b0; stroke-width: 0.8; stroke-linecap: square"/>
     </g>
     <g id="line2d_18">
      <g>
       <use xlink:href="#m3010baee27" x="370.990398" y="273.312" style="stroke: #000000; stroke-width: 0.8"/>
      </g>
     </g>
     <g id="text_9">
      <!-- 300 -->
      <g transform="translate(361.446648 287.910437) scale(0.1 -0.1)">
       <defs>
        <path id="DejaVuSans-33" d="M 2597 2516 
Q 3050 2419 3304 2112 
Q 3559 1806 3559 1356 
Q 3559 666 3084 287 
Q 2609 -91 1734 -91 
Q 1441 -91 1130 -33 
Q 819 25 488 141 
L 488 750 
Q 750 597 1062 519 
Q 1375 441 1716 441 
Q 2309 441 2620 675 
Q 2931 909 2931 1356 
Q 2931 1769 2642 2001 
Q 2353 2234 1838 2234 
L 1294 2234 
L 1294 2753 
L 1863 2753 
Q 2328 2753 2575 2939 
Q 2822 3125 2822 3475 
Q 2822 3834 2567 4026 
Q 2313 4219 1838 4219 
Q 1578 4219 1281 4162 
Q 984 4106 628 3988 
L 628 4550 
Q 988 4650 1302 4700 
Q 1616 4750 1894 4750 
Q 2613 4750 3031 4423 
Q 3450 4097 3450 3541 
Q 3450 3153 3228 2886 
Q 3006 2619 2597 2516 
z
" transform="scale(0.015625)"/>
       </defs>
       <use xlink:href="#DejaVuSans-33"/>
       <use xlink:href="#DejaVuSans-30" transform="translate(63.623047 0)"/>
       <use xlink:href="#DejaVuSans-30" transform="translate(127.246094 0)"/>
      </g>
     </g>
    </g>
   </g>
   <g id="matplotlib.axis_2">
    <g id="ytick_1">
     <g id="line2d_19">
      <path d="M 30.103125 261.216 
L 387.223125 261.216 
" clip-path="url(#p91ff731cbf)" style="fill: none; stroke: #b0b0b0; stroke-width: 0.8; stroke-linecap: square"/>
     </g>
     <g id="line2d_20">
      <defs>
       <path id="mc26789be51" d="M 0 0 
L -3.5 0 
" style="stroke: #000000; stroke-width: 0.8"/>
      </defs>
      <g>
       <use xlink:href="#mc26789be51" x="30.103125" y="261.216" style="stroke: #000000; stroke-width: 0.8"/>
      </g>
     </g>
     <g id="text_10">
      <!-- 0.0 -->
      <g transform="translate(7.2 265.015219) scale(0.1 -0.1)">
       <defs>
        <path id="DejaVuSans-2e" d="M 684 794 
L 1344 794 
L 1344 0 
L 684 0 
L 684 794 
z
" transform="scale(0.015625)"/>
       </defs>
       <use xlink:href="#DejaVuSans-30"/>
       <use xlink:href="#DejaVuSans-2e" transform="translate(63.623047 0)"/>
       <use xlink:href="#DejaVuSans-30" transform="translate(95.410156 0)"/>
      </g>
     </g>
    </g>
    <g id="ytick_2">
     <g id="line2d_21">
      <path d="M 30.103125 212.832 
L 387.223125 212.832 
" clip-path="url(#p91ff731cbf)" style="fill: none; stroke: #b0b0b0; stroke-width: 0.8; stroke-linecap: square"/>
     </g>
     <g id="line2d_22">
      <g>
       <use xlink:href="#mc26789be51" x="30.103125" y="212.832" style="stroke: #000000; stroke-width: 0.8"/>
      </g>
     </g>
     <g id="text_11">
      <!-- 0.2 -->
      <g transform="translate(7.2 216.631219) scale(0.1 -0.1)">
       <use xlink:href="#DejaVuSans-30"/>
       <use xlink:href="#DejaVuSans-2e" transform="translate(63.623047 0)"/>
       <use xlink:href="#DejaVuSans-32" transform="translate(95.410156 0)"/>
      </g>
     </g>
    </g>
    <g id="ytick_3">
     <g id="line2d_23">
      <path d="M 30.103125 164.448 
L 387.223125 164.448 
" clip-path="url(#p91ff731cbf)" style="fill: none; stroke: #b0b0b0; stroke-width: 0.8; stroke-linecap: square"/>
     </g>
     <g id="line2d_24">
      <g>
       <use xlink:href="#mc26789be51" x="30.103125" y="164.448" style="stroke: #000000; stroke-width: 0.8"/>
      </g>
     </g>
     <g id="text_12">
      <!-- 0.4 -->
      <g transform="translate(7.2 168.247219) scale(0.1 -0.1)">
       <defs>
        <path id="DejaVuSans-34" d="M 2419 4116 
L 825 1625 
L 2419 1625 
L 2419 4116 
z
M 2253 4666 
L 3047 4666 
L 3047 1625 
L 3713 1625 
L 3713 1100 
L 3047 1100 
L 3047 0 
L 2419 0 
L 2419 1100 
L 313 1100 
L 313 1709 
L 2253 4666 
z
" transform="scale(0.015625)"/>
       </defs>
       <use xlink:href="#DejaVuSans-30"/>
       <use xlink:href="#DejaVuSans-2e" transform="translate(63.623047 0)"/>
       <use xlink:href="#DejaVuSans-34" transform="translate(95.410156 0)"/>
      </g>
     </g>
    </g>
    <g id="ytick_4">
     <g id="line2d_25">
      <path d="M 30.103125 116.064 
L 387.223125 116.064 
" clip-path="url(#p91ff731cbf)" style="fill: none; stroke: #b0b0b0; stroke-width: 0.8; stroke-linecap: square"/>
     </g>
     <g id="line2d_26">
      <g>
       <use xlink:href="#mc26789be51" x="30.103125" y="116.064" style="stroke: #000000; stroke-width: 0.8"/>
      </g>
     </g>
     <g id="text_13">
      <!-- 0.6 -->
      <g transform="translate(7.2 119.863219) scale(0.1 -0.1)">
       <defs>
        <path id="DejaVuSans-36" d="M 2113 2584 
Q 1688 2584 1439 2293 
Q 1191 2003 1191 1497 
Q 1191 994 1439 701 
Q 1688 409 2113 409 
Q 2538 409 2786 701 
Q 3034 994 3034 1497 
Q 3034 2003 2786 2293 
Q 2538 2584 2113 2584 
z
M 3366 4563 
L 3366 3988 
Q 3128 4100 2886 4159 
Q 2644 4219 2406 4219 
Q 1781 4219 1451 3797 
Q 1122 3375 1075 2522 
Q 1259 2794 1537 2939 
Q 1816 3084 2150 3084 
Q 2853 3084 3261 2657 
Q 3669 2231 3669 1497 
Q 3669 778 3244 343 
Q 2819 -91 2113 -91 
Q 1303 -91 875 529 
Q 447 1150 447 2328 
Q 447 3434 972 4092 
Q 1497 4750 2381 4750 
Q 2619 4750 2861 4703 
Q 3103 4656 3366 4563 
z
" transform="scale(0.015625)"/>
       </defs>
       <use xlink:href="#DejaVuSans-30"/>
       <use xlink:href="#DejaVuSans-2e" transform="translate(63.623047 0)"/>
       <use xlink:href="#DejaVuSans-36" transform="translate(95.410156 0)"/>
      </g>
     </g>
    </g>
    <g id="ytick_5">
     <g id="line2d_27">
      <path d="M 30.103125 67.68 
L 387.223125 67.68 
" clip-path="url(#p91ff731cbf)" style="fill: none; stroke: #b0b0b0; stroke-width: 0.8; stroke-linecap: square"/>
     </g>
     <g id="line2d_28">
      <g>
       <use xlink:href="#mc26789be51" x="30.103125" y="67.68" style="stroke: #000000; stroke-width: 0.8"/>
      </g>
     </g>
     <g id="text_14">
      <!-- 0.8 -->
      <g transform="translate(7.2 71.479219) scale(0.1 -0.1)">
       <defs>
        <path id="DejaVuSans-38" d="M 2034 2216 
Q 1584 2216 1326 1975 
Q 1069 1734 1069 1313 
Q 1069 891 1326 650 
Q 1584 409 2034 409 
Q 2484 409 2743 651 
Q 3003 894 3003 1313 
Q 3003 1734 2745 1975 
Q 2488 2216 2034 2216 
z
M 1403 2484 
Q 997 2584 770 2862 
Q 544 3141 544 3541 
Q 544 4100 942 4425 
Q 1341 4750 2034 4750 
Q 2731 4750 3128 4425 
Q 3525 4100 3525 3541 
Q 3525 3141 3298 2862 
Q 3072 2584 2669 2484 
Q 3125 2378 3379 2068 
Q 3634 1759 3634 1313 
Q 3634 634 3220 271 
Q 2806 -91 2034 -91 
Q 1263 -91 848 271 
Q 434 634 434 1313 
Q 434 1759 690 2068 
Q 947 2378 1403 2484 
z
M 1172 3481 
Q 1172 3119 1398 2916 
Q 1625 2713 2034 2713 
Q 2441 2713 2670 2916 
Q 2900 3119 2900 3481 
Q 2900 3844 2670 4047 
Q 2441 4250 2034 4250 
Q 1625 4250 1398 4047 
Q 1172 3844 1172 3481 
z
" transform="scale(0.015625)"/>
       </defs>
       <use xlink:href="#DejaVuSans-30"/>
       <use xlink:href="#DejaVuSans-2e" transform="translate(63.623047 0)"/>
       <use xlink:href="#DejaVuSans-38" transform="translate(95.410156 0)"/>
      </g>
     </g>
    </g>
    <g id="ytick_6">
     <g id="line2d_29">
      <path d="M 30.103125 19.296 
L 387.223125 19.296 
" clip-path="url(#p91ff731cbf)" style="fill: none; stroke: #b0b0b0; stroke-width: 0.8; stroke-linecap: square"/>
     </g>
     <g id="line2d_30">
      <g>
       <use xlink:href="#mc26789be51" x="30.103125" y="19.296" style="stroke: #000000; stroke-width: 0.8"/>
      </g>
     </g>
     <g id="text_15">
      <!-- 1.0 -->
      <g transform="translate(7.2 23.095219) scale(0.1 -0.1)">
       <use xlink:href="#DejaVuSans-31"/>
       <use xlink:href="#DejaVuSans-2e" transform="translate(63.623047 0)"/>
       <use xlink:href="#DejaVuSans-30" transform="translate(95.410156 0)"/>
      </g>
     </g>
    </g>
   </g>
   <g id="line2d_31">
    <path d="M 46.335852 261.215098 
L 64.298296 261.110732 
L 64.298296 261.071158 
L 66.959399 261.018041 
L 66.959399 260.947257 
L 69.620502 260.853605 
L 69.620502 260.73059 
L 70.951053 260.73059 
L 70.951053 260.57017 
L 72.281605 260.57017 
L 72.281605 260.362489 
L 73.612156 260.362489 
L 73.612156 260.095575 
L 74.942708 260.095575 
L 74.942708 259.75504 
L 76.273259 259.75504 
L 76.273259 259.323761 
L 77.603811 259.323761 
L 77.603811 258.781579 
L 78.934362 258.781579 
L 78.934362 258.105017 
L 80.264913 258.105017 
L 80.264913 257.267049 
L 81.595465 257.267049 
L 81.595465 256.236934 
L 82.926016 256.236934 
L 82.926016 254.980141 
L 84.256568 254.980141 
L 84.256568 253.458411 
L 85.587119 253.458411 
L 85.587119 251.629956 
L 86.91767 251.629956 
L 86.91767 249.449856 
L 88.248222 249.449856 
L 88.248222 246.870652 
L 89.578773 246.870652 
L 89.578773 243.843188 
L 90.909325 243.843188 
L 90.909325 240.317683 
L 92.239876 240.317683 
L 92.239876 236.245074 
L 93.570428 236.245074 
L 93.570428 231.5786 
L 94.900979 231.5786 
L 94.900979 226.275613 
L 96.23153 226.275613 
L 96.23153 220.299597 
L 97.562082 220.299597 
L 97.562082 213.622315 
L 98.892633 213.622315 
L 98.892633 206.226047 
L 100.223185 206.226047 
L 100.223185 198.105807 
L 101.553736 198.105807 
L 101.553736 189.271466 
L 102.884287 189.271466 
L 102.884287 179.749654 
L 104.214839 179.749654 
L 104.214839 169.585341 
L 105.54539 169.585341 
L 105.54539 158.842978 
L 106.875942 158.842978 
L 106.875942 147.607095 
L 108.206493 147.607095 
L 108.206493 135.982257 
L 109.537045 135.982257 
L 109.537045 124.09231 
L 110.867596 124.09231 
L 110.867596 112.078878 
L 112.198147 112.078878 
L 112.198147 100.099076 
L 113.528699 100.099076 
L 113.528699 88.322484 
L 114.85925 88.322484 
L 114.85925 76.927434 
L 116.189802 76.927434 
L 116.189802 66.096708 
L 117.520353 66.096708 
L 117.520353 56.01278 
L 118.850904 56.01278 
L 118.850904 46.852781 
L 120.181456 46.852781 
L 120.181456 38.783365 
L 121.512007 38.783365 
L 121.512007 31.955686 
L 122.842559 31.955686 
L 122.842559 26.500701 
L 124.17311 26.500701 
L 124.17311 22.524996 
L 125.503662 22.524996 
L 125.503662 20.107321 
L 126.834213 20.107321 
L 126.834213 19.296 
L 128.164764 19.296 
L 128.164764 20.107321 
L 129.495316 20.107321 
L 129.495316 22.524996 
L 130.825867 22.524996 
L 130.825867 26.500701 
L 132.156419 26.500701 
L 132.156419 31.955686 
L 133.48697 31.955686 
L 133.48697 38.783365 
L 134.817521 38.783365 
L 134.817521 46.852781 
L 136.148073 46.852781 
L 136.148073 56.01278 
L 137.478624 56.01278 
L 137.478624 66.096708 
L 138.809176 66.096708 
L 138.809176 76.927434 
L 140.139727 76.927434 
L 140.139727 88.322484 
L 141.470279 88.322484 
L 141.470279 100.099076 
L 142.80083 100.099076 
L 142.80083 112.078878 
L 144.131381 112.078878 
L 144.131381 124.09231 
L 145.461933 124.09231 
L 145.461933 135.982257 
L 146.792484 135.982257 
L 146.792484 147.607095 
L 148.123036 147.607095 
L 148.123036 158.842978 
L 149.453587 158.842978 
L 149.453587 169.585341 
L 150.784138 169.585341 
L 150.784138 179.749654 
L 152.11469 179.749654 
L 152.11469 189.271466 
L 153.445241 189.271466 
L 153.445241 198.105807 
L 154.775793 198.105807 
L 154.775793 206.226047 
L 156.106344 206.226047 
L 156.106344 213.622315 
L 157.436895 213.622315 
L 157.436895 220.299597 
L 158.767447 220.299597 
L 158.767447 226.275613 
L 160.097998 226.275613 
L 160.097998 231.5786 
L 161.42855 231.5786 
L 161.42855 236.245074 
L 162.759101 236.245074 
L 162.759101 240.317683 
L 164.089653 240.317683 
L 164.089653 243.843188 
L 165.420204 243.843188 
L 165.420204 246.870652 
L 166.750755 246.870652 
L 166.750755 249.449856 
L 168.081307 249.449856 
L 168.081307 251.629956 
L 169.411858 251.629956 
L 169.411858 253.458411 
L 170.74241 253.458411 
L 170.74241 254.980141 
L 172.072961 254.980141 
L 172.072961 256.236934 
L 173.403512 256.236934 
L 173.403512 257.267049 
L 174.734064 257.267049 
L 174.734064 258.105017 
L 176.064615 258.105017 
L 176.064615 258.781579 
L 177.395167 258.781579 
L 177.395167 259.323761 
L 178.725718 259.323761 
L 178.725718 259.75504 
L 180.05627 259.75504 
L 180.05627 260.095575 
L 181.386821 260.095575 
L 181.386821 260.362489 
L 182.717372 260.362489 
L 182.717372 260.57017 
L 184.047924 260.57017 
L 184.047924 260.73059 
L 185.378475 260.73059 
L 185.378475 260.853605 
L 188.039578 260.947257 
L 188.039578 261.018041 
L 192.031232 261.110732 
L 192.031232 261.140006 
L 370.990398 261.216 
L 370.990398 261.216 
" clip-path="url(#p91ff731cbf)" style="fill: none; stroke: #1f77b4; stroke-width: 1.5; stroke-linecap: square"/>
   </g>
   <g id="line2d_32">
    <path d="M 46.335852 261.216 
L 170.74241 261.127065 
L 170.74241 261.093203 
L 174.734064 260.986562 
L 174.734064 260.905525 
L 177.395167 260.798678 
L 177.395167 260.658817 
L 178.725718 260.658817 
L 178.725718 260.477065 
L 180.05627 260.477065 
L 180.05627 260.242588 
L 181.386821 260.242588 
L 181.386821 259.942293 
L 182.717372 259.942293 
L 182.717372 259.560518 
L 184.047924 259.560518 
L 184.047924 259.078719 
L 185.378475 259.078719 
L 185.378475 258.475178 
L 186.709027 258.475178 
L 186.709027 257.72474 
L 188.039578 257.72474 
L 188.039578 256.798611 
L 189.370129 256.798611 
L 189.370129 255.664232 
L 190.700681 255.664232 
L 190.700681 254.285269 
L 192.031232 254.285269 
L 192.031232 252.62173 
L 193.361784 252.62173 
L 193.361784 250.630264 
L 194.692335 250.630264 
L 194.692335 248.264644 
L 196.022887 248.264644 
L 196.022887 245.476477 
L 197.353438 245.476477 
L 197.353438 242.216155 
L 198.683989 242.216155 
L 198.683989 238.434062 
L 200.014541 238.434062 
L 200.014541 234.082025 
L 201.345092 234.082025 
L 201.345092 229.115019 
L 202.675644 229.115019 
L 202.675644 223.493077 
L 204.006195 223.493077 
L 204.006195 217.183383 
L 205.336746 217.183383 
L 205.336746 210.162466 
L 206.667298 210.162466 
L 206.667298 202.418447 
L 207.997849 202.418447 
L 207.997849 193.953216 
L 209.328401 193.953216 
L 209.328401 184.784469 
L 210.658952 184.784469 
L 210.658952 174.947465 
L 211.989504 174.947465 
L 211.989504 164.496416 
L 213.320055 164.496416 
L 213.320055 153.505372 
L 214.650606 153.505372 
L 214.650606 142.068527 
L 215.981158 142.068527 
L 215.981158 130.299842 
L 217.311709 130.299842 
L 217.311709 118.331932 
L 218.642261 118.331932 
L 218.642261 106.314187 
L 219.972812 106.314187 
L 219.972812 94.410129 
L 221.303363 94.410129 
L 221.303363 82.794041 
L 222.633915 82.794041 
L 222.633915 71.646959 
L 223.964466 71.646959 
L 223.964466 61.152132 
L 225.295018 61.152132 
L 225.295018 51.490109 
L 226.625569 51.490109 
L 226.625569 42.833631 
L 227.956121 42.833631 
L 227.956121 35.342523 
L 229.286672 35.342523 
L 229.286672 29.158805 
L 230.617223 29.158805 
L 230.617223 24.402214 
L 231.947775 24.402214 
L 231.947775 21.166359 
L 233.278326 21.166359 
L 233.278326 19.51565 
L 235.939429 19.48317 
L 235.939429 21.069572 
L 237.26998 21.069572 
L 237.26998 24.243055 
L 238.600532 24.243055 
L 238.600532 28.940427 
L 239.931083 28.940427 
L 239.931083 35.069197 
L 241.261635 35.069197 
L 241.261635 42.510602 
L 242.592186 42.510602 
L 242.592186 51.123431 
L 243.922738 51.123431 
L 243.922738 60.748479 
L 245.253289 60.748479 
L 245.253289 71.213425 
L 246.58384 71.213425 
L 246.58384 82.337934 
L 247.914392 82.337934 
L 247.914392 93.938767 
L 249.244943 93.938767 
L 249.244943 105.834712 
L 250.575495 105.834712 
L 250.575495 117.851132 
L 251.906046 117.851132 
L 251.906046 129.824008 
L 253.236597 129.824008 
L 253.236597 141.603327 
L 254.567149 141.603327 
L 254.567149 153.055762 
L 255.8977 153.055762 
L 255.8977 164.066581 
L 257.228252 164.066581 
L 257.228252 174.540786 
L 258.558803 174.540786 
L 258.558803 184.403522 
L 259.889355 184.403522 
L 259.889355 193.599799 
L 261.219906 193.599799 
L 261.219906 202.093621 
L 262.550457 202.093621 
L 262.550457 209.866624 
L 263.881009 209.866624 
L 263.881009 216.916321 
L 265.21156 216.916321 
L 265.21156 223.254084 
L 266.542112 223.254084 
L 266.542112 228.902961 
L 267.872663 228.902961 
L 267.872663 233.895438 
L 269.203214 233.895438 
L 269.203214 238.271236 
L 270.533766 238.271236 
L 270.533766 242.075217 
L 271.864317 242.075217 
L 271.864317 245.355461 
L 273.194869 245.355461 
L 273.194869 248.161558 
L 274.52542 248.161558 
L 274.52542 250.54314 
L 275.855971 250.54314 
L 275.855971 252.548667 
L 277.186523 252.548667 
L 277.186523 254.224469 
L 278.517074 254.224469 
L 278.517074 255.614024 
L 279.847626 255.614024 
L 279.847626 256.757464 
L 281.178177 256.757464 
L 281.178177 257.691273 
L 282.508729 257.691273 
L 282.508729 258.448161 
L 283.83928 258.448161 
L 283.83928 259.057071 
L 285.169831 259.057071 
L 285.169831 259.5433 
L 286.500383 259.5433 
L 286.500383 259.9287 
L 287.830934 259.9287 
L 287.830934 260.231935 
L 289.161486 260.231935 
L 289.161486 260.468778 
L 290.492037 260.468778 
L 290.492037 260.652417 
L 291.822588 260.652417 
L 291.822588 260.793771 
L 294.483691 260.90179 
L 294.483691 260.98374 
L 298.475346 261.091626 
L 298.475346 261.125899 
L 370.990398 261.216 
L 370.990398 261.216 
" clip-path="url(#p91ff731cbf)" style="fill: none; stroke: #ff7f0e; stroke-width: 1.5; stroke-linecap: square"/>
   </g>
   <g id="line2d_33">
    <path d="M 46.335852 261.215098 
L 158.767447 261.113482 
L 158.767447 261.082546 
L 162.759101 260.992942 
L 162.759101 260.929636 
L 165.420204 260.850093 
L 165.420204 260.750665 
L 166.750755 260.750665 
L 166.750755 260.627021 
L 168.081307 260.627021 
L 168.081307 260.47406 
L 169.411858 260.47406 
L 169.411858 260.285807 
L 170.74241 260.285807 
L 170.74241 260.05532 
L 172.072961 260.05532 
L 172.072961 259.774586 
L 173.403512 259.774586 
L 173.403512 259.434431 
L 174.734064 259.434431 
L 174.734064 259.024424 
L 176.064615 259.024424 
L 176.064615 258.532805 
L 177.395167 258.532805 
L 177.395167 257.946418 
L 178.725718 257.946418 
L 178.725718 257.250675 
L 180.05627 257.250675 
L 180.05627 256.429544 
L 181.386821 256.429544 
L 181.386821 255.465564 
L 182.717372 255.465564 
L 182.717372 254.339915 
L 184.047924 254.339915 
L 184.047924 253.032522 
L 185.378475 253.032522 
L 185.378475 251.522217 
L 186.709027 251.522217 
L 186.709027 249.786957 
L 188.039578 249.786957 
L 188.039578 247.804108 
L 189.370129 247.804108 
L 189.370129 245.550783 
L 190.700681 245.550783 
L 190.700681 243.004262 
L 192.031232 243.004262 
L 192.031232 240.14246 
L 193.361784 240.14246 
L 193.361784 236.944468 
L 194.692335 236.944468 
L 194.692335 233.391142 
L 196.022887 233.391142 
L 196.022887 229.465739 
L 197.353438 229.465739 
L 197.353438 225.154592 
L 198.683989 225.154592 
L 198.683989 220.447795 
L 200.014541 220.447795 
L 200.014541 215.339898 
L 201.345092 215.339898 
L 201.345092 209.83058 
L 202.675644 209.83058 
L 202.675644 203.92528 
L 204.006195 203.92528 
L 204.006195 197.635771 
L 205.336746 197.635771 
L 205.336746 190.980641 
L 206.667298 190.980641 
L 206.667298 183.985664 
L 207.997849 183.985664 
L 207.997849 176.684047 
L 209.328401 176.684047 
L 209.328401 169.116512 
L 210.658952 169.116512 
L 210.658952 161.331216 
L 211.989504 161.331216 
L 211.989504 153.383486 
L 213.320055 153.383486 
L 213.320055 145.335364 
L 214.650606 145.335364 
L 214.650606 137.254958 
L 215.981158 137.254958 
L 215.981158 129.215601 
L 217.311709 129.215601 
L 217.311709 121.294838 
L 218.642261 121.294838 
L 218.642261 113.573237 
L 219.972812 113.573237 
L 219.972812 106.133074 
L 221.303363 106.133074 
L 221.303363 99.0569 
L 222.633915 99.0569 
L 222.633915 92.426027 
L 223.964466 92.426027 
L 223.964466 86.318987 
L 225.295018 86.318987 
L 225.295018 80.80998 
L 226.625569 80.80998 
L 226.625569 75.967373 
L 227.956121 75.967373 
L 227.956121 71.852287 
L 229.286672 71.852287 
L 229.286672 68.517311 
L 230.617223 68.517311 
L 230.617223 66.005379 
L 231.947775 66.005379 
L 231.947775 64.348849 
L 233.278326 64.348849 
L 233.278326 63.56881 
L 235.939429 63.674637 
L 235.939429 64.663803 
L 237.26998 64.663803 
L 237.26998 66.521963 
L 238.600532 66.521963 
L 238.600532 69.223295 
L 239.931083 69.223295 
L 239.931083 72.731099 
L 241.261635 72.731099 
L 241.261635 76.998622 
L 242.592186 76.998622 
L 242.592186 81.970091 
L 243.922738 81.970091 
L 243.922738 87.581924 
L 245.253289 87.581924 
L 245.253289 93.764075 
L 246.58384 93.764075 
L 246.58384 100.441477 
L 247.914392 100.441477 
L 247.914392 107.535546 
L 249.244943 107.535546 
L 249.244943 114.965694 
L 250.575495 114.965694 
L 250.575495 122.650827 
L 251.906046 122.650827 
L 251.906046 130.510769 
L 253.236597 130.510769 
L 253.236597 138.467601 
L 254.567149 138.467601 
L 254.567149 146.446868 
L 255.8977 146.446868 
L 255.8977 154.378636 
L 257.228252 154.378636 
L 257.228252 162.19839 
L 258.558803 162.19839 
L 258.558803 169.847745 
L 259.889355 169.847745 
L 259.889355 177.274981 
L 261.219906 177.274981 
L 261.219906 184.435391 
L 262.550457 184.435391 
L 262.550457 191.29145 
L 263.881009 191.29145 
L 263.881009 197.812824 
L 265.21156 197.812824 
L 265.21156 203.976222 
L 266.542112 203.976222 
L 266.542112 209.765115 
L 267.872663 209.765115 
L 267.872663 215.16934 
L 269.203214 215.16934 
L 269.203214 220.184616 
L 270.533766 220.184616 
L 270.533766 224.811981 
L 271.864317 224.811981 
L 271.864317 229.057186 
L 273.194869 229.057186 
L 273.194869 232.930061 
L 274.52542 232.930061 
L 274.52542 236.443865 
L 275.855971 236.443865 
L 275.855971 239.614649 
L 277.186523 239.614649 
L 277.186523 242.460641 
L 278.517074 242.460641 
L 278.517074 245.001662 
L 279.847626 245.001662 
L 279.847626 247.258591 
L 281.178177 247.258591 
L 281.178177 249.25288 
L 282.508729 249.25288 
L 282.508729 251.006122 
L 283.83928 251.006122 
L 283.83928 252.539682 
L 285.169831 252.539682 
L 285.169831 253.874386 
L 286.500383 253.874386 
L 286.500383 255.030268 
L 287.830934 255.030268 
L 287.830934 256.026368 
L 289.161486 256.026368 
L 289.161486 256.88059 
L 290.492037 256.88059 
L 290.492037 257.609597 
L 291.822588 257.609597 
L 291.822588 258.228752 
L 293.15314 258.228752 
L 293.15314 258.752098 
L 294.483691 258.752098 
L 294.483691 259.19236 
L 295.814243 259.19236 
L 295.814243 259.560981 
L 297.144794 259.560981 
L 297.144794 259.868171 
L 298.475346 259.868171 
L 298.475346 260.122973 
L 299.805897 260.122973 
L 299.805897 260.333339 
L 301.136448 260.333339 
L 301.136448 260.506216 
L 302.467 260.506216 
L 302.467 260.647631 
L 303.797551 260.647631 
L 303.797551 260.762781 
L 306.458654 260.856117 
L 306.458654 260.931427 
L 310.450308 261.040288 
L 310.450308 261.078791 
L 319.764168 261.187497 
L 319.764168 261.194381 
L 370.990398 261.216 
L 370.990398 261.216 
" clip-path="url(#p91ff731cbf)" style="fill: none; stroke: #2ca02c; stroke-width: 1.5; stroke-linecap: square"/>
   </g>
   <g id="patch_3">
    <path d="M 30.103125 273.312 
L 30.103125 7.2 
" style="fill: none; stroke: #000000; stroke-width: 0.8; stroke-linejoin: miter; stroke-linecap: square"/>
   </g>
   <g id="patch_4">
    <path d="M 387.223125 273.312 
L 387.223125 7.2 
" style="fill: none; stroke: #000000; stroke-width: 0.8; stroke-linejoin: miter; stroke-linecap: square"/>
   </g>
   <g id="patch_5">
    <path d="M 30.103125 273.312 
L 387.223125 273.312 
" style="fill: none; stroke: #000000; stroke-width: 0.8; stroke-linejoin: miter; stroke-linecap: square"/>
   </g>
   <g id="patch_6">
    <path d="M 30.103125 7.2 
L 387.223125 7.2 
" style="fill: none; stroke: #000000; stroke-width: 0.8; stroke-linejoin: miter; stroke-linecap: square"/>
   </g>
   <g id="legend_1">
    <g id="patch_7">
     <path d="M 306.855937 59.234375 
L 380.223125 59.234375 
Q 382.223125 59.234375 382.223125 57.234375 
L 382.223125 14.2 
Q 382.223125 12.2 380.223125 12.2 
L 306.855937 12.2 
Q 304.855937 12.2 304.855937 14.2 
L 304.855937 57.234375 
Q 304.855937 59.234375 306.855937 59.234375 
z
" style="fill: #ffffff; opacity: 0.8; stroke: #cccccc; stroke-linejoin: miter"/>
    </g>
    <g id="line2d_34">
     <path d="M 308.855937 20.298437 
L 313.855937 20.298437 
L 313.855937 20.298437 
L 323.855937 20.298437 
L 323.855937 20.298437 
L 328.855937 20.298437 
" style="fill: none; stroke: #1f77b4; stroke-width: 1.5; stroke-linecap: square"/>
    </g>
    <g id="text_16">
     <!-- initial -->
     <g transform="translate(336.855937 23.798437) scale(0.1 -0.1)">
      <defs>
       <path id="DejaVuSans-69" d="M 603 3500 
L 1178 3500 
L 1178 0 
L 603 0 
L 603 3500 
z
M 603 4863 
L 1178 4863 
L 1178 4134 
L 603 4134 
L 603 4863 
z
" transform="scale(0.015625)"/>
       <path id="DejaVuSans-6e" d="M 3513 2113 
L 3513 0 
L 2938 0 
L 2938 2094 
Q 2938 2591 2744 2837 
Q 2550 3084 2163 3084 
Q 1697 3084 1428 2787 
Q 1159 2491 1159 1978 
L 1159 0 
L 581 0 
L 581 3500 
L 1159 3500 
L 1159 2956 
Q 1366 3272 1645 3428 
Q 1925 3584 2291 3584 
Q 2894 3584 3203 3211 
Q 3513 2838 3513 2113 
z
" transform="scale(0.015625)"/>
       <path id="DejaVuSans-74" d="M 1172 4494 
L 1172 3500 
L 2356 3500 
L 2356 3053 
L 1172 3053 
L 1172 1153 
Q 1172 725 1289 603 
Q 1406 481 1766 481 
L 2356 481 
L 2356 0 
L 1766 0 
Q 1100 0 847 248 
Q 594 497 594 1153 
L 594 3053 
L 172 3053 
L 172 3500 
L 594 3500 
L 594 4494 
L 1172 4494 
z
" transform="scale(0.015625)"/>
       <path id="DejaVuSans-61" d="M 2194 1759 
Q 1497 1759 1228 1600 
Q 959 1441 959 1056 
Q 959 750 1161 570 
Q 1363 391 1709 391 
Q 2188 391 2477 730 
Q 2766 1069 2766 1631 
L 2766 1759 
L 2194 1759 
z
M 3341 1997 
L 3341 0 
L 2766 0 
L 2766 531 
Q 2569 213 2275 61 
Q 1981 -91 1556 -91 
Q 1019 -91 701 211 
Q 384 513 384 1019 
Q 384 1609 779 1909 
Q 1175 2209 1959 2209 
L 2766 2209 
L 2766 2266 
Q 2766 2663 2505 2880 
Q 2244 3097 1772 3097 
Q 1472 3097 1187 3025 
Q 903 2953 641 2809 
L 641 3341 
Q 956 3463 1253 3523 
Q 1550 3584 1831 3584 
Q 2591 3584 2966 3190 
Q 3341 2797 3341 1997 
z
" transform="scale(0.015625)"/>
       <path id="DejaVuSans-6c" d="M 603 4863 
L 1178 4863 
L 1178 0 
L 603 0 
L 603 4863 
z
" transform="scale(0.015625)"/>
      </defs>
      <use xlink:href="#DejaVuSans-69"/>
      <use xlink:href="#DejaVuSans-6e" transform="translate(27.783203 0)"/>
      <use xlink:href="#DejaVuSans-69" transform="translate(91.162109 0)"/>
      <use xlink:href="#DejaVuSans-74" transform="translate(118.945312 0)"/>
      <use xlink:href="#DejaVuSans-69" transform="translate(158.154297 0)"/>
      <use xlink:href="#DejaVuSans-61" transform="translate(185.9375 0)"/>
      <use xlink:href="#DejaVuSans-6c" transform="translate(247.216797 0)"/>
     </g>
    </g>
    <g id="line2d_35">
     <path d="M 308.855937 34.976562 
L 313.855937 34.976562 
L 313.855937 34.976562 
L 323.855937 34.976562 
L 323.855937 34.976562 
L 328.855937 34.976562 
" style="fill: none; stroke: #ff7f0e; stroke-width: 1.5; stroke-linecap: square"/>
    </g>
    <g id="text_17">
     <!-- analytic -->
     <g transform="translate(336.855937 38.476562) scale(0.1 -0.1)">
      <defs>
       <path id="DejaVuSans-79" d="M 2059 -325 
Q 1816 -950 1584 -1140 
Q 1353 -1331 966 -1331 
L 506 -1331 
L 506 -850 
L 844 -850 
Q 1081 -850 1212 -737 
Q 1344 -625 1503 -206 
L 1606 56 
L 191 3500 
L 800 3500 
L 1894 763 
L 2988 3500 
L 3597 3500 
L 2059 -325 
z
" transform="scale(0.015625)"/>
       <path id="DejaVuSans-63" d="M 3122 3366 
L 3122 2828 
Q 2878 2963 2633 3030 
Q 2388 3097 2138 3097 
Q 1578 3097 1268 2742 
Q 959 2388 959 1747 
Q 959 1106 1268 751 
Q 1578 397 2138 397 
Q 2388 397 2633 464 
Q 2878 531 3122 666 
L 3122 134 
Q 2881 22 2623 -34 
Q 2366 -91 2075 -91 
Q 1284 -91 818 406 
Q 353 903 353 1747 
Q 353 2603 823 3093 
Q 1294 3584 2113 3584 
Q 2378 3584 2631 3529 
Q 2884 3475 3122 3366 
z
" transform="scale(0.015625)"/>
      </defs>
      <use xlink:href="#DejaVuSans-61"/>
      <use xlink:href="#DejaVuSans-6e" transform="translate(61.279297 0)"/>
      <use xlink:href="#DejaVuSans-61" transform="translate(124.658203 0)"/>
      <use xlink:href="#DejaVuSans-6c" transform="translate(185.9375 0)"/>
      <use xlink:href="#DejaVuSans-79" transform="translate(213.720703 0)"/>
      <use xlink:href="#DejaVuSans-74" transform="translate(272.900391 0)"/>
      <use xlink:href="#DejaVuSans-69" transform="translate(312.109375 0)"/>
      <use xlink:href="#DejaVuSans-63" transform="translate(339.892578 0)"/>
     </g>
    </g>
    <g id="line2d_36">
     <path d="M 308.855937 49.654687 
L 313.855937 49.654687 
L 313.855937 49.654687 
L 323.855937 49.654687 
L 323.855937 49.654687 
L 328.855937 49.654687 
" style="fill: none; stroke: #2ca02c; stroke-width: 1.5; stroke-linecap: square"/>
    </g>
    <g id="text_18">
     <!-- UPWIND -->
     <g transform="translate(336.855937 53.154687) scale(0.1 -0.1)">
      <defs>
       <path id="DejaVuSans-55" d="M 556 4666 
L 1191 4666 
L 1191 1831 
Q 1191 1081 1462 751 
Q 1734 422 2344 422 
Q 2950 422 3222 751 
Q 3494 1081 3494 1831 
L 3494 4666 
L 4128 4666 
L 4128 1753 
Q 4128 841 3676 375 
Q 3225 -91 2344 -91 
Q 1459 -91 1007 375 
Q 556 841 556 1753 
L 556 4666 
z
" transform="scale(0.015625)"/>
       <path id="DejaVuSans-50" d="M 1259 4147 
L 1259 2394 
L 2053 2394 
Q 2494 2394 2734 2622 
Q 2975 2850 2975 3272 
Q 2975 3691 2734 3919 
Q 2494 4147 2053 4147 
L 1259 4147 
z
M 628 4666 
L 2053 4666 
Q 2838 4666 3239 4311 
Q 3641 3956 3641 3272 
Q 3641 2581 3239 2228 
Q 2838 1875 2053 1875 
L 1259 1875 
L 1259 0 
L 628 0 
L 628 4666 
z
" transform="scale(0.015625)"/>
       <path id="DejaVuSans-57" d="M 213 4666 
L 850 4666 
L 1831 722 
L 2809 4666 
L 3519 4666 
L 4500 722 
L 5478 4666 
L 6119 4666 
L 4947 0 
L 4153 0 
L 3169 4050 
L 2175 0 
L 1381 0 
L 213 4666 
z
" transform="scale(0.015625)"/>
       <path id="DejaVuSans-49" d="M 628 4666 
L 1259 4666 
L 1259 0 
L 628 0 
L 628 4666 
z
" transform="scale(0.015625)"/>
       <path id="DejaVuSans-4e" d="M 628 4666 
L 1478 4666 
L 3547 763 
L 3547 4666 
L 4159 4666 
L 4159 0 
L 3309 0 
L 1241 3903 
L 1241 0 
L 628 0 
L 628 4666 
z
" transform="scale(0.015625)"/>
       <path id="DejaVuSans-44" d="M 1259 4147 
L 1259 519 
L 2022 519 
Q 2988 519 3436 956 
Q 3884 1394 3884 2338 
Q 3884 3275 3436 3711 
Q 2988 4147 2022 4147 
L 1259 4147 
z
M 628 4666 
L 1925 4666 
Q 3281 4666 3915 4102 
Q 4550 3538 4550 2338 
Q 4550 1131 3912 565 
Q 3275 0 1925 0 
L 628 0 
L 628 4666 
z
" transform="scale(0.015625)"/>
      </defs>
      <use xlink:href="#DejaVuSans-55"/>
      <use xlink:href="#DejaVuSans-50" transform="translate(73.193359 0)"/>
      <use xlink:href="#DejaVuSans-57" transform="translate(133.496094 0)"/>
      <use xlink:href="#DejaVuSans-49" transform="translate(232.373047 0)"/>
      <use xlink:href="#DejaVuSans-4e" transform="translate(261.865234 0)"/>
      <use xlink:href="#DejaVuSans-44" transform="translate(336.669922 0)"/>
     </g>
    </g>
   </g>
  </g>
 </g>
 <defs>
  <clipPath id="p91ff731cbf">
   <rect x="30.103125" y="7.2" width="357.12" height="266.112"/>
  </clipPath>
 </defs>
</svg>
