<?xml version="1.0" encoding="utf-8" standalone="no"?>
<!DOCTYPE svg PUBLIC "-//W3C//DTD SVG 1.1//EN"
  "http://www.w3.org/Graphics/SVG/1.1/DTD/svg11.dtd">
<svg xmlns:xlink="http://www.w3.org/1999/xlink" width="394.423125pt" height="297.190125pt" viewBox="0 0 394.423125 297.190125" xmlns="http://www.w3.org/2000/svg" version="1.1">
 <metadata>
  <rdf:RDF xmlns:dc="http://purl.org/dc/elements/1.1/" xmlns:cc="http://creativecommons.org/ns#" xmlns:rdf="http://www.w3.org/1999/02/22-rdf-syntax-ns#">
   <cc:Work>
    <dc:type rdf:resource="http://purl.org/dc/dcmitype/StillImage"/>
    <dc:date>2025-04-02T20:27:57.387331</dc:date>
    <dc:format>image/svg+xml</dc:format>
    <dc:creator>
     <cc:Agent>
      <dc:title>Matplotlib v3.10.1, https://matplotlib.org/</dc:title>
     </cc:Agent>
    </dc:creator>
   </cc:Work>
  </rdf:RDF>
 </metadata>
 <defs>
  <style type="text/css">*{stroke-linejoin: round; stroke-linecap: butt}</style>
 </defs>
 <g id="figure_1">
  <g id="patch_1">
   <path d="M 0 297.190125 
L 394.423125 297.190125 
L 394.423125 0 
L 0 0 
z
" style="fill: #ffffff"/>
  </g>
  <g id="axes_1">
   <g id="patch_2">
    <path d="M 30.103125 273.312 
L 387.223125 273.312 
L 387.223125 7.2 
L 30.103125 7.2 
z
" style="fill: #ffffff"/>
   </g>
   <g id="matplotlib.axis_1">
    <g id="xtick_1">
     <g id="line2d_1">
      <path d="M 46.335852 273.312 
L 46.335852 7.2 
" clip-path="url(#p97adf33882)" style="fill: none; stroke: #b0b0b0; stroke-width: 0.8; stroke-linecap: square"/>
     </g>
     <g id="line2d_2">
      <defs>
       <path id="m3a743ad3ec" d="M 0 0 
L 0 3.5 
" style="stroke: #000000; stroke-width: 0.8"/>
      </defs>
      <g>
       <use xlink:href="#m3a743ad3ec" x="46.335852" y="273.312" style="stroke: #000000; stroke-width: 0.8"/>
      </g>
     </g>
     <g id="text_1">
      <!-- −100 -->
      <g transform="translate(32.602259 287.910437) scale(0.1 -0.1)">
       <defs>
        <path id="DejaVuSans-2212" d="M 678 2272 
L 4684 2272 
L 4684 1741 
L 678 1741 
L 678 2272 
z
" transform="scale(0.015625)"/>
        <path id="DejaVuSans-31" d="M 794 531 
L 1825 531 
L 1825 4091 
L 703 3866 
L 703 4441 
L 1819 4666 
L 2450 4666 
L 2450 531 
L 3481 531 
L 3481 0 
L 794 0 
L 794 531 
z
" transform="scale(0.015625)"/>
        <path id="DejaVuSans-30" d="M 2034 4250 
Q 1547 4250 1301 3770 
Q 1056 3291 1056 2328 
Q 1056 1369 1301 889 
Q 1547 409 2034 409 
Q 2525 409 2770 889 
Q 3016 1369 3016 2328 
Q 3016 3291 2770 3770 
Q 2525 4250 2034 4250 
z
M 2034 4750 
Q 2819 4750 3233 4129 
Q 3647 3509 3647 2328 
Q 3647 1150 3233 529 
Q 2819 -91 2034 -91 
Q 1250 -91 836 529 
Q 422 1150 422 2328 
Q 422 3509 836 4129 
Q 1250 4750 2034 4750 
z
" transform="scale(0.015625)"/>
       </defs>
       <use xlink:href="#DejaVuSans-2212"/>
       <use xlink:href="#DejaVuSans-31" transform="translate(83.789062 0)"/>
       <use xlink:href="#DejaVuSans-30" transform="translate(147.412109 0)"/>
       <use xlink:href="#DejaVuSans-30" transform="translate(211.035156 0)"/>
      </g>
     </g>
    </g>
    <g id="xtick_2">
     <g id="line2d_3">
      <path d="M 86.91767 273.312 
L 86.91767 7.2 
" clip-path="url(#p97adf33882)" style="fill: none; stroke: #b0b0b0; stroke-width: 0.8; stroke-linecap: square"/>
     </g>
     <g id="line2d_4">
      <g>
       <use xlink:href="#m3a743ad3ec" x="86.91767" y="273.312" style="stroke: #000000; stroke-width: 0.8"/>
      </g>
     </g>
     <g id="text_2">
      <!-- −50 -->
      <g transform="translate(76.365327 287.910437) scale(0.1 -0.1)">
       <defs>
        <path id="DejaVuSans-35" d="M 691 4666 
L 3169 4666 
L 3169 4134 
L 1269 4134 
L 1269 2991 
Q 1406 3038 1543 3061 
Q 1681 3084 1819 3084 
Q 2600 3084 3056 2656 
Q 3513 2228 3513 1497 
Q 3513 744 3044 326 
Q 2575 -91 1722 -91 
Q 1428 -91 1123 -41 
Q 819 9 494 109 
L 494 744 
Q 775 591 1075 516 
Q 1375 441 1709 441 
Q 2250 441 2565 725 
Q 2881 1009 2881 1497 
Q 2881 1984 2565 2268 
Q 2250 2553 1709 2553 
Q 1456 2553 1204 2497 
Q 953 2441 691 2322 
L 691 4666 
z
" transform="scale(0.015625)"/>
       </defs>
       <use xlink:href="#DejaVuSans-2212"/>
       <use xlink:href="#DejaVuSans-35" transform="translate(83.789062 0)"/>
       <use xlink:href="#DejaVuSans-30" transform="translate(147.412109 0)"/>
      </g>
     </g>
    </g>
    <g id="xtick_3">
     <g id="line2d_5">
      <path d="M 127.499489 273.312 
L 127.499489 7.2 
" clip-path="url(#p97adf33882)" style="fill: none; stroke: #b0b0b0; stroke-width: 0.8; stroke-linecap: square"/>
     </g>
     <g id="line2d_6">
      <g>
       <use xlink:href="#m3a743ad3ec" x="127.499489" y="273.312" style="stroke: #000000; stroke-width: 0.8"/>
      </g>
     </g>
     <g id="text_3">
      <!-- 0 -->
      <g transform="translate(124.318239 287.910437) scale(0.1 -0.1)">
       <use xlink:href="#DejaVuSans-30"/>
      </g>
     </g>
    </g>
    <g id="xtick_4">
     <g id="line2d_7">
      <path d="M 168.081307 273.312 
L 168.081307 7.2 
" clip-path="url(#p97adf33882)" style="fill: none; stroke: #b0b0b0; stroke-width: 0.8; stroke-linecap: square"/>
     </g>
     <g id="line2d_8">
      <g>
       <use xlink:href="#m3a743ad3ec" x="168.081307" y="273.312" style="stroke: #000000; stroke-width: 0.8"/>
      </g>
     </g>
     <g id="text_4">
      <!-- 50 -->
      <g transform="translate(161.718807 287.910437) scale(0.1 -0.1)">
       <use xlink:href="#DejaVuSans-35"/>
       <use xlink:href="#DejaVuSans-30" transform="translate(63.623047 0)"/>
      </g>
     </g>
    </g>
    <g id="xtick_5">
     <g id="line2d_9">
      <path d="M 208.663125 273.312 
L 208.663125 7.2 
" clip-path="url(#p97adf33882)" style="fill: none; stroke: #b0b0b0; stroke-width: 0.8; stroke-linecap: square"/>
     </g>
     <g id="line2d_10">
      <g>
       <use xlink:href="#m3a743ad3ec" x="208.663125" y="273.312" style="stroke: #000000; stroke-width: 0.8"/>
      </g>
     </g>
     <g id="text_5">
      <!-- 100 -->
      <g transform="translate(199.119375 287.910437) scale(0.1 -0.1)">
       <use xlink:href="#DejaVuSans-31"/>
       <use xlink:href="#DejaVuSans-30" transform="translate(63.623047 0)"/>
       <use xlink:href="#DejaVuSans-30" transform="translate(127.246094 0)"/>
      </g>
     </g>
    </g>
    <g id="xtick_6">
     <g id="line2d_11">
      <path d="M 249.244943 273.312 
L 249.244943 7.2 
" clip-path="url(#p97adf33882)" style="fill: none; stroke: #b0b0b0; stroke-width: 0.8; stroke-linecap: square"/>
     </g>
     <g id="line2d_12">
      <g>
       <use xlink:href="#m3a743ad3ec" x="249.244943" y="273.312" style="stroke: #000000; stroke-width: 0.8"/>
      </g>
     </g>
     <g id="text_6">
      <!-- 150 -->
      <g transform="translate(239.701193 287.910437) scale(0.1 -0.1)">
       <use xlink:href="#DejaVuSans-31"/>
       <use xlink:href="#DejaVuSans-35" transform="translate(63.623047 0)"/>
       <use xlink:href="#DejaVuSans-30" transform="translate(127.246094 0)"/>
      </g>
     </g>
    </g>
    <g id="xtick_7">
     <g id="line2d_13">
      <path d="M 289.826761 273.312 
L 289.826761 7.2 
" clip-path="url(#p97adf33882)" style="fill: none; stroke: #b0b0b0; stroke-width: 0.8; stroke-linecap: square"/>
     </g>
     <g id="line2d_14">
      <g>
       <use xlink:href="#m3a743ad3ec" x="289.826761" y="273.312" style="stroke: #000000; stroke-width: 0.8"/>
      </g>
     </g>
     <g id="text_7">
      <!-- 200 -->
      <g transform="translate(280.283011 287.910437) scale(0.1 -0.1)">
       <defs>
        <path id="DejaVuSans-32" d="M 1228 531 
L 3431 531 
L 3431 0 
L 469 0 
L 469 531 
Q 828 903 1448 1529 
Q 2069 2156 2228 2338 
Q 2531 2678 2651 2914 
Q 2772 3150 2772 3378 
Q 2772 3750 2511 3984 
Q 2250 4219 1831 4219 
Q 1534 4219 1204 4116 
Q 875 4013 500 3803 
L 500 4441 
Q 881 4594 1212 4672 
Q 1544 4750 1819 4750 
Q 2544 4750 2975 4387 
Q 3406 4025 3406 3419 
Q 3406 3131 3298 2873 
Q 3191 2616 2906 2266 
Q 2828 2175 2409 1742 
Q 1991 1309 1228 531 
z
" transform="scale(0.015625)"/>
       </defs>
       <use xlink:href="#DejaVuSans-32"/>
       <use xlink:href="#DejaVuSans-30" transform="translate(63.623047 0)"/>
       <use xlink:href="#DejaVuSans-30" transform="translate(127.246094 0)"/>
      </g>
     </g>
    </g>
    <g id="xtick_8">
     <g id="line2d_15">
      <path d="M 330.40858 273.312 
L 330.40858 7.2 
" clip-path="url(#p97adf33882)" style="fill: none; stroke: #b0b0b0; stroke-width: 0.8; stroke-linecap: square"/>
     </g>
     <g id="line2d_16">
      <g>
       <use xlink:href="#m3a743ad3ec" x="330.40858" y="273.312" style="stroke: #000000; stroke-width: 0.8"/>
      </g>
     </g>
     <g id="text_8">
      <!-- 250 -->
      <g transform="translate(320.86483 287.910437) scale(0.1 -0.1)">
       <use xlink:href="#DejaVuSans-32"/>
       <use xlink:href="#DejaVuSans-35" transform="translate(63.623047 0)"/>
       <use xlink:href="#DejaVuSans-30" transform="translate(127.246094 0)"/>
      </g>
     </g>
    </g>
    <g id="xtick_9">
     <g id="line2d_17">
      <path d="M 370.990398 273.312 
L 370.990398 7.2 
" clip-path="url(#p97adf33882)" style="fill: none; stroke: #b0b0b0; stroke-width: 0.8; stroke-linecap: square"/>
     </g>
     <g id="line2d_18">
      <g>
       <use xlink:href="#m3a743ad3ec" x="370.990398" y="273.312" style="stroke: #000000; stroke-width: 0.8"/>
      </g>
     </g>
     <g id="text_9">
      <!-- 300 -->
      <g transform="translate(361.446648 287.910437) scale(0.1 -0.1)">
       <defs>
        <path id="DejaVuSans-33" d="M 2597 2516 
Q 3050 2419 3304 2112 
Q 3559 1806 3559 1356 
Q 3559 666 3084 287 
Q 2609 -91 1734 -91 
Q 1441 -91 1130 -33 
Q 819 25 488 141 
L 488 750 
Q 750 597 1062 519 
Q 1375 441 1716 441 
Q 2309 441 2620 675 
Q 2931 909 2931 1356 
Q 2931 1769 2642 2001 
Q 2353 2234 1838 2234 
L 1294 2234 
L 1294 2753 
L 1863 2753 
Q 2328 2753 2575 2939 
Q 2822 3125 2822 3475 
Q 2822 3834 2567 4026 
Q 2313 4219 1838 4219 
Q 1578 4219 1281 4162 
Q 984 4106 628 3988 
L 628 4550 
Q 988 4650 1302 4700 
Q 1616 4750 1894 4750 
Q 2613 4750 3031 4423 
Q 3450 4097 3450 3541 
Q 3450 3153 3228 2886 
Q 3006 2619 2597 2516 
z
" transform="scale(0.015625)"/>
       </defs>
       <use xlink:href="#DejaVuSans-33"/>
       <use xlink:href="#DejaVuSans-30" transform="translate(63.623047 0)"/>
       <use xlink:href="#DejaVuSans-30" transform="translate(127.246094 0)"/>
      </g>
     </g>
    </g>
   </g>
   <g id="matplotlib.axis_2">
    <g id="ytick_1">
     <g id="line2d_19">
      <path d="M 30.103125 261.216 
L 387.223125 261.216 
" clip-path="url(#p97adf33882)" style="fill: none; stroke: #b0b0b0; stroke-width: 0.8; stroke-linecap: square"/>
     </g>
     <g id="line2d_20">
      <defs>
       <path id="me5644cedbc" d="M 0 0 
L -3.5 0 
" style="stroke: #000000; stroke-width: 0.8"/>
      </defs>
      <g>
       <use xlink:href="#me5644cedbc" x="30.103125" y="261.216" style="stroke: #000000; stroke-width: 0.8"/>
      </g>
     </g>
     <g id="text_10">
      <!-- 0.0 -->
      <g transform="translate(7.2 265.015219) scale(0.1 -0.1)">
       <defs>
        <path id="DejaVuSans-2e" d="M 684 794 
L 1344 794 
L 1344 0 
L 684 0 
L 684 794 
z
" transform="scale(0.015625)"/>
       </defs>
       <use xlink:href="#DejaVuSans-30"/>
       <use xlink:href="#DejaVuSans-2e" transform="translate(63.623047 0)"/>
       <use xlink:href="#DejaVuSans-30" transform="translate(95.410156 0)"/>
      </g>
     </g>
    </g>
    <g id="ytick_2">
     <g id="line2d_21">
      <path d="M 30.103125 229.059551 
L 387.223125 229.059551 
" clip-path="url(#p97adf33882)" style="fill: none; stroke: #b0b0b0; stroke-width: 0.8; stroke-linecap: square"/>
     </g>
     <g id="line2d_22">
      <g>
       <use xlink:href="#me5644cedbc" x="30.103125" y="229.059551" style="stroke: #000000; stroke-width: 0.8"/>
      </g>
     </g>
     <g id="text_11">
      <!-- 0.2 -->
      <g transform="translate(7.2 232.85877) scale(0.1 -0.1)">
       <use xlink:href="#DejaVuSans-30"/>
       <use xlink:href="#DejaVuSans-2e" transform="translate(63.623047 0)"/>
       <use xlink:href="#DejaVuSans-32" transform="translate(95.410156 0)"/>
      </g>
     </g>
    </g>
    <g id="ytick_3">
     <g id="line2d_23">
      <path d="M 30.103125 196.903103 
L 387.223125 196.903103 
" clip-path="url(#p97adf33882)" style="fill: none; stroke: #b0b0b0; stroke-width: 0.8; stroke-linecap: square"/>
     </g>
     <g id="line2d_24">
      <g>
       <use xlink:href="#me5644cedbc" x="30.103125" y="196.903103" style="stroke: #000000; stroke-width: 0.8"/>
      </g>
     </g>
     <g id="text_12">
      <!-- 0.4 -->
      <g transform="translate(7.2 200.702322) scale(0.1 -0.1)">
       <defs>
        <path id="DejaVuSans-34" d="M 2419 4116 
L 825 1625 
L 2419 1625 
L 2419 4116 
z
M 2253 4666 
L 3047 4666 
L 3047 1625 
L 3713 1625 
L 3713 1100 
L 3047 1100 
L 3047 0 
L 2419 0 
L 2419 1100 
L 313 1100 
L 313 1709 
L 2253 4666 
z
" transform="scale(0.015625)"/>
       </defs>
       <use xlink:href="#DejaVuSans-30"/>
       <use xlink:href="#DejaVuSans-2e" transform="translate(63.623047 0)"/>
       <use xlink:href="#DejaVuSans-34" transform="translate(95.410156 0)"/>
      </g>
     </g>
    </g>
    <g id="ytick_4">
     <g id="line2d_25">
      <path d="M 30.103125 164.746654 
L 387.223125 164.746654 
" clip-path="url(#p97adf33882)" style="fill: none; stroke: #b0b0b0; stroke-width: 0.8; stroke-linecap: square"/>
     </g>
     <g id="line2d_26">
      <g>
       <use xlink:href="#me5644cedbc" x="30.103125" y="164.746654" style="stroke: #000000; stroke-width: 0.8"/>
      </g>
     </g>
     <g id="text_13">
      <!-- 0.6 -->
      <g transform="translate(7.2 168.545873) scale(0.1 -0.1)">
       <defs>
        <path id="DejaVuSans-36" d="M 2113 2584 
Q 1688 2584 1439 2293 
Q 1191 2003 1191 1497 
Q 1191 994 1439 701 
Q 1688 409 2113 409 
Q 2538 409 2786 701 
Q 3034 994 3034 1497 
Q 3034 2003 2786 2293 
Q 2538 2584 2113 2584 
z
M 3366 4563 
L 3366 3988 
Q 3128 4100 2886 4159 
Q 2644 4219 2406 4219 
Q 1781 4219 1451 3797 
Q 1122 3375 1075 2522 
Q 1259 2794 1537 2939 
Q 1816 3084 2150 3084 
Q 2853 3084 3261 2657 
Q 3669 2231 3669 1497 
Q 3669 778 3244 343 
Q 2819 -91 2113 -91 
Q 1303 -91 875 529 
Q 447 1150 447 2328 
Q 447 3434 972 4092 
Q 1497 4750 2381 4750 
Q 2619 4750 2861 4703 
Q 3103 4656 3366 4563 
z
" transform="scale(0.015625)"/>
       </defs>
       <use xlink:href="#DejaVuSans-30"/>
       <use xlink:href="#DejaVuSans-2e" transform="translate(63.623047 0)"/>
       <use xlink:href="#DejaVuSans-36" transform="translate(95.410156 0)"/>
      </g>
     </g>
    </g>
    <g id="ytick_5">
     <g id="line2d_27">
      <path d="M 30.103125 132.590206 
L 387.223125 132.590206 
" clip-path="url(#p97adf33882)" style="fill: none; stroke: #b0b0b0; stroke-width: 0.8; stroke-linecap: square"/>
     </g>
     <g id="line2d_28">
      <g>
       <use xlink:href="#me5644cedbc" x="30.103125" y="132.590206" style="stroke: #000000; stroke-width: 0.8"/>
      </g>
     </g>
     <g id="text_14">
      <!-- 0.8 -->
      <g transform="translate(7.2 136.389424) scale(0.1 -0.1)">
       <defs>
        <path id="DejaVuSans-38" d="M 2034 2216 
Q 1584 2216 1326 1975 
Q 1069 1734 1069 1313 
Q 1069 891 1326 650 
Q 1584 409 2034 409 
Q 2484 409 2743 651 
Q 3003 894 3003 1313 
Q 3003 1734 2745 1975 
Q 2488 2216 2034 2216 
z
M 1403 2484 
Q 997 2584 770 2862 
Q 544 3141 544 3541 
Q 544 4100 942 4425 
Q 1341 4750 2034 4750 
Q 2731 4750 3128 4425 
Q 3525 4100 3525 3541 
Q 3525 3141 3298 2862 
Q 3072 2584 2669 2484 
Q 3125 2378 3379 2068 
Q 3634 1759 3634 1313 
Q 3634 634 3220 271 
Q 2806 -91 2034 -91 
Q 1263 -91 848 271 
Q 434 634 434 1313 
Q 434 1759 690 2068 
Q 947 2378 1403 2484 
z
M 1172 3481 
Q 1172 3119 1398 2916 
Q 1625 2713 2034 2713 
Q 2441 2713 2670 2916 
Q 2900 3119 2900 3481 
Q 2900 3844 2670 4047 
Q 2441 4250 2034 4250 
Q 1625 4250 1398 4047 
Q 1172 3844 1172 3481 
z
" transform="scale(0.015625)"/>
       </defs>
       <use xlink:href="#DejaVuSans-30"/>
       <use xlink:href="#DejaVuSans-2e" transform="translate(63.623047 0)"/>
       <use xlink:href="#DejaVuSans-38" transform="translate(95.410156 0)"/>
      </g>
     </g>
    </g>
    <g id="ytick_6">
     <g id="line2d_29">
      <path d="M 30.103125 100.433757 
L 387.223125 100.433757 
" clip-path="url(#p97adf33882)" style="fill: none; stroke: #b0b0b0; stroke-width: 0.8; stroke-linecap: square"/>
     </g>
     <g id="line2d_30">
      <g>
       <use xlink:href="#me5644cedbc" x="30.103125" y="100.433757" style="stroke: #000000; stroke-width: 0.8"/>
      </g>
     </g>
     <g id="text_15">
      <!-- 1.0 -->
      <g transform="translate(7.2 104.232976) scale(0.1 -0.1)">
       <use xlink:href="#DejaVuSans-31"/>
       <use xlink:href="#DejaVuSans-2e" transform="translate(63.623047 0)"/>
       <use xlink:href="#DejaVuSans-30" transform="translate(95.410156 0)"/>
      </g>
     </g>
    </g>
    <g id="ytick_7">
     <g id="line2d_31">
      <path d="M 30.103125 68.277308 
L 387.223125 68.277308 
" clip-path="url(#p97adf33882)" style="fill: none; stroke: #b0b0b0; stroke-width: 0.8; stroke-linecap: square"/>
     </g>
     <g id="line2d_32">
      <g>
       <use xlink:href="#me5644cedbc" x="30.103125" y="68.277308" style="stroke: #000000; stroke-width: 0.8"/>
      </g>
     </g>
     <g id="text_16">
      <!-- 1.2 -->
      <g transform="translate(7.2 72.076527) scale(0.1 -0.1)">
       <use xlink:href="#DejaVuSans-31"/>
       <use xlink:href="#DejaVuSans-2e" transform="translate(63.623047 0)"/>
       <use xlink:href="#DejaVuSans-32" transform="translate(95.410156 0)"/>
      </g>
     </g>
    </g>
    <g id="ytick_8">
     <g id="line2d_33">
      <path d="M 30.103125 36.12086 
L 387.223125 36.12086 
" clip-path="url(#p97adf33882)" style="fill: none; stroke: #b0b0b0; stroke-width: 0.8; stroke-linecap: square"/>
     </g>
     <g id="line2d_34">
      <g>
       <use xlink:href="#me5644cedbc" x="30.103125" y="36.12086" style="stroke: #000000; stroke-width: 0.8"/>
      </g>
     </g>
     <g id="text_17">
      <!-- 1.4 -->
      <g transform="translate(7.2 39.920079) scale(0.1 -0.1)">
       <use xlink:href="#DejaVuSans-31"/>
       <use xlink:href="#DejaVuSans-2e" transform="translate(63.623047 0)"/>
       <use xlink:href="#DejaVuSans-34" transform="translate(95.410156 0)"/>
      </g>
     </g>
    </g>
   </g>
   <g id="line2d_35">
    <path d="M 46.335852 261.215401 
L 65.628848 261.119737 
L 65.628848 261.084435 
L 69.620502 260.975149 
L 69.620502 260.893392 
L 72.281605 260.786776 
L 72.281605 260.648749 
L 73.612156 260.648749 
L 73.612156 260.471355 
L 74.942708 260.471355 
L 74.942708 260.245033 
L 76.273259 260.245033 
L 76.273259 259.958401 
L 77.603811 259.958401 
L 77.603811 259.598062 
L 78.934362 259.598062 
L 78.934362 259.148412 
L 80.264913 259.148412 
L 80.264913 258.591491 
L 81.595465 258.591491 
L 81.595465 257.906867 
L 82.926016 257.906867 
L 82.926016 257.071591 
L 84.256568 257.071591 
L 84.256568 256.060235 
L 85.587119 256.060235 
L 85.587119 254.845028 
L 86.91767 254.845028 
L 86.91767 253.396113 
L 88.248222 253.396113 
L 88.248222 251.681951 
L 89.578773 251.681951 
L 89.578773 249.66987 
L 90.909325 249.66987 
L 90.909325 247.326787 
L 92.239876 247.326787 
L 92.239876 244.620095 
L 93.570428 244.620095 
L 93.570428 241.518713 
L 94.900979 241.518713 
L 94.900979 237.9943 
L 96.23153 237.9943 
L 96.23153 234.022585 
L 97.562082 234.022585 
L 97.562082 229.584802 
L 98.892633 229.584802 
L 98.892633 224.669175 
L 100.223185 224.669175 
L 100.223185 219.272389 
L 101.553736 219.272389 
L 101.553736 213.401005 
L 102.884287 213.401005 
L 102.884287 207.072722 
L 104.214839 207.072722 
L 104.214839 200.317427 
L 105.54539 200.317427 
L 105.54539 193.177954 
L 106.875942 193.177954 
L 106.875942 185.710484 
L 108.206493 185.710484 
L 108.206493 177.98451 
L 109.537045 177.98451 
L 109.537045 170.082343 
L 110.867596 170.082343 
L 110.867596 162.098106 
L 112.198147 162.098106 
L 112.198147 154.13622 
L 113.528699 154.13622 
L 113.528699 146.309389 
L 114.85925 146.309389 
L 114.85925 138.736135 
L 116.189802 138.736135 
L 116.189802 131.537935 
L 117.520353 131.537935 
L 117.520353 124.836065 
L 118.850904 124.836065 
L 118.850904 118.748246 
L 120.181456 118.748246 
L 120.181456 113.385238 
L 121.512007 113.385238 
L 121.512007 108.8475 
L 122.842559 108.8475 
L 122.842559 105.222067 
L 124.17311 105.222067 
L 124.17311 102.579777 
L 125.503662 102.579777 
L 125.503662 100.972969 
L 126.834213 100.972969 
L 126.834213 100.433757 
L 128.164764 100.433757 
L 128.164764 100.972969 
L 129.495316 100.972969 
L 129.495316 102.579777 
L 130.825867 102.579777 
L 130.825867 105.222067 
L 132.156419 105.222067 
L 132.156419 108.8475 
L 133.48697 108.8475 
L 133.48697 113.385238 
L 134.817521 113.385238 
L 134.817521 118.748246 
L 136.148073 118.748246 
L 136.148073 124.836065 
L 137.478624 124.836065 
L 137.478624 131.537935 
L 138.809176 131.537935 
L 138.809176 138.736135 
L 140.139727 138.736135 
L 140.139727 146.309389 
L 141.470279 146.309389 
L 141.470279 154.13622 
L 142.80083 154.13622 
L 142.80083 162.098106 
L 144.131381 162.098106 
L 144.131381 170.082343 
L 145.461933 170.082343 
L 145.461933 177.98451 
L 146.792484 177.98451 
L 146.792484 185.710484 
L 148.123036 185.710484 
L 148.123036 193.177954 
L 149.453587 193.177954 
L 149.453587 200.317427 
L 150.784138 200.317427 
L 150.784138 207.072722 
L 152.11469 207.072722 
L 152.11469 213.401005 
L 153.445241 213.401005 
L 153.445241 219.272389 
L 154.775793 219.272389 
L 154.775793 224.669175 
L 156.106344 224.669175 
L 156.106344 229.584802 
L 157.436895 229.584802 
L 157.436895 234.022585 
L 158.767447 234.022585 
L 158.767447 237.9943 
L 160.097998 237.9943 
L 160.097998 241.518713 
L 161.42855 241.518713 
L 161.42855 244.620095 
L 162.759101 244.620095 
L 162.759101 247.326787 
L 164.089653 247.326787 
L 164.089653 249.66987 
L 165.420204 249.66987 
L 165.420204 251.681951 
L 166.750755 251.681951 
L 166.750755 253.396113 
L 168.081307 253.396113 
L 168.081307 254.845028 
L 169.411858 254.845028 
L 169.411858 256.060235 
L 170.74241 256.060235 
L 170.74241 257.071591 
L 172.072961 257.071591 
L 172.072961 257.906867 
L 173.403512 257.906867 
L 173.403512 258.591491 
L 174.734064 258.591491 
L 174.734064 259.148412 
L 176.064615 259.148412 
L 176.064615 259.598062 
L 177.395167 259.598062 
L 177.395167 259.958401 
L 178.725718 259.958401 
L 178.725718 260.245033 
L 180.05627 260.245033 
L 180.05627 260.471355 
L 181.386821 260.471355 
L 181.386821 260.648749 
L 182.717372 260.648749 
L 182.717372 260.786776 
L 185.378475 260.893392 
L 185.378475 260.975149 
L 189.370129 261.084435 
L 189.370129 261.119737 
L 370.990398 261.216 
L 370.990398 261.216 
" clip-path="url(#p97adf33882)" style="fill: none; stroke: #1f77b4; stroke-width: 1.5; stroke-linecap: square"/>
   </g>
   <g id="line2d_36">
    <path d="M 46.335852 261.216 
L 172.072961 261.134388 
L 172.072961 261.104069 
L 176.064615 261.009655 
L 176.064615 260.938644 
L 178.725718 260.845691 
L 178.725718 260.724897 
L 180.05627 260.724897 
L 180.05627 260.569061 
L 181.386821 260.569061 
L 181.386821 260.369483 
L 182.717372 260.369483 
L 182.717372 260.115752 
L 184.047924 260.115752 
L 184.047924 259.795544 
L 185.378475 259.795544 
L 185.378475 259.394425 
L 186.709027 259.394425 
L 186.709027 258.895677 
L 188.039578 258.895677 
L 188.039578 258.280163 
L 189.370129 258.280163 
L 189.370129 257.526245 
L 190.700681 257.526245 
L 190.700681 256.609773 
L 192.031232 256.609773 
L 192.031232 255.50417 
L 193.361784 255.50417 
L 193.361784 254.180623 
L 194.692335 254.180623 
L 194.692335 252.608411 
L 196.022887 252.608411 
L 196.022887 250.755369 
L 197.353438 250.755369 
L 197.353438 248.58853 
L 198.683989 248.58853 
L 198.683989 246.074916 
L 200.014541 246.074916 
L 200.014541 243.182513 
L 201.345092 243.182513 
L 201.345092 239.881395 
L 202.675644 239.881395 
L 202.675644 236.145001 
L 204.006195 236.145001 
L 204.006195 231.95152 
L 205.336746 231.95152 
L 205.336746 227.285355 
L 206.667298 227.285355 
L 206.667298 222.138609 
L 207.997849 222.138609 
L 207.997849 216.512539 
L 209.328401 216.512539 
L 209.328401 210.418906 
L 210.658952 210.418906 
L 210.658952 203.881143 
L 211.989504 203.881143 
L 211.989504 196.93528 
L 213.320055 196.93528 
L 213.320055 189.630532 
L 214.650606 189.630532 
L 214.650606 182.0295 
L 215.981158 182.0295 
L 215.981158 174.207925 
L 217.311709 174.207925 
L 217.311709 166.253942 
L 218.642261 166.253942 
L 218.642261 158.266839 
L 219.972812 158.266839 
L 219.972812 150.355293 
L 221.303363 150.355293 
L 221.303363 142.635135 
L 222.633915 142.635135 
L 222.633915 135.226683 
L 223.964466 135.226683 
L 223.964466 128.251725 
L 225.295018 128.251725 
L 225.295018 121.830256 
L 226.625569 121.830256 
L 226.625569 116.077082 
L 227.956121 116.077082 
L 227.956121 111.098423 
L 229.286672 111.098423 
L 229.286672 106.988667 
L 230.617223 106.988667 
L 230.617223 103.827394 
L 231.947775 103.827394 
L 231.947775 101.676815 
L 233.278326 101.676815 
L 233.278326 100.579739 
L 235.939429 100.558152 
L 235.939429 101.612489 
L 237.26998 101.612489 
L 237.26998 103.721615 
L 238.600532 103.721615 
L 238.600532 106.843531 
L 239.931083 106.843531 
L 239.931083 110.916768 
L 241.261635 110.916768 
L 241.261635 115.862394 
L 242.592186 115.862394 
L 242.592186 121.586559 
L 243.922738 121.586559 
L 243.922738 127.983454 
L 245.253289 127.983454 
L 245.253289 134.938552 
L 246.58384 134.938552 
L 246.58384 142.332002 
L 247.914392 142.332002 
L 247.914392 150.042022 
L 249.244943 150.042022 
L 249.244943 157.948176 
L 250.575495 157.948176 
L 250.575495 165.934399 
L 251.906046 165.934399 
L 251.906046 173.891681 
L 253.236597 173.891681 
L 253.236597 181.720324 
L 254.567149 181.720324 
L 254.567149 189.331717 
L 255.8977 189.331717 
L 255.8977 196.649608 
L 257.228252 196.649608 
L 257.228252 203.61086 
L 258.558803 203.61086 
L 258.558803 210.165725 
L 259.889355 210.165725 
L 259.889355 216.277655 
L 261.219906 216.277655 
L 261.219906 221.922727 
L 262.550457 221.922727 
L 262.550457 227.088736 
L 263.881009 227.088736 
L 263.881009 231.774029 
L 265.21156 231.774029 
L 265.21156 235.986164 
L 266.542112 235.986164 
L 266.542112 239.740459 
L 267.872663 239.740459 
L 267.872663 243.058505 
L 269.203214 243.058505 
L 269.203214 245.9667 
L 270.533766 245.9667 
L 270.533766 248.494861 
L 271.864317 248.494861 
L 271.864317 250.674941 
L 273.194869 250.674941 
L 273.194869 252.539899 
L 274.52542 252.539899 
L 274.52542 254.122719 
L 275.855971 254.122719 
L 275.855971 255.455611 
L 277.186523 255.455611 
L 277.186523 256.569365 
L 278.517074 256.569365 
L 278.517074 257.492876 
L 279.847626 257.492876 
L 279.847626 258.252816 
L 281.178177 258.252816 
L 281.178177 258.873434 
L 282.508729 258.873434 
L 282.508729 259.376469 
L 283.83928 259.376469 
L 283.83928 259.781156 
L 285.169831 259.781156 
L 285.169831 260.104309 
L 286.500383 260.104309 
L 286.500383 260.360449 
L 287.830934 260.360449 
L 287.830934 260.561982 
L 289.161486 260.561982 
L 289.161486 260.719389 
L 290.492037 260.719389 
L 290.492037 260.841438 
L 293.15314 260.935383 
L 293.15314 261.007173 
L 297.144794 261.102661 
L 297.144794 261.13334 
L 370.990398 261.216 
L 370.990398 261.216 
" clip-path="url(#p97adf33882)" style="fill: none; stroke: #ff7f0e; stroke-width: 1.5; stroke-linecap: square"/>
   </g>
   <g id="line2d_37">
    <path d="M 46.335852 261.215401 
L 160.097998 261.127305 
L 160.097998 261.101066 
L 164.089653 261.02568 
L 164.089653 260.972815 
L 166.750755 260.906734 
L 166.750755 260.824559 
L 169.411858 260.7229 
L 169.411858 260.597785 
L 170.74241 260.597785 
L 170.74241 260.444601 
L 172.072961 260.444601 
L 172.072961 260.258023 
L 173.403512 260.258023 
L 173.403512 260.031953 
L 174.734064 260.031953 
L 174.734064 259.759459 
L 176.064615 259.759459 
L 176.064615 259.432724 
L 177.395167 259.432724 
L 177.395167 259.043006 
L 178.725718 259.043006 
L 178.725718 258.580609 
L 180.05627 258.580609 
L 180.05627 258.034877 
L 181.386821 258.034877 
L 181.386821 257.394207 
L 182.717372 257.394207 
L 182.717372 256.646091 
L 184.047924 256.646091 
L 184.047924 255.777186 
L 185.378475 255.777186 
L 185.378475 254.773423 
L 186.709027 254.773423 
L 186.709027 253.620154 
L 188.039578 253.620154 
L 188.039578 252.302334 
L 189.370129 252.302334 
L 189.370129 250.804754 
L 190.700681 250.804754 
L 190.700681 249.112312 
L 192.031232 249.112312 
L 192.031232 247.210333 
L 193.361784 247.210333 
L 193.361784 245.084918 
L 194.692335 245.084918 
L 194.692335 242.723345 
L 196.022887 242.723345 
L 196.022887 240.114486 
L 197.353438 240.114486 
L 197.353438 237.249258 
L 198.683989 237.249258 
L 198.683989 234.121078 
L 200.014541 234.121078 
L 200.014541 230.726323 
L 201.345092 230.726323 
L 201.345092 227.06478 
L 202.675644 227.06478 
L 202.675644 223.140064 
L 204.006195 223.140064 
L 204.006195 218.959999 
L 205.336746 218.959999 
L 205.336746 214.536938 
L 206.667298 214.536938 
L 206.667298 209.888013 
L 207.997849 209.888013 
L 207.997849 205.035292 
L 209.328401 205.035292 
L 209.328401 200.005839 
L 210.658952 200.005839 
L 210.658952 194.831659 
L 211.989504 194.831659 
L 211.989504 189.549525 
L 213.320055 189.549525 
L 213.320055 184.20067 
L 214.650606 184.20067 
L 214.650606 178.830358 
L 215.981158 178.830358 
L 215.981158 173.487329 
L 217.311709 173.487329 
L 217.311709 168.223117 
L 218.642261 168.223117 
L 218.642261 163.09127 
L 219.972812 163.09127 
L 219.972812 158.14647 
L 221.303363 158.14647 
L 221.303363 153.44358 
L 222.633915 153.44358 
L 222.633915 149.036642 
L 223.964466 149.036642 
L 223.964466 144.977847 
L 225.295018 144.977847 
L 225.295018 141.31651 
L 226.625569 141.31651 
L 226.625569 138.098069 
L 227.956121 138.098069 
L 227.956121 135.363146 
L 229.286672 135.363146 
L 229.286672 133.14669 
L 230.617223 133.14669 
L 230.617223 131.477237 
L 231.947775 131.477237 
L 231.947775 130.376292 
L 233.278326 130.376292 
L 233.278326 129.857871 
L 235.939429 129.928205 
L 235.939429 130.585614 
L 237.26998 130.585614 
L 237.26998 131.820564 
L 238.600532 131.820564 
L 238.600532 133.615894 
L 239.931083 133.615894 
L 239.931083 135.947212 
L 241.261635 135.947212 
L 241.261635 138.783447 
L 242.592186 138.783447 
L 242.592186 142.087531 
L 243.922738 142.087531 
L 243.922738 145.817206 
L 245.253289 145.817206 
L 245.253289 149.92592 
L 246.58384 149.92592 
L 246.58384 154.363783 
L 247.914392 154.363783 
L 247.914392 159.078566 
L 249.244943 159.078566 
L 249.244943 164.01671 
L 250.575495 164.01671 
L 250.575495 169.124319 
L 251.906046 169.124319 
L 251.906046 174.348109 
L 253.236597 174.348109 
L 253.236597 179.636292 
L 254.567149 179.636292 
L 254.567149 184.939386 
L 255.8977 184.939386 
L 255.8977 190.210912 
L 257.228252 190.210912 
L 257.228252 195.407991 
L 258.558803 195.407991 
L 258.558803 200.491823 
L 259.889355 200.491823 
L 259.889355 205.428032 
L 261.219906 205.428032 
L 261.219906 210.186905 
L 262.550457 210.186905 
L 262.550457 214.743505 
L 263.881009 214.743505 
L 263.881009 219.07767 
L 265.21156 219.07767 
L 265.21156 223.17392 
L 266.542112 223.17392 
L 266.542112 227.021271 
L 267.872663 227.021271 
L 267.872663 230.612969 
L 269.203214 230.612969 
L 269.203214 233.946167 
L 270.533766 233.946167 
L 270.533766 237.021556 
L 271.864317 237.021556 
L 271.864317 239.842958 
L 273.194869 239.842958 
L 273.194869 242.416907 
L 274.52542 242.416907 
L 274.52542 244.752213 
L 275.855971 244.752213 
L 275.855971 246.859545 
L 277.186523 246.859545 
L 277.186523 248.751017 
L 278.517074 248.751017 
L 278.517074 250.439803 
L 279.847626 250.439803 
L 279.847626 251.939779 
L 281.178177 251.939779 
L 281.178177 253.265201 
L 282.508729 253.265201 
L 282.508729 254.430422 
L 283.83928 254.430422 
L 283.83928 255.449639 
L 285.169831 255.449639 
L 285.169831 256.336696 
L 286.500383 256.336696 
L 286.500383 257.104906 
L 287.830934 257.104906 
L 287.830934 257.766923 
L 289.161486 257.766923 
L 289.161486 258.334647 
L 290.492037 258.334647 
L 290.492037 258.819151 
L 291.822588 258.819151 
L 291.822588 259.230648 
L 293.15314 259.230648 
L 293.15314 259.578468 
L 294.483691 259.578468 
L 294.483691 259.87107 
L 295.814243 259.87107 
L 295.814243 260.11606 
L 297.144794 260.11606 
L 297.144794 260.320221 
L 298.475346 260.320221 
L 298.475346 260.489564 
L 299.805897 260.489564 
L 299.805897 260.629375 
L 301.136448 260.629375 
L 301.136448 260.744271 
L 303.797551 260.838257 
L 303.797551 260.914787 
L 306.458654 260.976818 
L 306.458654 261.02687 
L 311.78086 261.12481 
L 311.78086 261.145088 
L 370.990398 261.216 
L 370.990398 261.216 
" clip-path="url(#p97adf33882)" style="fill: none; stroke: #2ca02c; stroke-width: 1.5; stroke-linecap: square"/>
   </g>
   <g id="line2d_38">
    <path d="M 46.335852 261.215401 
L 166.750755 261.11757 
L 166.750755 261.097305 
L 170.74241 261.149288 
L 170.74241 260.831473 
L 173.403512 260.921439 
L 173.403512 261.140017 
L 174.734064 261.140017 
L 174.734064 260.856826 
L 176.064615 260.856826 
L 176.064615 260.064438 
L 177.395167 260.064438 
L 177.395167 260.61128 
L 178.725718 260.61128 
L 178.725718 261.001649 
L 180.05627 261.001649 
L 180.05627 259.558213 
L 181.386821 259.558213 
L 181.386821 258.510039 
L 182.717372 258.510039 
L 182.717372 260.246087 
L 185.378475 260.34601 
L 185.378475 255.661107 
L 186.709027 255.661107 
L 186.709027 255.913817 
L 188.039578 255.913817 
L 188.039578 259.749518 
L 189.370129 259.749518 
L 189.370129 257.681352 
L 190.700681 257.681352 
L 190.700681 247.374714 
L 192.031232 247.374714 
L 192.031232 252.299569 
L 193.361784 252.299569 
L 193.361784 258.752698 
L 194.692335 258.752698 
L 194.692335 248.605648 
L 196.022887 248.605648 
L 196.022887 234.041216 
L 197.353438 234.041216 
L 197.353438 248.612965 
L 198.683989 248.612965 
L 198.683989 255.711633 
L 200.014541 255.711633 
L 200.014541 226.337887 
L 201.345092 226.337887 
L 201.345092 217.963859 
L 202.675644 217.963859 
L 202.675644 246.695451 
L 204.006195 246.695451 
L 204.006195 244.960871 
L 205.336746 244.960871 
L 205.336746 189.10827 
L 206.667298 189.10827 
L 206.667298 203.787501 
L 207.997849 203.787501 
L 207.997849 245.073712 
L 209.328401 245.073712 
L 209.328401 220.728771 
L 210.658952 220.728771 
L 210.658952 150.246946 
L 211.989504 150.246946 
L 211.989504 194.688249 
L 213.320055 194.688249 
L 213.320055 241.738151 
L 214.650606 241.738151 
L 214.650606 185.694652 
L 215.981158 185.694652 
L 215.981158 135.968319 
L 217.311709 135.968319 
L 217.311709 203.441353 
L 218.642261 203.441353 
L 218.642261 234.378453 
L 219.972812 234.378453 
L 219.972812 153.753517 
L 221.303363 153.753517 
L 221.303363 154.615004 
L 222.633915 154.615004 
L 222.633915 219.145831 
L 223.964466 219.145831 
L 223.964466 237.944175 
L 225.295018 237.944175 
L 225.295018 124.325615 
L 226.625569 124.325615 
L 226.625569 78.359333 
L 227.956121 78.359333 
L 227.956121 121.873478 
L 229.286672 121.873478 
L 229.286672 63.836361 
L 230.617223 63.836361 
L 230.617223 19.296 
L 231.947775 19.296 
L 231.947775 31.094795 
L 233.278326 31.094795 
L 233.278326 40.642439 
L 234.608878 40.642439 
L 234.608878 42.751587 
L 235.939429 42.751587 
L 235.939429 47.70542 
L 237.26998 47.70542 
L 237.26998 56.113053 
L 238.600532 56.113053 
L 238.600532 66.438111 
L 239.931083 66.438111 
L 239.931083 78.095437 
L 241.261635 78.095437 
L 241.261635 90.792702 
L 242.592186 90.792702 
L 242.592186 104.194024 
L 243.922738 104.194024 
L 243.922738 117.951098 
L 245.253289 117.951098 
L 245.253289 131.744943 
L 246.58384 131.744943 
L 246.58384 145.297376 
L 247.914392 145.297376 
L 247.914392 158.374564 
L 249.244943 158.374564 
L 249.244943 170.78885 
L 250.575495 170.78885 
L 250.575495 182.39863 
L 251.906046 182.39863 
L 251.906046 193.106203 
L 253.236597 193.106203 
L 253.236597 202.854036 
L 254.567149 202.854036 
L 254.567149 211.619926 
L 255.8977 211.619926 
L 255.8977 219.411518 
L 257.228252 219.411518 
L 257.228252 226.260585 
L 258.558803 226.260585 
L 258.558803 232.217384 
L 259.889355 232.217384 
L 259.889355 237.345378 
L 261.219906 237.345378 
L 261.219906 241.716483 
L 262.550457 241.716483 
L 262.550457 245.406961 
L 263.881009 245.406961 
L 263.881009 248.494034 
L 265.21156 248.494034 
L 265.21156 251.053188 
L 266.542112 251.053188 
L 266.542112 253.156161 
L 267.872663 253.156161 
L 267.872663 254.869534 
L 269.203214 254.869534 
L 269.203214 256.253858 
L 270.533766 256.253858 
L 270.533766 257.36321 
L 271.864317 257.36321 
L 271.864317 258.245113 
L 273.194869 258.245113 
L 273.194869 258.940714 
L 274.52542 258.940714 
L 274.52542 259.485155 
L 275.855971 259.485155 
L 275.855971 259.908069 
L 277.186523 259.908069 
L 277.186523 260.234147 
L 278.517074 260.234147 
L 278.517074 260.483726 
L 279.847626 260.483726 
L 279.847626 260.673381 
L 281.178177 260.673381 
L 281.178177 260.81648 
L 283.83928 260.923698 
L 283.83928 261.00348 
L 287.830934 261.105728 
L 287.830934 261.137294 
L 370.990398 261.216 
L 370.990398 261.216 
" clip-path="url(#p97adf33882)" style="fill: none; stroke: #d62728; stroke-width: 1.5; stroke-linecap: square"/>
   </g>
   <g id="patch_3">
    <path d="M 30.103125 273.312 
L 30.103125 7.2 
" style="fill: none; stroke: #000000; stroke-width: 0.8; stroke-linejoin: miter; stroke-linecap: square"/>
   </g>
   <g id="patch_4">
    <path d="M 387.223125 273.312 
L 387.223125 7.2 
" style="fill: none; stroke: #000000; stroke-width: 0.8; stroke-linejoin: miter; stroke-linecap: square"/>
   </g>
   <g id="patch_5">
    <path d="M 30.103125 273.312 
L 387.223125 273.312 
" style="fill: none; stroke: #000000; stroke-width: 0.8; stroke-linejoin: miter; stroke-linecap: square"/>
   </g>
   <g id="patch_6">
    <path d="M 30.103125 7.2 
L 387.223125 7.2 
" style="fill: none; stroke: #000000; stroke-width: 0.8; stroke-linejoin: miter; stroke-linecap: square"/>
   </g>
   <g id="legend_1">
    <g id="patch_7">
     <path d="M 306.855937 73.9125 
L 380.223125 73.9125 
Q 382.223125 73.9125 382.223125 71.9125 
L 382.223125 14.2 
Q 382.223125 12.2 380.223125 12.2 
L 306.855937 12.2 
Q 304.855937 12.2 304.855937 14.2 
L 304.855937 71.9125 
Q 304.855937 73.9125 306.855937 73.9125 
z
" style="fill: #ffffff; opacity: 0.8; stroke: #cccccc; stroke-linejoin: miter"/>
    </g>
    <g id="line2d_39">
     <path d="M 308.855937 20.298437 
L 313.855937 20.298437 
L 313.855937 20.298437 
L 323.855937 20.298437 
L 323.855937 20.298437 
L 328.855937 20.298437 
" style="fill: none; stroke: #1f77b4; stroke-width: 1.5; stroke-linecap: square"/>
    </g>
    <g id="text_18">
     <!-- initial -->
     <g transform="translate(336.855937 23.798437) scale(0.1 -0.1)">
      <defs>
       <path id="DejaVuSans-69" d="M 603 3500 
L 1178 3500 
L 1178 0 
L 603 0 
L 603 3500 
z
M 603 4863 
L 1178 4863 
L 1178 4134 
L 603 4134 
L 603 4863 
z
" transform="scale(0.015625)"/>
       <path id="DejaVuSans-6e" d="M 3513 2113 
L 3513 0 
L 2938 0 
L 2938 2094 
Q 2938 2591 2744 2837 
Q 2550 3084 2163 3084 
Q 1697 3084 1428 2787 
Q 1159 2491 1159 1978 
L 1159 0 
L 581 0 
L 581 3500 
L 1159 3500 
L 1159 2956 
Q 1366 3272 1645 3428 
Q 1925 3584 2291 3584 
Q 2894 3584 3203 3211 
Q 3513 2838 3513 2113 
z
" transform="scale(0.015625)"/>
       <path id="DejaVuSans-74" d="M 1172 4494 
L 1172 3500 
L 2356 3500 
L 2356 3053 
L 1172 3053 
L 1172 1153 
Q 1172 725 1289 603 
Q 1406 481 1766 481 
L 2356 481 
L 2356 0 
L 1766 0 
Q 1100 0 847 248 
Q 594 497 594 1153 
L 594 3053 
L 172 3053 
L 172 3500 
L 594 3500 
L 594 4494 
L 1172 4494 
z
" transform="scale(0.015625)"/>
       <path id="DejaVuSans-61" d="M 2194 1759 
Q 1497 1759 1228 1600 
Q 959 1441 959 1056 
Q 959 750 1161 570 
Q 1363 391 1709 391 
Q 2188 391 2477 730 
Q 2766 1069 2766 1631 
L 2766 1759 
L 2194 1759 
z
M 3341 1997 
L 3341 0 
L 2766 0 
L 2766 531 
Q 2569 213 2275 61 
Q 1981 -91 1556 -91 
Q 1019 -91 701 211 
Q 384 513 384 1019 
Q 384 1609 779 1909 
Q 1175 2209 1959 2209 
L 2766 2209 
L 2766 2266 
Q 2766 2663 2505 2880 
Q 2244 3097 1772 3097 
Q 1472 3097 1187 3025 
Q 903 2953 641 2809 
L 641 3341 
Q 956 3463 1253 3523 
Q 1550 3584 1831 3584 
Q 2591 3584 2966 3190 
Q 3341 2797 3341 1997 
z
" transform="scale(0.015625)"/>
       <path id="DejaVuSans-6c" d="M 603 4863 
L 1178 4863 
L 1178 0 
L 603 0 
L 603 4863 
z
" transform="scale(0.015625)"/>
      </defs>
      <use xlink:href="#DejaVuSans-69"/>
      <use xlink:href="#DejaVuSans-6e" transform="translate(27.783203 0)"/>
      <use xlink:href="#DejaVuSans-69" transform="translate(91.162109 0)"/>
      <use xlink:href="#DejaVuSans-74" transform="translate(118.945312 0)"/>
      <use xlink:href="#DejaVuSans-69" transform="translate(158.154297 0)"/>
      <use xlink:href="#DejaVuSans-61" transform="translate(185.9375 0)"/>
      <use xlink:href="#DejaVuSans-6c" transform="translate(247.216797 0)"/>
     </g>
    </g>
    <g id="line2d_40">
     <path d="M 308.855937 34.976562 
L 313.855937 34.976562 
L 313.855937 34.976562 
L 323.855937 34.976562 
L 323.855937 34.976562 
L 328.855937 34.976562 
" style="fill: none; stroke: #ff7f0e; stroke-width: 1.5; stroke-linecap: square"/>
    </g>
    <g id="text_19">
     <!-- analytic -->
     <g transform="translate(336.855937 38.476562) scale(0.1 -0.1)">
      <defs>
       <path id="DejaVuSans-79" d="M 2059 -325 
Q 1816 -950 1584 -1140 
Q 1353 -1331 966 -1331 
L 506 -1331 
L 506 -850 
L 844 -850 
Q 1081 -850 1212 -737 
Q 1344 -625 1503 -206 
L 1606 56 
L 191 3500 
L 800 3500 
L 1894 763 
L 2988 3500 
L 3597 3500 
L 2059 -325 
z
" transform="scale(0.015625)"/>
       <path id="DejaVuSans-63" d="M 3122 3366 
L 3122 2828 
Q 2878 2963 2633 3030 
Q 2388 3097 2138 3097 
Q 1578 3097 1268 2742 
Q 959 2388 959 1747 
Q 959 1106 1268 751 
Q 1578 397 2138 397 
Q 2388 397 2633 464 
Q 2878 531 3122 666 
L 3122 134 
Q 2881 22 2623 -34 
Q 2366 -91 2075 -91 
Q 1284 -91 818 406 
Q 353 903 353 1747 
Q 353 2603 823 3093 
Q 1294 3584 2113 3584 
Q 2378 3584 2631 3529 
Q 2884 3475 3122 3366 
z
" transform="scale(0.015625)"/>
      </defs>
      <use xlink:href="#DejaVuSans-61"/>
      <use xlink:href="#DejaVuSans-6e" transform="translate(61.279297 0)"/>
      <use xlink:href="#DejaVuSans-61" transform="translate(124.658203 0)"/>
      <use xlink:href="#DejaVuSans-6c" transform="translate(185.9375 0)"/>
      <use xlink:href="#DejaVuSans-79" transform="translate(213.720703 0)"/>
      <use xlink:href="#DejaVuSans-74" transform="translate(272.900391 0)"/>
      <use xlink:href="#DejaVuSans-69" transform="translate(312.109375 0)"/>
      <use xlink:href="#DejaVuSans-63" transform="translate(339.892578 0)"/>
     </g>
    </g>
    <g id="line2d_41">
     <path d="M 308.855937 49.654687 
L 313.855937 49.654687 
L 313.855937 49.654687 
L 323.855937 49.654687 
L 323.855937 49.654687 
L 328.855937 49.654687 
" style="fill: none; stroke: #2ca02c; stroke-width: 1.5; stroke-linecap: square"/>
    </g>
    <g id="text_20">
     <!-- UPWIND -->
     <g transform="translate(336.855937 53.154687) scale(0.1 -0.1)">
      <defs>
       <path id="DejaVuSans-55" d="M 556 4666 
L 1191 4666 
L 1191 1831 
Q 1191 1081 1462 751 
Q 1734 422 2344 422 
Q 2950 422 3222 751 
Q 3494 1081 3494 1831 
L 3494 4666 
L 4128 4666 
L 4128 1753 
Q 4128 841 3676 375 
Q 3225 -91 2344 -91 
Q 1459 -91 1007 375 
Q 556 841 556 1753 
L 556 4666 
z
" transform="scale(0.015625)"/>
       <path id="DejaVuSans-50" d="M 1259 4147 
L 1259 2394 
L 2053 2394 
Q 2494 2394 2734 2622 
Q 2975 2850 2975 3272 
Q 2975 3691 2734 3919 
Q 2494 4147 2053 4147 
L 1259 4147 
z
M 628 4666 
L 2053 4666 
Q 2838 4666 3239 4311 
Q 3641 3956 3641 3272 
Q 3641 2581 3239 2228 
Q 2838 1875 2053 1875 
L 1259 1875 
L 1259 0 
L 628 0 
L 628 4666 
z
" transform="scale(0.015625)"/>
       <path id="DejaVuSans-57" d="M 213 4666 
L 850 4666 
L 1831 722 
L 2809 4666 
L 3519 4666 
L 4500 722 
L 5478 4666 
L 6119 4666 
L 4947 0 
L 4153 0 
L 3169 4050 
L 2175 0 
L 1381 0 
L 213 4666 
z
" transform="scale(0.015625)"/>
       <path id="DejaVuSans-49" d="M 628 4666 
L 1259 4666 
L 1259 0 
L 628 0 
L 628 4666 
z
" transform="scale(0.015625)"/>
       <path id="DejaVuSans-4e" d="M 628 4666 
L 1478 4666 
L 3547 763 
L 3547 4666 
L 4159 4666 
L 4159 0 
L 3309 0 
L 1241 3903 
L 1241 0 
L 628 0 
L 628 4666 
z
" transform="scale(0.015625)"/>
       <path id="DejaVuSans-44" d="M 1259 4147 
L 1259 519 
L 2022 519 
Q 2988 519 3436 956 
Q 3884 1394 3884 2338 
Q 3884 3275 3436 3711 
Q 2988 4147 2022 4147 
L 1259 4147 
z
M 628 4666 
L 1925 4666 
Q 3281 4666 3915 4102 
Q 4550 3538 4550 2338 
Q 4550 1131 3912 565 
Q 3275 0 1925 0 
L 628 0 
L 628 4666 
z
" transform="scale(0.015625)"/>
      </defs>
      <use xlink:href="#DejaVuSans-55"/>
      <use xlink:href="#DejaVuSans-50" transform="translate(73.193359 0)"/>
      <use xlink:href="#DejaVuSans-57" transform="translate(133.496094 0)"/>
      <use xlink:href="#DejaVuSans-49" transform="translate(232.373047 0)"/>
      <use xlink:href="#DejaVuSans-4e" transform="translate(261.865234 0)"/>
      <use xlink:href="#DejaVuSans-44" transform="translate(336.669922 0)"/>
     </g>
    </g>
    <g id="line2d_42">
     <path d="M 308.855937 64.332812 
L 313.855937 64.332812 
L 313.855937 64.332812 
L 323.855937 64.332812 
L 323.855937 64.332812 
L 328.855937 64.332812 
" style="fill: none; stroke: #d62728; stroke-width: 1.5; stroke-linecap: square"/>
    </g>
    <g id="text_21">
     <!-- MPDATA -->
     <g transform="translate(336.855937 67.832812) scale(0.1 -0.1)">
      <defs>
       <path id="DejaVuSans-4d" d="M 628 4666 
L 1569 4666 
L 2759 1491 
L 3956 4666 
L 4897 4666 
L 4897 0 
L 4281 0 
L 4281 4097 
L 3078 897 
L 2444 897 
L 1241 4097 
L 1241 0 
L 628 0 
L 628 4666 
z
" transform="scale(0.015625)"/>
       <path id="DejaVuSans-41" d="M 2188 4044 
L 1331 1722 
L 3047 1722 
L 2188 4044 
z
M 1831 4666 
L 2547 4666 
L 4325 0 
L 3669 0 
L 3244 1197 
L 1141 1197 
L 716 0 
L 50 0 
L 1831 4666 
z
" transform="scale(0.015625)"/>
       <path id="DejaVuSans-54" d="M -19 4666 
L 3928 4666 
L 3928 4134 
L 2272 4134 
L 2272 0 
L 1638 0 
L 1638 4134 
L -19 4134 
L -19 4666 
z
" transform="scale(0.015625)"/>
      </defs>
      <use xlink:href="#DejaVuSans-4d"/>
      <use xlink:href="#DejaVuSans-50" transform="translate(86.279297 0)"/>
      <use xlink:href="#DejaVuSans-44" transform="translate(146.582031 0)"/>
      <use xlink:href="#DejaVuSans-41" transform="translate(221.833984 0)"/>
      <use xlink:href="#DejaVuSans-54" transform="translate(282.492188 0)"/>
      <use xlink:href="#DejaVuSans-41" transform="translate(335.826172 0)"/>
     </g>
    </g>
   </g>
  </g>
 </g>
 <defs>
  <clipPath id="p97adf33882">
   <rect x="30.103125" y="7.2" width="357.12" height="266.112"/>
  </clipPath>
 </defs>
</svg>
