<?xml version="1.0" encoding="utf-8" standalone="no"?>
<!DOCTYPE svg PUBLIC "-//W3C//DTD SVG 1.1//EN"
  "http://www.w3.org/Graphics/SVG/1.1/DTD/svg11.dtd">
<svg xmlns:xlink="http://www.w3.org/1999/xlink" width="394.423125pt" height="297.190125pt" viewBox="0 0 394.423125 297.190125" xmlns="http://www.w3.org/2000/svg" version="1.1">
 <metadata>
  <rdf:RDF xmlns:dc="http://purl.org/dc/elements/1.1/" xmlns:cc="http://creativecommons.org/ns#" xmlns:rdf="http://www.w3.org/1999/02/22-rdf-syntax-ns#">
   <cc:Work>
    <dc:type rdf:resource="http://purl.org/dc/dcmitype/StillImage"/>
    <dc:date>2025-04-01T17:54:37.060764</dc:date>
    <dc:format>image/svg+xml</dc:format>
    <dc:creator>
     <cc:Agent>
      <dc:title>Matplotlib v3.10.1, https://matplotlib.org/</dc:title>
     </cc:Agent>
    </dc:creator>
   </cc:Work>
  </rdf:RDF>
 </metadata>
 <defs>
  <style type="text/css">*{stroke-linejoin: round; stroke-linecap: butt}</style>
 </defs>
 <g id="figure_1">
  <g id="patch_1">
   <path d="M 0 297.190125 
L 394.423125 297.190125 
L 394.423125 0 
L 0 0 
z
" style="fill: #ffffff"/>
  </g>
  <g id="axes_1">
   <g id="patch_2">
    <path d="M 30.103125 273.312 
L 387.223125 273.312 
L 387.223125 7.2 
L 30.103125 7.2 
z
" style="fill: #ffffff"/>
   </g>
   <g id="matplotlib.axis_1">
    <g id="xtick_1">
     <g id="line2d_1">
      <path d="M 46.335852 273.312 
L 46.335852 7.2 
" clip-path="url(#p0e1fe46167)" style="fill: none; stroke: #b0b0b0; stroke-width: 0.8; stroke-linecap: square"/>
     </g>
     <g id="line2d_2">
      <defs>
       <path id="m1b39731357" d="M 0 0 
L 0 3.5 
" style="stroke: #000000; stroke-width: 0.8"/>
      </defs>
      <g>
       <use xlink:href="#m1b39731357" x="46.335852" y="273.312" style="stroke: #000000; stroke-width: 0.8"/>
      </g>
     </g>
     <g id="text_1">
      <!-- −100 -->
      <g transform="translate(32.602259 287.910437) scale(0.1 -0.1)">
       <defs>
        <path id="DejaVuSans-2212" d="M 678 2272 
L 4684 2272 
L 4684 1741 
L 678 1741 
L 678 2272 
z
" transform="scale(0.015625)"/>
        <path id="DejaVuSans-31" d="M 794 531 
L 1825 531 
L 1825 4091 
L 703 3866 
L 703 4441 
L 1819 4666 
L 2450 4666 
L 2450 531 
L 3481 531 
L 3481 0 
L 794 0 
L 794 531 
z
" transform="scale(0.015625)"/>
        <path id="DejaVuSans-30" d="M 2034 4250 
Q 1547 4250 1301 3770 
Q 1056 3291 1056 2328 
Q 1056 1369 1301 889 
Q 1547 409 2034 409 
Q 2525 409 2770 889 
Q 3016 1369 3016 2328 
Q 3016 3291 2770 3770 
Q 2525 4250 2034 4250 
z
M 2034 4750 
Q 2819 4750 3233 4129 
Q 3647 3509 3647 2328 
Q 3647 1150 3233 529 
Q 2819 -91 2034 -91 
Q 1250 -91 836 529 
Q 422 1150 422 2328 
Q 422 3509 836 4129 
Q 1250 4750 2034 4750 
z
" transform="scale(0.015625)"/>
       </defs>
       <use xlink:href="#DejaVuSans-2212"/>
       <use xlink:href="#DejaVuSans-31" transform="translate(83.789062 0)"/>
       <use xlink:href="#DejaVuSans-30" transform="translate(147.412109 0)"/>
       <use xlink:href="#DejaVuSans-30" transform="translate(211.035156 0)"/>
      </g>
     </g>
    </g>
    <g id="xtick_2">
     <g id="line2d_3">
      <path d="M 86.91767 273.312 
L 86.91767 7.2 
" clip-path="url(#p0e1fe46167)" style="fill: none; stroke: #b0b0b0; stroke-width: 0.8; stroke-linecap: square"/>
     </g>
     <g id="line2d_4">
      <g>
       <use xlink:href="#m1b39731357" x="86.91767" y="273.312" style="stroke: #000000; stroke-width: 0.8"/>
      </g>
     </g>
     <g id="text_2">
      <!-- −50 -->
      <g transform="translate(76.365327 287.910437) scale(0.1 -0.1)">
       <defs>
        <path id="DejaVuSans-35" d="M 691 4666 
L 3169 4666 
L 3169 4134 
L 1269 4134 
L 1269 2991 
Q 1406 3038 1543 3061 
Q 1681 3084 1819 3084 
Q 2600 3084 3056 2656 
Q 3513 2228 3513 1497 
Q 3513 744 3044 326 
Q 2575 -91 1722 -91 
Q 1428 -91 1123 -41 
Q 819 9 494 109 
L 494 744 
Q 775 591 1075 516 
Q 1375 441 1709 441 
Q 2250 441 2565 725 
Q 2881 1009 2881 1497 
Q 2881 1984 2565 2268 
Q 2250 2553 1709 2553 
Q 1456 2553 1204 2497 
Q 953 2441 691 2322 
L 691 4666 
z
" transform="scale(0.015625)"/>
       </defs>
       <use xlink:href="#DejaVuSans-2212"/>
       <use xlink:href="#DejaVuSans-35" transform="translate(83.789062 0)"/>
       <use xlink:href="#DejaVuSans-30" transform="translate(147.412109 0)"/>
      </g>
     </g>
    </g>
    <g id="xtick_3">
     <g id="line2d_5">
      <path d="M 127.499489 273.312 
L 127.499489 7.2 
" clip-path="url(#p0e1fe46167)" style="fill: none; stroke: #b0b0b0; stroke-width: 0.8; stroke-linecap: square"/>
     </g>
     <g id="line2d_6">
      <g>
       <use xlink:href="#m1b39731357" x="127.499489" y="273.312" style="stroke: #000000; stroke-width: 0.8"/>
      </g>
     </g>
     <g id="text_3">
      <!-- 0 -->
      <g transform="translate(124.318239 287.910437) scale(0.1 -0.1)">
       <use xlink:href="#DejaVuSans-30"/>
      </g>
     </g>
    </g>
    <g id="xtick_4">
     <g id="line2d_7">
      <path d="M 168.081307 273.312 
L 168.081307 7.2 
" clip-path="url(#p0e1fe46167)" style="fill: none; stroke: #b0b0b0; stroke-width: 0.8; stroke-linecap: square"/>
     </g>
     <g id="line2d_8">
      <g>
       <use xlink:href="#m1b39731357" x="168.081307" y="273.312" style="stroke: #000000; stroke-width: 0.8"/>
      </g>
     </g>
     <g id="text_4">
      <!-- 50 -->
      <g transform="translate(161.718807 287.910437) scale(0.1 -0.1)">
       <use xlink:href="#DejaVuSans-35"/>
       <use xlink:href="#DejaVuSans-30" transform="translate(63.623047 0)"/>
      </g>
     </g>
    </g>
    <g id="xtick_5">
     <g id="line2d_9">
      <path d="M 208.663125 273.312 
L 208.663125 7.2 
" clip-path="url(#p0e1fe46167)" style="fill: none; stroke: #b0b0b0; stroke-width: 0.8; stroke-linecap: square"/>
     </g>
     <g id="line2d_10">
      <g>
       <use xlink:href="#m1b39731357" x="208.663125" y="273.312" style="stroke: #000000; stroke-width: 0.8"/>
      </g>
     </g>
     <g id="text_5">
      <!-- 100 -->
      <g transform="translate(199.119375 287.910437) scale(0.1 -0.1)">
       <use xlink:href="#DejaVuSans-31"/>
       <use xlink:href="#DejaVuSans-30" transform="translate(63.623047 0)"/>
       <use xlink:href="#DejaVuSans-30" transform="translate(127.246094 0)"/>
      </g>
     </g>
    </g>
    <g id="xtick_6">
     <g id="line2d_11">
      <path d="M 249.244943 273.312 
L 249.244943 7.2 
" clip-path="url(#p0e1fe46167)" style="fill: none; stroke: #b0b0b0; stroke-width: 0.8; stroke-linecap: square"/>
     </g>
     <g id="line2d_12">
      <g>
       <use xlink:href="#m1b39731357" x="249.244943" y="273.312" style="stroke: #000000; stroke-width: 0.8"/>
      </g>
     </g>
     <g id="text_6">
      <!-- 150 -->
      <g transform="translate(239.701193 287.910437) scale(0.1 -0.1)">
       <use xlink:href="#DejaVuSans-31"/>
       <use xlink:href="#DejaVuSans-35" transform="translate(63.623047 0)"/>
       <use xlink:href="#DejaVuSans-30" transform="translate(127.246094 0)"/>
      </g>
     </g>
    </g>
    <g id="xtick_7">
     <g id="line2d_13">
      <path d="M 289.826761 273.312 
L 289.826761 7.2 
" clip-path="url(#p0e1fe46167)" style="fill: none; stroke: #b0b0b0; stroke-width: 0.8; stroke-linecap: square"/>
     </g>
     <g id="line2d_14">
      <g>
       <use xlink:href="#m1b39731357" x="289.826761" y="273.312" style="stroke: #000000; stroke-width: 0.8"/>
      </g>
     </g>
     <g id="text_7">
      <!-- 200 -->
      <g transform="translate(280.283011 287.910437) scale(0.1 -0.1)">
       <defs>
        <path id="DejaVuSans-32" d="M 1228 531 
L 3431 531 
L 3431 0 
L 469 0 
L 469 531 
Q 828 903 1448 1529 
Q 2069 2156 2228 2338 
Q 2531 2678 2651 2914 
Q 2772 3150 2772 3378 
Q 2772 3750 2511 3984 
Q 2250 4219 1831 4219 
Q 1534 4219 1204 4116 
Q 875 4013 500 3803 
L 500 4441 
Q 881 4594 1212 4672 
Q 1544 4750 1819 4750 
Q 2544 4750 2975 4387 
Q 3406 4025 3406 3419 
Q 3406 3131 3298 2873 
Q 3191 2616 2906 2266 
Q 2828 2175 2409 1742 
Q 1991 1309 1228 531 
z
" transform="scale(0.015625)"/>
       </defs>
       <use xlink:href="#DejaVuSans-32"/>
       <use xlink:href="#DejaVuSans-30" transform="translate(63.623047 0)"/>
       <use xlink:href="#DejaVuSans-30" transform="translate(127.246094 0)"/>
      </g>
     </g>
    </g>
    <g id="xtick_8">
     <g id="line2d_15">
      <path d="M 330.40858 273.312 
L 330.40858 7.2 
" clip-path="url(#p0e1fe46167)" style="fill: none; stroke: #b0b0b0; stroke-width: 0.8; stroke-linecap: square"/>
     </g>
     <g id="line2d_16">
      <g>
       <use xlink:href="#m1b39731357" x="330.40858" y="273.312" style="stroke: #000000; stroke-width: 0.8"/>
      </g>
     </g>
     <g id="text_8">
      <!-- 250 -->
      <g transform="translate(320.86483 287.910437) scale(0.1 -0.1)">
       <use xlink:href="#DejaVuSans-32"/>
       <use xlink:href="#DejaVuSans-35" transform="translate(63.623047 0)"/>
       <use xlink:href="#DejaVuSans-30" transform="translate(127.246094 0)"/>
      </g>
     </g>
    </g>
    <g id="xtick_9">
     <g id="line2d_17">
      <path d="M 370.990398 273.312 
L 370.990398 7.2 
" clip-path="url(#p0e1fe46167)" style="fill: none; stroke: #b0b0b0; stroke-width: 0.8; stroke-linecap: square"/>
     </g>
     <g id="line2d_18">
      <g>
       <use xlink:href="#m1b39731357" x="370.990398" y="273.312" style="stroke: #000000; stroke-width: 0.8"/>
      </g>
     </g>
     <g id="text_9">
      <!-- 300 -->
      <g transform="translate(361.446648 287.910437) scale(0.1 -0.1)">
       <defs>
        <path id="DejaVuSans-33" d="M 2597 2516 
Q 3050 2419 3304 2112 
Q 3559 1806 3559 1356 
Q 3559 666 3084 287 
Q 2609 -91 1734 -91 
Q 1441 -91 1130 -33 
Q 819 25 488 141 
L 488 750 
Q 750 597 1062 519 
Q 1375 441 1716 441 
Q 2309 441 2620 675 
Q 2931 909 2931 1356 
Q 2931 1769 2642 2001 
Q 2353 2234 1838 2234 
L 1294 2234 
L 1294 2753 
L 1863 2753 
Q 2328 2753 2575 2939 
Q 2822 3125 2822 3475 
Q 2822 3834 2567 4026 
Q 2313 4219 1838 4219 
Q 1578 4219 1281 4162 
Q 984 4106 628 3988 
L 628 4550 
Q 988 4650 1302 4700 
Q 1616 4750 1894 4750 
Q 2613 4750 3031 4423 
Q 3450 4097 3450 3541 
Q 3450 3153 3228 2886 
Q 3006 2619 2597 2516 
z
" transform="scale(0.015625)"/>
       </defs>
       <use xlink:href="#DejaVuSans-33"/>
       <use xlink:href="#DejaVuSans-30" transform="translate(63.623047 0)"/>
       <use xlink:href="#DejaVuSans-30" transform="translate(127.246094 0)"/>
      </g>
     </g>
    </g>
   </g>
   <g id="matplotlib.axis_2">
    <g id="ytick_1">
     <g id="line2d_19">
      <path d="M 30.103125 261.216 
L 387.223125 261.216 
" clip-path="url(#p0e1fe46167)" style="fill: none; stroke: #b0b0b0; stroke-width: 0.8; stroke-linecap: square"/>
     </g>
     <g id="line2d_20">
      <defs>
       <path id="m7ea59f76ad" d="M 0 0 
L -3.5 0 
" style="stroke: #000000; stroke-width: 0.8"/>
      </defs>
      <g>
       <use xlink:href="#m7ea59f76ad" x="30.103125" y="261.216" style="stroke: #000000; stroke-width: 0.8"/>
      </g>
     </g>
     <g id="text_10">
      <!-- 0.0 -->
      <g transform="translate(7.2 265.015219) scale(0.1 -0.1)">
       <defs>
        <path id="DejaVuSans-2e" d="M 684 794 
L 1344 794 
L 1344 0 
L 684 0 
L 684 794 
z
" transform="scale(0.015625)"/>
       </defs>
       <use xlink:href="#DejaVuSans-30"/>
       <use xlink:href="#DejaVuSans-2e" transform="translate(63.623047 0)"/>
       <use xlink:href="#DejaVuSans-30" transform="translate(95.410156 0)"/>
      </g>
     </g>
    </g>
    <g id="ytick_2">
     <g id="line2d_21">
      <path d="M 30.103125 212.832 
L 387.223125 212.832 
" clip-path="url(#p0e1fe46167)" style="fill: none; stroke: #b0b0b0; stroke-width: 0.8; stroke-linecap: square"/>
     </g>
     <g id="line2d_22">
      <g>
       <use xlink:href="#m7ea59f76ad" x="30.103125" y="212.832" style="stroke: #000000; stroke-width: 0.8"/>
      </g>
     </g>
     <g id="text_11">
      <!-- 0.2 -->
      <g transform="translate(7.2 216.631219) scale(0.1 -0.1)">
       <use xlink:href="#DejaVuSans-30"/>
       <use xlink:href="#DejaVuSans-2e" transform="translate(63.623047 0)"/>
       <use xlink:href="#DejaVuSans-32" transform="translate(95.410156 0)"/>
      </g>
     </g>
    </g>
    <g id="ytick_3">
     <g id="line2d_23">
      <path d="M 30.103125 164.448 
L 387.223125 164.448 
" clip-path="url(#p0e1fe46167)" style="fill: none; stroke: #b0b0b0; stroke-width: 0.8; stroke-linecap: square"/>
     </g>
     <g id="line2d_24">
      <g>
       <use xlink:href="#m7ea59f76ad" x="30.103125" y="164.448" style="stroke: #000000; stroke-width: 0.8"/>
      </g>
     </g>
     <g id="text_12">
      <!-- 0.4 -->
      <g transform="translate(7.2 168.247219) scale(0.1 -0.1)">
       <defs>
        <path id="DejaVuSans-34" d="M 2419 4116 
L 825 1625 
L 2419 1625 
L 2419 4116 
z
M 2253 4666 
L 3047 4666 
L 3047 1625 
L 3713 1625 
L 3713 1100 
L 3047 1100 
L 3047 0 
L 2419 0 
L 2419 1100 
L 313 1100 
L 313 1709 
L 2253 4666 
z
" transform="scale(0.015625)"/>
       </defs>
       <use xlink:href="#DejaVuSans-30"/>
       <use xlink:href="#DejaVuSans-2e" transform="translate(63.623047 0)"/>
       <use xlink:href="#DejaVuSans-34" transform="translate(95.410156 0)"/>
      </g>
     </g>
    </g>
    <g id="ytick_4">
     <g id="line2d_25">
      <path d="M 30.103125 116.064 
L 387.223125 116.064 
" clip-path="url(#p0e1fe46167)" style="fill: none; stroke: #b0b0b0; stroke-width: 0.8; stroke-linecap: square"/>
     </g>
     <g id="line2d_26">
      <g>
       <use xlink:href="#m7ea59f76ad" x="30.103125" y="116.064" style="stroke: #000000; stroke-width: 0.8"/>
      </g>
     </g>
     <g id="text_13">
      <!-- 0.6 -->
      <g transform="translate(7.2 119.863219) scale(0.1 -0.1)">
       <defs>
        <path id="DejaVuSans-36" d="M 2113 2584 
Q 1688 2584 1439 2293 
Q 1191 2003 1191 1497 
Q 1191 994 1439 701 
Q 1688 409 2113 409 
Q 2538 409 2786 701 
Q 3034 994 3034 1497 
Q 3034 2003 2786 2293 
Q 2538 2584 2113 2584 
z
M 3366 4563 
L 3366 3988 
Q 3128 4100 2886 4159 
Q 2644 4219 2406 4219 
Q 1781 4219 1451 3797 
Q 1122 3375 1075 2522 
Q 1259 2794 1537 2939 
Q 1816 3084 2150 3084 
Q 2853 3084 3261 2657 
Q 3669 2231 3669 1497 
Q 3669 778 3244 343 
Q 2819 -91 2113 -91 
Q 1303 -91 875 529 
Q 447 1150 447 2328 
Q 447 3434 972 4092 
Q 1497 4750 2381 4750 
Q 2619 4750 2861 4703 
Q 3103 4656 3366 4563 
z
" transform="scale(0.015625)"/>
       </defs>
       <use xlink:href="#DejaVuSans-30"/>
       <use xlink:href="#DejaVuSans-2e" transform="translate(63.623047 0)"/>
       <use xlink:href="#DejaVuSans-36" transform="translate(95.410156 0)"/>
      </g>
     </g>
    </g>
    <g id="ytick_5">
     <g id="line2d_27">
      <path d="M 30.103125 67.68 
L 387.223125 67.68 
" clip-path="url(#p0e1fe46167)" style="fill: none; stroke: #b0b0b0; stroke-width: 0.8; stroke-linecap: square"/>
     </g>
     <g id="line2d_28">
      <g>
       <use xlink:href="#m7ea59f76ad" x="30.103125" y="67.68" style="stroke: #000000; stroke-width: 0.8"/>
      </g>
     </g>
     <g id="text_14">
      <!-- 0.8 -->
      <g transform="translate(7.2 71.479219) scale(0.1 -0.1)">
       <defs>
        <path id="DejaVuSans-38" d="M 2034 2216 
Q 1584 2216 1326 1975 
Q 1069 1734 1069 1313 
Q 1069 891 1326 650 
Q 1584 409 2034 409 
Q 2484 409 2743 651 
Q 3003 894 3003 1313 
Q 3003 1734 2745 1975 
Q 2488 2216 2034 2216 
z
M 1403 2484 
Q 997 2584 770 2862 
Q 544 3141 544 3541 
Q 544 4100 942 4425 
Q 1341 4750 2034 4750 
Q 2731 4750 3128 4425 
Q 3525 4100 3525 3541 
Q 3525 3141 3298 2862 
Q 3072 2584 2669 2484 
Q 3125 2378 3379 2068 
Q 3634 1759 3634 1313 
Q 3634 634 3220 271 
Q 2806 -91 2034 -91 
Q 1263 -91 848 271 
Q 434 634 434 1313 
Q 434 1759 690 2068 
Q 947 2378 1403 2484 
z
M 1172 3481 
Q 1172 3119 1398 2916 
Q 1625 2713 2034 2713 
Q 2441 2713 2670 2916 
Q 2900 3119 2900 3481 
Q 2900 3844 2670 4047 
Q 2441 4250 2034 4250 
Q 1625 4250 1398 4047 
Q 1172 3844 1172 3481 
z
" transform="scale(0.015625)"/>
       </defs>
       <use xlink:href="#DejaVuSans-30"/>
       <use xlink:href="#DejaVuSans-2e" transform="translate(63.623047 0)"/>
       <use xlink:href="#DejaVuSans-38" transform="translate(95.410156 0)"/>
      </g>
     </g>
    </g>
    <g id="ytick_6">
     <g id="line2d_29">
      <path d="M 30.103125 19.296 
L 387.223125 19.296 
" clip-path="url(#p0e1fe46167)" style="fill: none; stroke: #b0b0b0; stroke-width: 0.8; stroke-linecap: square"/>
     </g>
     <g id="line2d_30">
      <g>
       <use xlink:href="#m7ea59f76ad" x="30.103125" y="19.296" style="stroke: #000000; stroke-width: 0.8"/>
      </g>
     </g>
     <g id="text_15">
      <!-- 1.0 -->
      <g transform="translate(7.2 23.095219) scale(0.1 -0.1)">
       <use xlink:href="#DejaVuSans-31"/>
       <use xlink:href="#DejaVuSans-2e" transform="translate(63.623047 0)"/>
       <use xlink:href="#DejaVuSans-30" transform="translate(95.410156 0)"/>
      </g>
     </g>
    </g>
   </g>
   <g id="line2d_31">
    <path d="M 46.335852 261.215098 
L 63.795472 261.118356 
L 63.795472 261.093331 
L 66.626761 261.024349 
L 66.626761 260.977659 
L 68.514288 260.920596 
L 68.514288 260.851106 
L 70.401814 260.76679 
L 70.401814 260.664858 
L 71.345577 260.664858 
L 71.345577 260.542078 
L 72.289341 260.542078 
L 72.289341 260.394726 
L 73.233104 260.394726 
L 73.233104 260.218534 
L 74.176867 260.218534 
L 74.176867 260.00863 
L 75.12063 260.00863 
L 75.12063 259.759486 
L 76.064393 259.759486 
L 76.064393 259.464859 
L 77.008157 259.464859 
L 77.008157 259.11774 
L 77.95192 259.11774 
L 77.95192 258.710297 
L 78.895683 258.710297 
L 78.895683 258.233834 
L 79.839446 258.233834 
L 79.839446 257.678748 
L 80.78321 257.678748 
L 80.78321 257.034499 
L 81.726973 257.034499 
L 81.726973 256.289591 
L 82.670736 256.289591 
L 82.670736 255.431568 
L 83.614499 255.431568 
L 83.614499 254.447025 
L 84.558262 254.447025 
L 84.558262 253.321637 
L 85.502026 253.321637 
L 85.502026 252.040213 
L 86.445789 252.040213 
L 86.445789 250.586777 
L 87.389552 250.586777 
L 87.389552 248.944668 
L 88.333315 248.944668 
L 88.333315 247.096676 
L 89.277078 247.096676 
L 89.277078 245.025208 
L 90.220842 245.025208 
L 90.220842 242.712483 
L 91.164605 242.712483 
L 91.164605 240.140764 
L 92.108368 240.140764 
L 92.108368 237.292615 
L 93.052131 237.292615 
L 93.052131 234.151202 
L 93.995895 234.151202 
L 93.995895 230.700608 
L 94.939658 230.700608 
L 94.939658 226.926187 
L 95.883421 226.926187 
L 95.883421 222.814935 
L 96.827184 222.814935 
L 96.827184 218.355877 
L 97.770947 218.355877 
L 97.770947 213.540466 
L 98.714711 213.540466 
L 98.714711 208.362993 
L 99.658474 208.362993 
L 99.658474 202.820976 
L 100.602237 202.820976 
L 100.602237 196.915556 
L 101.546 196.915556 
L 101.546 190.651853 
L 102.489763 190.651853 
L 102.489763 184.039298 
L 103.433527 184.039298 
L 103.433527 177.091919 
L 104.37729 177.091919 
L 104.37729 169.828573 
L 105.321053 169.828573 
L 105.321053 162.273118 
L 106.264816 162.273118 
L 106.264816 154.454502 
L 107.20858 154.454502 
L 107.20858 146.406782 
L 108.152343 146.406782 
L 108.152343 138.16905 
L 109.096106 138.16905 
L 109.096106 129.785263 
L 110.039869 129.785263 
L 110.039869 121.30398 
L 110.983632 121.30398 
L 110.983632 112.777995 
L 111.927396 112.777995 
L 111.927396 104.263881 
L 112.871159 104.263881 
L 112.871159 95.821427 
L 113.814922 95.821427 
L 113.814922 87.512999 
L 114.758685 87.512999 
L 114.758685 79.402811 
L 115.702448 79.402811 
L 115.702448 71.556133 
L 116.646212 71.556133 
L 116.646212 64.038437 
L 117.589975 64.038437 
L 117.589975 56.914505 
L 118.533738 56.914505 
L 118.533738 50.247513 
L 119.477501 50.247513 
L 119.477501 44.098102 
L 120.421265 44.098102 
L 120.421265 38.523464 
L 121.365028 38.523464 
L 121.365028 33.576464 
L 122.308791 33.576464 
L 122.308791 29.304804 
L 123.252554 29.304804 
L 123.252554 25.750254 
L 124.196317 25.750254 
L 124.196317 22.947982 
L 125.140081 22.947982 
L 125.140081 20.925963 
L 126.083844 20.925963 
L 126.083844 19.704524 
L 127.027607 19.704524 
L 127.027607 19.296 
L 127.97137 19.296 
L 127.97137 19.704524 
L 128.915133 19.704524 
L 128.915133 20.925963 
L 129.858897 20.925963 
L 129.858897 22.947982 
L 130.80266 22.947982 
L 130.80266 25.750254 
L 131.746423 25.750254 
L 131.746423 29.304804 
L 132.690186 29.304804 
L 132.690186 33.576464 
L 133.63395 33.576464 
L 133.63395 38.523464 
L 134.577713 38.523464 
L 134.577713 44.098102 
L 135.521476 44.098102 
L 135.521476 50.247513 
L 136.465239 50.247513 
L 136.465239 56.914505 
L 137.409002 56.914505 
L 137.409002 64.038437 
L 138.352766 64.038437 
L 138.352766 71.556133 
L 139.296529 71.556133 
L 139.296529 79.402811 
L 140.240292 79.402811 
L 140.240292 87.512999 
L 141.184055 87.512999 
L 141.184055 95.821427 
L 142.127818 95.821427 
L 142.127818 104.263881 
L 143.071582 104.263881 
L 143.071582 112.777995 
L 144.015345 112.777995 
L 144.015345 121.30398 
L 144.959108 121.30398 
L 144.959108 129.785263 
L 145.902871 129.785263 
L 145.902871 138.16905 
L 146.846635 138.16905 
L 146.846635 146.406782 
L 147.790398 146.406782 
L 147.790398 154.454502 
L 148.734161 154.454502 
L 148.734161 162.273118 
L 149.677924 162.273118 
L 149.677924 169.828573 
L 150.621687 169.828573 
L 150.621687 177.091919 
L 151.565451 177.091919 
L 151.565451 184.039298 
L 152.509214 184.039298 
L 152.509214 190.651853 
L 153.452977 190.651853 
L 153.452977 196.915556 
L 154.39674 196.915556 
L 154.39674 202.820976 
L 155.340503 202.820976 
L 155.340503 208.362993 
L 156.284267 208.362993 
L 156.284267 213.540466 
L 157.22803 213.540466 
L 157.22803 218.355877 
L 158.171793 218.355877 
L 158.171793 222.814935 
L 159.115556 222.814935 
L 159.115556 226.926187 
L 160.05932 226.926187 
L 160.05932 230.700608 
L 161.003083 230.700608 
L 161.003083 234.151202 
L 161.946846 234.151202 
L 161.946846 237.292615 
L 162.890609 237.292615 
L 162.890609 240.140764 
L 163.834372 240.140764 
L 163.834372 242.712483 
L 164.778136 242.712483 
L 164.778136 245.025208 
L 165.721899 245.025208 
L 165.721899 247.096676 
L 166.665662 247.096676 
L 166.665662 248.944668 
L 167.609425 248.944668 
L 167.609425 250.586777 
L 168.553188 250.586777 
L 168.553188 252.040213 
L 169.496952 252.040213 
L 169.496952 253.321637 
L 170.440715 253.321637 
L 170.440715 254.447025 
L 171.384478 254.447025 
L 171.384478 255.431568 
L 172.328241 255.431568 
L 172.328241 256.289591 
L 173.272004 256.289591 
L 173.272004 257.034499 
L 174.215768 257.034499 
L 174.215768 257.678748 
L 175.159531 257.678748 
L 175.159531 258.233834 
L 176.103294 258.233834 
L 176.103294 258.710297 
L 177.047057 258.710297 
L 177.047057 259.11774 
L 177.990821 259.11774 
L 177.990821 259.464859 
L 178.934584 259.464859 
L 178.934584 259.759486 
L 179.878347 259.759486 
L 179.878347 260.00863 
L 180.82211 260.00863 
L 180.82211 260.218534 
L 181.765873 260.218534 
L 181.765873 260.394726 
L 182.709637 260.394726 
L 182.709637 260.542078 
L 183.6534 260.542078 
L 183.6534 260.664858 
L 185.540926 260.76679 
L 185.540926 260.851106 
L 187.428453 260.920596 
L 187.428453 260.977659 
L 190.259742 261.062412 
L 190.259742 261.093331 
L 199.697374 261.202066 
L 199.697374 261.205241 
L 370.990398 261.216 
L 370.990398 261.216 
" clip-path="url(#p0e1fe46167)" style="fill: none; stroke: #1f77b4; stroke-width: 1.5; stroke-linecap: square"/>
   </g>
   <g id="line2d_32">
    <path d="M 46.335852 261.216 
L 171.384478 261.107009 
L 171.384478 261.079297 
L 174.215768 261.003115 
L 174.215768 260.951682 
L 176.103294 260.888931 
L 176.103294 260.812647 
L 177.990821 260.720249 
L 177.990821 260.608742 
L 178.934584 260.608742 
L 178.934584 260.474665 
L 179.878347 260.474665 
L 179.878347 260.314038 
L 180.82211 260.314038 
L 180.82211 260.122311 
L 181.765873 260.122311 
L 181.765873 259.894305 
L 182.709637 259.894305 
L 182.709637 259.624154 
L 183.6534 259.624154 
L 183.6534 259.305255 
L 184.597163 259.305255 
L 184.597163 258.930211 
L 185.540926 258.930211 
L 185.540926 258.490778 
L 186.484689 258.490778 
L 186.484689 257.977832 
L 187.428453 257.977832 
L 187.428453 257.381321 
L 188.372216 257.381321 
L 188.372216 256.69025 
L 189.315979 256.69025 
L 189.315979 255.89266 
L 190.259742 255.89266 
L 190.259742 254.975638 
L 191.203506 254.975638 
L 191.203506 253.925332 
L 192.147269 253.925332 
L 192.147269 252.726993 
L 193.091032 252.726993 
L 193.091032 251.365042 
L 194.034795 251.365042 
L 194.034795 249.823159 
L 194.978558 249.823159 
L 194.978558 248.084402 
L 195.922322 248.084402 
L 195.922322 246.131354 
L 196.866085 246.131354 
L 196.866085 243.946305 
L 197.809848 243.946305 
L 197.809848 241.511464 
L 198.753611 241.511464 
L 198.753611 238.809205 
L 199.697374 238.809205 
L 199.697374 235.822342 
L 200.641138 235.822342 
L 200.641138 232.534438 
L 201.584901 232.534438 
L 201.584901 228.930143 
L 202.528664 228.930143 
L 202.528664 224.995551 
L 203.472427 224.995551 
L 203.472427 220.718581 
L 204.416191 220.718581 
L 204.416191 216.089375 
L 205.359954 216.089375 
L 205.359954 211.100697 
L 206.303717 211.100697 
L 206.303717 205.748339 
L 207.24748 205.748339 
L 207.24748 200.031509 
L 208.191243 200.031509 
L 208.191243 193.953216 
L 209.135007 193.953216 
L 209.135007 187.52061 
L 210.07877 187.52061 
L 210.07877 180.745296 
L 211.022533 180.745296 
L 211.022533 173.643595 
L 211.966296 173.643595 
L 211.966296 166.236748 
L 212.910059 166.236748 
L 212.910059 158.551047 
L 213.853823 158.551047 
L 213.853823 150.617898 
L 214.797586 150.617898 
L 214.797586 142.473789 
L 215.741349 142.473789 
L 215.741349 134.160174 
L 216.685112 134.160174 
L 216.685112 125.723258 
L 217.628876 125.723258 
L 217.628876 117.213685 
L 218.572639 117.213685 
L 218.572639 108.686126 
L 219.516402 108.686126 
L 219.516402 100.198772 
L 220.460165 100.198772 
L 220.460165 91.812736 
L 221.403928 91.812736 
L 221.403928 83.591365 
L 222.347692 83.591365 
L 222.347692 75.599483 
L 223.291455 75.599483 
L 223.291455 67.902566 
L 224.235218 67.902566 
L 224.235218 60.56587 
L 225.178981 60.56587 
L 225.178981 53.65352 
L 226.122744 53.65352 
L 226.122744 47.227589 
L 227.066508 47.227589 
L 227.066508 41.347178 
L 228.010271 41.347178 
L 228.010271 36.067508 
L 228.954034 36.067508 
L 228.954034 31.439066 
L 229.897797 31.439066 
L 229.897797 27.506798 
L 230.841561 27.506798 
L 230.841561 24.309383 
L 231.785324 24.309383 
L 231.785324 21.878602 
L 232.729087 21.878602 
L 232.729087 20.238811 
L 233.67285 20.238811 
L 233.67285 19.406533 
L 235.560377 19.390185 
L 235.560377 20.189932 
L 236.50414 20.189932 
L 236.50414 21.797687 
L 237.447903 21.797687 
L 237.447903 24.197245 
L 238.391666 24.197245 
L 238.391666 27.364557 
L 239.335429 27.364557 
L 239.335429 31.26813 
L 240.279193 31.26813 
L 240.279193 35.869549 
L 241.222956 35.869549 
L 241.222956 41.124104 
L 242.166719 41.124104 
L 242.166719 46.981518 
L 243.110482 46.981518 
L 243.110482 53.386739 
L 244.054246 53.386739 
L 244.054246 60.280807 
L 244.998009 60.280807 
L 244.998009 67.601751 
L 245.941772 67.601751 
L 245.941772 75.285507 
L 246.885535 75.285507 
L 246.885535 83.266848 
L 247.829298 83.266848 
L 247.829298 91.480291 
L 248.773062 91.480291 
L 248.773062 99.86097 
L 249.716825 99.86097 
L 249.716825 108.345462 
L 250.660588 108.345462 
L 250.660588 116.872551 
L 251.604351 116.872551 
L 251.604351 125.383919 
L 252.548114 125.383919 
L 252.548114 133.824742 
L 253.491878 133.824742 
L 253.491878 142.144207 
L 254.435641 142.144207 
L 254.435641 150.295924 
L 255.379404 150.295924 
L 255.379404 158.238246 
L 256.323167 158.238246 
L 256.323167 165.934481 
L 257.26693 165.934481 
L 257.26693 173.353022 
L 258.210694 173.353022 
L 258.210694 180.467369 
L 259.154457 180.467369 
L 259.154457 187.256085 
L 260.09822 187.256085 
L 260.09822 193.702653 
L 261.041983 193.702653 
L 261.041983 199.795284 
L 261.985747 199.795284 
L 261.985747 205.526656 
L 262.92951 205.526656 
L 262.92951 210.893603 
L 263.873273 210.893603 
L 263.873273 215.896768 
L 264.817036 215.896768 
L 264.817036 220.540233 
L 265.760799 220.540233 
L 265.760799 224.831119 
L 266.704563 224.831119 
L 266.704563 228.779188 
L 267.648326 228.779188 
L 267.648326 232.396439 
L 268.592089 232.396439 
L 268.592089 235.696712 
L 269.535852 235.696712 
L 269.535852 238.695307 
L 270.479615 238.695307 
L 270.479615 241.408625 
L 271.423379 241.408625 
L 271.423379 243.853826 
L 272.367142 243.853826 
L 272.367142 246.048525 
L 273.310905 246.048525 
L 273.310905 248.010512 
L 274.254668 248.010512 
L 274.254668 249.757504 
L 275.198432 249.757504 
L 275.198432 251.306932 
L 276.142195 251.306932 
L 276.142195 252.675763 
L 277.085958 252.675763 
L 277.085958 253.880342 
L 278.029721 253.880342 
L 278.029721 254.93628 
L 278.973484 254.93628 
L 278.973484 255.858362 
L 279.917248 255.858362 
L 279.917248 256.660474 
L 280.861011 256.660474 
L 280.861011 257.35557 
L 281.804774 257.35557 
L 281.804774 257.955646 
L 282.748537 257.955646 
L 282.748537 258.471736 
L 283.6923 258.471736 
L 283.6923 258.913927 
L 284.636064 258.913927 
L 284.636064 259.291384 
L 285.579827 259.291384 
L 285.579827 259.612381 
L 286.52359 259.612381 
L 286.52359 259.884349 
L 287.467353 259.884349 
L 287.467353 260.113924 
L 288.411117 260.113924 
L 288.411117 260.306999 
L 289.35488 260.306999 
L 289.35488 260.468778 
L 290.298643 260.468778 
L 290.298643 260.603837 
L 291.242406 260.603837 
L 291.242406 260.716177 
L 293.129933 260.809279 
L 293.129933 260.886155 
L 295.017459 260.949403 
L 295.017459 261.001251 
L 298.792512 261.106009 
L 298.792512 261.12859 
L 370.990398 261.216 
L 370.990398 261.216 
" clip-path="url(#p0e1fe46167)" style="fill: none; stroke: #ff7f0e; stroke-width: 1.5; stroke-linecap: square"/>
   </g>
   <g id="line2d_33">
    <path d="M 46.335852 261.215098 
L 161.946846 261.117071 
L 161.946846 261.095484 
L 165.721899 261.001408 
L 165.721899 260.957235 
L 167.609425 260.904774 
L 167.609425 260.842648 
L 169.496952 260.769281 
L 169.496952 260.682886 
L 171.384478 260.581435 
L 171.384478 260.462642 
L 172.328241 260.462642 
L 172.328241 260.323934 
L 173.272004 260.323934 
L 173.272004 260.162434 
L 174.215768 260.162434 
L 174.215768 259.974928 
L 175.159531 259.974928 
L 175.159531 259.757849 
L 176.103294 259.757849 
L 176.103294 259.507248 
L 177.047057 259.507248 
L 177.047057 259.218776 
L 177.990821 259.218776 
L 177.990821 258.887661 
L 178.934584 258.887661 
L 178.934584 258.508691 
L 179.878347 258.508691 
L 179.878347 258.076198 
L 180.82211 258.076198 
L 180.82211 257.584048 
L 181.765873 257.584048 
L 181.765873 257.025636 
L 182.709637 257.025636 
L 182.709637 256.393883 
L 183.6534 256.393883 
L 183.6534 255.681242 
L 184.597163 255.681242 
L 184.597163 254.879711 
L 185.540926 254.879711 
L 185.540926 253.980853 
L 186.484689 253.980853 
L 186.484689 252.975828 
L 187.428453 252.975828 
L 187.428453 251.855431 
L 188.372216 251.855431 
L 188.372216 250.610141 
L 189.315979 250.610141 
L 189.315979 249.230183 
L 190.259742 249.230183 
L 190.259742 247.705601 
L 191.203506 247.705601 
L 191.203506 246.026344 
L 192.147269 246.026344 
L 192.147269 244.182358 
L 193.091032 244.182358 
L 193.091032 242.163698 
L 194.034795 242.163698 
L 194.034795 239.960649 
L 194.978558 239.960649 
L 194.978558 237.563854 
L 195.922322 237.563854 
L 195.922322 234.964458 
L 196.866085 234.964458 
L 196.866085 232.15426 
L 197.809848 232.15426 
L 197.809848 229.12587 
L 198.753611 229.12587 
L 198.753611 225.872873 
L 199.697374 225.872873 
L 199.697374 222.390002 
L 200.641138 222.390002 
L 200.641138 218.673306 
L 201.584901 218.673306 
L 201.584901 214.720319 
L 202.528664 214.720319 
L 202.528664 210.530231 
L 203.472427 210.530231 
L 203.472427 206.104046 
L 204.416191 206.104046 
L 204.416191 201.444732 
L 205.359954 201.444732 
L 205.359954 196.55736 
L 206.303717 196.55736 
L 206.303717 191.449226 
L 207.24748 191.449226 
L 207.24748 186.129953 
L 208.191243 186.129953 
L 208.191243 180.611571 
L 209.135007 180.611571 
L 209.135007 174.90857 
L 210.07877 174.90857 
L 210.07877 169.037928 
L 211.022533 169.037928 
L 211.022533 163.019104 
L 211.966296 163.019104 
L 211.966296 156.874003 
L 212.910059 156.874003 
L 212.910059 150.626901 
L 213.853823 150.626901 
L 213.853823 144.30434 
L 214.797586 144.30434 
L 214.797586 137.93498 
L 215.741349 137.93498 
L 215.741349 131.549428 
L 216.685112 131.549428 
L 216.685112 125.180014 
L 217.628876 125.180014 
L 217.628876 118.86055 
L 218.572639 118.86055 
L 218.572639 112.626048 
L 219.516402 112.626048 
L 219.516402 106.512412 
L 220.460165 106.512412 
L 220.460165 100.556107 
L 221.403928 100.556107 
L 221.403928 94.793804 
L 222.347692 94.793804 
L 222.347692 89.262012 
L 223.291455 89.262012 
L 223.291455 83.996695 
L 224.235218 83.996695 
L 224.235218 79.032884 
L 225.178981 79.032884 
L 225.178981 74.404296 
L 226.122744 74.404296 
L 226.122744 70.142947 
L 227.066508 70.142947 
L 227.066508 66.278787 
L 228.010271 66.278787 
L 228.010271 62.83935 
L 228.954034 62.83935 
L 228.954034 59.849424 
L 229.897797 59.849424 
L 229.897797 57.330755 
L 230.841561 57.330755 
L 230.841561 55.301785 
L 231.785324 55.301785 
L 231.785324 53.777424 
L 232.729087 53.777424 
L 232.729087 52.768869 
L 233.67285 52.768869 
L 233.67285 52.283466 
L 235.560377 52.324624 
L 235.560377 52.891771 
L 236.50414 52.891771 
L 236.50414 53.980367 
L 237.447903 53.980367 
L 237.447903 55.581965 
L 238.391666 55.581965 
L 238.391666 57.684317 
L 239.335429 57.684317 
L 239.335429 60.271532 
L 240.279193 60.271532 
L 240.279193 63.324278 
L 241.222956 63.324278 
L 241.222956 66.820017 
L 242.166719 66.820017 
L 242.166719 70.733285 
L 243.110482 70.733285 
L 243.110482 75.035999 
L 244.054246 75.035999 
L 244.054246 79.697792 
L 244.998009 79.697792 
L 244.998009 84.686369 
L 245.941772 84.686369 
L 245.941772 89.967874 
L 246.885535 89.967874 
L 246.885535 95.507276 
L 247.829298 95.507276 
L 247.829298 101.268744 
L 248.773062 101.268744 
L 248.773062 107.216032 
L 249.716825 107.216032 
L 249.716825 113.312849 
L 250.660588 113.312849 
L 250.660588 119.523222 
L 251.604351 119.523222 
L 251.604351 125.811828 
L 252.548114 125.811828 
L 252.548114 132.144323 
L 253.491878 132.144323 
L 253.491878 138.487627 
L 254.435641 138.487627 
L 254.435641 144.81019 
L 255.379404 144.81019 
L 255.379404 151.082222 
L 256.323167 151.082222 
L 256.323167 157.275894 
L 257.26693 157.275894 
L 257.26693 163.3655 
L 258.210694 163.3655 
L 258.210694 169.327585 
L 259.154457 169.327585 
L 259.154457 175.14104 
L 260.09822 175.14104 
L 260.09822 180.787163 
L 261.041983 180.787163 
L 261.041983 186.249682 
L 261.985747 186.249682 
L 261.985747 191.514753 
L 262.92951 191.514753 
L 262.92951 196.570928 
L 263.873273 196.570928 
L 263.873273 201.409092 
L 264.817036 201.409092 
L 264.817036 206.022382 
L 265.760799 206.022382 
L 265.760799 210.406081 
L 266.704563 210.406081 
L 266.704563 214.557497 
L 267.648326 214.557497 
L 267.648326 218.475824 
L 268.592089 218.475824 
L 268.592089 222.161998 
L 269.535852 222.161998 
L 269.535852 225.618536 
L 270.479615 225.618536 
L 270.479615 228.849377 
L 271.423379 228.849377 
L 271.423379 231.859717 
L 272.367142 231.859717 
L 272.367142 234.655843 
L 273.310905 234.655843 
L 273.310905 237.244974 
L 274.254668 237.244974 
L 274.254668 239.635099 
L 275.198432 239.635099 
L 275.198432 241.834829 
L 276.142195 241.834829 
L 276.142195 243.853251 
L 277.085958 243.853251 
L 277.085958 245.699794 
L 278.029721 245.699794 
L 278.029721 247.384105 
L 278.973484 247.384105 
L 278.973484 248.915933 
L 279.917248 248.915933 
L 279.917248 250.305029 
L 280.861011 250.305029 
L 280.861011 251.561049 
L 281.804774 251.561049 
L 281.804774 252.693481 
L 282.748537 252.693481 
L 282.748537 253.71157 
L 283.6923 253.71157 
L 283.6923 254.624266 
L 284.636064 254.624266 
L 284.636064 255.440168 
L 285.579827 255.440168 
L 285.579827 256.167495 
L 286.52359 256.167495 
L 286.52359 256.814052 
L 287.467353 256.814052 
L 287.467353 257.38721 
L 288.411117 257.38721 
L 288.411117 257.893897 
L 289.35488 257.893897 
L 289.35488 258.340587 
L 290.298643 258.340587 
L 290.298643 258.733305 
L 291.242406 258.733305 
L 291.242406 259.077629 
L 292.186169 259.077629 
L 292.186169 259.378701 
L 293.129933 259.378701 
L 293.129933 259.64124 
L 294.073696 259.64124 
L 294.073696 259.86956 
L 295.017459 259.86956 
L 295.017459 260.067586 
L 295.961222 260.067586 
L 295.961222 260.238878 
L 296.904985 260.238878 
L 296.904985 260.386647 
L 297.848749 260.386647 
L 297.848749 260.513785 
L 299.736275 260.622881 
L 299.736275 260.716248 
L 301.623802 260.795942 
L 301.623802 260.863786 
L 304.455091 260.970173 
L 304.455091 261.011375 
L 309.173907 261.120122 
L 309.173907 261.137155 
L 370.990398 261.216 
L 370.990398 261.216 
" clip-path="url(#p0e1fe46167)" style="fill: none; stroke: #2ca02c; stroke-width: 1.5; stroke-linecap: square"/>
   </g>
   <g id="patch_3">
    <path d="M 30.103125 273.312 
L 30.103125 7.2 
" style="fill: none; stroke: #000000; stroke-width: 0.8; stroke-linejoin: miter; stroke-linecap: square"/>
   </g>
   <g id="patch_4">
    <path d="M 387.223125 273.312 
L 387.223125 7.2 
" style="fill: none; stroke: #000000; stroke-width: 0.8; stroke-linejoin: miter; stroke-linecap: square"/>
   </g>
   <g id="patch_5">
    <path d="M 30.103125 273.312 
L 387.223125 273.312 
" style="fill: none; stroke: #000000; stroke-width: 0.8; stroke-linejoin: miter; stroke-linecap: square"/>
   </g>
   <g id="patch_6">
    <path d="M 30.103125 7.2 
L 387.223125 7.2 
" style="fill: none; stroke: #000000; stroke-width: 0.8; stroke-linejoin: miter; stroke-linecap: square"/>
   </g>
   <g id="legend_1">
    <g id="patch_7">
     <path d="M 306.855937 59.234375 
L 380.223125 59.234375 
Q 382.223125 59.234375 382.223125 57.234375 
L 382.223125 14.2 
Q 382.223125 12.2 380.223125 12.2 
L 306.855937 12.2 
Q 304.855937 12.2 304.855937 14.2 
L 304.855937 57.234375 
Q 304.855937 59.234375 306.855937 59.234375 
z
" style="fill: #ffffff; opacity: 0.8; stroke: #cccccc; stroke-linejoin: miter"/>
    </g>
    <g id="line2d_34">
     <path d="M 308.855937 20.298437 
L 313.855937 20.298437 
L 313.855937 20.298437 
L 323.855937 20.298437 
L 323.855937 20.298437 
L 328.855937 20.298437 
" style="fill: none; stroke: #1f77b4; stroke-width: 1.5; stroke-linecap: square"/>
    </g>
    <g id="text_16">
     <!-- initial -->
     <g transform="translate(336.855937 23.798437) scale(0.1 -0.1)">
      <defs>
       <path id="DejaVuSans-69" d="M 603 3500 
L 1178 3500 
L 1178 0 
L 603 0 
L 603 3500 
z
M 603 4863 
L 1178 4863 
L 1178 4134 
L 603 4134 
L 603 4863 
z
" transform="scale(0.015625)"/>
       <path id="DejaVuSans-6e" d="M 3513 2113 
L 3513 0 
L 2938 0 
L 2938 2094 
Q 2938 2591 2744 2837 
Q 2550 3084 2163 3084 
Q 1697 3084 1428 2787 
Q 1159 2491 1159 1978 
L 1159 0 
L 581 0 
L 581 3500 
L 1159 3500 
L 1159 2956 
Q 1366 3272 1645 3428 
Q 1925 3584 2291 3584 
Q 2894 3584 3203 3211 
Q 3513 2838 3513 2113 
z
" transform="scale(0.015625)"/>
       <path id="DejaVuSans-74" d="M 1172 4494 
L 1172 3500 
L 2356 3500 
L 2356 3053 
L 1172 3053 
L 1172 1153 
Q 1172 725 1289 603 
Q 1406 481 1766 481 
L 2356 481 
L 2356 0 
L 1766 0 
Q 1100 0 847 248 
Q 594 497 594 1153 
L 594 3053 
L 172 3053 
L 172 3500 
L 594 3500 
L 594 4494 
L 1172 4494 
z
" transform="scale(0.015625)"/>
       <path id="DejaVuSans-61" d="M 2194 1759 
Q 1497 1759 1228 1600 
Q 959 1441 959 1056 
Q 959 750 1161 570 
Q 1363 391 1709 391 
Q 2188 391 2477 730 
Q 2766 1069 2766 1631 
L 2766 1759 
L 2194 1759 
z
M 3341 1997 
L 3341 0 
L 2766 0 
L 2766 531 
Q 2569 213 2275 61 
Q 1981 -91 1556 -91 
Q 1019 -91 701 211 
Q 384 513 384 1019 
Q 384 1609 779 1909 
Q 1175 2209 1959 2209 
L 2766 2209 
L 2766 2266 
Q 2766 2663 2505 2880 
Q 2244 3097 1772 3097 
Q 1472 3097 1187 3025 
Q 903 2953 641 2809 
L 641 3341 
Q 956 3463 1253 3523 
Q 1550 3584 1831 3584 
Q 2591 3584 2966 3190 
Q 3341 2797 3341 1997 
z
" transform="scale(0.015625)"/>
       <path id="DejaVuSans-6c" d="M 603 4863 
L 1178 4863 
L 1178 0 
L 603 0 
L 603 4863 
z
" transform="scale(0.015625)"/>
      </defs>
      <use xlink:href="#DejaVuSans-69"/>
      <use xlink:href="#DejaVuSans-6e" transform="translate(27.783203 0)"/>
      <use xlink:href="#DejaVuSans-69" transform="translate(91.162109 0)"/>
      <use xlink:href="#DejaVuSans-74" transform="translate(118.945312 0)"/>
      <use xlink:href="#DejaVuSans-69" transform="translate(158.154297 0)"/>
      <use xlink:href="#DejaVuSans-61" transform="translate(185.9375 0)"/>
      <use xlink:href="#DejaVuSans-6c" transform="translate(247.216797 0)"/>
     </g>
    </g>
    <g id="line2d_35">
     <path d="M 308.855937 34.976562 
L 313.855937 34.976562 
L 313.855937 34.976562 
L 323.855937 34.976562 
L 323.855937 34.976562 
L 328.855937 34.976562 
" style="fill: none; stroke: #ff7f0e; stroke-width: 1.5; stroke-linecap: square"/>
    </g>
    <g id="text_17">
     <!-- analytic -->
     <g transform="translate(336.855937 38.476562) scale(0.1 -0.1)">
      <defs>
       <path id="DejaVuSans-79" d="M 2059 -325 
Q 1816 -950 1584 -1140 
Q 1353 -1331 966 -1331 
L 506 -1331 
L 506 -850 
L 844 -850 
Q 1081 -850 1212 -737 
Q 1344 -625 1503 -206 
L 1606 56 
L 191 3500 
L 800 3500 
L 1894 763 
L 2988 3500 
L 3597 3500 
L 2059 -325 
z
" transform="scale(0.015625)"/>
       <path id="DejaVuSans-63" d="M 3122 3366 
L 3122 2828 
Q 2878 2963 2633 3030 
Q 2388 3097 2138 3097 
Q 1578 3097 1268 2742 
Q 959 2388 959 1747 
Q 959 1106 1268 751 
Q 1578 397 2138 397 
Q 2388 397 2633 464 
Q 2878 531 3122 666 
L 3122 134 
Q 2881 22 2623 -34 
Q 2366 -91 2075 -91 
Q 1284 -91 818 406 
Q 353 903 353 1747 
Q 353 2603 823 3093 
Q 1294 3584 2113 3584 
Q 2378 3584 2631 3529 
Q 2884 3475 3122 3366 
z
" transform="scale(0.015625)"/>
      </defs>
      <use xlink:href="#DejaVuSans-61"/>
      <use xlink:href="#DejaVuSans-6e" transform="translate(61.279297 0)"/>
      <use xlink:href="#DejaVuSans-61" transform="translate(124.658203 0)"/>
      <use xlink:href="#DejaVuSans-6c" transform="translate(185.9375 0)"/>
      <use xlink:href="#DejaVuSans-79" transform="translate(213.720703 0)"/>
      <use xlink:href="#DejaVuSans-74" transform="translate(272.900391 0)"/>
      <use xlink:href="#DejaVuSans-69" transform="translate(312.109375 0)"/>
      <use xlink:href="#DejaVuSans-63" transform="translate(339.892578 0)"/>
     </g>
    </g>
    <g id="line2d_36">
     <path d="M 308.855937 49.654687 
L 313.855937 49.654687 
L 313.855937 49.654687 
L 323.855937 49.654687 
L 323.855937 49.654687 
L 328.855937 49.654687 
" style="fill: none; stroke: #2ca02c; stroke-width: 1.5; stroke-linecap: square"/>
    </g>
    <g id="text_18">
     <!-- UPWIND -->
     <g transform="translate(336.855937 53.154687) scale(0.1 -0.1)">
      <defs>
       <path id="DejaVuSans-55" d="M 556 4666 
L 1191 4666 
L 1191 1831 
Q 1191 1081 1462 751 
Q 1734 422 2344 422 
Q 2950 422 3222 751 
Q 3494 1081 3494 1831 
L 3494 4666 
L 4128 4666 
L 4128 1753 
Q 4128 841 3676 375 
Q 3225 -91 2344 -91 
Q 1459 -91 1007 375 
Q 556 841 556 1753 
L 556 4666 
z
" transform="scale(0.015625)"/>
       <path id="DejaVuSans-50" d="M 1259 4147 
L 1259 2394 
L 2053 2394 
Q 2494 2394 2734 2622 
Q 2975 2850 2975 3272 
Q 2975 3691 2734 3919 
Q 2494 4147 2053 4147 
L 1259 4147 
z
M 628 4666 
L 2053 4666 
Q 2838 4666 3239 4311 
Q 3641 3956 3641 3272 
Q 3641 2581 3239 2228 
Q 2838 1875 2053 1875 
L 1259 1875 
L 1259 0 
L 628 0 
L 628 4666 
z
" transform="scale(0.015625)"/>
       <path id="DejaVuSans-57" d="M 213 4666 
L 850 4666 
L 1831 722 
L 2809 4666 
L 3519 4666 
L 4500 722 
L 5478 4666 
L 6119 4666 
L 4947 0 
L 4153 0 
L 3169 4050 
L 2175 0 
L 1381 0 
L 213 4666 
z
" transform="scale(0.015625)"/>
       <path id="DejaVuSans-49" d="M 628 4666 
L 1259 4666 
L 1259 0 
L 628 0 
L 628 4666 
z
" transform="scale(0.015625)"/>
       <path id="DejaVuSans-4e" d="M 628 4666 
L 1478 4666 
L 3547 763 
L 3547 4666 
L 4159 4666 
L 4159 0 
L 3309 0 
L 1241 3903 
L 1241 0 
L 628 0 
L 628 4666 
z
" transform="scale(0.015625)"/>
       <path id="DejaVuSans-44" d="M 1259 4147 
L 1259 519 
L 2022 519 
Q 2988 519 3436 956 
Q 3884 1394 3884 2338 
Q 3884 3275 3436 3711 
Q 2988 4147 2022 4147 
L 1259 4147 
z
M 628 4666 
L 1925 4666 
Q 3281 4666 3915 4102 
Q 4550 3538 4550 2338 
Q 4550 1131 3912 565 
Q 3275 0 1925 0 
L 628 0 
L 628 4666 
z
" transform="scale(0.015625)"/>
      </defs>
      <use xlink:href="#DejaVuSans-55"/>
      <use xlink:href="#DejaVuSans-50" transform="translate(73.193359 0)"/>
      <use xlink:href="#DejaVuSans-57" transform="translate(133.496094 0)"/>
      <use xlink:href="#DejaVuSans-49" transform="translate(232.373047 0)"/>
      <use xlink:href="#DejaVuSans-4e" transform="translate(261.865234 0)"/>
      <use xlink:href="#DejaVuSans-44" transform="translate(336.669922 0)"/>
     </g>
    </g>
   </g>
  </g>
 </g>
 <defs>
  <clipPath id="p0e1fe46167">
   <rect x="30.103125" y="7.2" width="357.12" height="266.112"/>
  </clipPath>
 </defs>
</svg>
