<?xml version="1.0" encoding="utf-8" standalone="no"?>
<!DOCTYPE svg PUBLIC "-//W3C//DTD SVG 1.1//EN"
  "http://www.w3.org/Graphics/SVG/1.1/DTD/svg11.dtd">
<svg xmlns:xlink="http://www.w3.org/1999/xlink" width="394.423125pt" height="297.190125pt" viewBox="0 0 394.423125 297.190125" xmlns="http://www.w3.org/2000/svg" version="1.1">
 <metadata>
  <rdf:RDF xmlns:dc="http://purl.org/dc/elements/1.1/" xmlns:cc="http://creativecommons.org/ns#" xmlns:rdf="http://www.w3.org/1999/02/22-rdf-syntax-ns#">
   <cc:Work>
    <dc:type rdf:resource="http://purl.org/dc/dcmitype/StillImage"/>
    <dc:date>2025-04-01T17:50:02.647239</dc:date>
    <dc:format>image/svg+xml</dc:format>
    <dc:creator>
     <cc:Agent>
      <dc:title>Matplotlib v3.10.1, https://matplotlib.org/</dc:title>
     </cc:Agent>
    </dc:creator>
   </cc:Work>
  </rdf:RDF>
 </metadata>
 <defs>
  <style type="text/css">*{stroke-linejoin: round; stroke-linecap: butt}</style>
 </defs>
 <g id="figure_1">
  <g id="patch_1">
   <path d="M 0 297.190125 
L 394.423125 297.190125 
L 394.423125 0 
L 0 0 
z
" style="fill: #ffffff"/>
  </g>
  <g id="axes_1">
   <g id="patch_2">
    <path d="M 30.103125 273.312 
L 387.223125 273.312 
L 387.223125 7.2 
L 30.103125 7.2 
z
" style="fill: #ffffff"/>
   </g>
   <g id="matplotlib.axis_1">
    <g id="xtick_1">
     <g id="line2d_1">
      <path d="M 46.335852 273.312 
L 46.335852 7.2 
" clip-path="url(#p529522e7b0)" style="fill: none; stroke: #b0b0b0; stroke-width: 0.8; stroke-linecap: square"/>
     </g>
     <g id="line2d_2">
      <defs>
       <path id="m955255b054" d="M 0 0 
L 0 3.5 
" style="stroke: #000000; stroke-width: 0.8"/>
      </defs>
      <g>
       <use xlink:href="#m955255b054" x="46.335852" y="273.312" style="stroke: #000000; stroke-width: 0.8"/>
      </g>
     </g>
     <g id="text_1">
      <!-- −100 -->
      <g transform="translate(32.602259 287.910437) scale(0.1 -0.1)">
       <defs>
        <path id="DejaVuSans-2212" d="M 678 2272 
L 4684 2272 
L 4684 1741 
L 678 1741 
L 678 2272 
z
" transform="scale(0.015625)"/>
        <path id="DejaVuSans-31" d="M 794 531 
L 1825 531 
L 1825 4091 
L 703 3866 
L 703 4441 
L 1819 4666 
L 2450 4666 
L 2450 531 
L 3481 531 
L 3481 0 
L 794 0 
L 794 531 
z
" transform="scale(0.015625)"/>
        <path id="DejaVuSans-30" d="M 2034 4250 
Q 1547 4250 1301 3770 
Q 1056 3291 1056 2328 
Q 1056 1369 1301 889 
Q 1547 409 2034 409 
Q 2525 409 2770 889 
Q 3016 1369 3016 2328 
Q 3016 3291 2770 3770 
Q 2525 4250 2034 4250 
z
M 2034 4750 
Q 2819 4750 3233 4129 
Q 3647 3509 3647 2328 
Q 3647 1150 3233 529 
Q 2819 -91 2034 -91 
Q 1250 -91 836 529 
Q 422 1150 422 2328 
Q 422 3509 836 4129 
Q 1250 4750 2034 4750 
z
" transform="scale(0.015625)"/>
       </defs>
       <use xlink:href="#DejaVuSans-2212"/>
       <use xlink:href="#DejaVuSans-31" transform="translate(83.789062 0)"/>
       <use xlink:href="#DejaVuSans-30" transform="translate(147.412109 0)"/>
       <use xlink:href="#DejaVuSans-30" transform="translate(211.035156 0)"/>
      </g>
     </g>
    </g>
    <g id="xtick_2">
     <g id="line2d_3">
      <path d="M 86.91767 273.312 
L 86.91767 7.2 
" clip-path="url(#p529522e7b0)" style="fill: none; stroke: #b0b0b0; stroke-width: 0.8; stroke-linecap: square"/>
     </g>
     <g id="line2d_4">
      <g>
       <use xlink:href="#m955255b054" x="86.91767" y="273.312" style="stroke: #000000; stroke-width: 0.8"/>
      </g>
     </g>
     <g id="text_2">
      <!-- −50 -->
      <g transform="translate(76.365327 287.910437) scale(0.1 -0.1)">
       <defs>
        <path id="DejaVuSans-35" d="M 691 4666 
L 3169 4666 
L 3169 4134 
L 1269 4134 
L 1269 2991 
Q 1406 3038 1543 3061 
Q 1681 3084 1819 3084 
Q 2600 3084 3056 2656 
Q 3513 2228 3513 1497 
Q 3513 744 3044 326 
Q 2575 -91 1722 -91 
Q 1428 -91 1123 -41 
Q 819 9 494 109 
L 494 744 
Q 775 591 1075 516 
Q 1375 441 1709 441 
Q 2250 441 2565 725 
Q 2881 1009 2881 1497 
Q 2881 1984 2565 2268 
Q 2250 2553 1709 2553 
Q 1456 2553 1204 2497 
Q 953 2441 691 2322 
L 691 4666 
z
" transform="scale(0.015625)"/>
       </defs>
       <use xlink:href="#DejaVuSans-2212"/>
       <use xlink:href="#DejaVuSans-35" transform="translate(83.789062 0)"/>
       <use xlink:href="#DejaVuSans-30" transform="translate(147.412109 0)"/>
      </g>
     </g>
    </g>
    <g id="xtick_3">
     <g id="line2d_5">
      <path d="M 127.499489 273.312 
L 127.499489 7.2 
" clip-path="url(#p529522e7b0)" style="fill: none; stroke: #b0b0b0; stroke-width: 0.8; stroke-linecap: square"/>
     </g>
     <g id="line2d_6">
      <g>
       <use xlink:href="#m955255b054" x="127.499489" y="273.312" style="stroke: #000000; stroke-width: 0.8"/>
      </g>
     </g>
     <g id="text_3">
      <!-- 0 -->
      <g transform="translate(124.318239 287.910437) scale(0.1 -0.1)">
       <use xlink:href="#DejaVuSans-30"/>
      </g>
     </g>
    </g>
    <g id="xtick_4">
     <g id="line2d_7">
      <path d="M 168.081307 273.312 
L 168.081307 7.2 
" clip-path="url(#p529522e7b0)" style="fill: none; stroke: #b0b0b0; stroke-width: 0.8; stroke-linecap: square"/>
     </g>
     <g id="line2d_8">
      <g>
       <use xlink:href="#m955255b054" x="168.081307" y="273.312" style="stroke: #000000; stroke-width: 0.8"/>
      </g>
     </g>
     <g id="text_4">
      <!-- 50 -->
      <g transform="translate(161.718807 287.910437) scale(0.1 -0.1)">
       <use xlink:href="#DejaVuSans-35"/>
       <use xlink:href="#DejaVuSans-30" transform="translate(63.623047 0)"/>
      </g>
     </g>
    </g>
    <g id="xtick_5">
     <g id="line2d_9">
      <path d="M 208.663125 273.312 
L 208.663125 7.2 
" clip-path="url(#p529522e7b0)" style="fill: none; stroke: #b0b0b0; stroke-width: 0.8; stroke-linecap: square"/>
     </g>
     <g id="line2d_10">
      <g>
       <use xlink:href="#m955255b054" x="208.663125" y="273.312" style="stroke: #000000; stroke-width: 0.8"/>
      </g>
     </g>
     <g id="text_5">
      <!-- 100 -->
      <g transform="translate(199.119375 287.910437) scale(0.1 -0.1)">
       <use xlink:href="#DejaVuSans-31"/>
       <use xlink:href="#DejaVuSans-30" transform="translate(63.623047 0)"/>
       <use xlink:href="#DejaVuSans-30" transform="translate(127.246094 0)"/>
      </g>
     </g>
    </g>
    <g id="xtick_6">
     <g id="line2d_11">
      <path d="M 249.244943 273.312 
L 249.244943 7.2 
" clip-path="url(#p529522e7b0)" style="fill: none; stroke: #b0b0b0; stroke-width: 0.8; stroke-linecap: square"/>
     </g>
     <g id="line2d_12">
      <g>
       <use xlink:href="#m955255b054" x="249.244943" y="273.312" style="stroke: #000000; stroke-width: 0.8"/>
      </g>
     </g>
     <g id="text_6">
      <!-- 150 -->
      <g transform="translate(239.701193 287.910437) scale(0.1 -0.1)">
       <use xlink:href="#DejaVuSans-31"/>
       <use xlink:href="#DejaVuSans-35" transform="translate(63.623047 0)"/>
       <use xlink:href="#DejaVuSans-30" transform="translate(127.246094 0)"/>
      </g>
     </g>
    </g>
    <g id="xtick_7">
     <g id="line2d_13">
      <path d="M 289.826761 273.312 
L 289.826761 7.2 
" clip-path="url(#p529522e7b0)" style="fill: none; stroke: #b0b0b0; stroke-width: 0.8; stroke-linecap: square"/>
     </g>
     <g id="line2d_14">
      <g>
       <use xlink:href="#m955255b054" x="289.826761" y="273.312" style="stroke: #000000; stroke-width: 0.8"/>
      </g>
     </g>
     <g id="text_7">
      <!-- 200 -->
      <g transform="translate(280.283011 287.910437) scale(0.1 -0.1)">
       <defs>
        <path id="DejaVuSans-32" d="M 1228 531 
L 3431 531 
L 3431 0 
L 469 0 
L 469 531 
Q 828 903 1448 1529 
Q 2069 2156 2228 2338 
Q 2531 2678 2651 2914 
Q 2772 3150 2772 3378 
Q 2772 3750 2511 3984 
Q 2250 4219 1831 4219 
Q 1534 4219 1204 4116 
Q 875 4013 500 3803 
L 500 4441 
Q 881 4594 1212 4672 
Q 1544 4750 1819 4750 
Q 2544 4750 2975 4387 
Q 3406 4025 3406 3419 
Q 3406 3131 3298 2873 
Q 3191 2616 2906 2266 
Q 2828 2175 2409 1742 
Q 1991 1309 1228 531 
z
" transform="scale(0.015625)"/>
       </defs>
       <use xlink:href="#DejaVuSans-32"/>
       <use xlink:href="#DejaVuSans-30" transform="translate(63.623047 0)"/>
       <use xlink:href="#DejaVuSans-30" transform="translate(127.246094 0)"/>
      </g>
     </g>
    </g>
    <g id="xtick_8">
     <g id="line2d_15">
      <path d="M 330.40858 273.312 
L 330.40858 7.2 
" clip-path="url(#p529522e7b0)" style="fill: none; stroke: #b0b0b0; stroke-width: 0.8; stroke-linecap: square"/>
     </g>
     <g id="line2d_16">
      <g>
       <use xlink:href="#m955255b054" x="330.40858" y="273.312" style="stroke: #000000; stroke-width: 0.8"/>
      </g>
     </g>
     <g id="text_8">
      <!-- 250 -->
      <g transform="translate(320.86483 287.910437) scale(0.1 -0.1)">
       <use xlink:href="#DejaVuSans-32"/>
       <use xlink:href="#DejaVuSans-35" transform="translate(63.623047 0)"/>
       <use xlink:href="#DejaVuSans-30" transform="translate(127.246094 0)"/>
      </g>
     </g>
    </g>
    <g id="xtick_9">
     <g id="line2d_17">
      <path d="M 370.990398 273.312 
L 370.990398 7.2 
" clip-path="url(#p529522e7b0)" style="fill: none; stroke: #b0b0b0; stroke-width: 0.8; stroke-linecap: square"/>
     </g>
     <g id="line2d_18">
      <g>
       <use xlink:href="#m955255b054" x="370.990398" y="273.312" style="stroke: #000000; stroke-width: 0.8"/>
      </g>
     </g>
     <g id="text_9">
      <!-- 300 -->
      <g transform="translate(361.446648 287.910437) scale(0.1 -0.1)">
       <defs>
        <path id="DejaVuSans-33" d="M 2597 2516 
Q 3050 2419 3304 2112 
Q 3559 1806 3559 1356 
Q 3559 666 3084 287 
Q 2609 -91 1734 -91 
Q 1441 -91 1130 -33 
Q 819 25 488 141 
L 488 750 
Q 750 597 1062 519 
Q 1375 441 1716 441 
Q 2309 441 2620 675 
Q 2931 909 2931 1356 
Q 2931 1769 2642 2001 
Q 2353 2234 1838 2234 
L 1294 2234 
L 1294 2753 
L 1863 2753 
Q 2328 2753 2575 2939 
Q 2822 3125 2822 3475 
Q 2822 3834 2567 4026 
Q 2313 4219 1838 4219 
Q 1578 4219 1281 4162 
Q 984 4106 628 3988 
L 628 4550 
Q 988 4650 1302 4700 
Q 1616 4750 1894 4750 
Q 2613 4750 3031 4423 
Q 3450 4097 3450 3541 
Q 3450 3153 3228 2886 
Q 3006 2619 2597 2516 
z
" transform="scale(0.015625)"/>
       </defs>
       <use xlink:href="#DejaVuSans-33"/>
       <use xlink:href="#DejaVuSans-30" transform="translate(63.623047 0)"/>
       <use xlink:href="#DejaVuSans-30" transform="translate(127.246094 0)"/>
      </g>
     </g>
    </g>
   </g>
   <g id="matplotlib.axis_2">
    <g id="ytick_1">
     <g id="line2d_19">
      <path d="M 30.103125 261.216 
L 387.223125 261.216 
" clip-path="url(#p529522e7b0)" style="fill: none; stroke: #b0b0b0; stroke-width: 0.8; stroke-linecap: square"/>
     </g>
     <g id="line2d_20">
      <defs>
       <path id="m613aae9a8c" d="M 0 0 
L -3.5 0 
" style="stroke: #000000; stroke-width: 0.8"/>
      </defs>
      <g>
       <use xlink:href="#m613aae9a8c" x="30.103125" y="261.216" style="stroke: #000000; stroke-width: 0.8"/>
      </g>
     </g>
     <g id="text_10">
      <!-- 0.0 -->
      <g transform="translate(7.2 265.015219) scale(0.1 -0.1)">
       <defs>
        <path id="DejaVuSans-2e" d="M 684 794 
L 1344 794 
L 1344 0 
L 684 0 
L 684 794 
z
" transform="scale(0.015625)"/>
       </defs>
       <use xlink:href="#DejaVuSans-30"/>
       <use xlink:href="#DejaVuSans-2e" transform="translate(63.623047 0)"/>
       <use xlink:href="#DejaVuSans-30" transform="translate(95.410156 0)"/>
      </g>
     </g>
    </g>
    <g id="ytick_2">
     <g id="line2d_21">
      <path d="M 30.103125 212.832 
L 387.223125 212.832 
" clip-path="url(#p529522e7b0)" style="fill: none; stroke: #b0b0b0; stroke-width: 0.8; stroke-linecap: square"/>
     </g>
     <g id="line2d_22">
      <g>
       <use xlink:href="#m613aae9a8c" x="30.103125" y="212.832" style="stroke: #000000; stroke-width: 0.8"/>
      </g>
     </g>
     <g id="text_11">
      <!-- 0.2 -->
      <g transform="translate(7.2 216.631219) scale(0.1 -0.1)">
       <use xlink:href="#DejaVuSans-30"/>
       <use xlink:href="#DejaVuSans-2e" transform="translate(63.623047 0)"/>
       <use xlink:href="#DejaVuSans-32" transform="translate(95.410156 0)"/>
      </g>
     </g>
    </g>
    <g id="ytick_3">
     <g id="line2d_23">
      <path d="M 30.103125 164.448 
L 387.223125 164.448 
" clip-path="url(#p529522e7b0)" style="fill: none; stroke: #b0b0b0; stroke-width: 0.8; stroke-linecap: square"/>
     </g>
     <g id="line2d_24">
      <g>
       <use xlink:href="#m613aae9a8c" x="30.103125" y="164.448" style="stroke: #000000; stroke-width: 0.8"/>
      </g>
     </g>
     <g id="text_12">
      <!-- 0.4 -->
      <g transform="translate(7.2 168.247219) scale(0.1 -0.1)">
       <defs>
        <path id="DejaVuSans-34" d="M 2419 4116 
L 825 1625 
L 2419 1625 
L 2419 4116 
z
M 2253 4666 
L 3047 4666 
L 3047 1625 
L 3713 1625 
L 3713 1100 
L 3047 1100 
L 3047 0 
L 2419 0 
L 2419 1100 
L 313 1100 
L 313 1709 
L 2253 4666 
z
" transform="scale(0.015625)"/>
       </defs>
       <use xlink:href="#DejaVuSans-30"/>
       <use xlink:href="#DejaVuSans-2e" transform="translate(63.623047 0)"/>
       <use xlink:href="#DejaVuSans-34" transform="translate(95.410156 0)"/>
      </g>
     </g>
    </g>
    <g id="ytick_4">
     <g id="line2d_25">
      <path d="M 30.103125 116.064 
L 387.223125 116.064 
" clip-path="url(#p529522e7b0)" style="fill: none; stroke: #b0b0b0; stroke-width: 0.8; stroke-linecap: square"/>
     </g>
     <g id="line2d_26">
      <g>
       <use xlink:href="#m613aae9a8c" x="30.103125" y="116.064" style="stroke: #000000; stroke-width: 0.8"/>
      </g>
     </g>
     <g id="text_13">
      <!-- 0.6 -->
      <g transform="translate(7.2 119.863219) scale(0.1 -0.1)">
       <defs>
        <path id="DejaVuSans-36" d="M 2113 2584 
Q 1688 2584 1439 2293 
Q 1191 2003 1191 1497 
Q 1191 994 1439 701 
Q 1688 409 2113 409 
Q 2538 409 2786 701 
Q 3034 994 3034 1497 
Q 3034 2003 2786 2293 
Q 2538 2584 2113 2584 
z
M 3366 4563 
L 3366 3988 
Q 3128 4100 2886 4159 
Q 2644 4219 2406 4219 
Q 1781 4219 1451 3797 
Q 1122 3375 1075 2522 
Q 1259 2794 1537 2939 
Q 1816 3084 2150 3084 
Q 2853 3084 3261 2657 
Q 3669 2231 3669 1497 
Q 3669 778 3244 343 
Q 2819 -91 2113 -91 
Q 1303 -91 875 529 
Q 447 1150 447 2328 
Q 447 3434 972 4092 
Q 1497 4750 2381 4750 
Q 2619 4750 2861 4703 
Q 3103 4656 3366 4563 
z
" transform="scale(0.015625)"/>
       </defs>
       <use xlink:href="#DejaVuSans-30"/>
       <use xlink:href="#DejaVuSans-2e" transform="translate(63.623047 0)"/>
       <use xlink:href="#DejaVuSans-36" transform="translate(95.410156 0)"/>
      </g>
     </g>
    </g>
    <g id="ytick_5">
     <g id="line2d_27">
      <path d="M 30.103125 67.68 
L 387.223125 67.68 
" clip-path="url(#p529522e7b0)" style="fill: none; stroke: #b0b0b0; stroke-width: 0.8; stroke-linecap: square"/>
     </g>
     <g id="line2d_28">
      <g>
       <use xlink:href="#m613aae9a8c" x="30.103125" y="67.68" style="stroke: #000000; stroke-width: 0.8"/>
      </g>
     </g>
     <g id="text_14">
      <!-- 0.8 -->
      <g transform="translate(7.2 71.479219) scale(0.1 -0.1)">
       <defs>
        <path id="DejaVuSans-38" d="M 2034 2216 
Q 1584 2216 1326 1975 
Q 1069 1734 1069 1313 
Q 1069 891 1326 650 
Q 1584 409 2034 409 
Q 2484 409 2743 651 
Q 3003 894 3003 1313 
Q 3003 1734 2745 1975 
Q 2488 2216 2034 2216 
z
M 1403 2484 
Q 997 2584 770 2862 
Q 544 3141 544 3541 
Q 544 4100 942 4425 
Q 1341 4750 2034 4750 
Q 2731 4750 3128 4425 
Q 3525 4100 3525 3541 
Q 3525 3141 3298 2862 
Q 3072 2584 2669 2484 
Q 3125 2378 3379 2068 
Q 3634 1759 3634 1313 
Q 3634 634 3220 271 
Q 2806 -91 2034 -91 
Q 1263 -91 848 271 
Q 434 634 434 1313 
Q 434 1759 690 2068 
Q 947 2378 1403 2484 
z
M 1172 3481 
Q 1172 3119 1398 2916 
Q 1625 2713 2034 2713 
Q 2441 2713 2670 2916 
Q 2900 3119 2900 3481 
Q 2900 3844 2670 4047 
Q 2441 4250 2034 4250 
Q 1625 4250 1398 4047 
Q 1172 3844 1172 3481 
z
" transform="scale(0.015625)"/>
       </defs>
       <use xlink:href="#DejaVuSans-30"/>
       <use xlink:href="#DejaVuSans-2e" transform="translate(63.623047 0)"/>
       <use xlink:href="#DejaVuSans-38" transform="translate(95.410156 0)"/>
      </g>
     </g>
    </g>
    <g id="ytick_6">
     <g id="line2d_29">
      <path d="M 30.103125 19.296 
L 387.223125 19.296 
" clip-path="url(#p529522e7b0)" style="fill: none; stroke: #b0b0b0; stroke-width: 0.8; stroke-linecap: square"/>
     </g>
     <g id="line2d_30">
      <g>
       <use xlink:href="#m613aae9a8c" x="30.103125" y="19.296" style="stroke: #000000; stroke-width: 0.8"/>
      </g>
     </g>
     <g id="text_15">
      <!-- 1.0 -->
      <g transform="translate(7.2 23.095219) scale(0.1 -0.1)">
       <use xlink:href="#DejaVuSans-31"/>
       <use xlink:href="#DejaVuSans-2e" transform="translate(63.623047 0)"/>
       <use xlink:href="#DejaVuSans-30" transform="translate(95.410156 0)"/>
      </g>
     </g>
    </g>
   </g>
   <g id="line2d_31">
    <path d="M 46.335852 261.215098 
L 50.025108 261.215098 
L 50.025108 261.208109 
L 57.403621 261.208109 
L 57.403621 261.159818 
L 64.782133 261.159818 
L 64.782133 260.890686 
L 72.160646 260.890686 
L 72.160646 259.683924 
L 79.539158 259.683924 
L 79.539158 255.347501 
L 86.91767 255.347501 
L 86.91767 242.933168 
L 94.296183 242.933168 
L 94.296183 214.889482 
L 101.674695 214.889482 
L 101.674695 165.741898 
L 109.053208 165.741898 
L 109.053208 101.182375 
L 116.43172 101.182375 
L 116.43172 43.040168 
L 123.810232 43.040168 
L 123.810232 19.296 
L 131.188745 19.296 
L 131.188745 43.040168 
L 138.567257 43.040168 
L 138.567257 101.182375 
L 145.94577 101.182375 
L 145.94577 165.741898 
L 153.324282 165.741898 
L 153.324282 214.889482 
L 160.702794 214.889482 
L 160.702794 242.933168 
L 168.081307 242.933168 
L 168.081307 255.347501 
L 175.459819 255.347501 
L 175.459819 259.683924 
L 182.838332 259.683924 
L 182.838332 260.890686 
L 190.216844 260.890686 
L 190.216844 261.159818 
L 197.595356 261.159818 
L 197.595356 261.208109 
L 204.973869 261.208109 
L 204.973869 261.215098 
L 212.352381 261.215098 
L 212.352381 261.215916 
L 219.730894 261.215916 
L 219.730894 261.215994 
L 227.109406 261.215994 
L 227.109406 261.216 
L 234.487918 261.216 
L 234.487918 261.216 
L 241.866431 261.216 
L 241.866431 261.216 
L 249.244943 261.216 
L 249.244943 261.216 
L 256.623456 261.216 
L 256.623456 261.216 
L 264.001968 261.216 
L 264.001968 261.216 
L 271.38048 261.216 
L 271.38048 261.216 
L 278.758993 261.216 
L 278.758993 261.216 
L 286.137505 261.216 
L 286.137505 261.216 
L 293.516018 261.216 
L 293.516018 261.216 
L 300.89453 261.216 
L 300.89453 261.216 
L 308.273042 261.216 
L 308.273042 261.216 
L 315.651555 261.216 
L 315.651555 261.216 
L 323.030067 261.216 
L 323.030067 261.216 
L 330.40858 261.216 
L 330.40858 261.216 
L 337.787092 261.216 
L 337.787092 261.216 
L 345.165604 261.216 
L 345.165604 261.216 
L 352.544117 261.216 
L 352.544117 261.216 
L 359.922629 261.216 
L 359.922629 261.216 
L 367.301142 261.216 
L 367.301142 261.216 
L 370.990398 261.216 
" clip-path="url(#p529522e7b0)" style="fill: none; stroke: #1f77b4; stroke-width: 1.5; stroke-linecap: square"/>
   </g>
   <g id="line2d_32">
    <path d="M 46.335852 261.216 
L 50.025108 261.216 
L 50.025108 261.216 
L 57.403621 261.216 
L 57.403621 261.216 
L 64.782133 261.216 
L 64.782133 261.216 
L 72.160646 261.216 
L 72.160646 261.216 
L 79.539158 261.216 
L 79.539158 261.216 
L 86.91767 261.216 
L 86.91767 261.216 
L 94.296183 261.216 
L 94.296183 261.216 
L 101.674695 261.216 
L 101.674695 261.216 
L 109.053208 261.216 
L 109.053208 261.216 
L 116.43172 261.216 
L 116.43172 261.216 
L 123.810232 261.216 
L 123.810232 261.216 
L 131.188745 261.216 
L 131.188745 261.215998 
L 138.567257 261.215998 
L 138.567257 261.215978 
L 145.94577 261.215978 
L 145.94577 261.215731 
L 153.324282 261.215731 
L 153.324282 261.213379 
L 160.702794 261.213379 
L 160.702794 261.195226 
L 168.081307 261.195226 
L 168.081307 261.082065 
L 175.459819 261.082065 
L 175.459819 260.513687 
L 182.838332 260.513687 
L 182.838332 258.220723 
L 190.216844 258.220723 
L 190.216844 250.826055 
L 197.595356 250.826055 
L 197.595356 231.903074 
L 204.973869 231.903074 
L 204.973869 193.953216 
L 212.352381 193.953216 
L 212.352381 135.682327 
L 219.730894 135.682327 
L 219.730894 70.663184 
L 227.109406 70.663184 
L 227.109406 25.960253 
L 234.487918 25.960253 
L 234.487918 24.98611 
L 241.866431 24.98611 
L 241.866431 68.286256 
L 249.244943 68.286256 
L 249.244943 133.061676 
L 256.623456 133.061676 
L 256.623456 191.979186 
L 264.001968 191.979186 
L 264.001968 230.792399 
L 271.38048 230.792399 
L 271.38048 250.342887 
L 278.758993 250.342887 
L 278.758993 258.055419 
L 286.137505 258.055419 
L 286.137505 260.468778 
L 293.516018 260.468778 
L 293.516018 261.072318 
L 300.89453 261.072318 
L 300.89453 261.193529 
L 308.273042 261.193529 
L 308.273042 261.213142 
L 315.651555 261.213142 
L 315.651555 261.215704 
L 323.030067 261.215704 
L 323.030067 261.215975 
L 330.40858 261.215975 
L 330.40858 261.215998 
L 337.787092 261.215998 
L 337.787092 261.216 
L 345.165604 261.216 
L 345.165604 261.216 
L 352.544117 261.216 
L 352.544117 261.216 
L 359.922629 261.216 
L 359.922629 261.216 
L 367.301142 261.216 
L 367.301142 261.216 
L 370.990398 261.216 
" clip-path="url(#p529522e7b0)" style="fill: none; stroke: #ff7f0e; stroke-width: 1.5; stroke-linecap: square"/>
   </g>
   <g id="line2d_33">
    <path d="M 46.335852 261.215098 
L 50.025108 261.215098 
L 50.025108 261.215098 
L 57.403621 261.215098 
L 57.403621 261.215098 
L 64.782133 261.215098 
L 64.782133 261.215098 
L 72.160646 261.215098 
L 72.160646 261.215095 
L 79.539158 261.215095 
L 79.539158 261.215076 
L 86.91767 261.215076 
L 86.91767 261.214968 
L 94.296183 261.214968 
L 94.296183 261.214445 
L 101.674695 261.214445 
L 101.674695 261.212236 
L 109.053208 261.212236 
L 109.053208 261.204015 
L 116.43172 261.204015 
L 116.43172 261.17682 
L 123.810232 261.17682 
L 123.810232 261.096343 
L 131.188745 261.096343 
L 131.188745 260.882251 
L 138.567257 260.882251 
L 138.567257 260.368043 
L 145.94577 260.368043 
L 145.94577 259.248974 
L 153.324282 259.248974 
L 153.324282 257.035494 
L 160.702794 257.035494 
L 160.702794 253.046716 
L 168.081307 253.046716 
L 168.081307 246.487151 
L 175.459819 246.487151 
L 175.459819 236.63575 
L 182.838332 236.63575 
L 182.838332 223.131754 
L 190.216844 223.131754 
L 190.216844 206.279116 
L 197.595356 206.279116 
L 197.595356 187.242708 
L 204.973869 187.242708 
L 204.973869 168.012654 
L 212.352381 168.012654 
L 212.352381 151.083946 
L 219.730894 151.083946 
L 219.730894 138.913879 
L 227.109406 138.913879 
L 227.109406 133.324349 
L 234.487918 133.324349 
L 234.487918 135.053364 
L 241.866431 135.053364 
L 241.866431 143.607412 
L 249.244943 143.607412 
L 249.244943 157.449428 
L 256.623456 157.449428 
L 256.623456 174.433664 
L 264.001968 174.433664 
L 264.001968 192.324732 
L 271.38048 192.324732 
L 271.38048 209.237833 
L 278.758993 209.237833 
L 278.758993 223.896922 
L 286.137505 223.896922 
L 286.137505 235.689568 
L 293.516018 235.689568 
L 293.516018 244.564095 
L 300.89453 244.564095 
L 300.89453 250.845752 
L 308.273042 250.845752 
L 308.273042 255.044712 
L 315.651555 255.044712 
L 315.651555 257.703556 
L 323.030067 257.703556 
L 323.030067 259.302397 
L 330.40858 259.302397 
L 330.40858 260.217279 
L 337.787092 260.217279 
L 337.787092 260.716304 
L 345.165604 260.716304 
L 345.165604 260.976151 
L 352.544117 260.976151 
L 352.544117 261.105484 
L 359.922629 261.105484 
L 359.922629 261.167086 
L 367.301142 261.167086 
L 367.301142 261.216 
L 370.990398 261.216 
" clip-path="url(#p529522e7b0)" style="fill: none; stroke: #2ca02c; stroke-width: 1.5; stroke-linecap: square"/>
   </g>
   <g id="line2d_34">
    <path d="M 46.335852 261.215098 
L 50.025108 261.215098 
L 50.025108 261.215098 
L 57.403621 261.215098 
L 57.403621 261.215098 
L 64.782133 261.215098 
L 64.782133 261.215098 
L 72.160646 261.215098 
L 72.160646 261.215098 
L 79.539158 261.215098 
L 79.539158 261.215098 
L 86.91767 261.215098 
L 86.91767 261.215098 
L 94.296183 261.215098 
L 94.296183 261.215098 
L 101.674695 261.215098 
L 101.674695 261.215098 
L 109.053208 261.215098 
L 109.053208 261.215098 
L 116.43172 261.215098 
L 116.43172 261.215097 
L 123.810232 261.215097 
L 123.810232 261.215092 
L 131.188745 261.215092 
L 131.188745 261.215076 
L 138.567257 261.215076 
L 138.567257 261.215028 
L 145.94577 261.215028 
L 145.94577 261.214881 
L 153.324282 261.214881 
L 153.324282 261.214456 
L 160.702794 261.214456 
L 160.702794 261.213275 
L 168.081307 261.213275 
L 168.081307 261.210161 
L 175.459819 261.210161 
L 175.459819 261.202436 
L 182.838332 261.202436 
L 182.838332 261.184408 
L 190.216844 261.184408 
L 190.216844 261.144749 
L 197.595356 261.144749 
L 197.595356 261.062347 
L 204.973869 261.062347 
L 204.973869 260.900339 
L 212.352381 260.900339 
L 212.352381 260.598462 
L 219.730894 260.598462 
L 219.730894 260.064591 
L 227.109406 260.064591 
L 227.109406 259.167385 
L 234.487918 259.167385 
L 234.487918 257.733088 
L 241.866431 257.733088 
L 241.866431 255.550212 
L 249.244943 255.550212 
L 249.244943 252.38569 
L 256.623456 252.38569 
L 256.623456 248.014506 
L 264.001968 248.014506 
L 264.001968 242.261787 
L 271.38048 242.261787 
L 271.38048 235.052301 
L 278.758993 235.052301 
L 278.758993 226.458308 
L 286.137505 226.458308 
L 286.137505 216.734121 
L 293.516018 216.734121 
L 293.516018 206.325922 
L 300.89453 206.325922 
L 300.89453 195.848926 
L 308.273042 195.848926 
L 308.273042 186.030511 
L 315.651555 186.030511 
L 315.651555 177.62587 
L 323.030067 177.62587 
L 323.030067 171.319999 
L 330.40858 171.319999 
L 330.40858 167.634071 
L 337.787092 167.634071 
L 337.787092 166.854294 
L 345.165604 166.854294 
L 345.165604 169.00044 
L 352.544117 169.00044 
L 352.544117 173.964834 
L 359.922629 173.964834 
L 359.922629 185.780594 
L 367.301142 185.780594 
L 367.301142 261.216 
L 370.990398 261.216 
" clip-path="url(#p529522e7b0)" style="fill: none; stroke: #d62728; stroke-width: 1.5; stroke-linecap: square"/>
   </g>
   <g id="patch_3">
    <path d="M 30.103125 273.312 
L 30.103125 7.2 
" style="fill: none; stroke: #000000; stroke-width: 0.8; stroke-linejoin: miter; stroke-linecap: square"/>
   </g>
   <g id="patch_4">
    <path d="M 387.223125 273.312 
L 387.223125 7.2 
" style="fill: none; stroke: #000000; stroke-width: 0.8; stroke-linejoin: miter; stroke-linecap: square"/>
   </g>
   <g id="patch_5">
    <path d="M 30.103125 273.312 
L 387.223125 273.312 
" style="fill: none; stroke: #000000; stroke-width: 0.8; stroke-linejoin: miter; stroke-linecap: square"/>
   </g>
   <g id="patch_6">
    <path d="M 30.103125 7.2 
L 387.223125 7.2 
" style="fill: none; stroke: #000000; stroke-width: 0.8; stroke-linejoin: miter; stroke-linecap: square"/>
   </g>
   <g id="legend_1">
    <g id="patch_7">
     <path d="M 306.855937 73.9125 
L 380.223125 73.9125 
Q 382.223125 73.9125 382.223125 71.9125 
L 382.223125 14.2 
Q 382.223125 12.2 380.223125 12.2 
L 306.855937 12.2 
Q 304.855937 12.2 304.855937 14.2 
L 304.855937 71.9125 
Q 304.855937 73.9125 306.855937 73.9125 
z
" style="fill: #ffffff; opacity: 0.8; stroke: #cccccc; stroke-linejoin: miter"/>
    </g>
    <g id="line2d_35">
     <path d="M 308.855937 20.298437 
L 313.855937 20.298437 
L 313.855937 20.298437 
L 323.855937 20.298437 
L 323.855937 20.298437 
L 328.855937 20.298437 
" style="fill: none; stroke: #1f77b4; stroke-width: 1.5; stroke-linecap: square"/>
    </g>
    <g id="text_16">
     <!-- initial -->
     <g transform="translate(336.855937 23.798437) scale(0.1 -0.1)">
      <defs>
       <path id="DejaVuSans-69" d="M 603 3500 
L 1178 3500 
L 1178 0 
L 603 0 
L 603 3500 
z
M 603 4863 
L 1178 4863 
L 1178 4134 
L 603 4134 
L 603 4863 
z
" transform="scale(0.015625)"/>
       <path id="DejaVuSans-6e" d="M 3513 2113 
L 3513 0 
L 2938 0 
L 2938 2094 
Q 2938 2591 2744 2837 
Q 2550 3084 2163 3084 
Q 1697 3084 1428 2787 
Q 1159 2491 1159 1978 
L 1159 0 
L 581 0 
L 581 3500 
L 1159 3500 
L 1159 2956 
Q 1366 3272 1645 3428 
Q 1925 3584 2291 3584 
Q 2894 3584 3203 3211 
Q 3513 2838 3513 2113 
z
" transform="scale(0.015625)"/>
       <path id="DejaVuSans-74" d="M 1172 4494 
L 1172 3500 
L 2356 3500 
L 2356 3053 
L 1172 3053 
L 1172 1153 
Q 1172 725 1289 603 
Q 1406 481 1766 481 
L 2356 481 
L 2356 0 
L 1766 0 
Q 1100 0 847 248 
Q 594 497 594 1153 
L 594 3053 
L 172 3053 
L 172 3500 
L 594 3500 
L 594 4494 
L 1172 4494 
z
" transform="scale(0.015625)"/>
       <path id="DejaVuSans-61" d="M 2194 1759 
Q 1497 1759 1228 1600 
Q 959 1441 959 1056 
Q 959 750 1161 570 
Q 1363 391 1709 391 
Q 2188 391 2477 730 
Q 2766 1069 2766 1631 
L 2766 1759 
L 2194 1759 
z
M 3341 1997 
L 3341 0 
L 2766 0 
L 2766 531 
Q 2569 213 2275 61 
Q 1981 -91 1556 -91 
Q 1019 -91 701 211 
Q 384 513 384 1019 
Q 384 1609 779 1909 
Q 1175 2209 1959 2209 
L 2766 2209 
L 2766 2266 
Q 2766 2663 2505 2880 
Q 2244 3097 1772 3097 
Q 1472 3097 1187 3025 
Q 903 2953 641 2809 
L 641 3341 
Q 956 3463 1253 3523 
Q 1550 3584 1831 3584 
Q 2591 3584 2966 3190 
Q 3341 2797 3341 1997 
z
" transform="scale(0.015625)"/>
       <path id="DejaVuSans-6c" d="M 603 4863 
L 1178 4863 
L 1178 0 
L 603 0 
L 603 4863 
z
" transform="scale(0.015625)"/>
      </defs>
      <use xlink:href="#DejaVuSans-69"/>
      <use xlink:href="#DejaVuSans-6e" transform="translate(27.783203 0)"/>
      <use xlink:href="#DejaVuSans-69" transform="translate(91.162109 0)"/>
      <use xlink:href="#DejaVuSans-74" transform="translate(118.945312 0)"/>
      <use xlink:href="#DejaVuSans-69" transform="translate(158.154297 0)"/>
      <use xlink:href="#DejaVuSans-61" transform="translate(185.9375 0)"/>
      <use xlink:href="#DejaVuSans-6c" transform="translate(247.216797 0)"/>
     </g>
    </g>
    <g id="line2d_36">
     <path d="M 308.855937 34.976562 
L 313.855937 34.976562 
L 313.855937 34.976562 
L 323.855937 34.976562 
L 323.855937 34.976562 
L 328.855937 34.976562 
" style="fill: none; stroke: #ff7f0e; stroke-width: 1.5; stroke-linecap: square"/>
    </g>
    <g id="text_17">
     <!-- analytic -->
     <g transform="translate(336.855937 38.476562) scale(0.1 -0.1)">
      <defs>
       <path id="DejaVuSans-79" d="M 2059 -325 
Q 1816 -950 1584 -1140 
Q 1353 -1331 966 -1331 
L 506 -1331 
L 506 -850 
L 844 -850 
Q 1081 -850 1212 -737 
Q 1344 -625 1503 -206 
L 1606 56 
L 191 3500 
L 800 3500 
L 1894 763 
L 2988 3500 
L 3597 3500 
L 2059 -325 
z
" transform="scale(0.015625)"/>
       <path id="DejaVuSans-63" d="M 3122 3366 
L 3122 2828 
Q 2878 2963 2633 3030 
Q 2388 3097 2138 3097 
Q 1578 3097 1268 2742 
Q 959 2388 959 1747 
Q 959 1106 1268 751 
Q 1578 397 2138 397 
Q 2388 397 2633 464 
Q 2878 531 3122 666 
L 3122 134 
Q 2881 22 2623 -34 
Q 2366 -91 2075 -91 
Q 1284 -91 818 406 
Q 353 903 353 1747 
Q 353 2603 823 3093 
Q 1294 3584 2113 3584 
Q 2378 3584 2631 3529 
Q 2884 3475 3122 3366 
z
" transform="scale(0.015625)"/>
      </defs>
      <use xlink:href="#DejaVuSans-61"/>
      <use xlink:href="#DejaVuSans-6e" transform="translate(61.279297 0)"/>
      <use xlink:href="#DejaVuSans-61" transform="translate(124.658203 0)"/>
      <use xlink:href="#DejaVuSans-6c" transform="translate(185.9375 0)"/>
      <use xlink:href="#DejaVuSans-79" transform="translate(213.720703 0)"/>
      <use xlink:href="#DejaVuSans-74" transform="translate(272.900391 0)"/>
      <use xlink:href="#DejaVuSans-69" transform="translate(312.109375 0)"/>
      <use xlink:href="#DejaVuSans-63" transform="translate(339.892578 0)"/>
     </g>
    </g>
    <g id="line2d_37">
     <path d="M 308.855937 49.654687 
L 313.855937 49.654687 
L 313.855937 49.654687 
L 323.855937 49.654687 
L 323.855937 49.654687 
L 328.855937 49.654687 
" style="fill: none; stroke: #2ca02c; stroke-width: 1.5; stroke-linecap: square"/>
    </g>
    <g id="text_18">
     <!-- UPWIND -->
     <g transform="translate(336.855937 53.154687) scale(0.1 -0.1)">
      <defs>
       <path id="DejaVuSans-55" d="M 556 4666 
L 1191 4666 
L 1191 1831 
Q 1191 1081 1462 751 
Q 1734 422 2344 422 
Q 2950 422 3222 751 
Q 3494 1081 3494 1831 
L 3494 4666 
L 4128 4666 
L 4128 1753 
Q 4128 841 3676 375 
Q 3225 -91 2344 -91 
Q 1459 -91 1007 375 
Q 556 841 556 1753 
L 556 4666 
z
" transform="scale(0.015625)"/>
       <path id="DejaVuSans-50" d="M 1259 4147 
L 1259 2394 
L 2053 2394 
Q 2494 2394 2734 2622 
Q 2975 2850 2975 3272 
Q 2975 3691 2734 3919 
Q 2494 4147 2053 4147 
L 1259 4147 
z
M 628 4666 
L 2053 4666 
Q 2838 4666 3239 4311 
Q 3641 3956 3641 3272 
Q 3641 2581 3239 2228 
Q 2838 1875 2053 1875 
L 1259 1875 
L 1259 0 
L 628 0 
L 628 4666 
z
" transform="scale(0.015625)"/>
       <path id="DejaVuSans-57" d="M 213 4666 
L 850 4666 
L 1831 722 
L 2809 4666 
L 3519 4666 
L 4500 722 
L 5478 4666 
L 6119 4666 
L 4947 0 
L 4153 0 
L 3169 4050 
L 2175 0 
L 1381 0 
L 213 4666 
z
" transform="scale(0.015625)"/>
       <path id="DejaVuSans-49" d="M 628 4666 
L 1259 4666 
L 1259 0 
L 628 0 
L 628 4666 
z
" transform="scale(0.015625)"/>
       <path id="DejaVuSans-4e" d="M 628 4666 
L 1478 4666 
L 3547 763 
L 3547 4666 
L 4159 4666 
L 4159 0 
L 3309 0 
L 1241 3903 
L 1241 0 
L 628 0 
L 628 4666 
z
" transform="scale(0.015625)"/>
       <path id="DejaVuSans-44" d="M 1259 4147 
L 1259 519 
L 2022 519 
Q 2988 519 3436 956 
Q 3884 1394 3884 2338 
Q 3884 3275 3436 3711 
Q 2988 4147 2022 4147 
L 1259 4147 
z
M 628 4666 
L 1925 4666 
Q 3281 4666 3915 4102 
Q 4550 3538 4550 2338 
Q 4550 1131 3912 565 
Q 3275 0 1925 0 
L 628 0 
L 628 4666 
z
" transform="scale(0.015625)"/>
      </defs>
      <use xlink:href="#DejaVuSans-55"/>
      <use xlink:href="#DejaVuSans-50" transform="translate(73.193359 0)"/>
      <use xlink:href="#DejaVuSans-57" transform="translate(133.496094 0)"/>
      <use xlink:href="#DejaVuSans-49" transform="translate(232.373047 0)"/>
      <use xlink:href="#DejaVuSans-4e" transform="translate(261.865234 0)"/>
      <use xlink:href="#DejaVuSans-44" transform="translate(336.669922 0)"/>
     </g>
    </g>
    <g id="line2d_38">
     <path d="M 308.855937 64.332812 
L 313.855937 64.332812 
L 313.855937 64.332812 
L 323.855937 64.332812 
L 323.855937 64.332812 
L 328.855937 64.332812 
" style="fill: none; stroke: #d62728; stroke-width: 1.5; stroke-linecap: square"/>
    </g>
    <g id="text_19">
     <!-- MPDATA -->
     <g transform="translate(336.855937 67.832812) scale(0.1 -0.1)">
      <defs>
       <path id="DejaVuSans-4d" d="M 628 4666 
L 1569 4666 
L 2759 1491 
L 3956 4666 
L 4897 4666 
L 4897 0 
L 4281 0 
L 4281 4097 
L 3078 897 
L 2444 897 
L 1241 4097 
L 1241 0 
L 628 0 
L 628 4666 
z
" transform="scale(0.015625)"/>
       <path id="DejaVuSans-41" d="M 2188 4044 
L 1331 1722 
L 3047 1722 
L 2188 4044 
z
M 1831 4666 
L 2547 4666 
L 4325 0 
L 3669 0 
L 3244 1197 
L 1141 1197 
L 716 0 
L 50 0 
L 1831 4666 
z
" transform="scale(0.015625)"/>
       <path id="DejaVuSans-54" d="M -19 4666 
L 3928 4666 
L 3928 4134 
L 2272 4134 
L 2272 0 
L 1638 0 
L 1638 4134 
L -19 4134 
L -19 4666 
z
" transform="scale(0.015625)"/>
      </defs>
      <use xlink:href="#DejaVuSans-4d"/>
      <use xlink:href="#DejaVuSans-50" transform="translate(86.279297 0)"/>
      <use xlink:href="#DejaVuSans-44" transform="translate(146.582031 0)"/>
      <use xlink:href="#DejaVuSans-41" transform="translate(221.833984 0)"/>
      <use xlink:href="#DejaVuSans-54" transform="translate(282.492188 0)"/>
      <use xlink:href="#DejaVuSans-41" transform="translate(335.826172 0)"/>
     </g>
    </g>
   </g>
  </g>
 </g>
 <defs>
  <clipPath id="p529522e7b0">
   <rect x="30.103125" y="7.2" width="357.12" height="266.112"/>
  </clipPath>
 </defs>
</svg>
