<?xml version="1.0" encoding="utf-8" standalone="no"?>
<!DOCTYPE svg PUBLIC "-//W3C//DTD SVG 1.1//EN"
  "http://www.w3.org/Graphics/SVG/1.1/DTD/svg11.dtd">
<svg xmlns:xlink="http://www.w3.org/1999/xlink" width="391.245pt" height="297.556317pt" viewBox="0 0 391.245 297.556317" xmlns="http://www.w3.org/2000/svg" version="1.1">
 <metadata>
  <rdf:RDF xmlns:dc="http://purl.org/dc/elements/1.1/" xmlns:cc="http://creativecommons.org/ns#" xmlns:rdf="http://www.w3.org/1999/02/22-rdf-syntax-ns#">
   <cc:Work>
    <dc:type rdf:resource="http://purl.org/dc/dcmitype/StillImage"/>
    <dc:date>2025-04-02T20:18:37.910454</dc:date>
    <dc:format>image/svg+xml</dc:format>
    <dc:creator>
     <cc:Agent>
      <dc:title>Matplotlib v3.10.1, https://matplotlib.org/</dc:title>
     </cc:Agent>
    </dc:creator>
   </cc:Work>
  </rdf:RDF>
 </metadata>
 <defs>
  <style type="text/css">*{stroke-linejoin: round; stroke-linecap: butt}</style>
 </defs>
 <g id="figure_1">
  <g id="patch_1">
   <path d="M 0 297.556317 
L 391.245 297.556317 
L 391.245 0 
L 0 0 
z
" style="fill: #ffffff"/>
  </g>
  <g id="axes_1">
   <g id="patch_2">
    <path d="M 26.925 273.678192 
L 384.045 273.678192 
L 384.045 7.566192 
L 26.925 7.566192 
z
" style="fill: #ffffff"/>
   </g>
   <g id="matplotlib.axis_1">
    <g id="xtick_1">
     <g id="line2d_1">
      <path d="M 43.157727 273.678192 
L 43.157727 7.566192 
" clip-path="url(#p74a13528e1)" style="fill: none; stroke: #b0b0b0; stroke-width: 0.8; stroke-linecap: square"/>
     </g>
     <g id="line2d_2">
      <defs>
       <path id="mc0e7d7c5d4" d="M 0 0 
L 0 3.5 
" style="stroke: #000000; stroke-width: 0.8"/>
      </defs>
      <g>
       <use xlink:href="#mc0e7d7c5d4" x="43.157727" y="273.678192" style="stroke: #000000; stroke-width: 0.8"/>
      </g>
     </g>
     <g id="text_1">
      <!-- −100 -->
      <g transform="translate(29.424134 288.276629) scale(0.1 -0.1)">
       <defs>
        <path id="DejaVuSans-2212" d="M 678 2272 
L 4684 2272 
L 4684 1741 
L 678 1741 
L 678 2272 
z
" transform="scale(0.015625)"/>
        <path id="DejaVuSans-31" d="M 794 531 
L 1825 531 
L 1825 4091 
L 703 3866 
L 703 4441 
L 1819 4666 
L 2450 4666 
L 2450 531 
L 3481 531 
L 3481 0 
L 794 0 
L 794 531 
z
" transform="scale(0.015625)"/>
        <path id="DejaVuSans-30" d="M 2034 4250 
Q 1547 4250 1301 3770 
Q 1056 3291 1056 2328 
Q 1056 1369 1301 889 
Q 1547 409 2034 409 
Q 2525 409 2770 889 
Q 3016 1369 3016 2328 
Q 3016 3291 2770 3770 
Q 2525 4250 2034 4250 
z
M 2034 4750 
Q 2819 4750 3233 4129 
Q 3647 3509 3647 2328 
Q 3647 1150 3233 529 
Q 2819 -91 2034 -91 
Q 1250 -91 836 529 
Q 422 1150 422 2328 
Q 422 3509 836 4129 
Q 1250 4750 2034 4750 
z
" transform="scale(0.015625)"/>
       </defs>
       <use xlink:href="#DejaVuSans-2212"/>
       <use xlink:href="#DejaVuSans-31" transform="translate(83.789062 0)"/>
       <use xlink:href="#DejaVuSans-30" transform="translate(147.412109 0)"/>
       <use xlink:href="#DejaVuSans-30" transform="translate(211.035156 0)"/>
      </g>
     </g>
    </g>
    <g id="xtick_2">
     <g id="line2d_3">
      <path d="M 83.739545 273.678192 
L 83.739545 7.566192 
" clip-path="url(#p74a13528e1)" style="fill: none; stroke: #b0b0b0; stroke-width: 0.8; stroke-linecap: square"/>
     </g>
     <g id="line2d_4">
      <g>
       <use xlink:href="#mc0e7d7c5d4" x="83.739545" y="273.678192" style="stroke: #000000; stroke-width: 0.8"/>
      </g>
     </g>
     <g id="text_2">
      <!-- −50 -->
      <g transform="translate(73.187202 288.276629) scale(0.1 -0.1)">
       <defs>
        <path id="DejaVuSans-35" d="M 691 4666 
L 3169 4666 
L 3169 4134 
L 1269 4134 
L 1269 2991 
Q 1406 3038 1543 3061 
Q 1681 3084 1819 3084 
Q 2600 3084 3056 2656 
Q 3513 2228 3513 1497 
Q 3513 744 3044 326 
Q 2575 -91 1722 -91 
Q 1428 -91 1123 -41 
Q 819 9 494 109 
L 494 744 
Q 775 591 1075 516 
Q 1375 441 1709 441 
Q 2250 441 2565 725 
Q 2881 1009 2881 1497 
Q 2881 1984 2565 2268 
Q 2250 2553 1709 2553 
Q 1456 2553 1204 2497 
Q 953 2441 691 2322 
L 691 4666 
z
" transform="scale(0.015625)"/>
       </defs>
       <use xlink:href="#DejaVuSans-2212"/>
       <use xlink:href="#DejaVuSans-35" transform="translate(83.789062 0)"/>
       <use xlink:href="#DejaVuSans-30" transform="translate(147.412109 0)"/>
      </g>
     </g>
    </g>
    <g id="xtick_3">
     <g id="line2d_5">
      <path d="M 124.321364 273.678192 
L 124.321364 7.566192 
" clip-path="url(#p74a13528e1)" style="fill: none; stroke: #b0b0b0; stroke-width: 0.8; stroke-linecap: square"/>
     </g>
     <g id="line2d_6">
      <g>
       <use xlink:href="#mc0e7d7c5d4" x="124.321364" y="273.678192" style="stroke: #000000; stroke-width: 0.8"/>
      </g>
     </g>
     <g id="text_3">
      <!-- 0 -->
      <g transform="translate(121.140114 288.276629) scale(0.1 -0.1)">
       <use xlink:href="#DejaVuSans-30"/>
      </g>
     </g>
    </g>
    <g id="xtick_4">
     <g id="line2d_7">
      <path d="M 164.903182 273.678192 
L 164.903182 7.566192 
" clip-path="url(#p74a13528e1)" style="fill: none; stroke: #b0b0b0; stroke-width: 0.8; stroke-linecap: square"/>
     </g>
     <g id="line2d_8">
      <g>
       <use xlink:href="#mc0e7d7c5d4" x="164.903182" y="273.678192" style="stroke: #000000; stroke-width: 0.8"/>
      </g>
     </g>
     <g id="text_4">
      <!-- 50 -->
      <g transform="translate(158.540682 288.276629) scale(0.1 -0.1)">
       <use xlink:href="#DejaVuSans-35"/>
       <use xlink:href="#DejaVuSans-30" transform="translate(63.623047 0)"/>
      </g>
     </g>
    </g>
    <g id="xtick_5">
     <g id="line2d_9">
      <path d="M 205.485 273.678192 
L 205.485 7.566192 
" clip-path="url(#p74a13528e1)" style="fill: none; stroke: #b0b0b0; stroke-width: 0.8; stroke-linecap: square"/>
     </g>
     <g id="line2d_10">
      <g>
       <use xlink:href="#mc0e7d7c5d4" x="205.485" y="273.678192" style="stroke: #000000; stroke-width: 0.8"/>
      </g>
     </g>
     <g id="text_5">
      <!-- 100 -->
      <g transform="translate(195.94125 288.276629) scale(0.1 -0.1)">
       <use xlink:href="#DejaVuSans-31"/>
       <use xlink:href="#DejaVuSans-30" transform="translate(63.623047 0)"/>
       <use xlink:href="#DejaVuSans-30" transform="translate(127.246094 0)"/>
      </g>
     </g>
    </g>
    <g id="xtick_6">
     <g id="line2d_11">
      <path d="M 246.066818 273.678192 
L 246.066818 7.566192 
" clip-path="url(#p74a13528e1)" style="fill: none; stroke: #b0b0b0; stroke-width: 0.8; stroke-linecap: square"/>
     </g>
     <g id="line2d_12">
      <g>
       <use xlink:href="#mc0e7d7c5d4" x="246.066818" y="273.678192" style="stroke: #000000; stroke-width: 0.8"/>
      </g>
     </g>
     <g id="text_6">
      <!-- 150 -->
      <g transform="translate(236.523068 288.276629) scale(0.1 -0.1)">
       <use xlink:href="#DejaVuSans-31"/>
       <use xlink:href="#DejaVuSans-35" transform="translate(63.623047 0)"/>
       <use xlink:href="#DejaVuSans-30" transform="translate(127.246094 0)"/>
      </g>
     </g>
    </g>
    <g id="xtick_7">
     <g id="line2d_13">
      <path d="M 286.648636 273.678192 
L 286.648636 7.566192 
" clip-path="url(#p74a13528e1)" style="fill: none; stroke: #b0b0b0; stroke-width: 0.8; stroke-linecap: square"/>
     </g>
     <g id="line2d_14">
      <g>
       <use xlink:href="#mc0e7d7c5d4" x="286.648636" y="273.678192" style="stroke: #000000; stroke-width: 0.8"/>
      </g>
     </g>
     <g id="text_7">
      <!-- 200 -->
      <g transform="translate(277.104886 288.276629) scale(0.1 -0.1)">
       <defs>
        <path id="DejaVuSans-32" d="M 1228 531 
L 3431 531 
L 3431 0 
L 469 0 
L 469 531 
Q 828 903 1448 1529 
Q 2069 2156 2228 2338 
Q 2531 2678 2651 2914 
Q 2772 3150 2772 3378 
Q 2772 3750 2511 3984 
Q 2250 4219 1831 4219 
Q 1534 4219 1204 4116 
Q 875 4013 500 3803 
L 500 4441 
Q 881 4594 1212 4672 
Q 1544 4750 1819 4750 
Q 2544 4750 2975 4387 
Q 3406 4025 3406 3419 
Q 3406 3131 3298 2873 
Q 3191 2616 2906 2266 
Q 2828 2175 2409 1742 
Q 1991 1309 1228 531 
z
" transform="scale(0.015625)"/>
       </defs>
       <use xlink:href="#DejaVuSans-32"/>
       <use xlink:href="#DejaVuSans-30" transform="translate(63.623047 0)"/>
       <use xlink:href="#DejaVuSans-30" transform="translate(127.246094 0)"/>
      </g>
     </g>
    </g>
    <g id="xtick_8">
     <g id="line2d_15">
      <path d="M 327.230455 273.678192 
L 327.230455 7.566192 
" clip-path="url(#p74a13528e1)" style="fill: none; stroke: #b0b0b0; stroke-width: 0.8; stroke-linecap: square"/>
     </g>
     <g id="line2d_16">
      <g>
       <use xlink:href="#mc0e7d7c5d4" x="327.230455" y="273.678192" style="stroke: #000000; stroke-width: 0.8"/>
      </g>
     </g>
     <g id="text_8">
      <!-- 250 -->
      <g transform="translate(317.686705 288.276629) scale(0.1 -0.1)">
       <use xlink:href="#DejaVuSans-32"/>
       <use xlink:href="#DejaVuSans-35" transform="translate(63.623047 0)"/>
       <use xlink:href="#DejaVuSans-30" transform="translate(127.246094 0)"/>
      </g>
     </g>
    </g>
    <g id="xtick_9">
     <g id="line2d_17">
      <path d="M 367.812273 273.678192 
L 367.812273 7.566192 
" clip-path="url(#p74a13528e1)" style="fill: none; stroke: #b0b0b0; stroke-width: 0.8; stroke-linecap: square"/>
     </g>
     <g id="line2d_18">
      <g>
       <use xlink:href="#mc0e7d7c5d4" x="367.812273" y="273.678192" style="stroke: #000000; stroke-width: 0.8"/>
      </g>
     </g>
     <g id="text_9">
      <!-- 300 -->
      <g transform="translate(358.268523 288.276629) scale(0.1 -0.1)">
       <defs>
        <path id="DejaVuSans-33" d="M 2597 2516 
Q 3050 2419 3304 2112 
Q 3559 1806 3559 1356 
Q 3559 666 3084 287 
Q 2609 -91 1734 -91 
Q 1441 -91 1130 -33 
Q 819 25 488 141 
L 488 750 
Q 750 597 1062 519 
Q 1375 441 1716 441 
Q 2309 441 2620 675 
Q 2931 909 2931 1356 
Q 2931 1769 2642 2001 
Q 2353 2234 1838 2234 
L 1294 2234 
L 1294 2753 
L 1863 2753 
Q 2328 2753 2575 2939 
Q 2822 3125 2822 3475 
Q 2822 3834 2567 4026 
Q 2313 4219 1838 4219 
Q 1578 4219 1281 4162 
Q 984 4106 628 3988 
L 628 4550 
Q 988 4650 1302 4700 
Q 1616 4750 1894 4750 
Q 2613 4750 3031 4423 
Q 3450 4097 3450 3541 
Q 3450 3153 3228 2886 
Q 3006 2619 2597 2516 
z
" transform="scale(0.015625)"/>
       </defs>
       <use xlink:href="#DejaVuSans-33"/>
       <use xlink:href="#DejaVuSans-30" transform="translate(63.623047 0)"/>
       <use xlink:href="#DejaVuSans-30" transform="translate(127.246094 0)"/>
      </g>
     </g>
    </g>
   </g>
   <g id="matplotlib.axis_2">
    <g id="ytick_1">
     <g id="line2d_19">
      <path d="M 26.925 261.582192 
L 384.045 261.582192 
" clip-path="url(#p74a13528e1)" style="fill: none; stroke: #b0b0b0; stroke-width: 0.8; stroke-linecap: square"/>
     </g>
     <g id="line2d_20">
      <defs>
       <path id="mcab34a8644" d="M 0 0 
L -3.5 0 
" style="stroke: #000000; stroke-width: 0.8"/>
      </defs>
      <g>
       <use xlink:href="#mcab34a8644" x="26.925" y="261.582192" style="stroke: #000000; stroke-width: 0.8"/>
      </g>
     </g>
     <g id="text_10">
      <!-- 0 -->
      <g transform="translate(13.5625 265.38141) scale(0.1 -0.1)">
       <use xlink:href="#DejaVuSans-30"/>
      </g>
     </g>
    </g>
    <g id="ytick_2">
     <g id="line2d_21">
      <path d="M 26.925 219.818363 
L 384.045 219.818363 
" clip-path="url(#p74a13528e1)" style="fill: none; stroke: #b0b0b0; stroke-width: 0.8; stroke-linecap: square"/>
     </g>
     <g id="line2d_22">
      <g>
       <use xlink:href="#mcab34a8644" x="26.925" y="219.818363" style="stroke: #000000; stroke-width: 0.8"/>
      </g>
     </g>
     <g id="text_11">
      <!-- 5 -->
      <g transform="translate(13.5625 223.617582) scale(0.1 -0.1)">
       <use xlink:href="#DejaVuSans-35"/>
      </g>
     </g>
    </g>
    <g id="ytick_3">
     <g id="line2d_23">
      <path d="M 26.925 178.054534 
L 384.045 178.054534 
" clip-path="url(#p74a13528e1)" style="fill: none; stroke: #b0b0b0; stroke-width: 0.8; stroke-linecap: square"/>
     </g>
     <g id="line2d_24">
      <g>
       <use xlink:href="#mcab34a8644" x="26.925" y="178.054534" style="stroke: #000000; stroke-width: 0.8"/>
      </g>
     </g>
     <g id="text_12">
      <!-- 10 -->
      <g transform="translate(7.2 181.853753) scale(0.1 -0.1)">
       <use xlink:href="#DejaVuSans-31"/>
       <use xlink:href="#DejaVuSans-30" transform="translate(63.623047 0)"/>
      </g>
     </g>
    </g>
    <g id="ytick_4">
     <g id="line2d_25">
      <path d="M 26.925 136.290705 
L 384.045 136.290705 
" clip-path="url(#p74a13528e1)" style="fill: none; stroke: #b0b0b0; stroke-width: 0.8; stroke-linecap: square"/>
     </g>
     <g id="line2d_26">
      <g>
       <use xlink:href="#mcab34a8644" x="26.925" y="136.290705" style="stroke: #000000; stroke-width: 0.8"/>
      </g>
     </g>
     <g id="text_13">
      <!-- 15 -->
      <g transform="translate(7.2 140.089924) scale(0.1 -0.1)">
       <use xlink:href="#DejaVuSans-31"/>
       <use xlink:href="#DejaVuSans-35" transform="translate(63.623047 0)"/>
      </g>
     </g>
    </g>
    <g id="ytick_5">
     <g id="line2d_27">
      <path d="M 26.925 94.526876 
L 384.045 94.526876 
" clip-path="url(#p74a13528e1)" style="fill: none; stroke: #b0b0b0; stroke-width: 0.8; stroke-linecap: square"/>
     </g>
     <g id="line2d_28">
      <g>
       <use xlink:href="#mcab34a8644" x="26.925" y="94.526876" style="stroke: #000000; stroke-width: 0.8"/>
      </g>
     </g>
     <g id="text_14">
      <!-- 20 -->
      <g transform="translate(7.2 98.326095) scale(0.1 -0.1)">
       <use xlink:href="#DejaVuSans-32"/>
       <use xlink:href="#DejaVuSans-30" transform="translate(63.623047 0)"/>
      </g>
     </g>
    </g>
    <g id="ytick_6">
     <g id="line2d_29">
      <path d="M 26.925 52.763048 
L 384.045 52.763048 
" clip-path="url(#p74a13528e1)" style="fill: none; stroke: #b0b0b0; stroke-width: 0.8; stroke-linecap: square"/>
     </g>
     <g id="line2d_30">
      <g>
       <use xlink:href="#mcab34a8644" x="26.925" y="52.763048" style="stroke: #000000; stroke-width: 0.8"/>
      </g>
     </g>
     <g id="text_15">
      <!-- 25 -->
      <g transform="translate(7.2 56.562266) scale(0.1 -0.1)">
       <use xlink:href="#DejaVuSans-32"/>
       <use xlink:href="#DejaVuSans-35" transform="translate(63.623047 0)"/>
      </g>
     </g>
    </g>
    <g id="ytick_7">
     <g id="line2d_31">
      <path d="M 26.925 10.999219 
L 384.045 10.999219 
" clip-path="url(#p74a13528e1)" style="fill: none; stroke: #b0b0b0; stroke-width: 0.8; stroke-linecap: square"/>
     </g>
     <g id="line2d_32">
      <g>
       <use xlink:href="#mcab34a8644" x="26.925" y="10.999219" style="stroke: #000000; stroke-width: 0.8"/>
      </g>
     </g>
     <g id="text_16">
      <!-- 30 -->
      <g transform="translate(7.2 14.798437) scale(0.1 -0.1)">
       <use xlink:href="#DejaVuSans-33"/>
       <use xlink:href="#DejaVuSans-30" transform="translate(63.623047 0)"/>
      </g>
     </g>
    </g>
   </g>
   <g id="line2d_33">
    <path d="M 43.157727 261.58216 
L 77.086788 261.474779 
L 77.086788 261.445846 
L 81.078443 261.366886 
L 81.078443 261.314346 
L 83.739545 261.251215 
L 83.739545 261.175942 
L 86.400648 261.08689 
L 86.400648 260.982361 
L 87.7312 260.982361 
L 87.7312 260.860636 
L 89.061751 260.860636 
L 89.061751 260.720021 
L 90.392303 260.720021 
L 90.392303 260.558902 
L 91.722854 260.558902 
L 91.722854 260.375806 
L 93.053405 260.375806 
L 93.053405 260.169472 
L 94.383957 260.169472 
L 94.383957 259.938926 
L 95.714508 259.938926 
L 95.714508 259.683555 
L 97.04506 259.683555 
L 97.04506 259.403188 
L 98.375611 259.403188 
L 98.375611 259.098165 
L 99.706162 259.098165 
L 99.706162 258.769405 
L 101.036714 258.769405 
L 101.036714 258.418462 
L 102.367265 258.418462 
L 102.367265 258.047561 
L 103.697817 258.047561 
L 103.697817 257.65962 
L 105.028368 257.65962 
L 105.028368 257.258249 
L 106.35892 257.258249 
L 106.35892 256.847725 
L 107.689471 256.847725 
L 107.689471 256.432938 
L 109.020022 256.432938 
L 109.020022 256.019312 
L 110.350574 256.019312 
L 110.350574 255.612702 
L 111.681125 255.612702 
L 111.681125 255.219265 
L 113.011677 255.219265 
L 113.011677 254.845313 
L 114.342228 254.845313 
L 114.342228 254.497145 
L 115.672779 254.497145 
L 115.672779 254.180878 
L 117.003331 254.180878 
L 117.003331 253.902266 
L 118.333882 253.902266 
L 118.333882 253.666527 
L 119.664434 253.666527 
L 119.664434 253.478182 
L 120.994985 253.478182 
L 120.994985 253.340913 
L 123.656088 253.257438 
L 123.656088 253.229426 
L 126.317191 253.257438 
L 126.317191 253.340913 
L 127.647742 253.340913 
L 127.647742 253.478182 
L 128.978294 253.478182 
L 128.978294 253.666527 
L 130.308845 253.666527 
L 130.308845 253.902266 
L 131.639396 253.902266 
L 131.639396 254.180878 
L 132.969948 254.180878 
L 132.969948 254.497145 
L 134.300499 254.497145 
L 134.300499 254.845313 
L 135.631051 254.845313 
L 135.631051 255.219265 
L 136.961602 255.219265 
L 136.961602 255.612702 
L 138.292154 255.612702 
L 138.292154 256.019312 
L 139.622705 256.019312 
L 139.622705 256.432938 
L 140.953256 256.432938 
L 140.953256 256.847725 
L 142.283808 256.847725 
L 142.283808 257.258249 
L 143.614359 257.258249 
L 143.614359 257.65962 
L 144.944911 257.65962 
L 144.944911 258.047561 
L 146.275462 258.047561 
L 146.275462 258.418462 
L 147.606013 258.418462 
L 147.606013 258.769405 
L 148.936565 258.769405 
L 148.936565 259.098165 
L 150.267116 259.098165 
L 150.267116 259.403188 
L 151.597668 259.403188 
L 151.597668 259.683555 
L 152.928219 259.683555 
L 152.928219 259.938926 
L 154.25877 259.938926 
L 154.25877 260.169472 
L 155.589322 260.169472 
L 155.589322 260.375806 
L 156.919873 260.375806 
L 156.919873 260.558902 
L 158.250425 260.558902 
L 158.250425 260.720021 
L 159.580976 260.720021 
L 159.580976 260.860636 
L 160.911528 260.860636 
L 160.911528 260.982361 
L 163.57263 261.08689 
L 163.57263 261.175942 
L 166.233733 261.251215 
L 166.233733 261.314346 
L 170.225387 261.41028 
L 170.225387 261.445846 
L 179.539247 261.552722 
L 179.539247 261.559893 
L 367.812273 261.582192 
L 367.812273 261.582192 
" clip-path="url(#p74a13528e1)" style="fill: none; stroke: #1f77b4; stroke-width: 1.5; stroke-linecap: square"/>
   </g>
   <g id="line2d_34">
    <path d="M 43.157727 261.582192 
L 183.530902 261.487559 
L 183.530902 261.461649 
L 187.522556 261.390506 
L 187.522556 261.342894 
L 190.183659 261.285457 
L 190.183659 261.216698 
L 192.844762 261.13502 
L 192.844762 261.038753 
L 194.175313 261.038753 
L 194.175313 260.926184 
L 195.505864 260.926184 
L 195.505864 260.7956 
L 196.836416 260.7956 
L 196.836416 260.645338 
L 198.166967 260.645338 
L 198.166967 260.473842 
L 199.497519 260.473842 
L 199.497519 260.279733 
L 200.82807 260.279733 
L 200.82807 260.061879 
L 202.158621 260.061879 
L 202.158621 259.819468 
L 203.489173 259.819468 
L 203.489173 259.55209 
L 204.819724 259.55209 
L 204.819724 259.259811 
L 206.150276 259.259811 
L 206.150276 258.943242 
L 207.480827 258.943242 
L 207.480827 258.6036 
L 208.811379 258.6036 
L 208.811379 258.242757 
L 210.14193 258.242757 
L 210.14193 257.863269 
L 211.472481 257.863269 
L 211.472481 257.46839 
L 212.803033 257.46839 
L 212.803033 257.062053 
L 214.133584 257.062053 
L 214.133584 256.648837 
L 215.464136 256.648837 
L 215.464136 256.233901 
L 216.794687 256.233901 
L 216.794687 255.822889 
L 218.125238 255.822889 
L 218.125238 255.421821 
L 219.45579 255.421821 
L 219.45579 255.036946 
L 220.786341 255.036946 
L 220.786341 254.674591 
L 222.116893 254.674591 
L 222.116893 254.340991 
L 223.447444 254.340991 
L 223.447444 254.042109 
L 224.777996 254.042109 
L 224.777996 253.783464 
L 226.108547 253.783464 
L 226.108547 253.569959 
L 227.439098 253.569959 
L 227.439098 253.405728 
L 228.76965 253.405728 
L 228.76965 253.294004 
L 235.422407 253.400233 
L 235.422407 253.562419 
L 236.752958 253.562419 
L 236.752958 253.774027 
L 238.08351 253.774027 
L 238.08351 254.030956 
L 239.414061 254.030956 
L 239.414061 254.328331 
L 240.744613 254.328331 
L 240.744613 254.660655 
L 242.075164 254.660655 
L 242.075164 255.021978 
L 243.405715 255.021978 
L 243.405715 255.406073 
L 244.736267 255.406073 
L 244.736267 255.806615 
L 246.066818 255.806615 
L 246.066818 256.217346 
L 247.39737 256.217346 
L 247.39737 256.632236 
L 248.727921 256.632236 
L 248.727921 257.045624 
L 250.058472 257.045624 
L 250.058472 257.452328 
L 251.389024 257.452328 
L 251.389024 257.847746 
L 252.719575 257.847746 
L 252.719575 258.227916 
L 254.050127 258.227916 
L 254.050127 258.589559 
L 255.380678 258.589559 
L 255.380678 258.930089 
L 256.71123 258.930089 
L 256.71123 259.247609 
L 258.041781 259.247609 
L 258.041781 259.540875 
L 259.372332 259.540875 
L 259.372332 259.809253 
L 260.702884 259.809253 
L 260.702884 260.052658 
L 262.033435 260.052658 
L 262.033435 260.271482 
L 263.363987 260.271482 
L 263.363987 260.46652 
L 264.694538 260.46652 
L 264.694538 260.638895 
L 266.025089 260.638895 
L 266.025089 260.789978 
L 267.355641 260.789978 
L 267.355641 260.921318 
L 268.686192 260.921318 
L 268.686192 261.034575 
L 271.347295 261.131461 
L 271.347295 261.21369 
L 274.008398 261.282935 
L 274.008398 261.340795 
L 278.000052 261.428252 
L 278.000052 261.460493 
L 291.305566 261.571343 
L 291.305566 261.574172 
L 367.812273 261.582192 
L 367.812273 261.582192 
" clip-path="url(#p74a13528e1)" style="fill: none; stroke: #ff7f0e; stroke-width: 1.5; stroke-linecap: square"/>
   </g>
   <g id="line2d_35">
    <path d="M 43.157727 261.58216 
L 74.425686 261.582192 
L 74.425686 261.419032 
L 75.756237 261.419032 
L 75.756237 261.581843 
L 166.233733 261.582189 
L 166.233733 19.662192 
L 167.564285 19.662192 
L 167.564285 261.065701 
L 168.894836 261.065701 
L 168.894836 261.582176 
L 170.225387 261.582176 
L 170.225387 261.088072 
L 171.555939 261.088072 
L 171.555939 261.582175 
L 172.88649 261.582175 
L 172.88649 261.109317 
L 174.217042 261.109317 
L 174.217042 261.582178 
L 175.547593 261.582178 
L 175.547593 250.318396 
L 176.878145 250.318396 
L 176.878145 261.558193 
L 190.183659 261.582191 
L 190.183659 261.32763 
L 191.51421 261.32763 
L 191.51421 261.58165 
L 367.812273 261.582192 
L 367.812273 261.582192 
" clip-path="url(#p74a13528e1)" style="fill: none; stroke: #2ca02c; stroke-width: 1.5; stroke-linecap: square"/>
   </g>
   <g id="patch_3">
    <path d="M 26.925 273.678192 
L 26.925 7.566192 
" style="fill: none; stroke: #000000; stroke-width: 0.8; stroke-linejoin: miter; stroke-linecap: square"/>
   </g>
   <g id="patch_4">
    <path d="M 384.045 273.678192 
L 384.045 7.566192 
" style="fill: none; stroke: #000000; stroke-width: 0.8; stroke-linejoin: miter; stroke-linecap: square"/>
   </g>
   <g id="patch_5">
    <path d="M 26.925 273.678192 
L 384.045 273.678192 
" style="fill: none; stroke: #000000; stroke-width: 0.8; stroke-linejoin: miter; stroke-linecap: square"/>
   </g>
   <g id="patch_6">
    <path d="M 26.925 7.566192 
L 384.045 7.566192 
" style="fill: none; stroke: #000000; stroke-width: 0.8; stroke-linejoin: miter; stroke-linecap: square"/>
   </g>
   <g id="legend_1">
    <g id="patch_7">
     <path d="M 305.5575 59.600567 
L 377.045 59.600567 
Q 379.045 59.600567 379.045 57.600567 
L 379.045 14.566192 
Q 379.045 12.566192 377.045 12.566192 
L 305.5575 12.566192 
Q 303.5575 12.566192 303.5575 14.566192 
L 303.5575 57.600567 
Q 303.5575 59.600567 305.5575 59.600567 
z
" style="fill: #ffffff; opacity: 0.8; stroke: #cccccc; stroke-linejoin: miter"/>
    </g>
    <g id="line2d_36">
     <path d="M 307.5575 20.664629 
L 312.5575 20.664629 
L 312.5575 20.664629 
L 322.5575 20.664629 
L 322.5575 20.664629 
L 327.5575 20.664629 
" style="fill: none; stroke: #1f77b4; stroke-width: 1.5; stroke-linecap: square"/>
    </g>
    <g id="text_17">
     <!-- initial -->
     <g transform="translate(335.5575 24.164629) scale(0.1 -0.1)">
      <defs>
       <path id="DejaVuSans-69" d="M 603 3500 
L 1178 3500 
L 1178 0 
L 603 0 
L 603 3500 
z
M 603 4863 
L 1178 4863 
L 1178 4134 
L 603 4134 
L 603 4863 
z
" transform="scale(0.015625)"/>
       <path id="DejaVuSans-6e" d="M 3513 2113 
L 3513 0 
L 2938 0 
L 2938 2094 
Q 2938 2591 2744 2837 
Q 2550 3084 2163 3084 
Q 1697 3084 1428 2787 
Q 1159 2491 1159 1978 
L 1159 0 
L 581 0 
L 581 3500 
L 1159 3500 
L 1159 2956 
Q 1366 3272 1645 3428 
Q 1925 3584 2291 3584 
Q 2894 3584 3203 3211 
Q 3513 2838 3513 2113 
z
" transform="scale(0.015625)"/>
       <path id="DejaVuSans-74" d="M 1172 4494 
L 1172 3500 
L 2356 3500 
L 2356 3053 
L 1172 3053 
L 1172 1153 
Q 1172 725 1289 603 
Q 1406 481 1766 481 
L 2356 481 
L 2356 0 
L 1766 0 
Q 1100 0 847 248 
Q 594 497 594 1153 
L 594 3053 
L 172 3053 
L 172 3500 
L 594 3500 
L 594 4494 
L 1172 4494 
z
" transform="scale(0.015625)"/>
       <path id="DejaVuSans-61" d="M 2194 1759 
Q 1497 1759 1228 1600 
Q 959 1441 959 1056 
Q 959 750 1161 570 
Q 1363 391 1709 391 
Q 2188 391 2477 730 
Q 2766 1069 2766 1631 
L 2766 1759 
L 2194 1759 
z
M 3341 1997 
L 3341 0 
L 2766 0 
L 2766 531 
Q 2569 213 2275 61 
Q 1981 -91 1556 -91 
Q 1019 -91 701 211 
Q 384 513 384 1019 
Q 384 1609 779 1909 
Q 1175 2209 1959 2209 
L 2766 2209 
L 2766 2266 
Q 2766 2663 2505 2880 
Q 2244 3097 1772 3097 
Q 1472 3097 1187 3025 
Q 903 2953 641 2809 
L 641 3341 
Q 956 3463 1253 3523 
Q 1550 3584 1831 3584 
Q 2591 3584 2966 3190 
Q 3341 2797 3341 1997 
z
" transform="scale(0.015625)"/>
       <path id="DejaVuSans-6c" d="M 603 4863 
L 1178 4863 
L 1178 0 
L 603 0 
L 603 4863 
z
" transform="scale(0.015625)"/>
      </defs>
      <use xlink:href="#DejaVuSans-69"/>
      <use xlink:href="#DejaVuSans-6e" transform="translate(27.783203 0)"/>
      <use xlink:href="#DejaVuSans-69" transform="translate(91.162109 0)"/>
      <use xlink:href="#DejaVuSans-74" transform="translate(118.945312 0)"/>
      <use xlink:href="#DejaVuSans-69" transform="translate(158.154297 0)"/>
      <use xlink:href="#DejaVuSans-61" transform="translate(185.9375 0)"/>
      <use xlink:href="#DejaVuSans-6c" transform="translate(247.216797 0)"/>
     </g>
    </g>
    <g id="line2d_37">
     <path d="M 307.5575 35.342754 
L 312.5575 35.342754 
L 312.5575 35.342754 
L 322.5575 35.342754 
L 322.5575 35.342754 
L 327.5575 35.342754 
" style="fill: none; stroke: #ff7f0e; stroke-width: 1.5; stroke-linecap: square"/>
    </g>
    <g id="text_18">
     <!-- analytic -->
     <g transform="translate(335.5575 38.842754) scale(0.1 -0.1)">
      <defs>
       <path id="DejaVuSans-79" d="M 2059 -325 
Q 1816 -950 1584 -1140 
Q 1353 -1331 966 -1331 
L 506 -1331 
L 506 -850 
L 844 -850 
Q 1081 -850 1212 -737 
Q 1344 -625 1503 -206 
L 1606 56 
L 191 3500 
L 800 3500 
L 1894 763 
L 2988 3500 
L 3597 3500 
L 2059 -325 
z
" transform="scale(0.015625)"/>
       <path id="DejaVuSans-63" d="M 3122 3366 
L 3122 2828 
Q 2878 2963 2633 3030 
Q 2388 3097 2138 3097 
Q 1578 3097 1268 2742 
Q 959 2388 959 1747 
Q 959 1106 1268 751 
Q 1578 397 2138 397 
Q 2388 397 2633 464 
Q 2878 531 3122 666 
L 3122 134 
Q 2881 22 2623 -34 
Q 2366 -91 2075 -91 
Q 1284 -91 818 406 
Q 353 903 353 1747 
Q 353 2603 823 3093 
Q 1294 3584 2113 3584 
Q 2378 3584 2631 3529 
Q 2884 3475 3122 3366 
z
" transform="scale(0.015625)"/>
      </defs>
      <use xlink:href="#DejaVuSans-61"/>
      <use xlink:href="#DejaVuSans-6e" transform="translate(61.279297 0)"/>
      <use xlink:href="#DejaVuSans-61" transform="translate(124.658203 0)"/>
      <use xlink:href="#DejaVuSans-6c" transform="translate(185.9375 0)"/>
      <use xlink:href="#DejaVuSans-79" transform="translate(213.720703 0)"/>
      <use xlink:href="#DejaVuSans-74" transform="translate(272.900391 0)"/>
      <use xlink:href="#DejaVuSans-69" transform="translate(312.109375 0)"/>
      <use xlink:href="#DejaVuSans-63" transform="translate(339.892578 0)"/>
     </g>
    </g>
    <g id="line2d_38">
     <path d="M 307.5575 50.020879 
L 312.5575 50.020879 
L 312.5575 50.020879 
L 322.5575 50.020879 
L 322.5575 50.020879 
L 327.5575 50.020879 
" style="fill: none; stroke: #2ca02c; stroke-width: 1.5; stroke-linecap: square"/>
    </g>
    <g id="text_19">
     <!-- numerc -->
     <g transform="translate(335.5575 53.520879) scale(0.1 -0.1)">
      <defs>
       <path id="DejaVuSans-75" d="M 544 1381 
L 544 3500 
L 1119 3500 
L 1119 1403 
Q 1119 906 1312 657 
Q 1506 409 1894 409 
Q 2359 409 2629 706 
Q 2900 1003 2900 1516 
L 2900 3500 
L 3475 3500 
L 3475 0 
L 2900 0 
L 2900 538 
Q 2691 219 2414 64 
Q 2138 -91 1772 -91 
Q 1169 -91 856 284 
Q 544 659 544 1381 
z
M 1991 3584 
L 1991 3584 
z
" transform="scale(0.015625)"/>
       <path id="DejaVuSans-6d" d="M 3328 2828 
Q 3544 3216 3844 3400 
Q 4144 3584 4550 3584 
Q 5097 3584 5394 3201 
Q 5691 2819 5691 2113 
L 5691 0 
L 5113 0 
L 5113 2094 
Q 5113 2597 4934 2840 
Q 4756 3084 4391 3084 
Q 3944 3084 3684 2787 
Q 3425 2491 3425 1978 
L 3425 0 
L 2847 0 
L 2847 2094 
Q 2847 2600 2669 2842 
Q 2491 3084 2119 3084 
Q 1678 3084 1418 2786 
Q 1159 2488 1159 1978 
L 1159 0 
L 581 0 
L 581 3500 
L 1159 3500 
L 1159 2956 
Q 1356 3278 1631 3431 
Q 1906 3584 2284 3584 
Q 2666 3584 2933 3390 
Q 3200 3197 3328 2828 
z
" transform="scale(0.015625)"/>
       <path id="DejaVuSans-65" d="M 3597 1894 
L 3597 1613 
L 953 1613 
Q 991 1019 1311 708 
Q 1631 397 2203 397 
Q 2534 397 2845 478 
Q 3156 559 3463 722 
L 3463 178 
Q 3153 47 2828 -22 
Q 2503 -91 2169 -91 
Q 1331 -91 842 396 
Q 353 884 353 1716 
Q 353 2575 817 3079 
Q 1281 3584 2069 3584 
Q 2775 3584 3186 3129 
Q 3597 2675 3597 1894 
z
M 3022 2063 
Q 3016 2534 2758 2815 
Q 2500 3097 2075 3097 
Q 1594 3097 1305 2825 
Q 1016 2553 972 2059 
L 3022 2063 
z
" transform="scale(0.015625)"/>
       <path id="DejaVuSans-72" d="M 2631 2963 
Q 2534 3019 2420 3045 
Q 2306 3072 2169 3072 
Q 1681 3072 1420 2755 
Q 1159 2438 1159 1844 
L 1159 0 
L 581 0 
L 581 3500 
L 1159 3500 
L 1159 2956 
Q 1341 3275 1631 3429 
Q 1922 3584 2338 3584 
Q 2397 3584 2469 3576 
Q 2541 3569 2628 3553 
L 2631 2963 
z
" transform="scale(0.015625)"/>
      </defs>
      <use xlink:href="#DejaVuSans-6e"/>
      <use xlink:href="#DejaVuSans-75" transform="translate(63.378906 0)"/>
      <use xlink:href="#DejaVuSans-6d" transform="translate(126.757812 0)"/>
      <use xlink:href="#DejaVuSans-65" transform="translate(224.169922 0)"/>
      <use xlink:href="#DejaVuSans-72" transform="translate(285.693359 0)"/>
      <use xlink:href="#DejaVuSans-63" transform="translate(324.556641 0)"/>
     </g>
    </g>
   </g>
  </g>
 </g>
 <defs>
  <clipPath id="p74a13528e1">
   <rect x="26.925" y="7.566192" width="357.12" height="266.112"/>
  </clipPath>
 </defs>
</svg>
