<?xml version="1.0" encoding="utf-8" standalone="no"?>
<!DOCTYPE svg PUBLIC "-//W3C//DTD SVG 1.1//EN"
  "http://www.w3.org/Graphics/SVG/1.1/DTD/svg11.dtd">
<svg xmlns:xlink="http://www.w3.org/1999/xlink" width="394.423125pt" height="297.190125pt" viewBox="0 0 394.423125 297.190125" xmlns="http://www.w3.org/2000/svg" version="1.1">
 <metadata>
  <rdf:RDF xmlns:dc="http://purl.org/dc/elements/1.1/" xmlns:cc="http://creativecommons.org/ns#" xmlns:rdf="http://www.w3.org/1999/02/22-rdf-syntax-ns#">
   <cc:Work>
    <dc:type rdf:resource="http://purl.org/dc/dcmitype/StillImage"/>
    <dc:date>2025-04-02T20:16:33.880522</dc:date>
    <dc:format>image/svg+xml</dc:format>
    <dc:creator>
     <cc:Agent>
      <dc:title>Matplotlib v3.10.1, https://matplotlib.org/</dc:title>
     </cc:Agent>
    </dc:creator>
   </cc:Work>
  </rdf:RDF>
 </metadata>
 <defs>
  <style type="text/css">*{stroke-linejoin: round; stroke-linecap: butt}</style>
 </defs>
 <g id="figure_1">
  <g id="patch_1">
   <path d="M 0 297.190125 
L 394.423125 297.190125 
L 394.423125 0 
L 0 0 
z
" style="fill: #ffffff"/>
  </g>
  <g id="axes_1">
   <g id="patch_2">
    <path d="M 30.103125 273.312 
L 387.223125 273.312 
L 387.223125 7.2 
L 30.103125 7.2 
z
" style="fill: #ffffff"/>
   </g>
   <g id="matplotlib.axis_1">
    <g id="xtick_1">
     <g id="line2d_1">
      <path d="M 46.335852 273.312 
L 46.335852 7.2 
" clip-path="url(#p61b89976f2)" style="fill: none; stroke: #b0b0b0; stroke-width: 0.8; stroke-linecap: square"/>
     </g>
     <g id="line2d_2">
      <defs>
       <path id="m7814049d32" d="M 0 0 
L 0 3.5 
" style="stroke: #000000; stroke-width: 0.8"/>
      </defs>
      <g>
       <use xlink:href="#m7814049d32" x="46.335852" y="273.312" style="stroke: #000000; stroke-width: 0.8"/>
      </g>
     </g>
     <g id="text_1">
      <!-- −100 -->
      <g transform="translate(32.602259 287.910437) scale(0.1 -0.1)">
       <defs>
        <path id="DejaVuSans-2212" d="M 678 2272 
L 4684 2272 
L 4684 1741 
L 678 1741 
L 678 2272 
z
" transform="scale(0.015625)"/>
        <path id="DejaVuSans-31" d="M 794 531 
L 1825 531 
L 1825 4091 
L 703 3866 
L 703 4441 
L 1819 4666 
L 2450 4666 
L 2450 531 
L 3481 531 
L 3481 0 
L 794 0 
L 794 531 
z
" transform="scale(0.015625)"/>
        <path id="DejaVuSans-30" d="M 2034 4250 
Q 1547 4250 1301 3770 
Q 1056 3291 1056 2328 
Q 1056 1369 1301 889 
Q 1547 409 2034 409 
Q 2525 409 2770 889 
Q 3016 1369 3016 2328 
Q 3016 3291 2770 3770 
Q 2525 4250 2034 4250 
z
M 2034 4750 
Q 2819 4750 3233 4129 
Q 3647 3509 3647 2328 
Q 3647 1150 3233 529 
Q 2819 -91 2034 -91 
Q 1250 -91 836 529 
Q 422 1150 422 2328 
Q 422 3509 836 4129 
Q 1250 4750 2034 4750 
z
" transform="scale(0.015625)"/>
       </defs>
       <use xlink:href="#DejaVuSans-2212"/>
       <use xlink:href="#DejaVuSans-31" transform="translate(83.789062 0)"/>
       <use xlink:href="#DejaVuSans-30" transform="translate(147.412109 0)"/>
       <use xlink:href="#DejaVuSans-30" transform="translate(211.035156 0)"/>
      </g>
     </g>
    </g>
    <g id="xtick_2">
     <g id="line2d_3">
      <path d="M 86.91767 273.312 
L 86.91767 7.2 
" clip-path="url(#p61b89976f2)" style="fill: none; stroke: #b0b0b0; stroke-width: 0.8; stroke-linecap: square"/>
     </g>
     <g id="line2d_4">
      <g>
       <use xlink:href="#m7814049d32" x="86.91767" y="273.312" style="stroke: #000000; stroke-width: 0.8"/>
      </g>
     </g>
     <g id="text_2">
      <!-- −50 -->
      <g transform="translate(76.365327 287.910437) scale(0.1 -0.1)">
       <defs>
        <path id="DejaVuSans-35" d="M 691 4666 
L 3169 4666 
L 3169 4134 
L 1269 4134 
L 1269 2991 
Q 1406 3038 1543 3061 
Q 1681 3084 1819 3084 
Q 2600 3084 3056 2656 
Q 3513 2228 3513 1497 
Q 3513 744 3044 326 
Q 2575 -91 1722 -91 
Q 1428 -91 1123 -41 
Q 819 9 494 109 
L 494 744 
Q 775 591 1075 516 
Q 1375 441 1709 441 
Q 2250 441 2565 725 
Q 2881 1009 2881 1497 
Q 2881 1984 2565 2268 
Q 2250 2553 1709 2553 
Q 1456 2553 1204 2497 
Q 953 2441 691 2322 
L 691 4666 
z
" transform="scale(0.015625)"/>
       </defs>
       <use xlink:href="#DejaVuSans-2212"/>
       <use xlink:href="#DejaVuSans-35" transform="translate(83.789062 0)"/>
       <use xlink:href="#DejaVuSans-30" transform="translate(147.412109 0)"/>
      </g>
     </g>
    </g>
    <g id="xtick_3">
     <g id="line2d_5">
      <path d="M 127.499489 273.312 
L 127.499489 7.2 
" clip-path="url(#p61b89976f2)" style="fill: none; stroke: #b0b0b0; stroke-width: 0.8; stroke-linecap: square"/>
     </g>
     <g id="line2d_6">
      <g>
       <use xlink:href="#m7814049d32" x="127.499489" y="273.312" style="stroke: #000000; stroke-width: 0.8"/>
      </g>
     </g>
     <g id="text_3">
      <!-- 0 -->
      <g transform="translate(124.318239 287.910437) scale(0.1 -0.1)">
       <use xlink:href="#DejaVuSans-30"/>
      </g>
     </g>
    </g>
    <g id="xtick_4">
     <g id="line2d_7">
      <path d="M 168.081307 273.312 
L 168.081307 7.2 
" clip-path="url(#p61b89976f2)" style="fill: none; stroke: #b0b0b0; stroke-width: 0.8; stroke-linecap: square"/>
     </g>
     <g id="line2d_8">
      <g>
       <use xlink:href="#m7814049d32" x="168.081307" y="273.312" style="stroke: #000000; stroke-width: 0.8"/>
      </g>
     </g>
     <g id="text_4">
      <!-- 50 -->
      <g transform="translate(161.718807 287.910437) scale(0.1 -0.1)">
       <use xlink:href="#DejaVuSans-35"/>
       <use xlink:href="#DejaVuSans-30" transform="translate(63.623047 0)"/>
      </g>
     </g>
    </g>
    <g id="xtick_5">
     <g id="line2d_9">
      <path d="M 208.663125 273.312 
L 208.663125 7.2 
" clip-path="url(#p61b89976f2)" style="fill: none; stroke: #b0b0b0; stroke-width: 0.8; stroke-linecap: square"/>
     </g>
     <g id="line2d_10">
      <g>
       <use xlink:href="#m7814049d32" x="208.663125" y="273.312" style="stroke: #000000; stroke-width: 0.8"/>
      </g>
     </g>
     <g id="text_5">
      <!-- 100 -->
      <g transform="translate(199.119375 287.910437) scale(0.1 -0.1)">
       <use xlink:href="#DejaVuSans-31"/>
       <use xlink:href="#DejaVuSans-30" transform="translate(63.623047 0)"/>
       <use xlink:href="#DejaVuSans-30" transform="translate(127.246094 0)"/>
      </g>
     </g>
    </g>
    <g id="xtick_6">
     <g id="line2d_11">
      <path d="M 249.244943 273.312 
L 249.244943 7.2 
" clip-path="url(#p61b89976f2)" style="fill: none; stroke: #b0b0b0; stroke-width: 0.8; stroke-linecap: square"/>
     </g>
     <g id="line2d_12">
      <g>
       <use xlink:href="#m7814049d32" x="249.244943" y="273.312" style="stroke: #000000; stroke-width: 0.8"/>
      </g>
     </g>
     <g id="text_6">
      <!-- 150 -->
      <g transform="translate(239.701193 287.910437) scale(0.1 -0.1)">
       <use xlink:href="#DejaVuSans-31"/>
       <use xlink:href="#DejaVuSans-35" transform="translate(63.623047 0)"/>
       <use xlink:href="#DejaVuSans-30" transform="translate(127.246094 0)"/>
      </g>
     </g>
    </g>
    <g id="xtick_7">
     <g id="line2d_13">
      <path d="M 289.826761 273.312 
L 289.826761 7.2 
" clip-path="url(#p61b89976f2)" style="fill: none; stroke: #b0b0b0; stroke-width: 0.8; stroke-linecap: square"/>
     </g>
     <g id="line2d_14">
      <g>
       <use xlink:href="#m7814049d32" x="289.826761" y="273.312" style="stroke: #000000; stroke-width: 0.8"/>
      </g>
     </g>
     <g id="text_7">
      <!-- 200 -->
      <g transform="translate(280.283011 287.910437) scale(0.1 -0.1)">
       <defs>
        <path id="DejaVuSans-32" d="M 1228 531 
L 3431 531 
L 3431 0 
L 469 0 
L 469 531 
Q 828 903 1448 1529 
Q 2069 2156 2228 2338 
Q 2531 2678 2651 2914 
Q 2772 3150 2772 3378 
Q 2772 3750 2511 3984 
Q 2250 4219 1831 4219 
Q 1534 4219 1204 4116 
Q 875 4013 500 3803 
L 500 4441 
Q 881 4594 1212 4672 
Q 1544 4750 1819 4750 
Q 2544 4750 2975 4387 
Q 3406 4025 3406 3419 
Q 3406 3131 3298 2873 
Q 3191 2616 2906 2266 
Q 2828 2175 2409 1742 
Q 1991 1309 1228 531 
z
" transform="scale(0.015625)"/>
       </defs>
       <use xlink:href="#DejaVuSans-32"/>
       <use xlink:href="#DejaVuSans-30" transform="translate(63.623047 0)"/>
       <use xlink:href="#DejaVuSans-30" transform="translate(127.246094 0)"/>
      </g>
     </g>
    </g>
    <g id="xtick_8">
     <g id="line2d_15">
      <path d="M 330.40858 273.312 
L 330.40858 7.2 
" clip-path="url(#p61b89976f2)" style="fill: none; stroke: #b0b0b0; stroke-width: 0.8; stroke-linecap: square"/>
     </g>
     <g id="line2d_16">
      <g>
       <use xlink:href="#m7814049d32" x="330.40858" y="273.312" style="stroke: #000000; stroke-width: 0.8"/>
      </g>
     </g>
     <g id="text_8">
      <!-- 250 -->
      <g transform="translate(320.86483 287.910437) scale(0.1 -0.1)">
       <use xlink:href="#DejaVuSans-32"/>
       <use xlink:href="#DejaVuSans-35" transform="translate(63.623047 0)"/>
       <use xlink:href="#DejaVuSans-30" transform="translate(127.246094 0)"/>
      </g>
     </g>
    </g>
    <g id="xtick_9">
     <g id="line2d_17">
      <path d="M 370.990398 273.312 
L 370.990398 7.2 
" clip-path="url(#p61b89976f2)" style="fill: none; stroke: #b0b0b0; stroke-width: 0.8; stroke-linecap: square"/>
     </g>
     <g id="line2d_18">
      <g>
       <use xlink:href="#m7814049d32" x="370.990398" y="273.312" style="stroke: #000000; stroke-width: 0.8"/>
      </g>
     </g>
     <g id="text_9">
      <!-- 300 -->
      <g transform="translate(361.446648 287.910437) scale(0.1 -0.1)">
       <defs>
        <path id="DejaVuSans-33" d="M 2597 2516 
Q 3050 2419 3304 2112 
Q 3559 1806 3559 1356 
Q 3559 666 3084 287 
Q 2609 -91 1734 -91 
Q 1441 -91 1130 -33 
Q 819 25 488 141 
L 488 750 
Q 750 597 1062 519 
Q 1375 441 1716 441 
Q 2309 441 2620 675 
Q 2931 909 2931 1356 
Q 2931 1769 2642 2001 
Q 2353 2234 1838 2234 
L 1294 2234 
L 1294 2753 
L 1863 2753 
Q 2328 2753 2575 2939 
Q 2822 3125 2822 3475 
Q 2822 3834 2567 4026 
Q 2313 4219 1838 4219 
Q 1578 4219 1281 4162 
Q 984 4106 628 3988 
L 628 4550 
Q 988 4650 1302 4700 
Q 1616 4750 1894 4750 
Q 2613 4750 3031 4423 
Q 3450 4097 3450 3541 
Q 3450 3153 3228 2886 
Q 3006 2619 2597 2516 
z
" transform="scale(0.015625)"/>
       </defs>
       <use xlink:href="#DejaVuSans-33"/>
       <use xlink:href="#DejaVuSans-30" transform="translate(63.623047 0)"/>
       <use xlink:href="#DejaVuSans-30" transform="translate(127.246094 0)"/>
      </g>
     </g>
    </g>
   </g>
   <g id="matplotlib.axis_2">
    <g id="ytick_1">
     <g id="line2d_19">
      <path d="M 30.103125 261.216 
L 387.223125 261.216 
" clip-path="url(#p61b89976f2)" style="fill: none; stroke: #b0b0b0; stroke-width: 0.8; stroke-linecap: square"/>
     </g>
     <g id="line2d_20">
      <defs>
       <path id="mc6a952f220" d="M 0 0 
L -3.5 0 
" style="stroke: #000000; stroke-width: 0.8"/>
      </defs>
      <g>
       <use xlink:href="#mc6a952f220" x="30.103125" y="261.216" style="stroke: #000000; stroke-width: 0.8"/>
      </g>
     </g>
     <g id="text_10">
      <!-- 0.0 -->
      <g transform="translate(7.2 265.015219) scale(0.1 -0.1)">
       <defs>
        <path id="DejaVuSans-2e" d="M 684 794 
L 1344 794 
L 1344 0 
L 684 0 
L 684 794 
z
" transform="scale(0.015625)"/>
       </defs>
       <use xlink:href="#DejaVuSans-30"/>
       <use xlink:href="#DejaVuSans-2e" transform="translate(63.623047 0)"/>
       <use xlink:href="#DejaVuSans-30" transform="translate(95.410156 0)"/>
      </g>
     </g>
    </g>
    <g id="ytick_2">
     <g id="line2d_21">
      <path d="M 30.103125 218.032936 
L 387.223125 218.032936 
" clip-path="url(#p61b89976f2)" style="fill: none; stroke: #b0b0b0; stroke-width: 0.8; stroke-linecap: square"/>
     </g>
     <g id="line2d_22">
      <g>
       <use xlink:href="#mc6a952f220" x="30.103125" y="218.032936" style="stroke: #000000; stroke-width: 0.8"/>
      </g>
     </g>
     <g id="text_11">
      <!-- 0.5 -->
      <g transform="translate(7.2 221.832155) scale(0.1 -0.1)">
       <use xlink:href="#DejaVuSans-30"/>
       <use xlink:href="#DejaVuSans-2e" transform="translate(63.623047 0)"/>
       <use xlink:href="#DejaVuSans-35" transform="translate(95.410156 0)"/>
      </g>
     </g>
    </g>
    <g id="ytick_3">
     <g id="line2d_23">
      <path d="M 30.103125 174.849872 
L 387.223125 174.849872 
" clip-path="url(#p61b89976f2)" style="fill: none; stroke: #b0b0b0; stroke-width: 0.8; stroke-linecap: square"/>
     </g>
     <g id="line2d_24">
      <g>
       <use xlink:href="#mc6a952f220" x="30.103125" y="174.849872" style="stroke: #000000; stroke-width: 0.8"/>
      </g>
     </g>
     <g id="text_12">
      <!-- 1.0 -->
      <g transform="translate(7.2 178.64909) scale(0.1 -0.1)">
       <use xlink:href="#DejaVuSans-31"/>
       <use xlink:href="#DejaVuSans-2e" transform="translate(63.623047 0)"/>
       <use xlink:href="#DejaVuSans-30" transform="translate(95.410156 0)"/>
      </g>
     </g>
    </g>
    <g id="ytick_4">
     <g id="line2d_25">
      <path d="M 30.103125 131.666807 
L 387.223125 131.666807 
" clip-path="url(#p61b89976f2)" style="fill: none; stroke: #b0b0b0; stroke-width: 0.8; stroke-linecap: square"/>
     </g>
     <g id="line2d_26">
      <g>
       <use xlink:href="#mc6a952f220" x="30.103125" y="131.666807" style="stroke: #000000; stroke-width: 0.8"/>
      </g>
     </g>
     <g id="text_13">
      <!-- 1.5 -->
      <g transform="translate(7.2 135.466026) scale(0.1 -0.1)">
       <use xlink:href="#DejaVuSans-31"/>
       <use xlink:href="#DejaVuSans-2e" transform="translate(63.623047 0)"/>
       <use xlink:href="#DejaVuSans-35" transform="translate(95.410156 0)"/>
      </g>
     </g>
    </g>
    <g id="ytick_5">
     <g id="line2d_27">
      <path d="M 30.103125 88.483743 
L 387.223125 88.483743 
" clip-path="url(#p61b89976f2)" style="fill: none; stroke: #b0b0b0; stroke-width: 0.8; stroke-linecap: square"/>
     </g>
     <g id="line2d_28">
      <g>
       <use xlink:href="#mc6a952f220" x="30.103125" y="88.483743" style="stroke: #000000; stroke-width: 0.8"/>
      </g>
     </g>
     <g id="text_14">
      <!-- 2.0 -->
      <g transform="translate(7.2 92.282962) scale(0.1 -0.1)">
       <use xlink:href="#DejaVuSans-32"/>
       <use xlink:href="#DejaVuSans-2e" transform="translate(63.623047 0)"/>
       <use xlink:href="#DejaVuSans-30" transform="translate(95.410156 0)"/>
      </g>
     </g>
    </g>
    <g id="ytick_6">
     <g id="line2d_29">
      <path d="M 30.103125 45.300679 
L 387.223125 45.300679 
" clip-path="url(#p61b89976f2)" style="fill: none; stroke: #b0b0b0; stroke-width: 0.8; stroke-linecap: square"/>
     </g>
     <g id="line2d_30">
      <g>
       <use xlink:href="#mc6a952f220" x="30.103125" y="45.300679" style="stroke: #000000; stroke-width: 0.8"/>
      </g>
     </g>
     <g id="text_15">
      <!-- 2.5 -->
      <g transform="translate(7.2 49.099898) scale(0.1 -0.1)">
       <use xlink:href="#DejaVuSans-32"/>
       <use xlink:href="#DejaVuSans-2e" transform="translate(63.623047 0)"/>
       <use xlink:href="#DejaVuSans-35" transform="translate(95.410156 0)"/>
      </g>
     </g>
    </g>
   </g>
   <g id="line2d_31">
    <path d="M 46.335852 261.215678 
L 68.289951 261.120058 
L 68.289951 261.086624 
L 72.281605 260.985437 
L 72.281605 260.911294 
L 74.942708 260.816005 
L 74.942708 260.694433 
L 76.273259 260.694433 
L 76.273259 260.540465 
L 77.603811 260.540465 
L 77.603811 260.346905 
L 78.934362 260.346905 
L 78.934362 260.10537 
L 80.264913 260.10537 
L 80.264913 259.806213 
L 81.595465 259.806213 
L 81.595465 259.438459 
L 82.926016 259.438459 
L 82.926016 258.989781 
L 84.256568 258.989781 
L 84.256568 258.446519 
L 85.587119 258.446519 
L 85.587119 257.793755 
L 86.91767 257.793755 
L 86.91767 257.015453 
L 88.248222 257.015453 
L 88.248222 256.09467 
L 89.578773 256.09467 
L 89.578773 255.013857 
L 90.909325 255.013857 
L 90.909325 253.755241 
L 92.239876 253.755241 
L 92.239876 252.301309 
L 93.570428 252.301309 
L 93.570428 250.635364 
L 94.900979 250.635364 
L 94.900979 248.742183 
L 96.23153 248.742183 
L 96.23153 246.608728 
L 97.562082 246.608728 
L 97.562082 244.224919 
L 98.892633 244.224919 
L 98.892633 241.58443 
L 100.223185 241.58443 
L 100.223185 238.685482 
L 101.553736 238.685482 
L 101.553736 235.531597 
L 102.884287 235.531597 
L 102.884287 232.132283 
L 104.214839 232.132283 
L 104.214839 228.503594 
L 105.54539 228.503594 
L 105.54539 224.66854 
L 106.875942 224.66854 
L 106.875942 220.657298 
L 108.206493 220.657298 
L 108.206493 216.507197 
L 109.537045 216.507197 
L 109.537045 212.262453 
L 110.867596 212.262453 
L 110.867596 207.973623 
L 112.198147 207.973623 
L 112.198147 203.6968 
L 113.528699 203.6968 
L 113.528699 199.492523 
L 114.85925 199.492523 
L 114.85925 195.424458 
L 116.189802 195.424458 
L 116.189802 191.557858 
L 117.520353 191.557858 
L 117.520353 187.957867 
L 118.850904 187.957867 
L 118.850904 184.687721 
L 120.181456 184.687721 
L 120.181456 181.806916 
L 121.512007 181.806916 
L 121.512007 179.369415 
L 122.842559 179.369415 
L 122.842559 177.42197 
L 124.17311 177.42197 
L 124.17311 176.002632 
L 125.503662 176.002632 
L 125.503662 175.139516 
L 126.834213 175.139516 
L 126.834213 174.849872 
L 128.164764 174.849872 
L 128.164764 175.139516 
L 129.495316 175.139516 
L 129.495316 176.002632 
L 130.825867 176.002632 
L 130.825867 177.42197 
L 132.156419 177.42197 
L 132.156419 179.369415 
L 133.48697 179.369415 
L 133.48697 181.806916 
L 134.817521 181.806916 
L 134.817521 184.687721 
L 136.148073 184.687721 
L 136.148073 187.957867 
L 137.478624 187.957867 
L 137.478624 191.557858 
L 138.809176 191.557858 
L 138.809176 195.424458 
L 140.139727 195.424458 
L 140.139727 199.492523 
L 141.470279 199.492523 
L 141.470279 203.6968 
L 142.80083 203.6968 
L 142.80083 207.973623 
L 144.131381 207.973623 
L 144.131381 212.262453 
L 145.461933 212.262453 
L 145.461933 216.507197 
L 146.792484 216.507197 
L 146.792484 220.657298 
L 148.123036 220.657298 
L 148.123036 224.66854 
L 149.453587 224.66854 
L 149.453587 228.503594 
L 150.784138 228.503594 
L 150.784138 232.132283 
L 152.11469 232.132283 
L 152.11469 235.531597 
L 153.445241 235.531597 
L 153.445241 238.685482 
L 154.775793 238.685482 
L 154.775793 241.58443 
L 156.106344 241.58443 
L 156.106344 244.224919 
L 157.436895 244.224919 
L 157.436895 246.608728 
L 158.767447 246.608728 
L 158.767447 248.742183 
L 160.097998 248.742183 
L 160.097998 250.635364 
L 161.42855 250.635364 
L 161.42855 252.301309 
L 162.759101 252.301309 
L 162.759101 253.755241 
L 164.089653 253.755241 
L 164.089653 255.013857 
L 165.420204 255.013857 
L 165.420204 256.09467 
L 166.750755 256.09467 
L 166.750755 257.015453 
L 168.081307 257.015453 
L 168.081307 257.793755 
L 169.411858 257.793755 
L 169.411858 258.446519 
L 170.74241 258.446519 
L 170.74241 258.989781 
L 172.072961 258.989781 
L 172.072961 259.438459 
L 173.403512 259.438459 
L 173.403512 259.806213 
L 174.734064 259.806213 
L 174.734064 260.10537 
L 176.064615 260.10537 
L 176.064615 260.346905 
L 177.395167 260.346905 
L 177.395167 260.540465 
L 178.725718 260.540465 
L 178.725718 260.694433 
L 180.05627 260.694433 
L 180.05627 260.816005 
L 182.717372 260.911294 
L 182.717372 260.985437 
L 186.709027 261.086624 
L 186.709027 261.120058 
L 370.990398 261.216 
L 370.990398 261.216 
" clip-path="url(#p61b89976f2)" style="fill: none; stroke: #1f77b4; stroke-width: 1.5; stroke-linecap: square"/>
   </g>
   <g id="line2d_32">
    <path d="M 46.335852 261.216 
L 176.064615 261.105159 
L 176.064615 261.067015 
L 178.725718 261.017084 
L 178.725718 260.952198 
L 181.386821 260.868489 
L 181.386821 260.761283 
L 182.717372 260.761283 
L 182.717372 260.624988 
L 184.047924 260.624988 
L 184.047924 260.452985 
L 185.378475 260.452985 
L 185.378475 260.237519 
L 186.709027 260.237519 
L 186.709027 259.96961 
L 188.039578 259.96961 
L 188.039578 259.63898 
L 189.370129 259.63898 
L 189.370129 259.234003 
L 190.700681 259.234003 
L 190.700681 258.741709 
L 192.031232 258.741709 
L 192.031232 258.147821 
L 193.361784 258.147821 
L 193.361784 257.436862 
L 194.692335 257.436862 
L 194.692335 256.592329 
L 196.022887 256.592329 
L 196.022887 255.596945 
L 197.353438 255.596945 
L 197.353438 254.433001 
L 198.683989 254.433001 
L 198.683989 253.082783 
L 200.014541 253.082783 
L 200.014541 251.529094 
L 201.345092 251.529094 
L 201.345092 249.755858 
L 202.675644 249.755858 
L 202.675644 247.748809 
L 204.006195 247.748809 
L 204.006195 245.49623 
L 205.336746 245.49623 
L 205.336746 242.989743 
L 206.667298 242.989743 
L 206.667298 240.225106 
L 207.997849 240.225106 
L 207.997849 237.202995 
L 209.328401 237.202995 
L 209.328401 233.929726 
L 210.658952 233.929726 
L 210.658952 230.417888 
L 211.989504 230.417888 
L 211.989504 226.686833 
L 213.320055 226.686833 
L 213.320055 222.762999 
L 214.650606 222.762999 
L 214.650606 218.680013 
L 215.981158 218.680013 
L 215.981158 214.478559 
L 217.311709 214.478559 
L 217.311709 210.205981 
L 218.642261 210.205981 
L 218.642261 205.915612 
L 219.972812 205.915612 
L 219.972812 201.665829 
L 221.303363 201.665829 
L 221.303363 197.518853 
L 222.633915 197.518853 
L 222.633915 193.539313 
L 223.964466 193.539313 
L 223.964466 189.79263 
L 225.295018 189.79263 
L 225.295018 186.34326 
L 226.625569 186.34326 
L 226.625569 183.252873 
L 227.956121 183.252873 
L 227.956121 180.578526 
L 229.286672 180.578526 
L 229.286672 178.370921 
L 230.617223 178.370921 
L 230.617223 176.672805 
L 231.947775 176.672805 
L 231.947775 175.517595 
L 233.278326 175.517595 
L 233.278326 174.928287 
L 235.939429 174.916692 
L 235.939429 175.483042 
L 237.26998 175.483042 
L 237.26998 176.615984 
L 238.600532 176.615984 
L 238.600532 178.29296 
L 239.931083 178.29296 
L 239.931083 180.480948 
L 241.261635 180.480948 
L 241.261635 183.137551 
L 242.592186 183.137551 
L 242.592186 186.212355 
L 243.922738 186.212355 
L 243.922738 189.648525 
L 245.253289 189.648525 
L 245.253289 193.38454 
L 246.58384 193.38454 
L 246.58384 197.356021 
L 247.914392 197.356021 
L 247.914392 201.497552 
L 249.244943 201.497552 
L 249.244943 205.744438 
L 250.575495 205.744438 
L 250.575495 210.034334 
L 251.906046 210.034334 
L 251.906046 214.308685 
L 253.236597 214.308685 
L 253.236597 218.513935 
L 254.567149 218.513935 
L 254.567149 222.602487 
L 255.8977 222.602487 
L 255.8977 226.533381 
L 257.228252 226.533381 
L 257.228252 230.272702 
L 258.558803 230.272702 
L 258.558803 233.793727 
L 259.889355 233.793727 
L 259.889355 237.076824 
L 261.219906 237.076824 
L 261.219906 240.109143 
L 262.550457 240.109143 
L 262.550457 242.884127 
L 263.881009 242.884127 
L 263.881009 245.400889 
L 265.21156 245.400889 
L 265.21156 247.663488 
L 266.542112 247.663488 
L 266.542112 249.680153 
L 267.872663 249.680153 
L 267.872663 251.462482 
L 269.203214 251.462482 
L 269.203214 253.024654 
L 270.533766 253.024654 
L 270.533766 254.382686 
L 271.864317 254.382686 
L 271.864317 255.553743 
L 273.194869 255.553743 
L 273.194869 256.555527 
L 274.52542 256.555527 
L 274.52542 257.405758 
L 275.855971 257.405758 
L 275.855971 258.121737 
L 277.186523 258.121737 
L 277.186523 258.720004 
L 278.517074 258.720004 
L 278.517074 259.216079 
L 279.847626 259.216079 
L 279.847626 259.62429 
L 281.178177 259.62429 
L 281.178177 259.957662 
L 282.508729 259.957662 
L 282.508729 260.227874 
L 283.83928 260.227874 
L 283.83928 260.445256 
L 285.169831 260.445256 
L 285.169831 260.618841 
L 286.500383 260.618841 
L 286.500383 260.75643 
L 289.161486 260.864686 
L 289.161486 260.94924 
L 291.822588 261.014799 
L 291.822588 261.065263 
L 298.475346 261.171598 
L 298.475346 261.183834 
L 370.990398 261.216 
L 370.990398 261.216 
" clip-path="url(#p61b89976f2)" style="fill: none; stroke: #ff7f0e; stroke-width: 1.5; stroke-linecap: square"/>
   </g>
   <g id="line2d_33">
    <path d="M 46.335852 261.215678 
L 153.445241 261.2144 
L 153.445241 260.891401 
L 154.775793 260.891401 
L 154.775793 261.183806 
L 156.106344 261.183806 
L 156.106344 260.840131 
L 157.436895 260.840131 
L 157.436895 261.184232 
L 158.767447 261.184232 
L 158.767447 260.707121 
L 160.097998 260.707121 
L 160.097998 261.173224 
L 161.42855 261.173224 
L 161.42855 260.323008 
L 162.759101 260.323008 
L 162.759101 261.138864 
L 164.089653 261.138864 
L 164.089653 259.768937 
L 165.420204 259.768937 
L 165.420204 261.09748 
L 166.750755 261.09748 
L 166.750755 257.568791 
L 168.081307 257.568791 
L 168.081307 259.853105 
L 169.411858 259.853105 
L 169.411858 261.115697 
L 170.74241 261.115697 
L 170.74241 256.708035 
L 172.072961 256.708035 
L 172.072961 260.825917 
L 173.403512 260.825917 
L 173.403512 254.037324 
L 174.734064 254.037324 
L 174.734064 238.818392 
L 176.064615 238.818392 
L 176.064615 256.524137 
L 177.395167 256.524137 
L 177.395167 260.90497 
L 178.725718 260.90497 
L 178.725718 253.696247 
L 180.05627 253.696247 
L 180.05627 217.134431 
L 181.386821 217.134431 
L 181.386821 257.285685 
L 182.717372 257.285685 
L 182.717372 232.428709 
L 184.047924 232.428709 
L 184.047924 258.808522 
L 185.378475 258.808522 
L 185.378475 226.642099 
L 186.709027 226.642099 
L 186.709027 258.311826 
L 188.039578 258.311826 
L 188.039578 200.903159 
L 189.370129 200.903159 
L 189.370129 242.200654 
L 190.700681 242.200654 
L 190.700681 259.878729 
L 192.031232 259.878729 
L 192.031232 169.780928 
L 193.361784 169.780928 
L 193.361784 252.34031 
L 194.692335 252.34031 
L 194.692335 152.167212 
L 196.022887 152.167212 
L 196.022887 251.759914 
L 197.353438 251.759914 
L 197.353438 123.467373 
L 198.683989 123.467373 
L 198.683989 218.615339 
L 200.014541 218.615339 
L 200.014541 258.180418 
L 201.345092 258.180418 
L 201.345092 114.266412 
L 202.675644 114.266412 
L 202.675644 104.110713 
L 204.006195 104.110713 
L 204.006195 247.500774 
L 205.336746 247.500774 
L 205.336746 154.308789 
L 206.667298 154.308789 
L 206.667298 252.849382 
L 207.997849 252.849382 
L 207.997849 40.193832 
L 209.328401 40.193832 
L 209.328401 160.93272 
L 210.658952 160.93272 
L 210.658952 252.671557 
L 211.989504 252.671557 
L 211.989504 171.999296 
L 213.320055 171.999296 
L 213.320055 94.171214 
L 214.650606 94.171214 
L 214.650606 225.89499 
L 215.981158 225.89499 
L 215.981158 258.835636 
L 217.311709 258.835636 
L 217.311709 181.538508 
L 218.642261 181.538508 
L 218.642261 254.50871 
L 219.972812 254.50871 
L 219.972812 76.106852 
L 221.303363 76.106852 
L 221.303363 19.296 
L 222.633915 19.296 
L 222.633915 207.298598 
L 223.964466 207.298598 
L 223.964466 257.408293 
L 225.295018 257.408293 
L 225.295018 165.305376 
L 226.625569 165.305376 
L 226.625569 209.573077 
L 227.956121 209.573077 
L 227.956121 256.968799 
L 229.286672 256.968799 
L 229.286672 191.412989 
L 230.617223 191.412989 
L 230.617223 235.328635 
L 231.947775 235.328635 
L 231.947775 258.929753 
L 233.278326 258.929753 
L 233.278326 244.385104 
L 234.608878 244.385104 
L 234.608878 215.817573 
L 235.939429 215.817573 
L 235.939429 251.700956 
L 237.26998 251.700956 
L 237.26998 260.545631 
L 238.600532 260.545631 
L 238.600532 249.226363 
L 239.931083 249.226363 
L 239.931083 255.161528 
L 241.261635 255.161528 
L 241.261635 260.713052 
L 242.592186 260.713052 
L 242.592186 253.355134 
L 243.922738 253.355134 
L 243.922738 257.968514 
L 245.253289 257.968514 
L 245.253289 260.435782 
L 246.58384 260.435782 
L 246.58384 261.161599 
L 247.914392 261.161599 
L 247.914392 259.092472 
L 249.244943 259.092472 
L 249.244943 259.721399 
L 250.575495 259.721399 
L 250.575495 260.800912 
L 251.906046 260.800912 
L 251.906046 261.126706 
L 255.8977 261.072296 
L 255.8977 260.849067 
L 257.228252 260.849067 
L 257.228252 261.125762 
L 370.990398 261.216 
L 370.990398 261.216 
" clip-path="url(#p61b89976f2)" style="fill: none; stroke: #2ca02c; stroke-width: 1.5; stroke-linecap: square"/>
   </g>
   <g id="patch_3">
    <path d="M 30.103125 273.312 
L 30.103125 7.2 
" style="fill: none; stroke: #000000; stroke-width: 0.8; stroke-linejoin: miter; stroke-linecap: square"/>
   </g>
   <g id="patch_4">
    <path d="M 387.223125 273.312 
L 387.223125 7.2 
" style="fill: none; stroke: #000000; stroke-width: 0.8; stroke-linejoin: miter; stroke-linecap: square"/>
   </g>
   <g id="patch_5">
    <path d="M 30.103125 273.312 
L 387.223125 273.312 
" style="fill: none; stroke: #000000; stroke-width: 0.8; stroke-linejoin: miter; stroke-linecap: square"/>
   </g>
   <g id="patch_6">
    <path d="M 30.103125 7.2 
L 387.223125 7.2 
" style="fill: none; stroke: #000000; stroke-width: 0.8; stroke-linejoin: miter; stroke-linecap: square"/>
   </g>
   <g id="legend_1">
    <g id="patch_7">
     <path d="M 308.735625 59.234375 
L 380.223125 59.234375 
Q 382.223125 59.234375 382.223125 57.234375 
L 382.223125 14.2 
Q 382.223125 12.2 380.223125 12.2 
L 308.735625 12.2 
Q 306.735625 12.2 306.735625 14.2 
L 306.735625 57.234375 
Q 306.735625 59.234375 308.735625 59.234375 
z
" style="fill: #ffffff; opacity: 0.8; stroke: #cccccc; stroke-linejoin: miter"/>
    </g>
    <g id="line2d_34">
     <path d="M 310.735625 20.298437 
L 315.735625 20.298437 
L 315.735625 20.298437 
L 325.735625 20.298437 
L 325.735625 20.298437 
L 330.735625 20.298437 
" style="fill: none; stroke: #1f77b4; stroke-width: 1.5; stroke-linecap: square"/>
    </g>
    <g id="text_16">
     <!-- initial -->
     <g transform="translate(338.735625 23.798437) scale(0.1 -0.1)">
      <defs>
       <path id="DejaVuSans-69" d="M 603 3500 
L 1178 3500 
L 1178 0 
L 603 0 
L 603 3500 
z
M 603 4863 
L 1178 4863 
L 1178 4134 
L 603 4134 
L 603 4863 
z
" transform="scale(0.015625)"/>
       <path id="DejaVuSans-6e" d="M 3513 2113 
L 3513 0 
L 2938 0 
L 2938 2094 
Q 2938 2591 2744 2837 
Q 2550 3084 2163 3084 
Q 1697 3084 1428 2787 
Q 1159 2491 1159 1978 
L 1159 0 
L 581 0 
L 581 3500 
L 1159 3500 
L 1159 2956 
Q 1366 3272 1645 3428 
Q 1925 3584 2291 3584 
Q 2894 3584 3203 3211 
Q 3513 2838 3513 2113 
z
" transform="scale(0.015625)"/>
       <path id="DejaVuSans-74" d="M 1172 4494 
L 1172 3500 
L 2356 3500 
L 2356 3053 
L 1172 3053 
L 1172 1153 
Q 1172 725 1289 603 
Q 1406 481 1766 481 
L 2356 481 
L 2356 0 
L 1766 0 
Q 1100 0 847 248 
Q 594 497 594 1153 
L 594 3053 
L 172 3053 
L 172 3500 
L 594 3500 
L 594 4494 
L 1172 4494 
z
" transform="scale(0.015625)"/>
       <path id="DejaVuSans-61" d="M 2194 1759 
Q 1497 1759 1228 1600 
Q 959 1441 959 1056 
Q 959 750 1161 570 
Q 1363 391 1709 391 
Q 2188 391 2477 730 
Q 2766 1069 2766 1631 
L 2766 1759 
L 2194 1759 
z
M 3341 1997 
L 3341 0 
L 2766 0 
L 2766 531 
Q 2569 213 2275 61 
Q 1981 -91 1556 -91 
Q 1019 -91 701 211 
Q 384 513 384 1019 
Q 384 1609 779 1909 
Q 1175 2209 1959 2209 
L 2766 2209 
L 2766 2266 
Q 2766 2663 2505 2880 
Q 2244 3097 1772 3097 
Q 1472 3097 1187 3025 
Q 903 2953 641 2809 
L 641 3341 
Q 956 3463 1253 3523 
Q 1550 3584 1831 3584 
Q 2591 3584 2966 3190 
Q 3341 2797 3341 1997 
z
" transform="scale(0.015625)"/>
       <path id="DejaVuSans-6c" d="M 603 4863 
L 1178 4863 
L 1178 0 
L 603 0 
L 603 4863 
z
" transform="scale(0.015625)"/>
      </defs>
      <use xlink:href="#DejaVuSans-69"/>
      <use xlink:href="#DejaVuSans-6e" transform="translate(27.783203 0)"/>
      <use xlink:href="#DejaVuSans-69" transform="translate(91.162109 0)"/>
      <use xlink:href="#DejaVuSans-74" transform="translate(118.945312 0)"/>
      <use xlink:href="#DejaVuSans-69" transform="translate(158.154297 0)"/>
      <use xlink:href="#DejaVuSans-61" transform="translate(185.9375 0)"/>
      <use xlink:href="#DejaVuSans-6c" transform="translate(247.216797 0)"/>
     </g>
    </g>
    <g id="line2d_35">
     <path d="M 310.735625 34.976562 
L 315.735625 34.976562 
L 315.735625 34.976562 
L 325.735625 34.976562 
L 325.735625 34.976562 
L 330.735625 34.976562 
" style="fill: none; stroke: #ff7f0e; stroke-width: 1.5; stroke-linecap: square"/>
    </g>
    <g id="text_17">
     <!-- analytic -->
     <g transform="translate(338.735625 38.476562) scale(0.1 -0.1)">
      <defs>
       <path id="DejaVuSans-79" d="M 2059 -325 
Q 1816 -950 1584 -1140 
Q 1353 -1331 966 -1331 
L 506 -1331 
L 506 -850 
L 844 -850 
Q 1081 -850 1212 -737 
Q 1344 -625 1503 -206 
L 1606 56 
L 191 3500 
L 800 3500 
L 1894 763 
L 2988 3500 
L 3597 3500 
L 2059 -325 
z
" transform="scale(0.015625)"/>
       <path id="DejaVuSans-63" d="M 3122 3366 
L 3122 2828 
Q 2878 2963 2633 3030 
Q 2388 3097 2138 3097 
Q 1578 3097 1268 2742 
Q 959 2388 959 1747 
Q 959 1106 1268 751 
Q 1578 397 2138 397 
Q 2388 397 2633 464 
Q 2878 531 3122 666 
L 3122 134 
Q 2881 22 2623 -34 
Q 2366 -91 2075 -91 
Q 1284 -91 818 406 
Q 353 903 353 1747 
Q 353 2603 823 3093 
Q 1294 3584 2113 3584 
Q 2378 3584 2631 3529 
Q 2884 3475 3122 3366 
z
" transform="scale(0.015625)"/>
      </defs>
      <use xlink:href="#DejaVuSans-61"/>
      <use xlink:href="#DejaVuSans-6e" transform="translate(61.279297 0)"/>
      <use xlink:href="#DejaVuSans-61" transform="translate(124.658203 0)"/>
      <use xlink:href="#DejaVuSans-6c" transform="translate(185.9375 0)"/>
      <use xlink:href="#DejaVuSans-79" transform="translate(213.720703 0)"/>
      <use xlink:href="#DejaVuSans-74" transform="translate(272.900391 0)"/>
      <use xlink:href="#DejaVuSans-69" transform="translate(312.109375 0)"/>
      <use xlink:href="#DejaVuSans-63" transform="translate(339.892578 0)"/>
     </g>
    </g>
    <g id="line2d_36">
     <path d="M 310.735625 49.654687 
L 315.735625 49.654687 
L 315.735625 49.654687 
L 325.735625 49.654687 
L 325.735625 49.654687 
L 330.735625 49.654687 
" style="fill: none; stroke: #2ca02c; stroke-width: 1.5; stroke-linecap: square"/>
    </g>
    <g id="text_18">
     <!-- numerc -->
     <g transform="translate(338.735625 53.154687) scale(0.1 -0.1)">
      <defs>
       <path id="DejaVuSans-75" d="M 544 1381 
L 544 3500 
L 1119 3500 
L 1119 1403 
Q 1119 906 1312 657 
Q 1506 409 1894 409 
Q 2359 409 2629 706 
Q 2900 1003 2900 1516 
L 2900 3500 
L 3475 3500 
L 3475 0 
L 2900 0 
L 2900 538 
Q 2691 219 2414 64 
Q 2138 -91 1772 -91 
Q 1169 -91 856 284 
Q 544 659 544 1381 
z
M 1991 3584 
L 1991 3584 
z
" transform="scale(0.015625)"/>
       <path id="DejaVuSans-6d" d="M 3328 2828 
Q 3544 3216 3844 3400 
Q 4144 3584 4550 3584 
Q 5097 3584 5394 3201 
Q 5691 2819 5691 2113 
L 5691 0 
L 5113 0 
L 5113 2094 
Q 5113 2597 4934 2840 
Q 4756 3084 4391 3084 
Q 3944 3084 3684 2787 
Q 3425 2491 3425 1978 
L 3425 0 
L 2847 0 
L 2847 2094 
Q 2847 2600 2669 2842 
Q 2491 3084 2119 3084 
Q 1678 3084 1418 2786 
Q 1159 2488 1159 1978 
L 1159 0 
L 581 0 
L 581 3500 
L 1159 3500 
L 1159 2956 
Q 1356 3278 1631 3431 
Q 1906 3584 2284 3584 
Q 2666 3584 2933 3390 
Q 3200 3197 3328 2828 
z
" transform="scale(0.015625)"/>
       <path id="DejaVuSans-65" d="M 3597 1894 
L 3597 1613 
L 953 1613 
Q 991 1019 1311 708 
Q 1631 397 2203 397 
Q 2534 397 2845 478 
Q 3156 559 3463 722 
L 3463 178 
Q 3153 47 2828 -22 
Q 2503 -91 2169 -91 
Q 1331 -91 842 396 
Q 353 884 353 1716 
Q 353 2575 817 3079 
Q 1281 3584 2069 3584 
Q 2775 3584 3186 3129 
Q 3597 2675 3597 1894 
z
M 3022 2063 
Q 3016 2534 2758 2815 
Q 2500 3097 2075 3097 
Q 1594 3097 1305 2825 
Q 1016 2553 972 2059 
L 3022 2063 
z
" transform="scale(0.015625)"/>
       <path id="DejaVuSans-72" d="M 2631 2963 
Q 2534 3019 2420 3045 
Q 2306 3072 2169 3072 
Q 1681 3072 1420 2755 
Q 1159 2438 1159 1844 
L 1159 0 
L 581 0 
L 581 3500 
L 1159 3500 
L 1159 2956 
Q 1341 3275 1631 3429 
Q 1922 3584 2338 3584 
Q 2397 3584 2469 3576 
Q 2541 3569 2628 3553 
L 2631 2963 
z
" transform="scale(0.015625)"/>
      </defs>
      <use xlink:href="#DejaVuSans-6e"/>
      <use xlink:href="#DejaVuSans-75" transform="translate(63.378906 0)"/>
      <use xlink:href="#DejaVuSans-6d" transform="translate(126.757812 0)"/>
      <use xlink:href="#DejaVuSans-65" transform="translate(224.169922 0)"/>
      <use xlink:href="#DejaVuSans-72" transform="translate(285.693359 0)"/>
      <use xlink:href="#DejaVuSans-63" transform="translate(324.556641 0)"/>
     </g>
    </g>
   </g>
  </g>
 </g>
 <defs>
  <clipPath id="p61b89976f2">
   <rect x="30.103125" y="7.2" width="357.12" height="266.112"/>
  </clipPath>
 </defs>
</svg>
