<?xml version="1.0" encoding="utf-8" standalone="no"?>
<!DOCTYPE svg PUBLIC "-//W3C//DTD SVG 1.1//EN"
  "http://www.w3.org/Graphics/SVG/1.1/DTD/svg11.dtd">
<svg xmlns:xlink="http://www.w3.org/1999/xlink" width="384.8825pt" height="297.190125pt" viewBox="0 0 384.8825 297.190125" xmlns="http://www.w3.org/2000/svg" version="1.1">
 <metadata>
  <rdf:RDF xmlns:dc="http://purl.org/dc/elements/1.1/" xmlns:cc="http://creativecommons.org/ns#" xmlns:rdf="http://www.w3.org/1999/02/22-rdf-syntax-ns#">
   <cc:Work>
    <dc:type rdf:resource="http://purl.org/dc/dcmitype/StillImage"/>
    <dc:date>2025-04-02T20:27:58.070343</dc:date>
    <dc:format>image/svg+xml</dc:format>
    <dc:creator>
     <cc:Agent>
      <dc:title>Matplotlib v3.10.1, https://matplotlib.org/</dc:title>
     </cc:Agent>
    </dc:creator>
   </cc:Work>
  </rdf:RDF>
 </metadata>
 <defs>
  <style type="text/css">*{stroke-linejoin: round; stroke-linecap: butt}</style>
 </defs>
 <g id="figure_1">
  <g id="patch_1">
   <path d="M 0 297.190125 
L 384.8825 297.190125 
L 384.8825 0 
L 0 0 
z
" style="fill: #ffffff"/>
  </g>
  <g id="axes_1">
   <g id="patch_2">
    <path d="M 20.5625 273.312 
L 377.6825 273.312 
L 377.6825 7.2 
L 20.5625 7.2 
z
" style="fill: #ffffff"/>
   </g>
   <g id="matplotlib.axis_1">
    <g id="xtick_1">
     <g id="line2d_1">
      <path d="M 36.795227 273.312 
L 36.795227 7.2 
" clip-path="url(#pf85b54b012)" style="fill: none; stroke: #b0b0b0; stroke-width: 0.8; stroke-linecap: square"/>
     </g>
     <g id="line2d_2">
      <defs>
       <path id="mc8b184545a" d="M 0 0 
L 0 3.5 
" style="stroke: #000000; stroke-width: 0.8"/>
      </defs>
      <g>
       <use xlink:href="#mc8b184545a" x="36.795227" y="273.312" style="stroke: #000000; stroke-width: 0.8"/>
      </g>
     </g>
     <g id="text_1">
      <!-- −100 -->
      <g transform="translate(23.061634 287.910437) scale(0.1 -0.1)">
       <defs>
        <path id="DejaVuSans-2212" d="M 678 2272 
L 4684 2272 
L 4684 1741 
L 678 1741 
L 678 2272 
z
" transform="scale(0.015625)"/>
        <path id="DejaVuSans-31" d="M 794 531 
L 1825 531 
L 1825 4091 
L 703 3866 
L 703 4441 
L 1819 4666 
L 2450 4666 
L 2450 531 
L 3481 531 
L 3481 0 
L 794 0 
L 794 531 
z
" transform="scale(0.015625)"/>
        <path id="DejaVuSans-30" d="M 2034 4250 
Q 1547 4250 1301 3770 
Q 1056 3291 1056 2328 
Q 1056 1369 1301 889 
Q 1547 409 2034 409 
Q 2525 409 2770 889 
Q 3016 1369 3016 2328 
Q 3016 3291 2770 3770 
Q 2525 4250 2034 4250 
z
M 2034 4750 
Q 2819 4750 3233 4129 
Q 3647 3509 3647 2328 
Q 3647 1150 3233 529 
Q 2819 -91 2034 -91 
Q 1250 -91 836 529 
Q 422 1150 422 2328 
Q 422 3509 836 4129 
Q 1250 4750 2034 4750 
z
" transform="scale(0.015625)"/>
       </defs>
       <use xlink:href="#DejaVuSans-2212"/>
       <use xlink:href="#DejaVuSans-31" transform="translate(83.789062 0)"/>
       <use xlink:href="#DejaVuSans-30" transform="translate(147.412109 0)"/>
       <use xlink:href="#DejaVuSans-30" transform="translate(211.035156 0)"/>
      </g>
     </g>
    </g>
    <g id="xtick_2">
     <g id="line2d_3">
      <path d="M 77.377045 273.312 
L 77.377045 7.2 
" clip-path="url(#pf85b54b012)" style="fill: none; stroke: #b0b0b0; stroke-width: 0.8; stroke-linecap: square"/>
     </g>
     <g id="line2d_4">
      <g>
       <use xlink:href="#mc8b184545a" x="77.377045" y="273.312" style="stroke: #000000; stroke-width: 0.8"/>
      </g>
     </g>
     <g id="text_2">
      <!-- −50 -->
      <g transform="translate(66.824702 287.910437) scale(0.1 -0.1)">
       <defs>
        <path id="DejaVuSans-35" d="M 691 4666 
L 3169 4666 
L 3169 4134 
L 1269 4134 
L 1269 2991 
Q 1406 3038 1543 3061 
Q 1681 3084 1819 3084 
Q 2600 3084 3056 2656 
Q 3513 2228 3513 1497 
Q 3513 744 3044 326 
Q 2575 -91 1722 -91 
Q 1428 -91 1123 -41 
Q 819 9 494 109 
L 494 744 
Q 775 591 1075 516 
Q 1375 441 1709 441 
Q 2250 441 2565 725 
Q 2881 1009 2881 1497 
Q 2881 1984 2565 2268 
Q 2250 2553 1709 2553 
Q 1456 2553 1204 2497 
Q 953 2441 691 2322 
L 691 4666 
z
" transform="scale(0.015625)"/>
       </defs>
       <use xlink:href="#DejaVuSans-2212"/>
       <use xlink:href="#DejaVuSans-35" transform="translate(83.789062 0)"/>
       <use xlink:href="#DejaVuSans-30" transform="translate(147.412109 0)"/>
      </g>
     </g>
    </g>
    <g id="xtick_3">
     <g id="line2d_5">
      <path d="M 117.958864 273.312 
L 117.958864 7.2 
" clip-path="url(#pf85b54b012)" style="fill: none; stroke: #b0b0b0; stroke-width: 0.8; stroke-linecap: square"/>
     </g>
     <g id="line2d_6">
      <g>
       <use xlink:href="#mc8b184545a" x="117.958864" y="273.312" style="stroke: #000000; stroke-width: 0.8"/>
      </g>
     </g>
     <g id="text_3">
      <!-- 0 -->
      <g transform="translate(114.777614 287.910437) scale(0.1 -0.1)">
       <use xlink:href="#DejaVuSans-30"/>
      </g>
     </g>
    </g>
    <g id="xtick_4">
     <g id="line2d_7">
      <path d="M 158.540682 273.312 
L 158.540682 7.2 
" clip-path="url(#pf85b54b012)" style="fill: none; stroke: #b0b0b0; stroke-width: 0.8; stroke-linecap: square"/>
     </g>
     <g id="line2d_8">
      <g>
       <use xlink:href="#mc8b184545a" x="158.540682" y="273.312" style="stroke: #000000; stroke-width: 0.8"/>
      </g>
     </g>
     <g id="text_4">
      <!-- 50 -->
      <g transform="translate(152.178182 287.910437) scale(0.1 -0.1)">
       <use xlink:href="#DejaVuSans-35"/>
       <use xlink:href="#DejaVuSans-30" transform="translate(63.623047 0)"/>
      </g>
     </g>
    </g>
    <g id="xtick_5">
     <g id="line2d_9">
      <path d="M 199.1225 273.312 
L 199.1225 7.2 
" clip-path="url(#pf85b54b012)" style="fill: none; stroke: #b0b0b0; stroke-width: 0.8; stroke-linecap: square"/>
     </g>
     <g id="line2d_10">
      <g>
       <use xlink:href="#mc8b184545a" x="199.1225" y="273.312" style="stroke: #000000; stroke-width: 0.8"/>
      </g>
     </g>
     <g id="text_5">
      <!-- 100 -->
      <g transform="translate(189.57875 287.910437) scale(0.1 -0.1)">
       <use xlink:href="#DejaVuSans-31"/>
       <use xlink:href="#DejaVuSans-30" transform="translate(63.623047 0)"/>
       <use xlink:href="#DejaVuSans-30" transform="translate(127.246094 0)"/>
      </g>
     </g>
    </g>
    <g id="xtick_6">
     <g id="line2d_11">
      <path d="M 239.704318 273.312 
L 239.704318 7.2 
" clip-path="url(#pf85b54b012)" style="fill: none; stroke: #b0b0b0; stroke-width: 0.8; stroke-linecap: square"/>
     </g>
     <g id="line2d_12">
      <g>
       <use xlink:href="#mc8b184545a" x="239.704318" y="273.312" style="stroke: #000000; stroke-width: 0.8"/>
      </g>
     </g>
     <g id="text_6">
      <!-- 150 -->
      <g transform="translate(230.160568 287.910437) scale(0.1 -0.1)">
       <use xlink:href="#DejaVuSans-31"/>
       <use xlink:href="#DejaVuSans-35" transform="translate(63.623047 0)"/>
       <use xlink:href="#DejaVuSans-30" transform="translate(127.246094 0)"/>
      </g>
     </g>
    </g>
    <g id="xtick_7">
     <g id="line2d_13">
      <path d="M 280.286136 273.312 
L 280.286136 7.2 
" clip-path="url(#pf85b54b012)" style="fill: none; stroke: #b0b0b0; stroke-width: 0.8; stroke-linecap: square"/>
     </g>
     <g id="line2d_14">
      <g>
       <use xlink:href="#mc8b184545a" x="280.286136" y="273.312" style="stroke: #000000; stroke-width: 0.8"/>
      </g>
     </g>
     <g id="text_7">
      <!-- 200 -->
      <g transform="translate(270.742386 287.910437) scale(0.1 -0.1)">
       <defs>
        <path id="DejaVuSans-32" d="M 1228 531 
L 3431 531 
L 3431 0 
L 469 0 
L 469 531 
Q 828 903 1448 1529 
Q 2069 2156 2228 2338 
Q 2531 2678 2651 2914 
Q 2772 3150 2772 3378 
Q 2772 3750 2511 3984 
Q 2250 4219 1831 4219 
Q 1534 4219 1204 4116 
Q 875 4013 500 3803 
L 500 4441 
Q 881 4594 1212 4672 
Q 1544 4750 1819 4750 
Q 2544 4750 2975 4387 
Q 3406 4025 3406 3419 
Q 3406 3131 3298 2873 
Q 3191 2616 2906 2266 
Q 2828 2175 2409 1742 
Q 1991 1309 1228 531 
z
" transform="scale(0.015625)"/>
       </defs>
       <use xlink:href="#DejaVuSans-32"/>
       <use xlink:href="#DejaVuSans-30" transform="translate(63.623047 0)"/>
       <use xlink:href="#DejaVuSans-30" transform="translate(127.246094 0)"/>
      </g>
     </g>
    </g>
    <g id="xtick_8">
     <g id="line2d_15">
      <path d="M 320.867955 273.312 
L 320.867955 7.2 
" clip-path="url(#pf85b54b012)" style="fill: none; stroke: #b0b0b0; stroke-width: 0.8; stroke-linecap: square"/>
     </g>
     <g id="line2d_16">
      <g>
       <use xlink:href="#mc8b184545a" x="320.867955" y="273.312" style="stroke: #000000; stroke-width: 0.8"/>
      </g>
     </g>
     <g id="text_8">
      <!-- 250 -->
      <g transform="translate(311.324205 287.910437) scale(0.1 -0.1)">
       <use xlink:href="#DejaVuSans-32"/>
       <use xlink:href="#DejaVuSans-35" transform="translate(63.623047 0)"/>
       <use xlink:href="#DejaVuSans-30" transform="translate(127.246094 0)"/>
      </g>
     </g>
    </g>
    <g id="xtick_9">
     <g id="line2d_17">
      <path d="M 361.449773 273.312 
L 361.449773 7.2 
" clip-path="url(#pf85b54b012)" style="fill: none; stroke: #b0b0b0; stroke-width: 0.8; stroke-linecap: square"/>
     </g>
     <g id="line2d_18">
      <g>
       <use xlink:href="#mc8b184545a" x="361.449773" y="273.312" style="stroke: #000000; stroke-width: 0.8"/>
      </g>
     </g>
     <g id="text_9">
      <!-- 300 -->
      <g transform="translate(351.906023 287.910437) scale(0.1 -0.1)">
       <defs>
        <path id="DejaVuSans-33" d="M 2597 2516 
Q 3050 2419 3304 2112 
Q 3559 1806 3559 1356 
Q 3559 666 3084 287 
Q 2609 -91 1734 -91 
Q 1441 -91 1130 -33 
Q 819 25 488 141 
L 488 750 
Q 750 597 1062 519 
Q 1375 441 1716 441 
Q 2309 441 2620 675 
Q 2931 909 2931 1356 
Q 2931 1769 2642 2001 
Q 2353 2234 1838 2234 
L 1294 2234 
L 1294 2753 
L 1863 2753 
Q 2328 2753 2575 2939 
Q 2822 3125 2822 3475 
Q 2822 3834 2567 4026 
Q 2313 4219 1838 4219 
Q 1578 4219 1281 4162 
Q 984 4106 628 3988 
L 628 4550 
Q 988 4650 1302 4700 
Q 1616 4750 1894 4750 
Q 2613 4750 3031 4423 
Q 3450 4097 3450 3541 
Q 3450 3153 3228 2886 
Q 3006 2619 2597 2516 
z
" transform="scale(0.015625)"/>
       </defs>
       <use xlink:href="#DejaVuSans-33"/>
       <use xlink:href="#DejaVuSans-30" transform="translate(63.623047 0)"/>
       <use xlink:href="#DejaVuSans-30" transform="translate(127.246094 0)"/>
      </g>
     </g>
    </g>
   </g>
   <g id="matplotlib.axis_2">
    <g id="ytick_1">
     <g id="line2d_19">
      <path d="M 20.5625 261.216 
L 377.6825 261.216 
" clip-path="url(#pf85b54b012)" style="fill: none; stroke: #b0b0b0; stroke-width: 0.8; stroke-linecap: square"/>
     </g>
     <g id="line2d_20">
      <defs>
       <path id="m5711e73576" d="M 0 0 
L -3.5 0 
" style="stroke: #000000; stroke-width: 0.8"/>
      </defs>
      <g>
       <use xlink:href="#m5711e73576" x="20.5625" y="261.216" style="stroke: #000000; stroke-width: 0.8"/>
      </g>
     </g>
     <g id="text_10">
      <!-- 0 -->
      <g transform="translate(7.2 265.015219) scale(0.1 -0.1)">
       <use xlink:href="#DejaVuSans-30"/>
      </g>
     </g>
    </g>
    <g id="ytick_2">
     <g id="line2d_21">
      <path d="M 20.5625 224.394508 
L 377.6825 224.394508 
" clip-path="url(#pf85b54b012)" style="fill: none; stroke: #b0b0b0; stroke-width: 0.8; stroke-linecap: square"/>
     </g>
     <g id="line2d_22">
      <g>
       <use xlink:href="#m5711e73576" x="20.5625" y="224.394508" style="stroke: #000000; stroke-width: 0.8"/>
      </g>
     </g>
     <g id="text_11">
      <!-- 1 -->
      <g transform="translate(7.2 228.193727) scale(0.1 -0.1)">
       <use xlink:href="#DejaVuSans-31"/>
      </g>
     </g>
    </g>
    <g id="ytick_3">
     <g id="line2d_23">
      <path d="M 20.5625 187.573016 
L 377.6825 187.573016 
" clip-path="url(#pf85b54b012)" style="fill: none; stroke: #b0b0b0; stroke-width: 0.8; stroke-linecap: square"/>
     </g>
     <g id="line2d_24">
      <g>
       <use xlink:href="#m5711e73576" x="20.5625" y="187.573016" style="stroke: #000000; stroke-width: 0.8"/>
      </g>
     </g>
     <g id="text_12">
      <!-- 2 -->
      <g transform="translate(7.2 191.372235) scale(0.1 -0.1)">
       <use xlink:href="#DejaVuSans-32"/>
      </g>
     </g>
    </g>
    <g id="ytick_4">
     <g id="line2d_25">
      <path d="M 20.5625 150.751524 
L 377.6825 150.751524 
" clip-path="url(#pf85b54b012)" style="fill: none; stroke: #b0b0b0; stroke-width: 0.8; stroke-linecap: square"/>
     </g>
     <g id="line2d_26">
      <g>
       <use xlink:href="#m5711e73576" x="20.5625" y="150.751524" style="stroke: #000000; stroke-width: 0.8"/>
      </g>
     </g>
     <g id="text_13">
      <!-- 3 -->
      <g transform="translate(7.2 154.550743) scale(0.1 -0.1)">
       <use xlink:href="#DejaVuSans-33"/>
      </g>
     </g>
    </g>
    <g id="ytick_5">
     <g id="line2d_27">
      <path d="M 20.5625 113.930032 
L 377.6825 113.930032 
" clip-path="url(#pf85b54b012)" style="fill: none; stroke: #b0b0b0; stroke-width: 0.8; stroke-linecap: square"/>
     </g>
     <g id="line2d_28">
      <g>
       <use xlink:href="#m5711e73576" x="20.5625" y="113.930032" style="stroke: #000000; stroke-width: 0.8"/>
      </g>
     </g>
     <g id="text_14">
      <!-- 4 -->
      <g transform="translate(7.2 117.729251) scale(0.1 -0.1)">
       <defs>
        <path id="DejaVuSans-34" d="M 2419 4116 
L 825 1625 
L 2419 1625 
L 2419 4116 
z
M 2253 4666 
L 3047 4666 
L 3047 1625 
L 3713 1625 
L 3713 1100 
L 3047 1100 
L 3047 0 
L 2419 0 
L 2419 1100 
L 313 1100 
L 313 1709 
L 2253 4666 
z
" transform="scale(0.015625)"/>
       </defs>
       <use xlink:href="#DejaVuSans-34"/>
      </g>
     </g>
    </g>
    <g id="ytick_6">
     <g id="line2d_29">
      <path d="M 20.5625 77.10854 
L 377.6825 77.10854 
" clip-path="url(#pf85b54b012)" style="fill: none; stroke: #b0b0b0; stroke-width: 0.8; stroke-linecap: square"/>
     </g>
     <g id="line2d_30">
      <g>
       <use xlink:href="#m5711e73576" x="20.5625" y="77.10854" style="stroke: #000000; stroke-width: 0.8"/>
      </g>
     </g>
     <g id="text_15">
      <!-- 5 -->
      <g transform="translate(7.2 80.907759) scale(0.1 -0.1)">
       <use xlink:href="#DejaVuSans-35"/>
      </g>
     </g>
    </g>
    <g id="ytick_7">
     <g id="line2d_31">
      <path d="M 20.5625 40.287048 
L 377.6825 40.287048 
" clip-path="url(#pf85b54b012)" style="fill: none; stroke: #b0b0b0; stroke-width: 0.8; stroke-linecap: square"/>
     </g>
     <g id="line2d_32">
      <g>
       <use xlink:href="#m5711e73576" x="20.5625" y="40.287048" style="stroke: #000000; stroke-width: 0.8"/>
      </g>
     </g>
     <g id="text_16">
      <!-- 6 -->
      <g transform="translate(7.2 44.086267) scale(0.1 -0.1)">
       <defs>
        <path id="DejaVuSans-36" d="M 2113 2584 
Q 1688 2584 1439 2293 
Q 1191 2003 1191 1497 
Q 1191 994 1439 701 
Q 1688 409 2113 409 
Q 2538 409 2786 701 
Q 3034 994 3034 1497 
Q 3034 2003 2786 2293 
Q 2538 2584 2113 2584 
z
M 3366 4563 
L 3366 3988 
Q 3128 4100 2886 4159 
Q 2644 4219 2406 4219 
Q 1781 4219 1451 3797 
Q 1122 3375 1075 2522 
Q 1259 2794 1537 2939 
Q 1816 3084 2150 3084 
Q 2853 3084 3261 2657 
Q 3669 2231 3669 1497 
Q 3669 778 3244 343 
Q 2819 -91 2113 -91 
Q 1303 -91 875 529 
Q 447 1150 447 2328 
Q 447 3434 972 4092 
Q 1497 4750 2381 4750 
Q 2619 4750 2861 4703 
Q 3103 4656 3366 4563 
z
" transform="scale(0.015625)"/>
       </defs>
       <use xlink:href="#DejaVuSans-36"/>
      </g>
     </g>
    </g>
   </g>
   <g id="line2d_33">
    <path d="M 36.795227 261.215863 
L 62.74098 261.117701 
L 62.74098 261.086091 
L 66.732634 260.993634 
L 66.732634 260.927991 
L 69.393737 260.845468 
L 69.393737 260.742492 
L 70.724288 260.742492 
L 70.724288 260.614949 
L 72.05484 260.614949 
L 72.05484 260.45816 
L 73.385391 260.45816 
L 73.385391 260.26687 
L 74.715943 260.26687 
L 74.715943 260.035254 
L 76.046494 260.035254 
L 76.046494 259.756954 
L 77.377045 259.756954 
L 77.377045 259.425131 
L 78.707597 259.425131 
L 78.707597 259.032563 
L 80.038148 259.032563 
L 80.038148 258.571767 
L 81.3687 258.571767 
L 81.3687 258.035167 
L 82.699251 258.035167 
L 82.699251 257.415294 
L 84.029803 257.415294 
L 84.029803 256.705032 
L 85.360354 256.705032 
L 85.360354 255.89789 
L 86.690905 255.89789 
L 86.690905 254.988309 
L 88.021457 254.988309 
L 88.021457 253.971992 
L 89.352008 253.971992 
L 89.352008 252.846241 
L 90.68256 252.846241 
L 90.68256 251.610298 
L 92.013111 251.610298 
L 92.013111 250.265665 
L 93.343662 250.265665 
L 93.343662 248.816395 
L 94.674214 248.816395 
L 94.674214 247.269333 
L 96.004765 247.269333 
L 96.004765 245.63429 
L 97.335317 245.63429 
L 97.335317 243.924129 
L 98.665868 243.924129 
L 98.665868 242.154768 
L 99.99642 242.154768 
L 99.99642 240.345056 
L 101.326971 240.345056 
L 101.326971 238.516548 
L 102.657522 238.516548 
L 102.657522 236.69316 
L 103.988074 236.69316 
L 103.988074 234.900701 
L 105.318625 234.900701 
L 105.318625 233.166314 
L 106.649177 233.166314 
L 106.649177 231.517821 
L 107.979728 231.517821 
L 107.979728 229.982994 
L 109.310279 229.982994 
L 109.310279 228.588795 
L 110.640831 228.588795 
L 110.640831 227.360587 
L 111.971382 227.360587 
L 111.971382 226.321379 
L 113.301934 226.321379 
L 113.301934 225.491101 
L 114.632485 225.491101 
L 114.632485 224.885978 
L 115.963037 224.885978 
L 115.963037 224.517995 
L 117.293588 224.517995 
L 117.293588 224.394508 
L 118.624139 224.394508 
L 118.624139 224.517995 
L 119.954691 224.517995 
L 119.954691 224.885978 
L 121.285242 224.885978 
L 121.285242 225.491101 
L 122.615794 225.491101 
L 122.615794 226.321379 
L 123.946345 226.321379 
L 123.946345 227.360587 
L 125.276896 227.360587 
L 125.276896 228.588795 
L 126.607448 228.588795 
L 126.607448 229.982994 
L 127.937999 229.982994 
L 127.937999 231.517821 
L 129.268551 231.517821 
L 129.268551 233.166314 
L 130.599102 233.166314 
L 130.599102 234.900701 
L 131.929654 234.900701 
L 131.929654 236.69316 
L 133.260205 236.69316 
L 133.260205 238.516548 
L 134.590756 238.516548 
L 134.590756 240.345056 
L 135.921308 240.345056 
L 135.921308 242.154768 
L 137.251859 242.154768 
L 137.251859 243.924129 
L 138.582411 243.924129 
L 138.582411 245.63429 
L 139.912962 245.63429 
L 139.912962 247.269333 
L 141.243513 247.269333 
L 141.243513 248.816395 
L 142.574065 248.816395 
L 142.574065 250.265665 
L 143.904616 250.265665 
L 143.904616 251.610298 
L 145.235168 251.610298 
L 145.235168 252.846241 
L 146.565719 252.846241 
L 146.565719 253.971992 
L 147.89627 253.971992 
L 147.89627 254.988309 
L 149.226822 254.988309 
L 149.226822 255.89789 
L 150.557373 255.89789 
L 150.557373 256.705032 
L 151.887925 256.705032 
L 151.887925 257.415294 
L 153.218476 257.415294 
L 153.218476 258.035167 
L 154.549028 258.035167 
L 154.549028 258.571767 
L 155.879579 258.571767 
L 155.879579 259.032563 
L 157.21013 259.032563 
L 157.21013 259.425131 
L 158.540682 259.425131 
L 158.540682 259.756954 
L 159.871233 259.756954 
L 159.871233 260.035254 
L 161.201785 260.035254 
L 161.201785 260.26687 
L 162.532336 260.26687 
L 162.532336 260.45816 
L 163.862887 260.45816 
L 163.862887 260.614949 
L 165.193439 260.614949 
L 165.193439 260.742492 
L 167.854542 260.845468 
L 167.854542 260.927991 
L 170.515645 260.993634 
L 170.515645 261.045465 
L 175.83785 261.142118 
L 175.83785 261.160842 
L 361.449773 261.216 
L 361.449773 261.216 
" clip-path="url(#pf85b54b012)" style="fill: none; stroke: #1f77b4; stroke-width: 1.5; stroke-linecap: square"/>
   </g>
   <g id="line2d_34">
    <path d="M 36.795227 261.216 
L 169.185093 261.131194 
L 169.185093 261.10353 
L 173.176747 261.022135 
L 173.176747 260.964027 
L 175.83785 260.890695 
L 175.83785 260.798833 
L 177.168402 260.798833 
L 177.168402 260.684612 
L 178.498953 260.684612 
L 178.498953 260.54365 
L 179.829504 260.54365 
L 179.829504 260.370992 
L 181.160056 260.370992 
L 181.160056 260.161106 
L 182.490607 260.161106 
L 182.490607 259.907907 
L 183.821159 259.907907 
L 183.821159 259.604796 
L 185.15171 259.604796 
L 185.15171 259.244736 
L 186.482262 259.244736 
L 186.482262 258.820362 
L 187.812813 258.820362 
L 187.812813 258.324124 
L 189.143364 258.324124 
L 189.143364 257.74847 
L 190.473916 257.74847 
L 190.473916 257.086067 
L 191.804467 257.086067 
L 191.804467 256.330062 
L 193.135019 256.330062 
L 193.135019 255.474373 
L 194.46557 255.474373 
L 194.46557 254.514005 
L 195.796121 254.514005 
L 195.796121 253.445385 
L 197.126673 253.445385 
L 197.126673 252.266704 
L 198.457224 252.266704 
L 198.457224 250.978252 
L 199.787776 250.978252 
L 199.787776 249.58272 
L 201.118327 249.58272 
L 201.118327 248.085477 
L 202.448879 248.085477 
L 202.448879 246.494772 
L 203.77943 246.494772 
L 203.77943 244.821878 
L 205.109981 244.821878 
L 205.109981 243.08113 
L 206.440533 243.08113 
L 206.440533 241.289875 
L 207.771084 241.289875 
L 207.771084 239.468296 
L 209.101636 239.468296 
L 209.101636 237.639132 
L 210.432187 237.639132 
L 210.432187 235.827272 
L 211.762738 235.827272 
L 211.762738 234.059243 
L 213.09329 234.059243 
L 213.09329 232.362598 
L 214.423841 232.362598 
L 214.423841 230.765231 
L 215.754393 230.765231 
L 215.754393 229.29462 
L 217.084944 229.29462 
L 217.084944 227.977059 
L 218.415496 227.977059 
L 218.415496 226.836873 
L 219.746047 226.836873 
L 219.746047 225.895679 
L 221.076598 225.895679 
L 221.076598 225.171701 
L 222.40715 225.171701 
L 222.40715 224.679186 
L 223.737701 224.679186 
L 223.737701 224.42794 
L 226.398804 224.422996 
L 226.398804 224.664455 
L 227.729355 224.664455 
L 227.729355 225.147476 
L 229.059907 225.147476 
L 229.059907 225.86244 
L 230.390458 225.86244 
L 230.390458 226.795271 
L 231.72101 226.795271 
L 231.72101 227.927892 
L 233.051561 227.927892 
L 233.051561 229.23881 
L 234.382113 229.23881 
L 234.382113 230.703793 
L 235.712664 230.703793 
L 235.712664 232.296612 
L 237.043215 232.296612 
L 237.043215 233.989821 
L 238.373767 233.989821 
L 238.373767 235.755528 
L 239.704318 235.755528 
L 239.704318 237.566154 
L 241.03487 237.566154 
L 241.03487 239.395116 
L 242.365421 239.395116 
L 242.365421 241.21745 
L 243.695972 241.21745 
L 243.695972 243.010324 
L 245.026524 243.010324 
L 245.026524 244.753445 
L 246.357075 244.753445 
L 246.357075 246.429349 
L 247.687627 246.429349 
L 247.687627 248.023578 
L 249.018178 248.023578 
L 249.018178 249.524738 
L 250.34873 249.524738 
L 250.34873 250.92446 
L 251.679281 250.92446 
L 251.679281 252.217264 
L 253.009832 252.217264 
L 253.009832 253.400356 
L 254.340384 253.400356 
L 254.340384 254.473357 
L 255.670935 254.473357 
L 255.670935 255.437997 
L 257.001487 255.437997 
L 257.001487 256.297786 
L 258.332038 256.297786 
L 258.332038 257.057667 
L 259.662589 257.057667 
L 259.662589 257.723687 
L 260.993141 257.723687 
L 260.993141 258.302673 
L 262.323692 258.302673 
L 262.323692 258.801943 
L 263.654244 258.801943 
L 263.654244 259.229046 
L 264.984795 259.229046 
L 264.984795 259.591535 
L 266.315346 259.591535 
L 266.315346 259.896786 
L 267.645898 259.896786 
L 267.645898 260.151852 
L 268.976449 260.151852 
L 268.976449 260.36335 
L 270.307001 260.36335 
L 270.307001 260.537387 
L 271.637552 260.537387 
L 271.637552 260.679518 
L 272.968104 260.679518 
L 272.968104 260.79472 
L 275.629206 260.8874 
L 275.629206 260.961406 
L 279.620861 261.06622 
L 279.620861 261.102269 
L 295.587478 261.212468 
L 295.587478 261.213526 
L 361.449773 261.216 
L 361.449773 261.216 
" clip-path="url(#pf85b54b012)" style="fill: none; stroke: #ff7f0e; stroke-width: 1.5; stroke-linecap: square"/>
   </g>
   <g id="line2d_35">
    <path d="M 36.795227 261.215863 
L 158.540682 261.126354 
L 158.540682 261.103073 
L 163.862887 260.996609 
L 163.862887 260.944836 
L 166.52399 260.882431 
L 166.52399 260.807604 
L 169.185093 260.718352 
L 169.185093 260.612457 
L 170.515645 260.612457 
L 170.515645 260.487476 
L 171.846196 260.487476 
L 171.846196 260.340753 
L 173.176747 260.340753 
L 173.176747 260.169424 
L 174.507299 260.169424 
L 174.507299 259.970432 
L 175.83785 259.970432 
L 175.83785 259.740555 
L 177.168402 259.740555 
L 177.168402 259.47644 
L 178.498953 259.47644 
L 178.498953 259.17464 
L 179.829504 259.17464 
L 179.829504 258.831672 
L 181.160056 258.831672 
L 181.160056 258.444078 
L 182.490607 258.444078 
L 182.490607 258.008497 
L 183.821159 258.008497 
L 183.821159 257.521746 
L 185.15171 257.521746 
L 185.15171 256.980911 
L 186.482262 256.980911 
L 186.482262 256.383444 
L 187.812813 256.383444 
L 187.812813 255.727265 
L 189.143364 255.727265 
L 189.143364 255.010865 
L 190.473916 255.010865 
L 190.473916 254.233417 
L 191.804467 254.233417 
L 191.804467 253.39487 
L 193.135019 253.39487 
L 193.135019 252.496052 
L 194.46557 252.496052 
L 194.46557 251.538756 
L 195.796121 251.538756 
L 195.796121 250.52581 
L 197.126673 250.52581 
L 197.126673 249.461138 
L 198.457224 249.461138 
L 198.457224 248.349794 
L 199.787776 248.349794 
L 199.787776 247.197975 
L 201.118327 247.197975 
L 201.118327 246.013012 
L 202.448879 246.013012 
L 202.448879 244.803326 
L 203.77943 244.803326 
L 203.77943 243.57836 
L 205.109981 243.57836 
L 205.109981 242.34848 
L 206.440533 242.34848 
L 206.440533 241.124847 
L 207.771084 241.124847 
L 207.771084 239.919266 
L 209.101636 239.919266 
L 209.101636 238.743998 
L 210.432187 238.743998 
L 210.432187 237.611566 
L 211.762738 237.611566 
L 211.762738 236.534535 
L 213.09329 236.534535 
L 213.09329 235.525281 
L 214.423841 235.525281 
L 214.423841 234.595758 
L 215.754393 234.595758 
L 215.754393 233.757258 
L 217.084944 233.757258 
L 217.084944 233.020188 
L 218.415496 233.020188 
L 218.415496 232.39385 
L 219.746047 232.39385 
L 219.746047 231.88625 
L 221.076598 231.88625 
L 221.076598 231.50392 
L 222.40715 231.50392 
L 222.40715 231.251788 
L 223.737701 231.251788 
L 223.737701 231.133062 
L 226.398804 231.149169 
L 226.398804 231.299725 
L 227.729355 231.299725 
L 227.729355 231.582547 
L 229.059907 231.582547 
L 229.059907 231.993704 
L 230.390458 231.993704 
L 230.390458 232.52761 
L 231.72101 232.52761 
L 231.72101 233.177149 
L 233.051561 233.177149 
L 233.051561 233.933833 
L 234.382113 233.933833 
L 234.382113 234.787984 
L 235.712664 234.787984 
L 235.712664 235.728939 
L 237.043215 235.728939 
L 237.043215 236.745275 
L 238.373767 236.745275 
L 238.373767 237.825029 
L 239.704318 237.825029 
L 239.704318 238.955937 
L 241.03487 238.955937 
L 241.03487 240.125654 
L 242.365421 240.125654 
L 242.365421 241.321979 
L 243.695972 241.321979 
L 243.695972 242.53305 
L 245.026524 242.53305 
L 245.026524 243.747537 
L 246.357075 243.747537 
L 246.357075 244.954793 
L 247.687627 244.954793 
L 247.687627 246.145001 
L 249.018178 246.145001 
L 249.018178 247.309273 
L 250.34873 247.309273 
L 250.34873 248.439737 
L 251.679281 248.439737 
L 251.679281 249.529589 
L 253.009832 249.529589 
L 253.009832 250.573117 
L 254.340384 250.573117 
L 254.340384 251.565704 
L 255.670935 251.565704 
L 255.670935 252.503806 
L 257.001487 252.503806 
L 257.001487 253.384906 
L 258.332038 253.384906 
L 258.332038 254.207457 
L 259.662589 254.207457 
L 259.662589 254.970808 
L 260.993141 254.970808 
L 260.993141 255.675117 
L 262.323692 255.675117 
L 262.323692 256.32126 
L 263.654244 256.32126 
L 263.654244 256.910732 
L 264.984795 256.910732 
L 264.984795 257.445551 
L 266.315346 257.445551 
L 266.315346 257.928161 
L 267.645898 257.928161 
L 267.645898 258.361336 
L 268.976449 258.361336 
L 268.976449 258.748093 
L 270.307001 258.748093 
L 270.307001 259.091609 
L 271.637552 259.091609 
L 271.637552 259.39515 
L 272.968104 259.39515 
L 272.968104 259.662003 
L 274.298655 259.662003 
L 274.298655 259.895419 
L 275.629206 259.895419 
L 275.629206 260.098568 
L 276.959758 260.098568 
L 276.959758 260.274499 
L 278.290309 260.274499 
L 278.290309 260.426111 
L 279.620861 260.426111 
L 279.620861 260.556128 
L 282.281963 260.667087 
L 282.281963 260.761325 
L 284.943066 260.840981 
L 284.943066 260.907991 
L 288.934721 261.010853 
L 288.934721 261.049636 
L 295.587478 261.147018 
L 295.587478 261.161224 
L 361.449773 261.216 
L 361.449773 261.216 
" clip-path="url(#pf85b54b012)" style="fill: none; stroke: #2ca02c; stroke-width: 1.5; stroke-linecap: square"/>
   </g>
   <g id="line2d_36">
    <path d="M 36.795227 261.215863 
L 133.260205 261.215946 
L 133.260205 214.202882 
L 134.590756 214.202882 
L 134.590756 256.387712 
L 135.921308 256.387712 
L 135.921308 261.097592 
L 137.251859 261.097592 
L 137.251859 256.043993 
L 138.582411 256.043993 
L 138.582411 261.083639 
L 139.912962 261.083639 
L 139.912962 255.516675 
L 141.243513 255.516675 
L 141.243513 261.070142 
L 142.574065 261.070142 
L 142.574065 254.935962 
L 143.904616 254.935962 
L 143.904616 261.055279 
L 145.235168 261.055279 
L 145.235168 254.296763 
L 146.565719 254.296763 
L 146.565719 261.038918 
L 147.89627 261.038918 
L 147.89627 253.593642 
L 149.226822 253.593642 
L 149.226822 261.020919 
L 150.557373 261.020919 
L 150.557373 252.820906 
L 151.887925 252.820906 
L 151.887925 261.001136 
L 153.218476 261.001136 
L 153.218476 251.97275 
L 154.549028 251.97275 
L 154.549028 260.97942 
L 155.879579 260.97942 
L 155.879579 251.043155 
L 157.21013 251.043155 
L 157.21013 260.955602 
L 158.540682 260.955602 
L 158.540682 250.030506 
L 159.871233 250.030506 
L 159.871233 260.929835 
L 161.201785 260.929835 
L 161.201785 248.868663 
L 162.532336 248.868663 
L 162.532336 260.897301 
L 163.862887 260.897301 
L 163.862887 248.470471 
L 165.193439 248.470471 
L 165.193439 260.926652 
L 166.52399 260.926652 
L 166.52399 21.729383 
L 167.854542 21.729383 
L 167.854542 236.781886 
L 169.185093 236.781886 
L 169.185093 260.614073 
L 170.515645 260.614073 
L 170.515645 236.573568 
L 171.846196 236.573568 
L 171.846196 260.582583 
L 173.176747 260.582583 
L 173.176747 235.609158 
L 174.507299 235.609158 
L 174.507299 260.551652 
L 175.83785 260.551652 
L 175.83785 236.337287 
L 177.168402 236.337287 
L 177.168402 260.649156 
L 178.498953 260.649156 
L 178.498953 19.296 
L 179.829504 19.296 
L 179.829504 236.682284 
L 181.160056 236.682284 
L 181.160056 260.609229 
L 182.490607 260.609229 
L 182.490607 237.707684 
L 183.821159 237.707684 
L 183.821159 260.608781 
L 185.15171 260.608781 
L 185.15171 238.130698 
L 186.482262 238.130698 
L 186.482262 260.619473 
L 187.812813 260.619473 
L 187.812813 238.646942 
L 189.143364 238.646942 
L 189.143364 260.632583 
L 190.473916 260.632583 
L 190.473916 239.253036 
L 191.804467 239.253036 
L 191.804467 260.648022 
L 193.135019 260.648022 
L 193.135019 239.943184 
L 194.46557 239.943184 
L 194.46557 260.665615 
L 195.796121 260.665615 
L 195.796121 240.717476 
L 197.126673 240.717476 
L 197.126673 260.68577 
L 198.457224 260.68577 
L 198.457224 241.47268 
L 199.787776 241.47268 
L 199.787776 260.70037 
L 201.118327 260.70037 
L 201.118327 243.404285 
L 202.448879 243.404285 
L 202.448879 260.807893 
L 203.77943 260.807893 
L 203.77943 158.791701 
L 205.109981 158.791701 
L 205.109981 250.916645 
L 206.440533 250.916645 
L 206.440533 260.959817 
L 207.771084 260.959817 
L 207.771084 252.008072 
L 209.101636 252.008072 
L 209.101636 260.976863 
L 210.432187 260.976863 
L 210.432187 252.746531 
L 211.762738 252.746531 
L 211.762738 260.993886 
L 213.09329 260.993886 
L 213.09329 253.90526 
L 214.423841 253.90526 
L 214.423841 261.047764 
L 215.754393 261.047764 
L 215.754393 228.676829 
L 217.084944 228.676829 
L 217.084944 257.963519 
L 218.415496 257.963519 
L 218.415496 261.134813 
L 219.746047 261.134813 
L 219.746047 258.431099 
L 221.076598 258.431099 
L 221.076598 261.142662 
L 222.40715 261.142662 
L 222.40715 258.909949 
L 223.737701 258.909949 
L 223.737701 261.162694 
L 225.068253 261.162694 
L 225.068253 252.86434 
L 226.398804 252.86434 
L 226.398804 260.386127 
L 227.729355 260.386127 
L 227.729355 261.195182 
L 229.059907 261.195182 
L 229.059907 260.540425 
L 230.390458 260.540425 
L 230.390458 261.198293 
L 231.72101 261.198293 
L 231.72101 260.651417 
L 233.051561 260.651417 
L 233.051561 261.201038 
L 234.382113 261.201038 
L 234.382113 260.774488 
L 235.712664 260.774488 
L 235.712664 261.205833 
L 237.043215 261.205833 
L 237.043215 259.600813 
L 238.373767 259.600813 
L 238.373767 261.042632 
L 239.704318 261.042632 
L 239.704318 261.201149 
L 361.449773 261.216 
L 361.449773 261.216 
" clip-path="url(#pf85b54b012)" style="fill: none; stroke: #d62728; stroke-width: 1.5; stroke-linecap: square"/>
   </g>
   <g id="patch_3">
    <path d="M 20.5625 273.312 
L 20.5625 7.2 
" style="fill: none; stroke: #000000; stroke-width: 0.8; stroke-linejoin: miter; stroke-linecap: square"/>
   </g>
   <g id="patch_4">
    <path d="M 377.6825 273.312 
L 377.6825 7.2 
" style="fill: none; stroke: #000000; stroke-width: 0.8; stroke-linejoin: miter; stroke-linecap: square"/>
   </g>
   <g id="patch_5">
    <path d="M 20.5625 273.312 
L 377.6825 273.312 
" style="fill: none; stroke: #000000; stroke-width: 0.8; stroke-linejoin: miter; stroke-linecap: square"/>
   </g>
   <g id="patch_6">
    <path d="M 20.5625 7.2 
L 377.6825 7.2 
" style="fill: none; stroke: #000000; stroke-width: 0.8; stroke-linejoin: miter; stroke-linecap: square"/>
   </g>
   <g id="legend_1">
    <g id="patch_7">
     <path d="M 297.315313 73.9125 
L 370.6825 73.9125 
Q 372.6825 73.9125 372.6825 71.9125 
L 372.6825 14.2 
Q 372.6825 12.2 370.6825 12.2 
L 297.315313 12.2 
Q 295.315313 12.2 295.315313 14.2 
L 295.315313 71.9125 
Q 295.315313 73.9125 297.315313 73.9125 
z
" style="fill: #ffffff; opacity: 0.8; stroke: #cccccc; stroke-linejoin: miter"/>
    </g>
    <g id="line2d_37">
     <path d="M 299.315313 20.298437 
L 304.315313 20.298437 
L 304.315313 20.298437 
L 314.315313 20.298437 
L 314.315313 20.298437 
L 319.315313 20.298437 
" style="fill: none; stroke: #1f77b4; stroke-width: 1.5; stroke-linecap: square"/>
    </g>
    <g id="text_17">
     <!-- initial -->
     <g transform="translate(327.315313 23.798437) scale(0.1 -0.1)">
      <defs>
       <path id="DejaVuSans-69" d="M 603 3500 
L 1178 3500 
L 1178 0 
L 603 0 
L 603 3500 
z
M 603 4863 
L 1178 4863 
L 1178 4134 
L 603 4134 
L 603 4863 
z
" transform="scale(0.015625)"/>
       <path id="DejaVuSans-6e" d="M 3513 2113 
L 3513 0 
L 2938 0 
L 2938 2094 
Q 2938 2591 2744 2837 
Q 2550 3084 2163 3084 
Q 1697 3084 1428 2787 
Q 1159 2491 1159 1978 
L 1159 0 
L 581 0 
L 581 3500 
L 1159 3500 
L 1159 2956 
Q 1366 3272 1645 3428 
Q 1925 3584 2291 3584 
Q 2894 3584 3203 3211 
Q 3513 2838 3513 2113 
z
" transform="scale(0.015625)"/>
       <path id="DejaVuSans-74" d="M 1172 4494 
L 1172 3500 
L 2356 3500 
L 2356 3053 
L 1172 3053 
L 1172 1153 
Q 1172 725 1289 603 
Q 1406 481 1766 481 
L 2356 481 
L 2356 0 
L 1766 0 
Q 1100 0 847 248 
Q 594 497 594 1153 
L 594 3053 
L 172 3053 
L 172 3500 
L 594 3500 
L 594 4494 
L 1172 4494 
z
" transform="scale(0.015625)"/>
       <path id="DejaVuSans-61" d="M 2194 1759 
Q 1497 1759 1228 1600 
Q 959 1441 959 1056 
Q 959 750 1161 570 
Q 1363 391 1709 391 
Q 2188 391 2477 730 
Q 2766 1069 2766 1631 
L 2766 1759 
L 2194 1759 
z
M 3341 1997 
L 3341 0 
L 2766 0 
L 2766 531 
Q 2569 213 2275 61 
Q 1981 -91 1556 -91 
Q 1019 -91 701 211 
Q 384 513 384 1019 
Q 384 1609 779 1909 
Q 1175 2209 1959 2209 
L 2766 2209 
L 2766 2266 
Q 2766 2663 2505 2880 
Q 2244 3097 1772 3097 
Q 1472 3097 1187 3025 
Q 903 2953 641 2809 
L 641 3341 
Q 956 3463 1253 3523 
Q 1550 3584 1831 3584 
Q 2591 3584 2966 3190 
Q 3341 2797 3341 1997 
z
" transform="scale(0.015625)"/>
       <path id="DejaVuSans-6c" d="M 603 4863 
L 1178 4863 
L 1178 0 
L 603 0 
L 603 4863 
z
" transform="scale(0.015625)"/>
      </defs>
      <use xlink:href="#DejaVuSans-69"/>
      <use xlink:href="#DejaVuSans-6e" transform="translate(27.783203 0)"/>
      <use xlink:href="#DejaVuSans-69" transform="translate(91.162109 0)"/>
      <use xlink:href="#DejaVuSans-74" transform="translate(118.945312 0)"/>
      <use xlink:href="#DejaVuSans-69" transform="translate(158.154297 0)"/>
      <use xlink:href="#DejaVuSans-61" transform="translate(185.9375 0)"/>
      <use xlink:href="#DejaVuSans-6c" transform="translate(247.216797 0)"/>
     </g>
    </g>
    <g id="line2d_38">
     <path d="M 299.315313 34.976562 
L 304.315313 34.976562 
L 304.315313 34.976562 
L 314.315313 34.976562 
L 314.315313 34.976562 
L 319.315313 34.976562 
" style="fill: none; stroke: #ff7f0e; stroke-width: 1.5; stroke-linecap: square"/>
    </g>
    <g id="text_18">
     <!-- analytic -->
     <g transform="translate(327.315313 38.476562) scale(0.1 -0.1)">
      <defs>
       <path id="DejaVuSans-79" d="M 2059 -325 
Q 1816 -950 1584 -1140 
Q 1353 -1331 966 -1331 
L 506 -1331 
L 506 -850 
L 844 -850 
Q 1081 -850 1212 -737 
Q 1344 -625 1503 -206 
L 1606 56 
L 191 3500 
L 800 3500 
L 1894 763 
L 2988 3500 
L 3597 3500 
L 2059 -325 
z
" transform="scale(0.015625)"/>
       <path id="DejaVuSans-63" d="M 3122 3366 
L 3122 2828 
Q 2878 2963 2633 3030 
Q 2388 3097 2138 3097 
Q 1578 3097 1268 2742 
Q 959 2388 959 1747 
Q 959 1106 1268 751 
Q 1578 397 2138 397 
Q 2388 397 2633 464 
Q 2878 531 3122 666 
L 3122 134 
Q 2881 22 2623 -34 
Q 2366 -91 2075 -91 
Q 1284 -91 818 406 
Q 353 903 353 1747 
Q 353 2603 823 3093 
Q 1294 3584 2113 3584 
Q 2378 3584 2631 3529 
Q 2884 3475 3122 3366 
z
" transform="scale(0.015625)"/>
      </defs>
      <use xlink:href="#DejaVuSans-61"/>
      <use xlink:href="#DejaVuSans-6e" transform="translate(61.279297 0)"/>
      <use xlink:href="#DejaVuSans-61" transform="translate(124.658203 0)"/>
      <use xlink:href="#DejaVuSans-6c" transform="translate(185.9375 0)"/>
      <use xlink:href="#DejaVuSans-79" transform="translate(213.720703 0)"/>
      <use xlink:href="#DejaVuSans-74" transform="translate(272.900391 0)"/>
      <use xlink:href="#DejaVuSans-69" transform="translate(312.109375 0)"/>
      <use xlink:href="#DejaVuSans-63" transform="translate(339.892578 0)"/>
     </g>
    </g>
    <g id="line2d_39">
     <path d="M 299.315313 49.654687 
L 304.315313 49.654687 
L 304.315313 49.654687 
L 314.315313 49.654687 
L 314.315313 49.654687 
L 319.315313 49.654687 
" style="fill: none; stroke: #2ca02c; stroke-width: 1.5; stroke-linecap: square"/>
    </g>
    <g id="text_19">
     <!-- UPWIND -->
     <g transform="translate(327.315313 53.154687) scale(0.1 -0.1)">
      <defs>
       <path id="DejaVuSans-55" d="M 556 4666 
L 1191 4666 
L 1191 1831 
Q 1191 1081 1462 751 
Q 1734 422 2344 422 
Q 2950 422 3222 751 
Q 3494 1081 3494 1831 
L 3494 4666 
L 4128 4666 
L 4128 1753 
Q 4128 841 3676 375 
Q 3225 -91 2344 -91 
Q 1459 -91 1007 375 
Q 556 841 556 1753 
L 556 4666 
z
" transform="scale(0.015625)"/>
       <path id="DejaVuSans-50" d="M 1259 4147 
L 1259 2394 
L 2053 2394 
Q 2494 2394 2734 2622 
Q 2975 2850 2975 3272 
Q 2975 3691 2734 3919 
Q 2494 4147 2053 4147 
L 1259 4147 
z
M 628 4666 
L 2053 4666 
Q 2838 4666 3239 4311 
Q 3641 3956 3641 3272 
Q 3641 2581 3239 2228 
Q 2838 1875 2053 1875 
L 1259 1875 
L 1259 0 
L 628 0 
L 628 4666 
z
" transform="scale(0.015625)"/>
       <path id="DejaVuSans-57" d="M 213 4666 
L 850 4666 
L 1831 722 
L 2809 4666 
L 3519 4666 
L 4500 722 
L 5478 4666 
L 6119 4666 
L 4947 0 
L 4153 0 
L 3169 4050 
L 2175 0 
L 1381 0 
L 213 4666 
z
" transform="scale(0.015625)"/>
       <path id="DejaVuSans-49" d="M 628 4666 
L 1259 4666 
L 1259 0 
L 628 0 
L 628 4666 
z
" transform="scale(0.015625)"/>
       <path id="DejaVuSans-4e" d="M 628 4666 
L 1478 4666 
L 3547 763 
L 3547 4666 
L 4159 4666 
L 4159 0 
L 3309 0 
L 1241 3903 
L 1241 0 
L 628 0 
L 628 4666 
z
" transform="scale(0.015625)"/>
       <path id="DejaVuSans-44" d="M 1259 4147 
L 1259 519 
L 2022 519 
Q 2988 519 3436 956 
Q 3884 1394 3884 2338 
Q 3884 3275 3436 3711 
Q 2988 4147 2022 4147 
L 1259 4147 
z
M 628 4666 
L 1925 4666 
Q 3281 4666 3915 4102 
Q 4550 3538 4550 2338 
Q 4550 1131 3912 565 
Q 3275 0 1925 0 
L 628 0 
L 628 4666 
z
" transform="scale(0.015625)"/>
      </defs>
      <use xlink:href="#DejaVuSans-55"/>
      <use xlink:href="#DejaVuSans-50" transform="translate(73.193359 0)"/>
      <use xlink:href="#DejaVuSans-57" transform="translate(133.496094 0)"/>
      <use xlink:href="#DejaVuSans-49" transform="translate(232.373047 0)"/>
      <use xlink:href="#DejaVuSans-4e" transform="translate(261.865234 0)"/>
      <use xlink:href="#DejaVuSans-44" transform="translate(336.669922 0)"/>
     </g>
    </g>
    <g id="line2d_40">
     <path d="M 299.315313 64.332812 
L 304.315313 64.332812 
L 304.315313 64.332812 
L 314.315313 64.332812 
L 314.315313 64.332812 
L 319.315313 64.332812 
" style="fill: none; stroke: #d62728; stroke-width: 1.5; stroke-linecap: square"/>
    </g>
    <g id="text_20">
     <!-- MPDATA -->
     <g transform="translate(327.315313 67.832812) scale(0.1 -0.1)">
      <defs>
       <path id="DejaVuSans-4d" d="M 628 4666 
L 1569 4666 
L 2759 1491 
L 3956 4666 
L 4897 4666 
L 4897 0 
L 4281 0 
L 4281 4097 
L 3078 897 
L 2444 897 
L 1241 4097 
L 1241 0 
L 628 0 
L 628 4666 
z
" transform="scale(0.015625)"/>
       <path id="DejaVuSans-41" d="M 2188 4044 
L 1331 1722 
L 3047 1722 
L 2188 4044 
z
M 1831 4666 
L 2547 4666 
L 4325 0 
L 3669 0 
L 3244 1197 
L 1141 1197 
L 716 0 
L 50 0 
L 1831 4666 
z
" transform="scale(0.015625)"/>
       <path id="DejaVuSans-54" d="M -19 4666 
L 3928 4666 
L 3928 4134 
L 2272 4134 
L 2272 0 
L 1638 0 
L 1638 4134 
L -19 4134 
L -19 4666 
z
" transform="scale(0.015625)"/>
      </defs>
      <use xlink:href="#DejaVuSans-4d"/>
      <use xlink:href="#DejaVuSans-50" transform="translate(86.279297 0)"/>
      <use xlink:href="#DejaVuSans-44" transform="translate(146.582031 0)"/>
      <use xlink:href="#DejaVuSans-41" transform="translate(221.833984 0)"/>
      <use xlink:href="#DejaVuSans-54" transform="translate(282.492188 0)"/>
      <use xlink:href="#DejaVuSans-41" transform="translate(335.826172 0)"/>
     </g>
    </g>
   </g>
  </g>
 </g>
 <defs>
  <clipPath id="pf85b54b012">
   <rect x="20.5625" y="7.2" width="357.12" height="266.112"/>
  </clipPath>
 </defs>
</svg>
